<svg xmlns="http://www.w3.org/2000/svg" xmlns:xlink="http://www.w3.org/1999/xlink" width="469.82" height="285.761" viewBox="0 0 469.82 285.761">
  <defs>
    <linearGradient id="linear-gradient" x1="-0.01" y1="0.492" x2="1.001" y2="0.492" gradientUnits="objectBoundingBox">
      <stop offset="0" stop-color="#cffaff"/>
      <stop offset="0.536" stop-color="#b6f6ff"/>
      <stop offset="1" stop-color="#9ef3ff"/>
    </linearGradient>
    <clipPath id="clip-path">
      <path id="Trazado_20390" data-name="Trazado 20390" d="M589.995,280.269c19.322-9.222,48.542-41.517,103.7-42.169,55.961-.661,113.7,45.347,113.877,115.7.178,69.449-33.513,106.536-87.156,128.944-41.416,17.3-90.96,14.266-127.15-1.794-30.507-13.538-57.776-27.55-97.916-35.841-46.454-9.6-76.6-65.269-48.945-104.909,14.452-20.718,27.346-37.1,77.236-42.077C553.211,295.175,562.488,293.4,589.995,280.269Z" transform="translate(-435.824 -238.093)" fill="none"/>
    </clipPath>
    <linearGradient id="linear-gradient-2" x1="0.057" y1="0.5" x2="1.057" y2="0.5" gradientUnits="objectBoundingBox">
      <stop offset="0" stop-color="#e0fcff"/>
      <stop offset="0.211" stop-color="#cef5fb"/>
      <stop offset="0.626" stop-color="#a2e4f3"/>
      <stop offset="1" stop-color="#76d3eb"/>
    </linearGradient>
    <linearGradient id="linear-gradient-3" x1="0.582" y1="0.107" x2="0.582" y2="0.993" gradientUnits="objectBoundingBox">
      <stop offset="0" stop-color="#dbfcff"/>
      <stop offset="0.194" stop-color="#c9f7ff"/>
      <stop offset="0.578" stop-color="#9decff"/>
      <stop offset="1" stop-color="#66dfff"/>
    </linearGradient>
    <linearGradient id="linear-gradient-4" x1="-2.312" y1="0.5" x2="-1.495" y2="0.5" gradientUnits="objectBoundingBox">
      <stop offset="0" stop-color="#abf5ff"/>
      <stop offset="0.507" stop-color="#c8f6fc"/>
      <stop offset="1" stop-color="#e1f7fa"/>
    </linearGradient>
    <linearGradient id="linear-gradient-5" x1="0.653" y1="0.107" x2="0.653" y2="0.993" gradientUnits="objectBoundingBox">
      <stop offset="0" stop-color="#ebfdff"/>
      <stop offset="0.428" stop-color="#d9f8ff"/>
      <stop offset="1" stop-color="#bdf1ff"/>
    </linearGradient>
    <linearGradient id="linear-gradient-6" x1="0.796" y1="-0.179" x2="0.009" y2="1.157" xlink:href="#linear-gradient-3"/>
    <linearGradient id="linear-gradient-8" x1="0.482" y1="0.017" x2="0.502" y2="0.878" xlink:href="#linear-gradient-5"/>
    <linearGradient id="linear-gradient-9" x1="0.507" y1="-0.053" x2="0.502" y2="0.641" gradientUnits="objectBoundingBox">
      <stop offset="0" stop-color="#ebfdff"/>
      <stop offset="0.338" stop-color="#e7fcff"/>
      <stop offset="0.599" stop-color="#def9ff"/>
      <stop offset="0.833" stop-color="#cdf5ff"/>
      <stop offset="1" stop-color="#bdf1ff"/>
    </linearGradient>
    <linearGradient id="linear-gradient-10" x1="1.186" y1="-0.573" x2="-0.238" y2="1.711" xlink:href="#linear-gradient-3"/>
    <linearGradient id="linear-gradient-11" x1="0.482" y1="0.01" x2="0.504" y2="0.968" xlink:href="#linear-gradient-5"/>
    <linearGradient id="linear-gradient-12" x1="0.481" y1="-0.018" x2="0.504" y2="0.983" xlink:href="#linear-gradient-5"/>
    <linearGradient id="linear-gradient-13" x1="0.466" y1="0.015" x2="0.506" y2="0.935" xlink:href="#linear-gradient-5"/>
    <linearGradient id="linear-gradient-14" x1="0.532" y1="0.025" x2="0.497" y2="0.869" xlink:href="#linear-gradient-5"/>
    <linearGradient id="linear-gradient-15" x1="0.579" y1="0.072" x2="0.583" y2="0.691" xlink:href="#linear-gradient-5"/>
    <linearGradient id="linear-gradient-16" x1="0.49" y1="-0.021" x2="0.504" y2="0.986" xlink:href="#linear-gradient-5"/>
    <linearGradient id="linear-gradient-17" x1="0.5" y1="-0.011" x2="0.5" y2="0.889" xlink:href="#linear-gradient-5"/>
    <linearGradient id="linear-gradient-18" x1="-2.01" y1="-0.769" x2="-1.881" y2="0.352" xlink:href="#linear-gradient-9"/>
  </defs>
  <g id="Grupo_9565" data-name="Grupo 9565" transform="translate(-692 -6649.116)">
    <g id="Grupo_9564" data-name="Grupo 9564" transform="translate(692 6649.116)">
      <g id="bubble" transform="translate(0 0)">
        <path id="Trazado_20319" data-name="Trazado 20319" d="M607.921,290.013c48.142-24.137,54.547-21.034,108.814-30.93,55.057-10.04,115.088,9.211,127.068,78.541,11.826,68.435-23.974,106.895-73.1,137.983-37.927,24-97.125,30.122-136.331,24.594-27.5-3.877-66.3-22.008-94.46-40.964-34.389-23.15-65.443-38.884-44.833-82.6,10.772-22.849-20.7-28.91,27.645-42.189C551.384,326.577,573.729,307.156,607.921,290.013Z" transform="translate(-376.257 -228.321)" opacity="0.3" fill="url(#linear-gradient)"/>
        <path id="Trazado_20320" data-name="Trazado 20320" d="M1311.562,375.785c.116-.043,11.691-4.194,20.99,3.613,4.467,3.75,7.64,10.432,8.706,18.333,1.061,7.868-.111,15.829-3.218,21.842l-.943-.487c6.271-12.14,3.682-31.4-5.227-38.875-8.832-7.415-19.829-3.471-19.939-3.43Z" transform="translate(-876.604 -300.079)" fill="#007484"/>
        <path id="Trazado_20321" data-name="Trazado 20321" d="M884.436,291.528l-.572.894c-7.791-4.981-19.889-6.728-29.35.6-7.824,6.058-6.327,17.646-6.311,17.763l-1.052.145c-.069-.5-1.592-12.316,6.713-18.747C863.735,284.538,876.331,286.347,884.436,291.528Z" transform="translate(-594.204 -246.823)" fill="#007484"/>
        <g id="Grupo_9540" data-name="Grupo 9540" transform="translate(203.32 6.346)">
          <path id="Trazado_20322" data-name="Trazado 20322" d="M777.97,205.8a.548.548,0,0,1-.244-1.039c.279-.139.568-.272.858-.395a.548.548,0,1,1,.429,1.009c-.271.115-.539.239-.8.367A.543.543,0,0,1,777.97,205.8Z" transform="translate(-755.229 -202.891)" fill="#007484"/>
          <path id="Trazado_20323" data-name="Trazado 20323" d="M808.561,204.574l-.05,0a19.391,19.391,0,0,1-1.974-.283.548.548,0,1,1,.211-1.076,18.417,18.417,0,0,0,1.862.267.548.548,0,0,1-.049,1.094Zm3.867-.051a.548.548,0,0,1-.062-1.093,18.757,18.757,0,0,0,1.856-.311.548.548,0,1,1,.235,1.071,19.916,19.916,0,0,1-1.965.329A.591.591,0,0,1,812.429,204.524Zm-9.5-1.3a.556.556,0,0,1-.166-.026c-.611-.193-1.228-.37-1.834-.526a.548.548,0,0,1,.273-1.062c.625.16,1.262.343,1.892.542a.548.548,0,0,1-.165,1.071Zm-13.385-1.129a.548.548,0,0,1-.1-1.087c.638-.12,1.3-.214,1.968-.278a.548.548,0,1,1,.1,1.091c-.635.061-1.264.15-1.869.264A.571.571,0,0,1,789.539,202.092Zm7.72-.145a.551.551,0,0,1-.071,0c-.636-.083-1.272-.144-1.892-.182a.548.548,0,0,1,.067-1.094c.645.039,1.306.1,1.966.189a.548.548,0,0,1-.07,1.092Z" transform="translate(-762.263 -200.666)" fill="#007484"/>
          <path id="Trazado_20324" data-name="Trazado 20324" d="M862.176,204.238a.548.548,0,0,1-.23-1.046c.489-.226.76-.385.762-.387a.548.548,0,0,1,.561.942c-.013.008-.317.188-.865.441A.547.547,0,0,1,862.176,204.238Z" transform="translate(-806.417 -201.919)" fill="#007484"/>
          <path id="Trazado_20325" data-name="Trazado 20325" d="M721.374,216.507a.548.548,0,0,1-.244-1.039c.279-.138.568-.271.858-.395a.548.548,0,1,1,.429,1.009c-.27.115-.539.239-.8.368A.542.542,0,0,1,721.374,216.507Z" transform="translate(-720.826 -209.397)" fill="#007484"/>
          <path id="Trazado_20326" data-name="Trazado 20326" d="M751.965,215.277l-.05,0a19.311,19.311,0,0,1-1.974-.283.548.548,0,1,1,.211-1.076,18.393,18.393,0,0,0,1.862.267.548.548,0,0,1-.049,1.094Zm3.868-.051a.548.548,0,0,1-.063-1.093,18.721,18.721,0,0,0,1.856-.311.548.548,0,1,1,.235,1.07,19.875,19.875,0,0,1-1.965.329A.6.6,0,0,1,755.833,215.227Zm-9.505-1.3a.554.554,0,0,1-.166-.025c-.611-.194-1.228-.371-1.833-.526a.548.548,0,0,1,.273-1.062c.625.161,1.261.343,1.892.543a.548.548,0,0,1-.165,1.071Zm-13.385-1.129a.548.548,0,0,1-.1-1.087c.638-.12,1.3-.214,1.968-.278a.548.548,0,1,1,.1,1.091c-.635.061-1.264.15-1.869.264A.572.572,0,0,1,732.943,212.795Zm7.72-.145a.548.548,0,0,1-.071,0c-.636-.082-1.272-.144-1.892-.181a.548.548,0,0,1,.067-1.094c.645.039,1.306.1,1.966.189a.548.548,0,0,1-.07,1.092Z" transform="translate(-727.859 -207.172)" fill="#007484"/>
          <path id="Trazado_20327" data-name="Trazado 20327" d="M805.58,214.941a.548.548,0,0,1-.23-1.046c.49-.226.76-.385.763-.387a.548.548,0,0,1,.561.942c-.013.007-.317.188-.865.441A.544.544,0,0,1,805.58,214.941Z" transform="translate(-772.013 -208.426)" fill="#007484"/>
        </g>
        <g id="Grupo_9541" data-name="Grupo 9541" transform="translate(122.731 38.681)">
          <path id="Trazado_20328" data-name="Trazado 20328" d="M515.85,288.269a.548.548,0,0,1-.244-1.039c.279-.139.568-.272.858-.395a.548.548,0,0,1,.429,1.009c-.271.115-.54.239-.8.368A.545.545,0,0,1,515.85,288.269Z" transform="translate(-515.301 -285.356)" fill="#007484"/>
          <path id="Trazado_20329" data-name="Trazado 20329" d="M546.44,287.039l-.05,0a19.269,19.269,0,0,1-1.974-.283.548.548,0,0,1,.211-1.076,18.315,18.315,0,0,0,1.861.267.548.548,0,0,1-.049,1.094Zm3.868-.05a.548.548,0,0,1-.063-1.093,18.77,18.77,0,0,0,1.857-.311.548.548,0,0,1,.235,1.071,19.877,19.877,0,0,1-1.965.329A.5.5,0,0,1,550.308,286.989Zm-9.505-1.3a.551.551,0,0,1-.165-.025c-.611-.193-1.228-.371-1.834-.526a.548.548,0,0,1,.273-1.062c.625.161,1.261.343,1.891.543a.548.548,0,0,1-.166,1.071Zm-13.384-1.129a.548.548,0,0,1-.1-1.087c.637-.12,1.3-.214,1.967-.278a.548.548,0,0,1,.105,1.092c-.636.061-1.264.15-1.869.264A.535.535,0,0,1,527.418,284.557Zm7.72-.145a.549.549,0,0,1-.071,0c-.635-.083-1.272-.143-1.891-.182a.548.548,0,1,1,.066-1.094c.645.039,1.306.1,1.966.189a.548.548,0,0,1-.07,1.092Z" transform="translate(-522.334 -283.131)" fill="#007484"/>
          <path id="Trazado_20330" data-name="Trazado 20330" d="M600.056,286.7a.548.548,0,0,1-.23-1.046c.489-.225.76-.385.762-.387a.548.548,0,0,1,.562.942c-.013.008-.317.188-.865.441A.544.544,0,0,1,600.056,286.7Z" transform="translate(-566.489 -284.384)" fill="#007484"/>
          <path id="Trazado_20331" data-name="Trazado 20331" d="M531.147,302.321a.548.548,0,0,1-.244-1.039c.279-.138.568-.271.858-.395a.548.548,0,0,1,.429,1.009c-.271.115-.54.238-.8.367A.541.541,0,0,1,531.147,302.321Z" transform="translate(-524.6 -293.898)" fill="#007484"/>
          <path id="Trazado_20332" data-name="Trazado 20332" d="M561.737,301.091l-.05,0a19.309,19.309,0,0,1-1.974-.283.548.548,0,0,1,.211-1.076,18.459,18.459,0,0,0,1.861.267.548.548,0,0,1-.049,1.094Zm3.868-.051a.548.548,0,0,1-.062-1.093,18.738,18.738,0,0,0,1.856-.311.548.548,0,1,1,.235,1.07,19.849,19.849,0,0,1-1.965.329A.588.588,0,0,1,565.6,301.041Zm-9.5-1.3a.556.556,0,0,1-.166-.026c-.611-.194-1.228-.371-1.834-.526a.548.548,0,0,1,.273-1.062c.625.161,1.262.343,1.892.543a.548.548,0,0,1-.165,1.071Zm-13.384-1.129a.548.548,0,0,1-.1-1.087c.637-.12,1.3-.214,1.967-.278a.548.548,0,0,1,.105,1.091c-.636.061-1.264.15-1.869.264A.567.567,0,0,1,542.716,298.609Zm7.72-.145a.491.491,0,0,1-.071,0c-.635-.082-1.272-.143-1.891-.181a.548.548,0,1,1,.066-1.094c.645.039,1.306.1,1.966.189a.548.548,0,0,1-.07,1.092Z" transform="translate(-531.633 -291.673)" fill="#007484"/>
          <path id="Trazado_20333" data-name="Trazado 20333" d="M615.353,300.755a.548.548,0,0,1-.23-1.046c.489-.226.76-.385.763-.387a.548.548,0,0,1,.561.942c-.013.007-.317.188-.865.441A.544.544,0,0,1,615.353,300.755Z" transform="translate(-575.787 -292.926)" fill="#007484"/>
        </g>
        <path id="Trazado_20334" data-name="Trazado 20334" d="M948.341,228.914a.392.392,0,0,1-.221-.716c.087-.06,8.9-6.029,23.267-10.219a119.425,119.425,0,0,1,34.4-4.526.392.392,0,0,1-.027.784,120.5,120.5,0,0,0-34.15,4.495c-14.246,4.155-22.957,10.054-23.044,10.113A.39.39,0,0,1,948.341,228.914Z" transform="translate(-655.569 -202.07)" fill="#007484"/>
        <path id="Trazado_20335" data-name="Trazado 20335" d="M904.942,893.4h-.008c-10.186-.221-43.624-2.815-75.606-12.034a.392.392,0,1,1,.217-.754c31.9,9.2,65.249,11.782,75.406,12a.392.392,0,0,1-.009.784Z" transform="translate(-583.289 -607.64)" fill="#007484"/>
        <path id="Trazado_20336" data-name="Trazado 20336" d="M522.265,405.606a.392.392,0,0,1-.236-.706,44.753,44.753,0,0,1,12.507-6.873.392.392,0,0,1,.269.737,44.024,44.024,0,0,0-12.305,6.764A.389.389,0,0,1,522.265,405.606Z" transform="translate(-396.565 -314.279)" fill="#007484"/>
        <path id="Trazado_20337" data-name="Trazado 20337" d="M1356.789,695.886a.392.392,0,0,1-.324-.613c6.085-8.925,12.074-22.213,14.134-29.407a.392.392,0,1,1,.754.216c-2.076,7.253-8.111,20.644-14.239,29.633A.392.392,0,0,1,1356.789,695.886Z" transform="translate(-903.859 -476.935)" fill="#007484"/>
        <path id="Trazado_20338" data-name="Trazado 20338" d="M586.3,378.6a.392.392,0,0,1-.124-.764c9.375-3.141,17.105-4.872,22.974-5.146a.392.392,0,0,1,.036.783c-5.8.27-13.455,1.988-22.762,5.106A.392.392,0,0,1,586.3,378.6Z" transform="translate(-435.493 -298.893)" fill="#007484"/>
        <path id="Trazado_20339" data-name="Trazado 20339" d="M1263.669,202.693c2.3,9.306,15.234,27.252,22.253,21.848s5.127-16.145-2.838-22.066C1274.873,196.371,1261.986,195.886,1263.669,202.693Z" transform="translate(-847.4 -192.543)" fill="#bdecf2"/>
        <path id="Trazado_20340" data-name="Trazado 20340" d="M207.3,683.77c2.3,9.306,9.368,18.853,16.387,13.449s6.679-12.386-1.287-18.307C214.184,672.807,205.613,676.963,207.3,683.77Z" transform="translate(-205.209 -483.234)" fill="#bdecf2"/>
        <path id="Trazado_20341" data-name="Trazado 20341" d="M1243.231,846.411c-6.287-1.429-13.138,4.579-13.536,9.356s11.745,11.347,18.911,5.773S1247.611,847.406,1243.231,846.411Z" transform="translate(-826.833 -586.728)" fill="#bdecf2"/>
        <path id="Trazado_20342" data-name="Trazado 20342" d="M1315.85,819.272c-4.527,1.331-5.773,8.083-2.19,8.481s10.949-2.787,10.949-5.972S1319.234,818.277,1315.85,819.272Z" transform="translate(-876.614 -570.056)" fill="#bdecf2"/>
        <path id="Trazado_20343" data-name="Trazado 20343" d="M1150.768,883.254c-5.429.744-5.986,7.174-5.079,9.924s7.272-2.441,9.216-6.058S1153.81,882.837,1150.768,883.254Z" transform="translate(-775.558 -609.188)" fill="#bdecf2"/>
        <path id="Trazado_20344" data-name="Trazado 20344" d="M202.619,794.231c1.85,5.158,8.256,4.375,10.758,2.92s-2.373-7.529-6.313-8.684S201.582,791.341,202.619,794.231Z" transform="translate(-202.305 -551.511)" fill="#bdecf2"/>
        <path id="Trazado_20345" data-name="Trazado 20345" d="M1175.332,186.225a7.3,7.3,0,0,1,1.85,1.413,3.425,3.425,0,0,1,.388,4.213,6.272,6.272,0,0,1-6.468,2.916h0a9.308,9.308,0,0,1-7.115-7.219,2.277,2.277,0,0,1,1-2.533C1167.025,184.025,1172.069,184.41,1175.332,186.225Zm-4.064,7.72a5.4,5.4,0,0,0,5.572-2.507,2.629,2.629,0,0,0-.276-3.234c-2.426-2.649-9.037-3.491-11.213-2.435-.633.307-.583,1.272-.532,1.673a8.41,8.41,0,0,0,6.449,6.5Zm-.083.411h0Z" transform="translate(-786.874 -184.483)" fill="#007484"/>
        <path id="Trazado_20346" data-name="Trazado 20346" d="M323.308,748.422a7.312,7.312,0,0,1-2.239-.639,3.426,3.426,0,0,1-1.9-3.779,6.273,6.273,0,0,1,4.954-5.079h0a9.309,9.309,0,0,1,9.262,4.118,2.277,2.277,0,0,1,0,2.722C331.844,747.432,327.009,748.918,323.308,748.422Zm.96-8.672a5.4,5.4,0,0,0-4.269,4.37,2.63,2.63,0,0,0,1.439,2.91c3.226,1.579,9.688-.056,11.326-1.834.477-.517.077-1.4-.116-1.752a8.411,8.411,0,0,0-8.38-3.695Zm-.073-.413h0Z" transform="translate(-273.316 -521.438)" fill="#007484"/>
        <g id="Grupo_9562" data-name="Grupo 9562" transform="translate(91.567 21.021)">
          <g id="Grupo_9561" data-name="Grupo 9561" clip-path="url(#clip-path)">
            <path id="Trazado_20347" data-name="Trazado 20347" d="M511.549,205.661c24.37-11.631,52.912-51.5,122.482-52.32,70.583-.834,143.4,57.2,143.632,145.937.224,87.6-42.269,134.373-109.929,162.635-52.237,21.82-141.318,10.886-188.9-4.282-33.374-10.64-64.1-28.522-106.649-33.33-59.451-6.718-84.939-92.181-50.062-142.179,18.229-26.132,34.491-46.79,97.417-53.071C456.841,225.329,476.855,222.219,511.549,205.661Z" transform="translate(-357.093 -186.568)" fill="url(#linear-gradient-2)"/>
            <g id="Grupo_9560" data-name="Grupo 9560" transform="translate(-189.623 55.164)">
              <path id="Trazado_20348" data-name="Trazado 20348" d="M1.22,504.6c18.773,0,29.822-26.878,54.066-26.878S86.2,490.327,111.1,490.327s30.63-31.365,56.455-31.365,39.943,13.526,56.513,13.526,21.613-28.93,46.94-28.93,32.128,20.151,59.319,20.151S369.156,423.8,400.465,423.8s81.1,24.872,92.069,33.724,17.544,155.034,17.544,155.034l-557.841,1.359,20.31-121.827S-23.159,504.6,1.22,504.6Z" transform="translate(47.764 -406.146)" fill="url(#linear-gradient-3)"/>
              <path id="Trazado_20349" data-name="Trazado 20349" d="M1056.761,386.906c1.877,0,.854-3.338,6.56-3.338,4.9,0,7.907,2.311,9.02,2.311s-.071-5.65,9.251-5.65c7.219,0,10.695,5.735,16.259,5.735s16.179,3.681,10.615,3.681h-56.155C1049.227,389.645,1050.6,386.906,1056.761,386.906Z" transform="translate(-619.988 -379.659)" fill="url(#linear-gradient-4)"/>
              <path id="Trazado_20350" data-name="Trazado 20350" d="M953.416,433.081c-5.354-11.483-27.09-54.306-69.361-54.306s-55.256,57.2-83.838,57.2-38.507-11.821-69.984-11.821S662.05,454.444,654.986,485.4s25.463,48.816,76.977,48.816,221.452-5.956,221.452-5.956Z" transform="translate(-378.842 -378.775)" fill="url(#linear-gradient-5)"/>
              <path id="Trazado_20351" data-name="Trazado 20351" d="M871.564,518.226c-.02.03-.038.061-.058.091a24.56,24.56,0,0,1-4.146,4.615,61.908,61.908,0,0,1-10.587,7.271c-3.778,2.12-7.706,4.015-11.7,5.771q-3,1.315-6.046,2.533l-1.525.605c-.533.221-1.079.437-1.612.672-1.075.456-2.136.953-3.193,1.466a56.591,56.591,0,0,0-11.979,7.788,41.77,41.77,0,0,0-9.463,11.447,34.215,34.215,0,0,0-4.282,14.875c-.272,5.283,2.636,17.436,4.7,22.253l14.982-3.053c-1.7-3.213-8.336-10.619-9.035-19.039a22.007,22.007,0,0,1,2.173-10.716,32.734,32.734,0,0,1,6.691-9.538,48.659,48.659,0,0,1,9.731-7.5c.9-.531,1.81-1.053,2.744-1.541.463-.252.934-.481,1.408-.727l1.506-.767q3.009-1.543,5.973-3.186c3.949-2.2,7.832-4.536,11.578-7.124a66.068,66.068,0,0,0,10.56-8.822,27.857,27.857,0,0,0,4.212-5.7c.171-.319.327-.648.477-.982Z" transform="translate(-471.804 -463.545)" fill="url(#linear-gradient-6)"/>
              <path id="Trazado_20352" data-name="Trazado 20352" d="M562.72,541.5c18.774,0,29.822-26.878,54.067-26.878s30.915,12.6,55.81,12.6,30.63-31.365,56.455-31.365,39.943,13.526,56.513,13.526,21.613-28.93,46.939-28.93,32.128,20.151,59.318,20.151S930.656,460.7,961.964,460.7s81.1,24.872,92.069,33.724,17.544,155.034,17.544,155.034L513.736,650.82l20.31-121.828S538.34,541.5,562.72,541.5Z" transform="translate(-293.563 -428.578)" fill="url(#linear-gradient-3)"/>
              <g id="Grupo_9544" data-name="Grupo 9544" transform="translate(306.058 89.253)">
                <path id="Trazado_20353" data-name="Trazado 20353" d="M739.089,606.445c-2.469-.385-5.075,1.419-4.06,4.867a13.331,13.331,0,0,1-1.269,9.581c-1.218,2.028-2.03,6.489,1.979,7.757s10.009-.614,7.867-6.185c-1.77-4.6-1.928-5.374-1.458-9.752C742.685,607.718,740.713,606.7,739.089,606.445Z" transform="translate(-732.764 -606.394)" fill="url(#linear-gradient-8)"/>
                <g id="Grupo_9543" data-name="Grupo 9543" transform="translate(1.898 2.313)">
                  <g id="Grupo_9542" data-name="Grupo 9542">
                    <path id="Trazado_20354" data-name="Trazado 20354" d="M745.923,637.169h-1.636l.7-24.758a.117.117,0,0,1,.118-.118h0a.117.117,0,0,1,.118.118Z" transform="translate(-741.667 -612.293)" fill="#3a3f53"/>
                    <path id="Trazado_20355" data-name="Trazado 20355" d="M743.548,626.42l-1.7-1.7.111-.111,1.7,1.7Z" transform="translate(-740.184 -619.781)" fill="#3a3f53"/>
                    <path id="Trazado_20356" data-name="Trazado 20356" d="M746.385,620.063l1.407-1.405-.111-.111-1.3,1.294Z" transform="translate(-742.942 -616.094)" fill="#3a3f53"/>
                    <path id="Trazado_20357" data-name="Trazado 20357" d="M740.985,649.1l-3.38-3.377.111-.111,3.38,3.377Z" transform="translate(-737.604 -632.55)" fill="#3a3f53"/>
                    <path id="Trazado_20358" data-name="Trazado 20358" d="M746.547,637.526l1.945-1.943-.111-.111-1.834,1.832Z" transform="translate(-743.04 -626.383)" fill="#3a3f53"/>
                  </g>
                </g>
              </g>
              <path id="Trazado_20359" data-name="Trazado 20359" d="M936.752,563.2c-13.668,12.148-25.71,27.437-49.638,27.437s-68-35.9-100.134-35.9-53.848,34.91-93.734,34.91S629.61,568.223,591.56,568.223s-40.687,30.034-103.543,30.034S394.666,571,341.943,571,304.1,702.134,304.1,702.134H936.752Z" transform="translate(-164.949 -485.738)" fill="url(#linear-gradient-9)"/>
              <path id="Trazado_20360" data-name="Trazado 20360" d="M940.394,651.747a35.523,35.523,0,0,0,10.043-8.061,30.536,30.536,0,0,0,3.651-5.411,34.151,34.151,0,0,0,2.406-5.861,51.694,51.694,0,0,0,2.052-11.813l.093-1.332c.038-.414.069-.83.127-1.241.1-.826.241-1.643.419-2.453a24.661,24.661,0,0,1,1.545-4.727A26.187,26.187,0,0,1,966.6,602.6a36.852,36.852,0,0,1,8.642-6.072,48.267,48.267,0,0,1,5.016-2.226q-2.674-.594-5.418-1.078c-.309.112-.618.224-.925.342a40.694,40.694,0,0,0-10.208,5.657,31.268,31.268,0,0,0-7.988,9.024,30.638,30.638,0,0,0-2.539,5.615c-.33.976-.616,1.967-.848,2.968-.125.5-.22,1-.322,1.507l-.259,1.43a44.265,44.265,0,0,1-2.837,9.871,22.94,22.94,0,0,1-5.294,7.72c-4.4,4.2-25.312,11.229-40.669,11.229l26.2,7.923A65.24,65.24,0,0,0,940.394,651.747Z" transform="translate(-530.157 -509.137)" fill="url(#linear-gradient-10)"/>
              <g id="Grupo_9551" data-name="Grupo 9551" transform="translate(369.223 79.104)">
                <g id="Grupo_9547" data-name="Grupo 9547" transform="translate(60.063 13.845)">
                  <path id="Trazado_20361" data-name="Trazado 20361" d="M1064.055,615.939c-6.647-.908-13.663,3.344-10.93,11.467s-.137,17.8-3.416,22.575-5.465,15.289,5.328,18.275,26.944-1.446,21.177-14.572c-4.764-10.843-5.192-12.661-3.925-22.976C1073.735,618.935,1068.427,616.536,1064.055,615.939Z" transform="translate(-1047.028 -615.818)" fill="url(#linear-gradient-11)"/>
                  <g id="Grupo_9546" data-name="Grupo 9546" transform="translate(5.109 5.449)">
                    <g id="Grupo_9545" data-name="Grupo 9545">
                      <path id="Trazado_20362" data-name="Trazado 20362" d="M1082.453,688.327h-4.4l1.885-58.335a.3.3,0,0,1,.317-.277h0a.3.3,0,0,1,.318.277Z" transform="translate(-1070.995 -629.715)" fill="#3a3f53"/>
                      <path id="Trazado_20363" data-name="Trazado 20363" d="M1076.06,663l-4.576-4,.3-.262,4.576,4Z" transform="translate(-1067.004 -647.358)" fill="#3a3f53"/>
                      <path id="Trazado_20364" data-name="Trazado 20364" d="M1083.7,648.022l3.788-3.311-.3-.262L1083.7,647.5Z" transform="translate(-1074.428 -638.671)" fill="#3a3f53"/>
                      <path id="Trazado_20365" data-name="Trazado 20365" d="M1069.159,716.449l-9.1-7.956.3-.262,9.1,7.956Z" transform="translate(-1060.058 -677.444)" fill="#3a3f53"/>
                      <path id="Trazado_20366" data-name="Trazado 20366" d="M1084.133,689.168l5.237-4.578-.3-.262-4.937,4.316Z" transform="translate(-1074.693 -662.913)" fill="#3a3f53"/>
                    </g>
                  </g>
                </g>
                <g id="Grupo_9550" data-name="Grupo 9550">
                  <path id="Trazado_20367" data-name="Trazado 20367" d="M908.117,580.631c-5.569-.909-11.447,3.347-9.157,11.474s-.115,17.809-2.862,22.59-4.579,15.3,4.464,18.287,22.574-1.447,17.742-14.582c-3.991-10.85-4.35-12.67-3.289-22.991C916.227,583.63,911.78,581.229,908.117,580.631Z" transform="translate(-893.852 -580.51)" fill="url(#linear-gradient-12)"/>
                  <g id="Grupo_9549" data-name="Grupo 9549" transform="translate(4.281 5.453)">
                    <g id="Grupo_9548" data-name="Grupo 9548">
                      <path id="Trazado_20368" data-name="Trazado 20368" d="M923.531,653.066h-3.689l1.579-58.373a.272.272,0,0,1,.266-.278h0a.272.272,0,0,1,.266.278Z" transform="translate(-913.931 -594.416)" fill="#3a3f53"/>
                      <path id="Trazado_20369" data-name="Trazado 20369" d="M918.175,627.725l-3.833-4,.251-.262,3.834,4Z" transform="translate(-910.588 -612.071)" fill="#3a3f53"/>
                      <path id="Trazado_20370" data-name="Trazado 20370" d="M924.574,612.736l3.173-3.313-.251-.263-2.922,3.051Z" transform="translate(-916.808 -603.379)" fill="#3a3f53"/>
                      <path id="Trazado_20371" data-name="Trazado 20371" d="M912.393,681.208l-7.624-7.961.251-.262,7.624,7.961Z" transform="translate(-904.769 -642.177)" fill="#3a3f53"/>
                      <path id="Trazado_20372" data-name="Trazado 20372" d="M924.939,653.909l4.387-4.581-.251-.262-4.136,4.319Z" transform="translate(-917.03 -627.636)" fill="#3a3f53"/>
                    </g>
                  </g>
                </g>
              </g>
              <g id="Grupo_9554" data-name="Grupo 9554" transform="translate(366.202 31.39)">
                <path id="Trazado_20373" data-name="Trazado 20373" d="M892.472,458.879c-2.469-.385-5.075,1.419-4.06,4.867a13.335,13.335,0,0,1-1.269,9.581c-1.218,2.028-2.03,6.489,1.979,7.756s10.008-.614,7.866-6.185c-1.77-4.6-1.928-5.374-1.458-9.752C896.068,460.15,894.1,459.132,892.472,458.879Z" transform="translate(-886.147 -458.827)" fill="url(#linear-gradient-13)"/>
                <g id="Grupo_9553" data-name="Grupo 9553" transform="translate(1.898 2.313)">
                  <g id="Grupo_9552" data-name="Grupo 9552" transform="translate(0)">
                    <path id="Trazado_20374" data-name="Trazado 20374" d="M899.307,489.6h-1.635l.7-24.759a.118.118,0,0,1,.118-.118h0a.118.118,0,0,1,.118.118Z" transform="translate(-895.05 -464.725)" fill="#3a3f53"/>
                    <path id="Trazado_20375" data-name="Trazado 20375" d="M896.931,478.853l-1.7-1.7.112-.111,1.7,1.7Z" transform="translate(-893.568 -472.213)" fill="#3a3f53"/>
                    <path id="Trazado_20376" data-name="Trazado 20376" d="M899.768,472.5l1.407-1.405-.111-.111-1.3,1.294Z" transform="translate(-896.325 -468.527)" fill="#3a3f53"/>
                    <rect id="Rectángulo_2401" data-name="Rectángulo 2401" width="0.158" height="4.778" transform="matrix(0.707, -0.708, 0.708, 0.707, 0, 13.178)" fill="#3a3f53"/>
                    <path id="Trazado_20377" data-name="Trazado 20377" d="M899.93,489.958l1.945-1.943-.111-.111-1.834,1.832Z" transform="translate(-896.424 -478.815)" fill="#3a3f53"/>
                  </g>
                </g>
              </g>
              <g id="Grupo_9557" data-name="Grupo 9557" transform="translate(411.443 45.997)">
                <path id="Trazado_20378" data-name="Trazado 20378" d="M1005.1,496.1c-1.395-.177-2.867.649-2.293,2.226a5.1,5.1,0,0,1-.717,4.383c-.688.928-1.147,2.969,1.118,3.548s5.653-.281,4.443-2.829c-1-2.105-1.089-2.458-.823-4.461C1007.127,496.684,1006.014,496.218,1005.1,496.1Z" transform="translate(-1001.524 -496.079)" fill="url(#linear-gradient-14)"/>
                <g id="Grupo_9556" data-name="Grupo 9556" transform="translate(1.072 1.058)">
                  <g id="Grupo_9555" data-name="Grupo 9555">
                    <path id="Trazado_20379" data-name="Trazado 20379" d="M1008.957,510.157h-.924l.4-11.326a.061.061,0,0,1,.067-.054h0a.061.061,0,0,1,.067.054Z" transform="translate(-1006.553 -498.777)" fill="#3a3f53"/>
                    <path id="Trazado_20380" data-name="Trazado 20380" d="M1007.615,505.24l-.96-.777.063-.051.96.777Z" transform="translate(-1005.715 -502.203)" fill="#3a3f53"/>
                    <path id="Trazado_20381" data-name="Trazado 20381" d="M1009.218,502.332l.795-.643-.063-.051-.732.592Z" transform="translate(-1007.273 -500.516)" fill="#3a3f53"/>
                    <path id="Trazado_20382" data-name="Trazado 20382" d="M1006.167,515.617l-1.909-1.545.063-.051,1.909,1.545Z" transform="translate(-1004.258 -508.044)" fill="#3a3f53"/>
                    <path id="Trazado_20383" data-name="Trazado 20383" d="M1009.309,510.32l1.1-.889-.063-.051-1.036.838Z" transform="translate(-1007.329 -505.223)" fill="#3a3f53"/>
                  </g>
                </g>
              </g>
              <path id="Trazado_20384" data-name="Trazado 20384" d="M744.534,739.369c-23.068,6-82.049,23.424-233.648-12.269s-287.227-7.171-305.02-3.7-20,50.3-20,50.3l556.543,21.28Z" transform="translate(-94.255 -579.714)" fill="url(#linear-gradient-15)"/>
              <g id="Grupo_9558" data-name="Grupo 9558" transform="translate(499.094 80.389)">
                <path id="Trazado_20385" data-name="Trazado 20385" d="M1229.2,583.789c-1.76,2.43-4.147,6.616-4.147,9.711s2.094,4.528,4.147,4.528,4.147-1.432,4.147-4.528S1230.963,586.219,1229.2,583.789Z" transform="translate(-1225.056 -583.789)" fill="url(#linear-gradient-16)"/>
                <path id="Trazado_20386" data-name="Trazado 20386" d="M1235.793,611.053h-.537l.252-12.96h.034Z" transform="translate(-1231.256 -592.484)" fill="#3a3f53"/>
              </g>
              <g id="Grupo_9559" data-name="Grupo 9559" transform="translate(436.725 15.164)">
                <path id="Trazado_20387" data-name="Trazado 20387" d="M1068.823,417.448c-1.2,1.828-2.823,4.978-2.823,7.307s1.425,3.408,2.823,3.408,2.823-1.078,2.823-3.408S1070.021,419.276,1068.823,417.448Z" transform="translate(-1066 -417.448)" fill="url(#linear-gradient-17)"/>
                <path id="Trazado_20388" data-name="Trazado 20388" d="M1073.31,437.962h-.366l.172-9.752h.023Z" transform="translate(-1070.221 -423.99)" fill="#3a3f53"/>
              </g>
            </g>
            <path id="Trazado_20389" data-name="Trazado 20389" d="M1011.25,741.819c-12.612-12.552-23.329-9.966-29.977.111s-26.03-12.216-36.217.266c-8.775,10.752,1.143,18.508-12.019,23.594-10.314,3.985-15.093-18.206-26.837-3.928s-14.709-7.465-29.038-1.757c-12.907,5.141-4.178,23.076-14.313,26.732s-12.293-11.773-27.64-6.953c-17.235,5.413-17.338,21.417-22.272,36.467s129.416,70.91,129.416,70.91l119.627-127.316Z" transform="translate(-664.985 -539.157)" fill="url(#linear-gradient-18)"/>
          </g>
        </g>
      </g>
      <g id="girl" transform="translate(60.312 73.452)">
        <ellipse id="shadow" cx="80.923" cy="10.938" rx="80.923" ry="10.938" transform="translate(0 185.242)" fill="#daf2f8" style="mix-blend-mode: multiply;isolation: isolate"/>
        <ellipse id="shadow-2" data-name="shadow" cx="53.359" cy="4.25" rx="53.359" ry="4.25" transform="translate(36.261 191.93)" fill="#daf2f8" style="mix-blend-mode: multiply;isolation: isolate"/>
        <path id="Trazado_20391" data-name="Trazado 20391" d="M488.363,863.953l-.672,3.223,5.227.537,2.022-1.818.336-.883,3.917-2.2v-1.3l-2.763-.23-5.193,1.03Z" transform="translate(-436.099 -669.344)" fill="#f04800"/>
        <path id="Trazado_20392" data-name="Trazado 20392" d="M578.05,866.278l-.921,2.241.272,1.575,15.838-.065.2-1.161-1.156-.938-5.088-1.313L583,865.612l-2.341-.522Z" transform="translate(-490.466 -671.664)" fill="#f04800"/>
        <path id="Trazado_20393" data-name="Trazado 20393" d="M540.662,442.584c1.73-.932,3.221-4.164,3.516-5.14s9.112,3.629,9.112,3.629-2.56,3.025-2.757,5.341S540.662,442.584,540.662,442.584Z" transform="translate(-468.299 -411.623)" fill="#f04800"/>
        <path id="Trazado_20394" data-name="Trazado 20394" d="M545.227,445.214c-2.338-1.216-4.565-2.63-4.565-2.63,1.73-.932,3.221-4.164,3.516-5.14s9.112,3.629,9.112,3.629A18.189,18.189,0,0,0,552,442.857,30.2,30.2,0,0,0,545.227,445.214Z" transform="translate(-468.299 -411.623)" fill="#d33119"/>
        <path id="Trazado_20395" data-name="Trazado 20395" d="M542.314,395.525a9.78,9.78,0,0,1,19.25,3.223h0l0,.018a9.861,9.861,0,0,1-.207,1.243q-.056.236-.123.467a32.687,32.687,0,0,1,.831,4.824c-.027.791-1.113,1.025-1.889,1.092-.482,3.1-.79,4.849-1.924,5.466-1.856,1.011-5.685.394-8.274-.193-3.555-.807-7.072-6.78-7.785-12.248A9.754,9.754,0,0,1,542.314,395.525Z" transform="translate(-469.143 -381.64)" fill="#f4b2a2"/>
        <path id="Trazado_20396" data-name="Trazado 20396" d="M542.314,395.525a9.775,9.775,0,0,1,19.2.94c-.975,1.4-2.86,2.1-4.64,2.784a19.4,19.4,0,0,0-1.994.9c-1.625.239-2.649-.94-4.066-1.49a6.723,6.723,0,0,0-2.872-.438,3.979,3.979,0,0,0-3.725,2.566c-.855,2.615,1.123,4.678,1.33,7.167,0,.051.008.1.012.156a20.328,20.328,0,0,1-3.373-8.69A9.754,9.754,0,0,1,542.314,395.525Z" transform="translate(-469.143 -381.64)" fill="#f4927a"/>
        <path id="Trazado_20397" data-name="Trazado 20397" d="M483.126,468.02A112.646,112.646,0,0,0,469.2,486.13a65.938,65.938,0,0,0-4.152,7.551,4.415,4.415,0,0,0,.858,4.969c2.1,2.116,6.237,5.523,14.083,9.782,12.5,6.784,7.562-1.521,7.562-1.521s-9.005-7.768-14.059-11.555a83.293,83.293,0,0,0,6.936-7.76c2.257-2.962,7.481-10.132,7.481-10.132Z" transform="translate(-422.083 -430.292)" fill="#f04800"/>
        <path id="Trazado_20398" data-name="Trazado 20398" d="M494.454,662.871h19.115c-2.057,9.789-5.891,26.916-8.474,34.052-1.592,12.14-11.145,46.571-11.145,46.571h-4.578s.2-24.679,4.578-43.884C494.91,686.961,494.246,674.635,494.454,662.871Z" transform="translate(-437.12 -548.739)" fill="#3e4357"/>
        <path id="Trazado_20399" data-name="Trazado 20399" d="M544.405,629.577h20.068c.381,18.128.92,44.41.92,48.3,0,6.022-2.573,44.505-2.573,44.505l-4.654.873s-4.818-32.474-4.3-47.443A282.714,282.714,0,0,1,544.405,629.577Z" transform="translate(-470.574 -528.5)" fill="#3e4357"/>
        <path id="Trazado_20400" data-name="Trazado 20400" d="M519.293,633.8,512.7,657.1a28.418,28.418,0,0,1-6.146.589,17.91,17.91,0,0,1-6.457-.9s-1.967-25.715-1.132-37.135a41.523,41.523,0,0,1,3.225-12.536s9.512,1.776,14.167,1.875,4.341,16.373,4.341,16.373Z" transform="translate(-442.827 -514.847)" fill="#3e4357"/>
        <path id="Trazado_20401" data-name="Trazado 20401" d="M500.435,656.907c3.12-7.325,8.99-13.776,16.733-15.593l2.126-7.516,1.405-8.432s.315-16.273-4.341-16.373-14.167-1.875-14.167-1.875a41.523,41.523,0,0,0-3.225,12.536c-.836,11.42,1.132,37.135,1.132,37.135S500.217,656.836,500.435,656.907Z" transform="translate(-442.827 -514.847)" fill="#222d33"/>
        <path id="Trazado_20402" data-name="Trazado 20402" d="M563.637,606.115c5.436,9.726.914,50.7.914,50.7a25.206,25.206,0,0,1-6.273.778c-5.09.145-6.474-.728-6.474-.728s-2.891-10.33-4.99-19.207c-1.056-4.464-3.636-9.755-3.636-12.714,0-6.691.181-16.559.181-16.559s5.564-.109,10.654-.72S563.637,606.115,563.637,606.115Z" transform="translate(-469.828 -514.238)" fill="#3e4357"/>
        <path id="Trazado_20403" data-name="Trazado 20403" d="M550.4,651.672c.319-3.641,1.078-7.067,3.509-9.911a18.5,18.5,0,0,1,9.489-6.094c.713-.168,1.724-.307,2.728-.514.453-11.47.228-24.17-2.493-29.039,0,0-4.534.938-9.624,1.549s-10.654.72-10.654.72-.181,9.868-.181,16.559c0,2.958,2.58,8.249,3.636,12.714,1.161,4.91,2.564,10.262,3.586,14.068Z" transform="translate(-469.828 -514.238)" fill="#222d33"/>
        <path id="Trazado_20404" data-name="Trazado 20404" d="M494.478,542.007c-2.71-25.662,9.592-36.748,9.9-46.5.249-7.935-5.952-28.269-5.8-32.722,2.263-5.007,6.486-6.79,14.685-7.5,10-.866,16.231,2.493,20.354,6.143,9.729,8.611-2.338,17.627-2,30.669.11,4.275,3.6,13.806,4.866,22.246a199.987,199.987,0,0,1,1.939,26.128s-16.956,2.853-26.063,3.194C505,543.944,494.478,542.007,494.478,542.007Z" transform="translate(-439.987 -422.47)" fill="#f04800"/>
        <path id="Trazado_20405" data-name="Trazado 20405" d="M520.363,457.7a1.975,1.975,0,0,0-1.808-.307,2.789,2.789,0,0,0-1.714,1.5v2.823h3.98Z" transform="translate(-453.818 -423.782)" fill="#14151c"/>
        <path id="Trazado_20406" data-name="Trazado 20406" d="M477.7,377.966c-.862-2.318-3.071-5.61-11.161-6.108-6.966-.429-10.636,1.76-14.76,4.069-3.63,2.032-7.851,1.585-12.1.371-4.4-1.257-12.69-1.727-18.537,1.2-6.2,3.107-10.084,5.388-13.766,6.711-6.122,2.2-7.435,9.389-3.7,14.857,3.82,5.592,12.279,6.643,19.375,2.673,5.857-3.277,12.92-1.276,18.5,1.369,9.174,4.345,17.518,4.214,22.283-2.909,1.1-1.652,1.741-5.327.385-6.383-1.51-1.177-1.974-3.25-.589-4.495,1.824-1.64,3.7,1.156,4.291.555.94-.953,1.666-2.014,5.738-2.669C477.961,386.519,478.79,380.9,477.7,377.966Z" transform="translate(-383.759 -371.804)" fill="#323949"/>
        <path id="Trazado_20407" data-name="Trazado 20407" d="M697.218,564.966l-2.829,1.255-2.23,1.234,4.243.818,1.594-.319Z" transform="translate(-560.391 -489.224)" fill="#f4b2a2"/>
        <path id="Trazado_20408" data-name="Trazado 20408" d="M704.925,630.935h0a1.537,1.537,0,0,1-1.537-1.537V478.146a1.537,1.537,0,0,1,1.537-1.537h0a1.537,1.537,0,0,1,1.537,1.537V629.4A1.537,1.537,0,0,1,704.925,630.935Z" transform="translate(-567.217 -435.513)" fill="#a2adb8"/>
        <g id="Grupo_9563" data-name="Grupo 9563" transform="translate(58.23 37.374)">
          <path id="Trazado_20409" data-name="Trazado 20409" d="M689.771,569.778l2.808-.992,5.943.876.868,2.883-.824,3.073-6.293.863-2.477-.758-1.566-2.66Z" transform="translate(-616.234 -528.92)" fill="#f4b2a2"/>
          <path id="Trazado_20410" data-name="Trazado 20410" d="M622.02,508.641a2.262,2.262,0,0,0-1.551-2.148c-5.731-1.9-21.7-7.747-22.927-8.56-1.417-.938-3.515-18.665-13.091-28.691-4.838-5.065-5.183.169-6.38,2.835-.811,1.808-1.55,5.482-1.208,6.575,3.1,9.912,10.531,25.184,14.46,27.946,3.717,2.612,21.526,6.578,28.977,8.112a1.432,1.432,0,0,0,1.72-1.4Z" transform="translate(-548.483 -467.116)" fill="#f04800"/>
          <path id="Trazado_20411" data-name="Trazado 20411" d="M504.619,541.535c.764.965,5.356,4.576,14.678,4.911s15.321-1.056,16.995-8.62-.144-24.153-.56-31.565-.5-16.749-6.428-16.523S504.619,541.535,504.619,541.535Z" transform="translate(-504.619 -480.866)" fill="#d33119"/>
        </g>
        <path id="Trazado_20412" data-name="Trazado 20412" d="M580.229,538.843c-.572,2.063-5.252,10.7-5.656,11.2s-.763,5.387-.763,5.387,5.886-7.676,7.7-12.749S580.229,538.843,580.229,538.843Z" transform="translate(-488.449 -473.263)" fill="#14151c"/>
        <path id="Trazado_20413" data-name="Trazado 20413" d="M557.7,463.437l6.965-3.864a2.941,2.941,0,0,1,2.476-.314c1.272.492.754,1.357.754,1.357l-5.324,3.045Z" transform="translate(-478.655 -424.87)" fill="#14151c"/>
        <path id="Trazado_20414" data-name="Trazado 20414" d="M511.177,491.619c1.587,2.762,3.7,9.212,3.658,21.395s-1.114,22.606-2.669,24.821-6.815,4.56-9.087,5.342-14.407-.456-20.385-1.042-8.232-7.443-8.779-11.509a47.809,47.809,0,0,1,1.247-17.873c1.913-7.687,5.913-18.411,9.524-21.494s17.736-.526,20.067-.4S511.177,491.619,511.177,491.619Z" transform="translate(-427.511 -443.499)" fill="#004fe6"/>
        <path id="Trazado_20415" data-name="Trazado 20415" d="M506.748,498.226c3.766.86,7.888,1.63,11.766,1.176,2.669-.312,4.878-2.108,7.441-2.692a21.422,21.422,0,0,0-1.95-5.09s-4.092-.625-6.424-.756-16.455-2.686-20.067.4a14.7,14.7,0,0,0-2.847,3.76C498.7,496.058,502.684,497.3,506.748,498.226Z" transform="translate(-440.34 -443.499)" fill="#0040ba"/>
        <path id="Trazado_20416" data-name="Trazado 20416" d="M543.262,496.535c-2.307,3.692-2.307,3.614-3.6,17.282-1.029,10.844-3.192,27.224-1.631,33.728a14.573,14.573,0,0,0,3.905-.24,35.827,35.827,0,0,0,4.809-2.132,28.844,28.844,0,0,0,2.669-10.464c.7-8.873,1.061-25.762-.309-30.79A12.854,12.854,0,0,0,543.262,496.535Z" transform="translate(-466.363 -447.626)" fill="#0040ba"/>
        <path id="Trazado_20417" data-name="Trazado 20417" d="M564.323,470.511c2.567.069,4.8,1.886,4.9,5.532a6.842,6.842,0,0,1-7.144,7.273c-4.691-.127-8.4-3.928-7.916-7.252s5.175-5.025,6.537-5.259A32.922,32.922,0,0,1,564.323,470.511Z" transform="translate(-476.477 -431.806)" fill="#0040ba"/>
        <path id="Trazado_20418" data-name="Trazado 20418" d="M488.528,466.926c-2.4.638-6.37,2.633-6.41,6.628-.041,4.242,3.468,6.393,11.571,6.613s24.619.97,24.619.97-5.1-1.851-4.854-6.358c.27-5,7.1-6.446,7.1-6.446Z" transform="translate(-432.711 -429.627)" fill="#004fe6"/>
        <path id="Trazado_20419" data-name="Trazado 20419" d="M494.124,466.926a11.642,11.642,0,0,0-2.8,1.181l30.5,2.127a13.224,13.224,0,0,1,4.327-1.9Z" transform="translate(-438.307 -429.627)" fill="#3c76e6"/>
      </g>
    </g>
  </g>
</svg>
