<svg xmlns="http://www.w3.org/2000/svg" xmlns:xlink="http://www.w3.org/1999/xlink" width="475.851" height="295.467" viewBox="0 0 475.851 295.467">
  <defs>
    <linearGradient id="linear-gradient" y1="0.5" x2="1" y2="0.5" gradientUnits="objectBoundingBox">
      <stop offset="0" stop-color="#fb0"/>
      <stop offset="1" stop-color="#ffe600"/>
    </linearGradient>
    <linearGradient id="linear-gradient-2" x1="8.312" y1="-5.315" x2="9.141" y2="-5.315" xlink:href="#linear-gradient"/>
    <radialGradient id="radial-gradient" cx="0.395" cy="0.544" r="0.99" gradientTransform="matrix(-0.512, 0, 0, 1, 5.282, 0)" gradientUnits="objectBoundingBox">
      <stop offset="0" stop-color="#ffc800"/>
      <stop offset="1" stop-color="#ffe600"/>
    </radialGradient>
    <clipPath id="clip-path">
      <path id="Trazado_19917" data-name="Trazado 19917" d="M420.288,398.047c68.272-16.265,84.744-38.853,129.769-64.033,43.778-24.482,85.349-26.442,122.776-17.291,44.517,10.884,90.986,55.3,91.57,112.876.463,45.68-30.122,74.011-69.74,85.4-47.42,13.632-104.587,16.793-167.632,16.793-50.746,0-136.246-4.6-156.344-35.508C349.721,464.046,356.622,413.215,420.288,398.047Z" transform="translate(-360.067 -311.687)" fill="none"/>
    </clipPath>
    <radialGradient id="radial-gradient-2" cx="0.5" cy="0.5" r="0.651" gradientTransform="translate(0.176) scale(0.647 1)" xlink:href="#radial-gradient"/>
    <linearGradient id="linear-gradient-7" x1="-2.792" y1="-0.025" x2="-2.792" y2="0.863" gradientUnits="objectBoundingBox">
      <stop offset="0" stop-color="#f80"/>
      <stop offset="0.689" stop-color="#ffb300"/>
      <stop offset="1" stop-color="#ffc800"/>
    </linearGradient>
    <linearGradient id="linear-gradient-8" x1="0.506" y1="0.955" x2="0.492" y2="-0.009" xlink:href="#linear-gradient-7"/>
    <linearGradient id="linear-gradient-9" x1="-19.009" y1="1" x2="-19.009" y2="-0.061" xlink:href="#linear-gradient-7"/>
    <linearGradient id="linear-gradient-10" x1="-2.4" y1="-0.174" x2="-2.4" y2="0.815" xlink:href="#linear-gradient-7"/>
    <linearGradient id="linear-gradient-11" x1="-2.803" y1="-0.135" x2="-2.803" y2="0.84" gradientUnits="objectBoundingBox">
      <stop offset="0" stop-color="#fa0"/>
      <stop offset="0.732" stop-color="#ffd500"/>
      <stop offset="1" stop-color="#ffe600"/>
    </linearGradient>
    <linearGradient id="linear-gradient-12" x1="-17.445" y1="1.158" x2="-17.238" y2="0.177" xlink:href="#linear-gradient-7"/>
    <linearGradient id="linear-gradient-13" x1="0.661" y1="-0.149" x2="0.789" y2="1.292" gradientUnits="objectBoundingBox">
      <stop offset="0" stop-color="#ffe600"/>
      <stop offset="0.268" stop-color="#ffd500"/>
      <stop offset="1" stop-color="#fa0"/>
    </linearGradient>
    <linearGradient id="linear-gradient-14" x1="1.227" y1="-0.723" x2="1.358" y2="0.684" xlink:href="#linear-gradient-13"/>
    <linearGradient id="linear-gradient-15" x1="0.443" y1="-0.658" x2="0.55" y2="1.898" xlink:href="#linear-gradient-13"/>
    <linearGradient id="linear-gradient-16" x1="2.079" y1="-5.083" x2="2.208" y2="-3.963" xlink:href="#linear-gradient-7"/>
  </defs>
  <g id="Grupo_9459" data-name="Grupo 9459" transform="translate(-687 -4791.484)">
    <g id="Grupo_9458" data-name="Grupo 9458" transform="translate(687 4791.484)">
      <g id="bubble" transform="translate(0 0)">
        <g id="Grupo_9422" data-name="Grupo 9422">
          <path id="Trazado_19716" data-name="Trazado 19716" d="M1235.309,777.478a32.478,32.478,0,0,1-12.169-2.63.4.4,0,1,1,.3-.74,31.649,31.649,0,0,0,11.854,2.565,19.736,19.736,0,0,0,14.063-5.578c6.34-6.09,8.716-16.029,6.884-21.14a.4.4,0,1,1,.752-.27c1.915,5.342-.522,15.685-7.082,21.986A20.51,20.51,0,0,1,1235.309,777.478Z" transform="translate(-817.82 -522.174)" fill="#e38e04"/>
          <path id="Trazado_19717" data-name="Trazado 19717" d="M1221.324,370.269h-.023a.4.4,0,0,1-.375-.421c.5-8.716-2.988-15.78-9.809-19.888-6.906-4.16-16.566-4.607-22.473-1.039a.4.4,0,1,1-.412-.683c6.14-3.709,16.156-3.262,23.3,1.039,7.088,4.269,10.708,11.592,10.194,20.618A.4.4,0,0,1,1221.324,370.269Z" transform="translate(-796.88 -279.617)" fill="#e38e04"/>
          <path id="Trazado_19718" data-name="Trazado 19718" d="M653.135,859.625q-.659,0-1.312-.038c-8.26-.486-14.869-5.286-18.609-13.517a.4.4,0,1,1,.726-.331c3.612,7.948,9.979,12.583,17.929,13.051,8.047.473,16.81-3.622,20.381-9.525a.4.4,0,0,1,.683.413C669.415,855.495,661.081,859.625,653.135,859.625Z" transform="translate(-463.496 -579.905)" fill="#e38e04"/>
          <path id="Trazado_19719" data-name="Trazado 19719" d="M214.316,670.507c13.962-1.726,24.963-10.183,21.8-19.131s-13.86-8.949-20.407-.529C209.289,659.1,203.023,671.9,214.316,670.507Z" transform="translate(-208.079 -459.191)" fill="url(#linear-gradient)"/>
          <path id="Trazado_19720" data-name="Trazado 19720" d="M1268.869,843.075c-10-1.347-3.644-10.483.676-13.593,8.1-5.831,14.532-5.147,20.757,1.816C1295.819,837.469,1284.065,845.122,1268.869,843.075Z" transform="translate(-842.245 -567.913)" fill="url(#linear-gradient-2)"/>
          <path id="Trazado_19721" data-name="Trazado 19721" d="M485.252,491.675c3.931-3.045-4.537-5.629-6.808-.629S480.29,495.518,485.252,491.675Z" transform="translate(-370.14 -365.239)" fill="url(#linear-gradient)"/>
          <path id="Trazado_19722" data-name="Trazado 19722" d="M353.85,827.286c6.224-.35,9.585,8.391,3.931,7.841S349.356,827.539,353.85,827.286Z" transform="translate(-294.32 -568.953)" fill="url(#linear-gradient)"/>
          <path id="Trazado_19723" data-name="Trazado 19723" d="M1119.828,859.984c6.337-2.973,11.267,7.39,4.572,6.945C1116.954,866.435,1114.45,862.507,1119.828,859.984Z" transform="translate(-754.165 -588.282)" fill="url(#linear-gradient)"/>
          <path id="Trazado_19724" data-name="Trazado 19724" d="M836.074,908.791c-4.285-2.968-.119-5.334,4.6-6.87S839.776,911.355,836.074,908.791Z" transform="translate(-584.33 -613.713)" fill="url(#linear-gradient)"/>
          <path id="Trazado_19725" data-name="Trazado 19725" d="M1384.356,888.973a3.052,3.052,0,0,1-1.594-.528c-2.315-1.433-3.37-2.764-3.224-4.068s1.535-2.428,4.127-3.32h0a1.871,1.871,0,0,1,2.277.95c1.035,1.651,1.111,5.048-.226,6.393A1.888,1.888,0,0,1,1384.356,888.973Zm-.076-7.228a1.068,1.068,0,0,0-.356.067c-2.242.772-3.486,1.69-3.593,2.654-.105.939.88,2.08,2.851,3.3.837.519,1.5.542,1.968.071.984-.99,1.047-3.92.116-5.406A1.182,1.182,0,0,0,1384.28,881.745Zm-.485-.31h0Z" transform="translate(-911.933 -601.203)" fill="#e38e04"/>
          <path id="Trazado_19726" data-name="Trazado 19726" d="M759.779,887.436a1.926,1.926,0,0,1-.9-.21c-1.236-.638-1.67-2.584-1.368-6.123h0a2.843,2.843,0,0,1,2.441-2.735,5.339,5.339,0,0,1,5.382,2.6c.39.828.722,2.488-1.425,4.3C762.2,886.72,760.833,887.436,759.779,887.436Zm-1.472-6.265c-.329,3.847.329,5.031.939,5.346.554.287,1.722.2,4.149-1.856,1.308-1.106,1.73-2.266,1.217-3.354a4.547,4.547,0,0,0-4.519-2.153,2.044,2.044,0,0,0-1.786,2.018Z" transform="translate(-538.145 -599.612)" fill="#e38e04"/>
          <path id="Trazado_19727" data-name="Trazado 19727" d="M500.679,889.1c-3.183,0-5.724-1.464-6.624-2.973a2.4,2.4,0,0,1,.405-3.169h0c2.13-1.966,5.842-1.546,8.576-.259,1.692.8,3.47,2.177,3.389,3.665-.035.641-.443,1.53-2.19,2.13A10.928,10.928,0,0,1,500.679,889.1Zm-2.276-6.7a4.909,4.909,0,0,0-3.4,1.147h0a1.6,1.6,0,0,0-.261,2.174c1.078,1.807,4.888,3.515,9.235,2.021.732-.251,1.613-.7,1.653-1.419.048-.886-1.13-2.052-2.932-2.9A10.428,10.428,0,0,0,498.4,882.4Zm-3.672.854h0Z" transform="translate(-379.655 -601.599)" fill="#e38e04"/>
          <path id="Trazado_19728" data-name="Trazado 19728" d="M1308.69,389.036a3.351,3.351,0,0,1-2.292-.952,4.446,4.446,0,0,1-1.1-5.092h0a2.5,2.5,0,0,1,2.632-1.422,5.286,5.286,0,0,1,3.854,3.874,2.618,2.618,0,0,1-1.082,2.941A3.625,3.625,0,0,1,1308.69,389.036Zm-2.7-5.655a3.615,3.615,0,0,0,.947,4.117,2.5,2.5,0,0,0,3.32.221,1.863,1.863,0,0,0,.745-2.1,4.554,4.554,0,0,0-3.19-3.259,1.711,1.711,0,0,0-1.821,1.021Z" transform="translate(-867.093 -301.136)" fill="#e38e04"/>
          <path id="Trazado_19729" data-name="Trazado 19729" d="M1201.433,856.884a4.006,4.006,0,0,1-3.561-1.964h0a4.9,4.9,0,0,1,.8-5.611c1.559-1.924,3.917-2.947,5.607-2.433.865.263,1.938,1.034,2.134,3.211.355,3.938-1.625,5.985-3.6,6.589A4.75,4.75,0,0,1,1201.433,856.884Zm1.914-9.344a5.74,5.74,0,0,0-4.049,2.271,4.254,4.254,0,0,0-.727,4.723h0a3.4,3.4,0,0,0,4.018,1.377c.811-.248,3.426-1.4,3.034-5.754a2.638,2.638,0,0,0-1.571-2.519A2.417,2.417,0,0,0,1203.347,847.54Z" transform="translate(-802.453 -580.649)" fill="#e38e04"/>
          <path id="Trazado_19730" data-name="Trazado 19730" d="M1168.67,896.665a3.015,3.015,0,0,1-2.683-2.181h0a2.489,2.489,0,0,1,.663-2.541,2.18,2.18,0,0,1,3.739,1.443c.424,2.572-.788,3.121-1.328,3.238A1.87,1.87,0,0,1,1168.67,896.665Zm-1.913-2.386a2.122,2.122,0,0,0,2.135,1.565c.67-.145.928-.993.708-2.328a1.581,1.581,0,0,0-.944-1.358,1.488,1.488,0,0,0-1.462.368,1.716,1.716,0,0,0-.437,1.752Z" transform="translate(-783.568 -607.419)" fill="#e38e04"/>
          <path id="Trazado_19731" data-name="Trazado 19731" d="M1347.119,814.1a3.014,3.014,0,0,1-2.684-2.18h0a2.489,2.489,0,0,1,.663-2.541,2.179,2.179,0,0,1,3.738,1.443c.424,2.573-.787,3.121-1.328,3.238A1.839,1.839,0,0,1,1347.119,814.1Zm-1.912-2.386a2.117,2.117,0,0,0,2.134,1.565c.67-.144.928-.992.709-2.328a1.58,1.58,0,0,0-.944-1.358,1.486,1.486,0,0,0-1.462.368,1.715,1.715,0,0,0-.436,1.752Z" transform="translate(-890.788 -557.813)" fill="#e38e04"/>
          <path id="Trazado_19732" data-name="Trazado 19732" d="M302.84,707.856c-.228,0-.461,0-.7-.006a1.725,1.725,0,0,1-1.9-1.5c-.262-2.008,2.211-5.36,4.409-5.979.788-.222,2.242-.295,3.137,1.714h0c.881,1.976,1,3.337.377,4.282C307.37,707.567,305.537,707.856,302.84,707.856Zm2.568-6.794a2.017,2.017,0,0,0-.547.081c-1.97.555-4.029,3.609-3.834,5.108.044.337.208.787,1.123.8,2.735.044,4.689-.131,5.342-1.121.453-.687.31-1.838-.439-3.517C306.649,701.508,306.108,701.062,305.409,701.062Z" transform="translate(-263.439 -492.639)" fill="#e38e04"/>
          <path id="Trazado_19733" data-name="Trazado 19733" d="M1381.484,595.888a.407.407,0,0,1-.086-.01.4.4,0,0,1-.3-.475c2.56-11.616,4.18-22.643,4.349-41.694.113-12.767-1.486-22.432-5.184-31.337a.4.4,0,0,1,.737-.307c3.741,9.01,5.358,18.771,5.245,31.65-.169,19.122-1.8,30.193-4.367,41.859A.4.4,0,0,1,1381.484,595.888Z" transform="translate(-912.355 -385.422)" fill="#e38e04"/>
          <path id="Trazado_19734" data-name="Trazado 19734" d="M1362.282,486.072a.4.4,0,0,1-.35-.208,110.137,110.137,0,0,0-6.157-9.491.4.4,0,1,1,.648-.467,111.081,111.081,0,0,1,6.209,9.573.4.4,0,0,1-.35.592Z" transform="translate(-897.617 -357.736)" fill="#e38e04"/>
          <path id="Trazado_19735" data-name="Trazado 19735" d="M1046.861,296.34a.4.4,0,0,1-.075-.007,62.563,62.563,0,0,0-12.466-.987.4.4,0,1,1-.04-.8,63.282,63.282,0,0,1,12.655,1,.4.4,0,0,1-.075.791Z" transform="translate(-704.267 -248.848)" fill="#e38e04"/>
          <path id="Trazado_19736" data-name="Trazado 19736" d="M997.949,297.589a.4.4,0,0,1-.078-.791,55.14,55.14,0,0,1,6.951-.951.406.406,0,0,1,.413.385.4.4,0,0,1-.385.413,54.215,54.215,0,0,0-6.824.936A.4.4,0,0,1,997.949,297.589Z" transform="translate(-682.426 -249.648)" fill="#e38e04"/>
          <g id="Grupo_9419" data-name="Grupo 9419" transform="translate(388.312 29.932)">
            <g id="Grupo_9418" data-name="Grupo 9418">
              <path id="Trazado_19737" data-name="Trazado 19737" d="M1233.357,259.832a.512.512,0,0,1-.228-.971c.261-.129.531-.253.8-.369a.512.512,0,0,1,.4.943c-.253.107-.5.223-.747.343A.51.51,0,0,1,1233.357,259.832Z" transform="translate(-1212.113 -257.11)" fill="#fd0"/>
              <path id="Trazado_19738" data-name="Trazado 19738" d="M1261.744,258.743l-.047,0a18.114,18.114,0,0,1-1.844-.264.512.512,0,0,1,.2-1.005,17.048,17.048,0,0,0,1.739.249.512.512,0,0,1-.046,1.022Zm3.613-.047a.512.512,0,0,1-.059-1.021,17.49,17.49,0,0,0,1.734-.29.512.512,0,0,1,.22,1,18.482,18.482,0,0,1-1.836.307A.491.491,0,0,1,1265.357,258.7Zm-8.879-1.217a.507.507,0,0,1-.154-.024c-.571-.18-1.147-.346-1.713-.491a.512.512,0,1,1,.255-.992c.584.15,1.179.321,1.767.507a.512.512,0,0,1-.155,1Zm-12.5-1.055a.512.512,0,0,1-.095-1.015c.6-.112,1.214-.2,1.838-.26a.512.512,0,0,1,.1,1.02c-.594.057-1.181.14-1.746.247A.521.521,0,0,1,1243.974,256.424Zm7.212-.135a.55.55,0,0,1-.067,0c-.593-.077-1.188-.134-1.767-.17a.512.512,0,0,1,.062-1.022c.6.037,1.22.1,1.837.176a.512.512,0,0,1-.065,1.02Z" transform="translate(-1218.493 -255.092)" fill="#fd0"/>
              <path id="Trazado_19739" data-name="Trazado 19739" d="M1310.634,258.395a.512.512,0,0,1-.215-.977c.457-.211.709-.36.712-.362a.512.512,0,0,1,.524.88c-.012.007-.3.176-.807.412A.512.512,0,0,1,1310.634,258.395Z" transform="translate(-1258.544 -256.229)" fill="#fd0"/>
              <path id="Trazado_19740" data-name="Trazado 19740" d="M1181.419,269.654a.512.512,0,0,1-.228-.971c.261-.129.531-.253.8-.369a.512.512,0,0,1,.4.942c-.253.108-.5.223-.747.344A.511.511,0,0,1,1181.419,269.654Z" transform="translate(-1180.907 -263.012)" fill="#fd0"/>
              <path id="Trazado_19741" data-name="Trazado 19741" d="M1209.806,268.565l-.047,0a18.158,18.158,0,0,1-1.844-.264.512.512,0,0,1,.2-1.005,17.109,17.109,0,0,0,1.739.25.512.512,0,0,1-.046,1.022Zm3.613-.047a.512.512,0,0,1-.058-1.021,17.483,17.483,0,0,0,1.734-.29.512.512,0,0,1,.219,1,18.556,18.556,0,0,1-1.836.308C1213.459,268.517,1213.439,268.518,1213.419,268.518Zm-8.88-1.217a.507.507,0,0,1-.154-.024c-.571-.181-1.147-.346-1.713-.491a.512.512,0,0,1,.255-.992c.584.15,1.179.321,1.767.507a.512.512,0,0,1-.155,1Zm-12.5-1.055a.512.512,0,0,1-.094-1.015c.6-.112,1.214-.2,1.838-.26a.512.512,0,0,1,.1,1.02c-.594.057-1.181.14-1.746.247A.522.522,0,0,1,1192.036,266.246Zm7.212-.135a.531.531,0,0,1-.067,0c-.594-.077-1.188-.134-1.767-.17a.512.512,0,0,1,.062-1.022c.6.037,1.22.1,1.837.176a.512.512,0,0,1-.065,1.02Z" transform="translate(-1187.286 -260.994)" fill="#fd0"/>
              <path id="Trazado_19742" data-name="Trazado 19742" d="M1258.7,268.217a.512.512,0,0,1-.215-.978c.458-.211.71-.36.713-.362a.512.512,0,0,1,.524.88c-.011.007-.3.176-.807.412A.507.507,0,0,1,1258.7,268.217Z" transform="translate(-1227.338 -262.13)" fill="#fd0"/>
            </g>
          </g>
          <g id="Grupo_9421" data-name="Grupo 9421" transform="translate(303.294)">
            <g id="Grupo_9420" data-name="Grupo 9420">
              <path id="Trazado_19743" data-name="Trazado 19743" d="M968.425,184.844a.512.512,0,0,1-.228-.971c.261-.13.531-.254.8-.369a.512.512,0,0,1,.4.943c-.253.107-.5.223-.746.343A.508.508,0,0,1,968.425,184.844Z" transform="translate(-967.912 -182.123)" fill="#fd0"/>
              <path id="Trazado_19744" data-name="Trazado 19744" d="M996.811,183.756l-.047,0a18.083,18.083,0,0,1-1.844-.264.512.512,0,0,1,.2-1.005,17.053,17.053,0,0,0,1.739.249.512.512,0,0,1-.046,1.022Zm3.613-.047a.512.512,0,0,1-.058-1.021,17.363,17.363,0,0,0,1.734-.29.512.512,0,1,1,.22,1,18.6,18.6,0,0,1-1.836.307A.5.5,0,0,1,1000.424,183.709Zm-8.879-1.217a.522.522,0,0,1-.155-.024c-.571-.18-1.147-.346-1.713-.491a.512.512,0,1,1,.255-.992c.584.15,1.179.321,1.767.507a.512.512,0,0,1-.155,1Zm-12.5-1.055a.512.512,0,0,1-.095-1.016c.6-.112,1.214-.2,1.838-.259a.512.512,0,1,1,.1,1.019c-.594.057-1.181.14-1.746.247A.522.522,0,0,1,979.042,181.437Zm7.212-.135a.469.469,0,0,1-.067,0c-.594-.077-1.188-.134-1.767-.169a.512.512,0,1,1,.062-1.022c.6.036,1.22.1,1.837.176a.512.512,0,0,1-.065,1.02Z" transform="translate(-974.292 -180.105)" fill="#fd0"/>
              <path id="Trazado_19745" data-name="Trazado 19745" d="M1045.7,183.407a.512.512,0,0,1-.215-.978c.457-.211.71-.36.712-.361a.512.512,0,0,1,.524.88c-.011.007-.3.176-.807.412A.507.507,0,0,1,1045.7,183.407Z" transform="translate(-1014.343 -181.242)" fill="#fd0"/>
              <path id="Trazado_19746" data-name="Trazado 19746" d="M982.463,197.74a.512.512,0,0,1-.228-.971c.26-.13.53-.254.8-.369a.512.512,0,1,1,.4.943c-.253.107-.5.223-.746.344A.512.512,0,0,1,982.463,197.74Z" transform="translate(-976.347 -189.871)" fill="#fd0"/>
              <path id="Trazado_19747" data-name="Trazado 19747" d="M1010.85,196.652l-.047,0a18.014,18.014,0,0,1-1.844-.264.512.512,0,0,1,.2-1.005,17.163,17.163,0,0,0,1.739.249.512.512,0,0,1-.045,1.022Zm3.613-.047a.512.512,0,0,1-.058-1.021,17.381,17.381,0,0,0,1.734-.29.512.512,0,1,1,.219,1,18.566,18.566,0,0,1-1.836.308C1014.5,196.6,1014.482,196.6,1014.462,196.6Zm-8.879-1.217a.512.512,0,0,1-.155-.024c-.57-.18-1.147-.346-1.713-.491a.512.512,0,0,1,.255-.992c.584.15,1.178.321,1.767.507a.512.512,0,0,1-.155,1Zm-12.5-1.055a.512.512,0,0,1-.095-1.016c.6-.112,1.214-.2,1.838-.259a.512.512,0,1,1,.1,1.019c-.594.057-1.181.14-1.746.247A.519.519,0,0,1,993.08,194.333Zm7.212-.135a.475.475,0,0,1-.067,0c-.593-.077-1.188-.134-1.767-.169a.512.512,0,1,1,.062-1.022c.6.036,1.22.1,1.837.176a.512.512,0,0,1-.065,1.02Z" transform="translate(-982.726 -187.854)" fill="#fd0"/>
              <path id="Trazado_19748" data-name="Trazado 19748" d="M1059.739,196.3a.512.512,0,0,1-.215-.978c.457-.211.71-.36.712-.361a.512.512,0,0,1,.524.88c-.012.007-.3.176-.807.412A.512.512,0,0,1,1059.739,196.3Z" transform="translate(-1022.778 -188.99)" fill="#fd0"/>
            </g>
          </g>
        </g>
        <path id="Trazado_19749" data-name="Trazado 19749" d="M595.356,350.86c38.42-7.483,166.655-1.989,181.749,96.292,12.852,83.685-77.932,103.8-127.633,94.987S626.2,541.6,557.836,549.5c-59.2,6.842-96.679,22.469-159.2-5.1-28.836-12.714-54.106-71.267-8.132-104.789C421.711,416.865,478.54,373.609,595.356,350.86Z" transform="translate(-302.486 -281.311)" opacity="0.2" fill="url(#radial-gradient)"/>
        <g id="Grupo_9455" data-name="Grupo 9455" transform="translate(60.667 52.522)">
          <g id="Grupo_9454" data-name="Grupo 9454" clip-path="url(#clip-path)">
            <rect id="Rectángulo_2265" data-name="Rectángulo 2265" width="465.416" height="301.224" transform="translate(-30.134 -48.057)" fill="url(#radial-gradient-2)"/>
            <path id="Trazado_19750" data-name="Trazado 19750" d="M450.9,550.951h-8.209v2.521l409.6-1s18.046-142.615,6.566-151.879-88.508-45.65-121.271-45.65-44.95,41.763-73.4,41.763-35.929-14.813-62.432-14.813-43.178,32.27-60.517,32.27-25.252-13.571-52.276-13.571c-20.637,0-24.123,10.285-38.532,19.332h.474Z" transform="translate(-409.709 -337.678)" fill="url(#linear-gradient-7)"/>
            <path id="Trazado_19751" data-name="Trazado 19751" d="M935.012,440.333c-5.6-12.017-28.349-56.83-72.583-56.83S804.6,443.364,774.7,443.364s-40.3-12.37-73.235-12.37-71.352,31.694-78.744,64.084,26.646,51.084,80.554,51.084,231.742-6.233,231.742-6.233Z" transform="translate(-517.274 -354.837)" fill="url(#linear-gradient-8)"/>
            <path id="Trazado_19752" data-name="Trazado 19752" d="M846.533,526.859c-.021.031-.04.064-.061.1a25.7,25.7,0,0,1-4.339,4.829,64.776,64.776,0,0,1-11.079,7.608c-3.954,2.219-8.064,4.2-12.245,6.039q-3.138,1.376-6.327,2.651l-1.6.633c-.558.232-1.129.457-1.687.7-1.125.477-2.236,1-3.342,1.534a59.214,59.214,0,0,0-12.536,8.15,43.716,43.716,0,0,0-9.9,11.979,35.809,35.809,0,0,0-4.482,15.566c-.285,5.528,2.759,18.246,4.918,23.288l15.678-3.195c-1.781-3.362-8.724-11.112-9.454-19.924a23.016,23.016,0,0,1,2.274-11.214,34.236,34.236,0,0,1,7-9.981,50.9,50.9,0,0,1,10.184-7.846c.942-.556,1.895-1.1,2.871-1.612.485-.263.977-.5,1.473-.76l1.576-.8q3.149-1.615,6.251-3.334c4.132-2.3,8.2-4.746,12.116-7.455a69.112,69.112,0,0,0,11.05-9.232,29.157,29.157,0,0,0,4.408-5.962c.179-.334.342-.679.5-1.027Z" transform="translate(-611.731 -440.972)" fill="url(#linear-gradient-9)"/>
            <path id="Trazado_19753" data-name="Trazado 19753" d="M385.595,501.875c16.839-5.787,25.946-18.954,47.156-18.954,27.185,0,23.718,25.149,50.383,31.053,17.365,3.845,28.825-13.831,56.466-11.752,31.778,2.389,38.068,30.9,64.789,30.9s29.719-20.8,61.446-19.7c35.544,1.226,42.209,36.377,62.36,36.377,26.168,0,24.909-14.78,24.909-14.78l21.8,130.765-389.308-.948Z" transform="translate(-375.405 -414.572)" fill="url(#linear-gradient-10)"/>
            <g id="Grupo_9424" data-name="Grupo 9424" transform="translate(78.763 97.488)">
              <path id="Trazado_19754" data-name="Trazado 19754" d="M564.008,555.975c-2.584-.4-5.311,1.485-4.249,5.093a13.954,13.954,0,0,1-1.328,10.026c-1.274,2.122-2.124,6.791,2.071,8.117s10.473-.642,8.232-6.472c-1.852-4.816-2.018-5.623-1.526-10.2C567.77,557.306,565.707,556.241,564.008,555.975Z" transform="translate(-557.389 -555.922)" fill="#e39400"/>
              <g id="Grupo_9423" data-name="Grupo 9423" transform="translate(1.986 2.42)">
                <path id="Trazado_19755" data-name="Trazado 19755" d="M570.947,588.017h-1.712l.732-25.909a.123.123,0,0,1,.123-.123h0a.123.123,0,0,1,.123.123Z" transform="translate(-566.493 -561.985)" fill="#ad5c00"/>
                <path id="Trazado_19756" data-name="Trazado 19756" d="M568.507,576.542l-1.779-1.777.117-.116,1.779,1.777Z" transform="translate(-564.986 -569.594)" fill="#ad5c00"/>
                <path id="Trazado_19757" data-name="Trazado 19757" d="M571.391,570l1.472-1.471-.117-.117-1.356,1.354Z" transform="translate(-567.788 -565.848)" fill="#ad5c00"/>
                <path id="Trazado_19758" data-name="Trazado 19758" d="M565.9,599.892l-3.537-3.534.117-.116,3.537,3.534Z" transform="translate(-562.365 -582.568)" fill="#ad5c00"/>
                <path id="Trazado_19759" data-name="Trazado 19759" d="M571.558,587.963l2.036-2.033-.117-.116-1.919,1.917Z" transform="translate(-567.888 -576.302)" fill="#ad5c00"/>
              </g>
            </g>
            <g id="Grupo_9425" data-name="Grupo 9425" transform="translate(-7.087 103.509)">
              <path id="Trazado_19760" data-name="Trazado 19760" d="M760.828,572.068c-15.93,9.628-32.568,20.464-54.846,20.464-40.085,0-63.953-21.527-102.192-21.527s-40.89,30.183-104.058,30.183-93.815-27.393-146.8-27.393c-.934,0-5.971.2-6.863.285l-3.757,120.006v11.5H760.828Z" transform="translate(-342.313 -571.005)" fill="url(#linear-gradient-11)"/>
              <path id="Trazado_19761" data-name="Trazado 19761" d="M899.511,633.857a35.7,35.7,0,0,0,10.093-8.1,30.68,30.68,0,0,0,3.669-5.438,34.278,34.278,0,0,0,2.418-5.89,51.942,51.942,0,0,0,2.062-11.872l.093-1.338c.039-.416.07-.835.128-1.247.1-.83.242-1.651.421-2.465a24.807,24.807,0,0,1,1.553-4.75,26.306,26.306,0,0,1,5.9-8.285,37.037,37.037,0,0,1,8.686-6.1,48.443,48.443,0,0,1,5.04-2.237q-2.687-.6-5.445-1.083c-.311.113-.621.224-.93.343a40.9,40.9,0,0,0-10.259,5.685,31.417,31.417,0,0,0-8.027,9.069,30.778,30.778,0,0,0-2.552,5.643c-.331.981-.619,1.977-.852,2.983-.125.5-.221,1.009-.324,1.515l-.26,1.438a44.5,44.5,0,0,1-2.852,9.92,23.047,23.047,0,0,1-5.32,7.758c-4.425,4.221-25.438,11.285-40.871,11.285l26.333,7.962A65.514,65.514,0,0,0,899.511,633.857Z" transform="translate(-654.489 -573.434)" fill="url(#linear-gradient-12)"/>
            </g>
            <g id="Grupo_9430" data-name="Grupo 9430" transform="translate(47.975 109.419)">
              <g id="Grupo_9427" data-name="Grupo 9427" transform="translate(285.909)">
                <path id="Trazado_19762" data-name="Trazado 19762" d="M1214.358,585.939c-6.956-.95-14.3,3.5-11.438,12s-.143,18.624-3.575,23.624-5.719,16,5.576,19.124,28.2-1.514,22.161-15.249c-4.985-11.347-5.433-13.249-4.107-24.044C1224.487,589.075,1218.933,586.564,1214.358,585.939Z" transform="translate(-1196.54 -585.813)" fill="#e39400"/>
                <g id="Grupo_9426" data-name="Grupo 9426" transform="translate(5.347 5.703)">
                  <path id="Trazado_19763" data-name="Trazado 19763" d="M1233.038,661.434h-4.608l1.972-61.045a.313.313,0,0,1,.332-.29h0a.313.313,0,0,1,.332.29Z" transform="translate(-1221.048 -600.099)" fill="#ad5c00"/>
                  <path id="Trazado_19764" data-name="Trazado 19764" d="M1226.469,634.4l-4.788-4.186.314-.274,4.788,4.186Z" transform="translate(-1216.992 -618.026)" fill="#ad5c00"/>
                  <path id="Trazado_19765" data-name="Trazado 19765" d="M1234.236,618.985l3.964-3.465-.314-.274-3.65,3.191Z" transform="translate(-1224.536 -609.2)" fill="#ad5c00"/>
                  <path id="Trazado_19766" data-name="Trazado 19766" d="M1219.458,689.414l-9.523-8.325.314-.275,9.523,8.326Z" transform="translate(-1209.935 -648.596)" fill="#ad5c00"/>
                  <path id="Trazado_19767" data-name="Trazado 19767" d="M1234.684,661.306l5.48-4.791-.314-.274-5.166,4.516Z" transform="translate(-1224.805 -633.832)" fill="#ad5c00"/>
                </g>
              </g>
              <g id="Grupo_9429" data-name="Grupo 9429" transform="translate(0 4.119)">
                <path id="Trazado_19768" data-name="Trazado 19768" d="M490.259,596.215c-3.9-.637-8.025,2.346-6.42,8.044s-.081,12.485-2.007,15.837-3.21,10.726,3.13,12.821,15.826-1.015,12.439-10.223c-2.8-7.607-3.049-8.882-2.306-16.118C495.945,598.317,492.827,596.634,490.259,596.215Z" transform="translate(-480.258 -596.131)" fill="#ad5c00"/>
                <g id="Grupo_9428" data-name="Grupo 9428" transform="translate(3.001 3.823)">
                  <path id="Trazado_19769" data-name="Trazado 19769" d="M500.744,646.826h-2.586l1.107-40.923a.191.191,0,0,1,.186-.194h0a.19.19,0,0,1,.186.194Z" transform="translate(-494.014 -605.708)" fill="#e39400"/>
                  <path id="Trazado_19770" data-name="Trazado 19770" d="M497.057,628.7l-2.687-2.806.176-.184,2.688,2.806Z" transform="translate(-491.738 -617.726)" fill="#e39400"/>
                  <path id="Trazado_19771" data-name="Trazado 19771" d="M501.417,618.369l2.225-2.323-.176-.184L501.417,618Z" transform="translate(-495.972 -611.809)" fill="#e39400"/>
                  <path id="Trazado_19772" data-name="Trazado 19772" d="M493.122,665.583,487.777,660l.176-.184L493.3,665.4Z" transform="translate(-487.777 -638.219)" fill="#e39400"/>
                  <path id="Trazado_19773" data-name="Trazado 19773" d="M501.668,646.74l3.076-3.212-.176-.184-2.9,3.028Z" transform="translate(-496.123 -628.321)" fill="#e39400"/>
                </g>
              </g>
            </g>
            <g id="Grupo_9432" data-name="Grupo 9432" transform="translate(314.051 102.567)">
              <path id="Trazado_19774" data-name="Trazado 19774" d="M1152.392,568.69c-2.163-.338-4.447,1.244-3.557,4.264a11.683,11.683,0,0,1-1.112,8.395c-1.067,1.777-1.779,5.686,1.734,6.8s8.77-.538,6.893-5.419c-1.551-4.032-1.69-4.708-1.278-8.544C1155.543,569.8,1153.815,568.912,1152.392,568.69Z" transform="translate(-1146.851 -568.646)" fill="#e39400"/>
              <g id="Grupo_9431" data-name="Grupo 9431" transform="translate(1.663 2.026)">
                <path id="Trazado_19775" data-name="Trazado 19775" d="M1158.2,595.518h-1.433l.613-21.693a.1.1,0,0,1,.1-.1h0a.1.1,0,0,1,.1.1Z" transform="translate(-1154.473 -573.722)" fill="#ad5c00"/>
                <path id="Trazado_19776" data-name="Trazado 19776" d="M1156.159,585.91l-1.489-1.487.1-.1,1.489,1.487Z" transform="translate(-1153.212 -580.093)" fill="#ad5c00"/>
                <path id="Trazado_19777" data-name="Trazado 19777" d="M1158.575,580.434l1.233-1.231-.1-.1-1.135,1.134Z" transform="translate(-1155.558 -576.956)" fill="#ad5c00"/>
                <path id="Trazado_19778" data-name="Trazado 19778" d="M1153.979,605.461l-2.962-2.958.1-.1,2.962,2.958Z" transform="translate(-1151.017 -590.956)" fill="#ad5c00"/>
                <path id="Trazado_19779" data-name="Trazado 19779" d="M1158.714,595.472l1.7-1.7-.1-.1-1.606,1.6Z" transform="translate(-1155.642 -585.709)" fill="#ad5c00"/>
              </g>
            </g>
            <g id="Grupo_9434" data-name="Grupo 9434" transform="translate(211.625 67.983)">
              <path id="Trazado_19780" data-name="Trazado 19780" d="M893.984,482.027c-1.459-.184-3,.679-2.4,2.33a5.339,5.339,0,0,1-.75,4.587c-.72.971-1.2,3.106,1.169,3.713s5.916-.294,4.65-2.961c-1.046-2.2-1.14-2.573-.862-4.668C896.11,482.636,894.944,482.148,893.984,482.027Z" transform="translate(-890.246 -482.003)" fill="#e39400"/>
              <g id="Grupo_9433" data-name="Grupo 9433" transform="translate(1.122 1.107)">
                <path id="Trazado_19781" data-name="Trazado 19781" d="M897.9,496.685h-.967l.414-11.853a.064.064,0,0,1,.07-.056h0a.064.064,0,0,1,.069.056Z" transform="translate(-895.388 -484.776)" fill="#ad5c00"/>
                <path id="Trazado_19782" data-name="Trazado 19782" d="M896.525,491.436l-1-.813.066-.053,1,.813Z" transform="translate(-894.537 -488.257)" fill="#ad5c00"/>
                <path id="Trazado_19783" data-name="Trazado 19783" d="M898.155,488.443l.832-.673-.066-.053-.766.619Z" transform="translate(-896.12 -486.543)" fill="#ad5c00"/>
                <path id="Trazado_19784" data-name="Trazado 19784" d="M895.054,502.118l-2-1.616.066-.053,2,1.616Z" transform="translate(-893.056 -494.192)" fill="#ad5c00"/>
                <path id="Trazado_19785" data-name="Trazado 19785" d="M898.249,496.66l1.15-.93-.066-.053-1.084.877Z" transform="translate(-896.176 -491.326)" fill="#ad5c00"/>
              </g>
            </g>
            <path id="Trazado_19786" data-name="Trazado 19786" d="M955.828,719.631c-54.636-22.026-156.12-51.815-246.649-52.75s-205.824,14.864-205.824,14.864L503.9,788.38l454.377-3.125Z" transform="translate(-446.16 -525.079)" fill="url(#linear-gradient-13)"/>
            <path id="Trazado_19787" data-name="Trazado 19787" d="M592.787,722.958C538.152,700.932,420.376,668,329.848,667.066S135.01,692.329,135.01,692.329l-5.566,103.465,454.376-3.125Z" transform="translate(-221.499 -525.199)" fill="url(#linear-gradient-14)"/>
            <path id="Trazado_19788" data-name="Trazado 19788" d="M271.012,763.325c55.408-10.432,158.328-24.539,250.137-24.982s202.537,8.54,202.537,8.54l5.645,49-460.8-1.48Z" transform="translate(-305.067 -568.031)" fill="url(#linear-gradient-15)"/>
            <g id="Grupo_9435" data-name="Grupo 9435" transform="translate(-5.526 91.684)">
              <path id="Trazado_19789" data-name="Trazado 19789" d="M397.218,643.643c-12.451-2.178-34.176-20.9-25.8-27.145,12.2-9.091-3.993-15.38-14.1-18.483s-14.1-14.123-3.419-18.2,3.295-10.3-5.127-19.118c-6.126-6.416-.565-21.792,9.793-18.976,16.4,4.456,19.323,33.619,25.5,24.954,3.966-5.561,14.093-7.781,14.557,3.057s1.949,29.618,8.053,25.987,11.625-3.212,13.966,8.5,5.26,22.544-2.418,31.672S402.266,644.526,397.218,643.643Z" transform="translate(-346.223 -541.381)" fill="#e39400"/>
              <path id="Trazado_19790" data-name="Trazado 19790" d="M429.059,664.543c-7.008-21.531-24.235-51.294-51.205-88.462-.831-1.146-1.495-2.06-1.962-2.716l.308-.22c.467.655,1.13,1.569,1.96,2.713,4.836,6.665,14.9,20.535,25.208,36.98,12.783,20.394,21.547,37.75,26.051,51.588Z" transform="translate(-364.049 -560.466)" fill="#fff"/>
              <rect id="Rectángulo_2266" data-name="Rectángulo 2266" width="0.378" height="9.145" transform="translate(11.564 23.379) rotate(-80.129)" fill="#fff"/>
              <rect id="Rectángulo_2267" data-name="Rectángulo 2267" width="0.379" height="21.479" transform="translate(14.771 45.85) rotate(-84.399)" fill="#fff"/>
              <rect id="Rectángulo_2268" data-name="Rectángulo 2268" width="25.032" height="0.378" transform="matrix(0.085, -0.996, 0.996, 0.085, 42.195, 57.626)" fill="#fff"/>
              <rect id="Rectángulo_2269" data-name="Rectángulo 2269" width="0.378" height="15.833" transform="translate(44.702 86.862) rotate(-75.068)" fill="#fff"/>
              <rect id="Rectángulo_2270" data-name="Rectángulo 2270" width="15.503" height="0.378" transform="translate(53.513 77.455) rotate(-53.569)" fill="#fff"/>
            </g>
            <path id="Trazado_19791" data-name="Trazado 19791" d="M1102.308,679.635c-12.607-12.546-23.319-9.962-29.964.111s-26.018-12.211-36.2.265c-8.771,10.747,1.143,18.5-12.013,23.583-10.309,3.983-15.086-18.2-26.826-3.926s-14.7-7.461-29.025-1.757c-12.9,5.139-4.176,23.066-14.307,26.72s-12.288-11.768-27.628-6.95c-17.228,5.411-17.33,21.408-22.262,36.451s129.36,70.879,129.36,70.879l119.575-127.26Z" transform="translate(-686.855 -527.685)" fill="url(#linear-gradient-16)"/>
            <g id="Grupo_9437" data-name="Grupo 9437" transform="translate(288.143 156.726)">
              <g id="Grupo_9436" data-name="Grupo 9436" transform="translate(2.066 5.948)">
                <path id="Trazado_19792" data-name="Trazado 19792" d="M1087.121,757.448c3.768-4.047,6.929-10.373,9.431-19.714,2.435-9.09,5.744-15.488,9.57-18.5l.264.334c-3.754,2.959-7.012,9.28-9.423,18.28-2.521,9.411-5.348,15.437-9.166,19.537Z" transform="translate(-1087.121 -719.231)" fill="#e39400"/>
              </g>
              <path id="Trazado_19793" data-name="Trazado 19793" d="M1105.3,777.688c.058-.162,8.841-6.176,11.145-3.314s-1.511,4.807-4.32,4.719A30.812,30.812,0,0,1,1105.3,777.688Z" transform="translate(-1095.977 -745.952)" fill="#e39400"/>
              <path id="Trazado_19794" data-name="Trazado 19794" d="M1093.236,805.167c.1-.142,10.1-3.778,11.619-.433s-2.661,4.279-5.36,3.494A30.838,30.838,0,0,1,1093.236,805.167Z" transform="translate(-1088.729 -763.809)" fill="#e39400"/>
              <path id="Trazado_19795" data-name="Trazado 19795" d="M1112.042,754.059c.034-.16,7.507-6.968,10.049-4.578s-.792,4.72-3.445,5.005A29.286,29.286,0,0,1,1112.042,754.059Z" transform="translate(-1100.028 -731.153)" fill="#e39400"/>
              <path id="Trazado_19796" data-name="Trazado 19796" d="M1120.763,731.251c.031-.148,6.963-6.462,9.32-4.245s-.734,4.378-3.2,4.642A27.167,27.167,0,0,1,1120.763,731.251Z" transform="translate(-1105.268 -717.671)" fill="#e39400"/>
              <path id="Trazado_19797" data-name="Trazado 19797" d="M1123.518,714.262c-.124-.071-3.742-8.12-1.069-9.58s3.7,1.938,3.217,4.218A25.56,25.56,0,0,1,1123.518,714.262Z" transform="translate(-1105.691 -704.329)" fill="#e39400"/>
              <path id="Trazado_19798" data-name="Trazado 19798" d="M1108.223,736.435c-.15-.023-6.836-6.614-4.746-9.091s4.416.5,4.813,2.945A27.2,27.2,0,0,1,1108.223,736.435Z" transform="translate(-1094.639 -717.598)" fill="#e39400"/>
              <path id="Trazado_19799" data-name="Trazado 19799" d="M1099.726,759.329c-.16-.014-7.658-6.507-5.623-9.26s4.69.224,5.275,2.777A28.734,28.734,0,0,1,1099.726,759.329Z" transform="translate(-1089.039 -731.151)" fill="#e39400"/>
              <path id="Trazado_19800" data-name="Trazado 19800" d="M1089.422,780.585c-.174.005-9.063-6.015-7.229-9.235s5.071-.358,6.026,2.311A31.094,31.094,0,0,1,1089.422,780.585Z" transform="translate(-1081.944 -743.74)" fill="#e39400"/>
              <path id="Trazado_19801" data-name="Trazado 19801" d="M1133.436,712.017c0-.142,5.184-7.2,7.75-5.6s.133,4.142-2.071,4.837A25.366,25.366,0,0,1,1133.436,712.017Z" transform="translate(-1112.883 -705.442)" fill="#e39400"/>
            </g>
            <g id="Grupo_9438" data-name="Grupo 9438" transform="translate(353.786 58.571)">
              <path id="Trazado_19802" data-name="Trazado 19802" d="M1273.77,458.707c13.61-2.126,27.972,7.832,22.378,26.853s.28,41.678,6.993,52.867,11.189,35.8-10.909,42.8-55.163-3.387-43.357-34.126c9.753-25.393,10.629-29.65,8.036-53.806C1253.952,465.725,1264.819,460.106,1273.77,458.707Z" transform="translate(-1246.399 -458.425)" fill="#ad5c00"/>
              <path id="Trazado_19803" data-name="Trazado 19803" d="M1326.993,604.506h1.3V491.044a.649.649,0,0,0-.649-.649h0a.649.649,0,0,0-.649.649Z" transform="translate(-1294.823 -477.634)" fill="#e39400"/>
              <rect id="Rectángulo_2271" data-name="Rectángulo 2271" width="13.248" height="0.869" transform="translate(42.597 40.028) rotate(135)" fill="#e39400"/>
              <path id="Trazado_19804" data-name="Trazado 19804" d="M1316.88,532.661l-7.755-7.755.614-.614,7.14,7.14Z" transform="translate(-1284.088 -498)" fill="#e39400"/>
              <rect id="Rectángulo_2272" data-name="Rectángulo 2272" width="26.349" height="0.869" transform="translate(51.769 85.475) rotate(135)" fill="#e39400"/>
              <path id="Trazado_19805" data-name="Trazado 19805" d="M1311.537,627.37l-10.721-10.721.614-.614,10.107,10.107Z" transform="translate(-1279.095 -553.123)" fill="#e39400"/>
            </g>
            <g id="Grupo_9450" data-name="Grupo 9450" transform="translate(332.57 92.389)">
              <path id="Trazado_19806" data-name="Trazado 19806" d="M1294.707,543.148c-14.277,2.975-41.294,17.261-58.128,34.643s-43.334,60.49-43.334,60.49l33.811,10.03s26.108-17.153,44.032-40.9C1293.427,577.807,1294.707,543.148,1294.707,543.148Z" transform="translate(-1193.245 -543.148)" fill="#e39400"/>
              <path id="Trazado_19807" data-name="Trazado 19807" d="M1239.074,648.2l-.325-.194c20.763-34.771,79.905-96.507,80.36-96.89l.247.288C1318.867,551.845,1259.756,613.567,1239.074,648.2Z" transform="translate(-1220.586 -547.936)" fill="#fff"/>
              <g id="Grupo_9439" data-name="Grupo 9439" transform="translate(82.085 19.512)">
                <rect id="Rectángulo_2273" data-name="Rectángulo 2273" width="0.38" height="0.38" transform="translate(13.7 0.035) rotate(-5.292)" fill="#fff"/>
                <path id="Trazado_19808" data-name="Trazado 19808" d="M1401.836,593.771l-.035-.378.784-.073.035.378Zm1.568-.145-.035-.378.784-.073.035.378Zm1.567-.146-.035-.378.783-.073.035.378Zm1.568-.145-.035-.378.784-.073.035.378Zm1.567-.146-.035-.378.783-.073.035.378Zm1.567-.145-.035-.378.784-.073.035.378Zm1.567-.146-.035-.378.784-.073.035.378Zm1.568-.145-.035-.378.784-.073.035.378Z" transform="translate(-1400.639 -592.194)" fill="#fff"/>
                <rect id="Rectángulo_2274" data-name="Rectángulo 2274" width="0.38" height="0.38" transform="translate(0 1.307) rotate(-5.286)" fill="#fff"/>
              </g>
              <g id="Grupo_9440" data-name="Grupo 9440" transform="translate(70.116 34.1)">
                <rect id="Rectángulo_2275" data-name="Rectángulo 2275" width="0.38" height="0.38" transform="translate(20.457 0.79) rotate(-88.807)" fill="#fff"/>
                <path id="Trazado_19809" data-name="Trazado 19809" d="M1371.717,629.014l.008-.38.744.015-.008.38Zm1.487.03.008-.38.744.015-.008.38Zm1.487.03.008-.38.744.015-.008.38Zm1.488.03.008-.38.743.015-.008.38Zm1.487.03.008-.38.743.015-.008.38Zm1.487.03.008-.38.744.015-.008.38Zm1.488.03.008-.379.744.015-.008.38Zm1.487.03.008-.38.743.015-.008.38Zm1.487.03.008-.38.744.015-.008.38Zm1.487.03.008-.38.744.015-.008.38Zm1.488.03.008-.38.743.015-.008.38Zm1.487.029.008-.38.744.015-.008.38Zm1.487.03.008-.38.744.015-.008.38Z" transform="translate(-1370.594 -628.611)" fill="#fff"/>
                <rect id="Rectángulo_2276" data-name="Rectángulo 2276" width="0.38" height="0.38" transform="translate(0 0.38) rotate(-88.807)" fill="#fff"/>
              </g>
              <g id="Grupo_9441" data-name="Grupo 9441" transform="translate(56.135 50.129)">
                <rect id="Rectángulo_2277" data-name="Rectángulo 2277" width="0.379" height="0.38" transform="matrix(0.055, -0.998, 0.998, 0.055, 26.154, 1.799)" fill="#fff"/>
                <path id="Trazado_19810" data-name="Trazado 19810" d="M1336.672,669.267l.021-.379.736.04-.021.379Zm1.473.08.021-.379.736.04-.021.379Zm1.473.08.021-.379.737.04-.021.379Zm1.473.08.021-.379.736.04-.021.379Zm1.473.08.021-.379.736.04-.021.379Zm1.473.08.021-.379.736.04-.021.379Zm1.473.08.021-.379.736.04-.021.379Zm1.473.08.021-.379.737.04-.021.379Zm1.472.08.021-.379.737.04-.021.379Zm1.473.08.021-.379.736.04-.021.379Zm1.473.08.021-.379.736.04-.021.379Zm1.473.08.021-.379.737.04-.021.379Zm1.473.08.021-.379.736.04-.021.379Zm1.473.08.021-.379.736.04-.021.379Zm1.473.08.021-.379.737.04-.021.379Zm1.473.08.021-.379.736.04-.021.379Zm1.473.08.021-.379.736.04-.021.379Z" transform="translate(-1335.557 -668.827)" fill="#fff"/>
                <rect id="Rectángulo_2278" data-name="Rectángulo 2278" width="0.379" height="0.38" transform="matrix(0.055, -0.998, 0.998, 0.055, 0, 0.379)" fill="#fff"/>
              </g>
              <g id="Grupo_9442" data-name="Grupo 9442" transform="translate(42.409 66.642)">
                <rect id="Rectángulo_2279" data-name="Rectángulo 2279" width="0.38" height="0.38" transform="matrix(0.101, -0.995, 0.995, 0.101, 26.887, 3.075)" fill="#fff"/>
                <path id="Trazado_19811" data-name="Trazado 19811" d="M1302.335,710.768l.038-.378.757.076-.038.378Zm1.515.152.038-.378.758.076-.038.378Zm1.515.152.038-.378.758.076-.038.378Zm1.515.152.039-.378.757.076-.038.378Zm1.515.152.038-.378.758.076-.039.378Zm1.515.152.038-.378.757.076-.038.378Zm1.515.152.039-.378.757.076-.038.378Zm1.515.152.037-.378.757.076-.038.378Zm1.514.152.038-.378.757.076-.038.378Zm1.515.152.038-.378.757.076-.038.378Zm1.514.152.038-.378.757.076-.038.378Zm1.515.152.038-.378.758.076-.038.378Zm1.515.152.038-.378.758.076-.038.378Zm1.515.152.038-.378.757.076-.038.378Zm1.515.152.038-.378.757.076-.038.378Zm1.515.152.038-.378.758.076-.038.378Zm1.515.152.038-.378.758.076-.038.378Z" transform="translate(-1301.2 -710.276)" fill="#fff"/>
                <rect id="Rectángulo_2280" data-name="Rectángulo 2280" width="0.38" height="0.379" transform="matrix(0.101, -0.995, 0.995, 0.101, 0, 0.378)" fill="#fff"/>
              </g>
              <g id="Grupo_9443" data-name="Grupo 9443" transform="translate(28.36 84.922)">
                <rect id="Rectángulo_2281" data-name="Rectángulo 2281" width="0.38" height="0.38" transform="matrix(0.134, -0.991, 0.991, 0.134, 22.699, 3.436)" fill="#fff"/>
                <path id="Trazado_19812" data-name="Trazado 19812" d="M1267.164,756.664l.051-.376.77.1-.051.376Zm1.54.208.051-.376.77.1-.051.376Zm1.54.207.051-.376.77.1-.051.376Zm1.539.208.051-.376.77.1-.051.376Zm1.539.207.051-.376.77.1-.051.376Zm1.54.208.051-.377.77.1-.051.376Zm1.54.208.051-.376.77.1-.051.376Zm1.54.207.051-.376.77.1-.051.376Zm1.54.208.051-.376.77.1-.051.376Zm1.539.207.051-.376.77.1-.051.376Zm1.54.208.051-.376.77.1-.051.376Zm1.539.208.051-.376.77.1-.051.376Zm1.54.208.051-.376.771.1-.051.376Zm1.539.207.051-.376.77.1-.051.376Z" transform="translate(-1266.018 -756.133)" fill="#fff"/>
                <rect id="Rectángulo_2282" data-name="Rectángulo 2282" width="0.38" height="0.38" transform="matrix(0.134, -0.991, 0.991, 0.134, 0, 0.376)" fill="#fff"/>
              </g>
              <g id="Grupo_9444" data-name="Grupo 9444" transform="translate(19.499 68.788)">
                <rect id="Rectángulo_2283" data-name="Rectángulo 2283" width="0.38" height="0.38" transform="translate(0 0.098) rotate(-14.96)" fill="#fff"/>
                <path id="Trazado_19813" data-name="Trazado 19813" d="M1247.788,736.864l-.2-.74.367-.1.2.741Zm-.4-1.481-.2-.74.367-.1.2.741Zm-.4-1.481-.2-.74.367-.1.2.74Zm-.4-1.481-.2-.741.367-.1.2.74Zm-.4-1.481-.2-.74.367-.1.2.74Zm-.4-1.481-.2-.74.367-.1.2.74Zm-.4-1.481-.2-.74.367-.1.2.74Zm-.4-1.481-.2-.74.367-.1.2.74Zm-.4-1.481-.2-.741.367-.1.2.74Zm-.4-1.481-.2-.741.367-.1.2.74Zm-.4-1.481-.2-.74.367-.1.2.741Zm-.4-1.481-.2-.74.367-.1.2.74Zm-.4-1.481-.2-.74.367-.1.2.74Z" transform="translate(-1242.542 -717.148)" fill="#fff"/>
                <rect id="Rectángulo_2284" data-name="Rectángulo 2284" width="0.379" height="0.38" transform="translate(5.445 20.456) rotate(-14.961)" fill="#fff"/>
              </g>
              <g id="Grupo_9445" data-name="Grupo 9445" transform="translate(6.691 87.8)">
                <rect id="Rectángulo_2285" data-name="Rectángulo 2285" width="0.38" height="0.38" transform="matrix(0.926, -0.378, 0.378, 0.926, 0, 0.143)" fill="#fff"/>
                <path id="Trazado_19814" data-name="Trazado 19814" d="M1218.334,783.653l-.289-.71.351-.144.29.71Zm-.579-1.419-.29-.71.352-.144.29.71Zm-.579-1.419-.29-.71.351-.144.29.71Zm-.579-1.419-.29-.71.351-.144.29.71Zm-.579-1.419-.29-.71.352-.144.29.709Zm-.579-1.419-.29-.709.352-.144.29.709Zm-.579-1.419-.29-.71.352-.144.29.71Zm-.579-1.419-.29-.709.352-.144.29.709Zm-.579-1.419-.29-.71.352-.144.29.71Zm-.579-1.419-.29-.71.352-.144.29.71Zm-.579-1.419-.29-.71.352-.144.29.71Zm-.579-1.419-.29-.71.351-.144.29.71Zm-.579-1.419-.29-.71.352-.144.29.71Z" transform="translate(-1210.66 -764.708)" fill="#fff"/>
                <rect id="Rectángulo_2286" data-name="Rectángulo 2286" width="0.379" height="0.38" transform="translate(7.964 19.654) rotate(-22.187)" fill="#fff"/>
              </g>
              <g id="Grupo_9446" data-name="Grupo 9446" transform="translate(31.599 53.34)">
                <path id="Trazado_19815" data-name="Trazado 19815" d="M1272.516,677.258c-.113-.35-.117-.413-.1-.479l.182.055h.188a2.249,2.249,0,0,0,.088.306Z" transform="translate(-1272.41 -676.779)" fill="#fff"/>
                <path id="Trazado_19816" data-name="Trazado 19816" d="M1279.443,695.616l-.271-.692.352-.143.272.7Zm-.544-1.393-.272-.7.354-.138.272.7Zm-.544-1.392-.271-.7.354-.138.271.7Zm-.542-1.393-.271-.7.354-.137.271.7Zm-.541-1.393-.27-.7.354-.137.27.7Zm-.54-1.393-.269-.7.354-.136.269.7Zm-.539-1.395-.268-.7.355-.136.268.7Zm-.536-1.393-.268-.7.354-.136.268.7Zm-.534-1.4-.267-.7.355-.135.266.7Zm-.533-1.4-.264-.7.355-.134.264.7Zm-.528-1.4-.261-.7.356-.132.261.7Zm-.52-1.4c-.1-.259-.18-.5-.254-.7l.357-.127c.074.208.159.443.254.7Z" transform="translate(-1272.937 -678.376)" fill="#fff"/>
                <rect id="Rectángulo_2287" data-name="Rectángulo 2287" width="0.38" height="0.378" transform="translate(6.767 17.909) rotate(-21.396)" fill="#fff"/>
              </g>
              <g id="Grupo_9447" data-name="Grupo 9447" transform="translate(46.141 35.964)">
                <rect id="Rectángulo_2288" data-name="Rectángulo 2288" width="0.38" height="0.38" transform="matrix(0.925, -0.379, 0.379, 0.925, 0, 0.144)" fill="#fff"/>
                <path id="Trazado_19817" data-name="Trazado 19817" d="M1316.212,651.375l-.3-.728.352-.144.3.728Zm-.6-1.455-.3-.728.351-.144.3.728Zm-.6-1.455-.3-.728.352-.144.3.728Zm-.6-1.455-.3-.728.351-.144.3.728Zm-.6-1.455-.3-.728.352-.144.3.728Zm-.6-1.455-.3-.728.351-.144.3.727Zm-.6-1.455-.3-.728.351-.144.3.728Zm-.6-1.455-.3-.728.351-.144.3.728Zm-.6-1.455-.3-.728.352-.144.3.727Zm-.6-1.455-.3-.728.351-.144.3.728Zm-.6-1.455-.3-.728.351-.144.3.728Z" transform="translate(-1309.506 -634.872)" fill="#fff"/>
                <rect id="Rectángulo_2289" data-name="Rectángulo 2289" width="0.38" height="0.38" transform="translate(7.004 17.231) rotate(-22.305)" fill="#fff"/>
              </g>
              <g id="Grupo_9448" data-name="Grupo 9448" transform="translate(62.945 21.176)">
                <rect id="Rectángulo_2290" data-name="Rectángulo 2290" width="0.379" height="0.38" transform="translate(0 0.102) rotate(-15.549)" fill="#fff"/>
                <path id="Trazado_19818" data-name="Trazado 19818" d="M1355.53,612.8l-.2-.724.366-.1.2.724Zm-.4-1.449-.2-.724.366-.1.2.724Zm-.4-1.449-.2-.724.366-.1.2.724Zm-.4-1.449-.2-.725.365-.1.2.725Zm-.4-1.449-.2-.724.366-.1.2.724Zm-.4-1.449-.2-.724.365-.1.2.725Zm-.4-1.449-.2-.724.365-.1.2.724Zm-.4-1.449-.2-.725.366-.1.2.725Zm-.4-1.449-.2-.724.366-.1.2.724Zm-.4-1.449-.2-.724.366-.1.2.724Z" transform="translate(-1351.397 -597.84)" fill="#fff"/>
                <rect id="Rectángulo_2291" data-name="Rectángulo 2291" width="0.379" height="0.38" transform="translate(4.335 15.683) rotate(-15.549)" fill="#fff"/>
              </g>
              <g id="Grupo_9449" data-name="Grupo 9449" transform="translate(78.186 11.361)">
                <rect id="Rectángulo_2292" data-name="Rectángulo 2292" width="0.379" height="0.379" transform="matrix(0.996, -0.086, 0.086, 0.996, 0, 0.033)" fill="#fff"/>
                <path id="Trazado_19819" data-name="Trazado 19819" d="M1390.255,584.762l-.068-.785.378-.033.068.785Zm-.136-1.57-.068-.785.378-.032.068.785Zm-.136-1.57-.068-.785.378-.032.068.785Zm-.136-1.57-.068-.785.378-.033.067.785Zm-.135-1.57-.068-.785.378-.033.068.785Zm-.136-1.57-.068-.785.378-.033.068.785Zm-.136-1.57-.068-.785.378-.033.068.785Z" transform="translate(-1389.273 -573.362)" fill="#fff"/>
                <rect id="Rectángulo_2293" data-name="Rectángulo 2293" width="0.379" height="0.379" transform="matrix(0.996, -0.086, 0.086, 0.996, 1.049, 12.184)" fill="#fff"/>
              </g>
            </g>
            <path id="Trazado_19820" data-name="Trazado 19820" d="M1125.1,750.658c14.247-19.995,17.026-43.76,6.328-32.556s-22.459,24.229-20.025,15.886,7.368-31.827,1.042-33.326-7.4,17.212-8.944,23.851-7.046-6.1-8.123-16.368-11.51-17.253-9.987-.235,4.19,31.881,4.19,31.881-4.24-21.154-8.48-22.045-5.328,3.478-3.2,12.781,2.744,13.688.444,14.907-7.415-17.393-12.6-15.417.682,10.53,2.453,16.692-13.179-12.42-16.577-21.079-10.146-13.822-11.56-9.522,1.639,9.343,7.829,19.937-13.1-7.53-16.414-4.2c-4.936,4.96,10.03,27.425,31.222,32.729S1125.1,750.658,1125.1,750.658Z" transform="translate(-762.915 -543.572)" fill="#ad5c00"/>
            <g id="Grupo_9451" data-name="Grupo 9451" transform="translate(322.421 129.306)">
              <path id="Trazado_19821" data-name="Trazado 19821" d="M1172.161,635.634c-1.842,2.543-4.34,6.923-4.34,10.163s2.191,4.738,4.34,4.738,4.339-1.5,4.339-4.738S1174,638.177,1172.161,635.634Z" transform="translate(-1167.821 -635.634)" fill="#ad5c00"/>
              <path id="Trazado_19822" data-name="Trazado 19822" d="M1178.868,663.9h-.562l.264-13.562h.035Z" transform="translate(-1174.121 -644.469)" fill="#e39400"/>
            </g>
            <g id="Grupo_9452" data-name="Grupo 9452" transform="translate(299.932 17.779)">
              <path id="Trazado_19823" data-name="Trazado 19823" d="M1114.433,356.228c-1.254,1.913-2.955,5.209-2.955,7.647s1.492,3.565,2.955,3.565,2.954-1.128,2.954-3.565S1115.687,358.141,1114.433,356.228Z" transform="translate(-1111.479 -356.228)" fill="#e39400"/>
              <path id="Trazado_19824" data-name="Trazado 19824" d="M1119,377.5h-.383l.179-10.2h.024Z" transform="translate(-1115.768 -362.876)" fill="#ad5c00"/>
            </g>
            <g id="Grupo_9453" data-name="Grupo 9453" transform="translate(-95.302 101.79)" style="mix-blend-mode: multiply;isolation: isolate">
              <path id="Trazado_19825" data-name="Trazado 19825" d="M229.861,579.6c-4,27.714,35.341,56.109,90.326,65.541,45.748,7.847,72.44,11.561,144.039,8.259,60.552-2.792,120.929-19.218,165.441-32.743s36.935,8.82,46.19,33.452,33.1,99.211-27.809,104.94S259.6,785.05,219.98,780.2,158.763,686.77,168.9,629.036,234.009,550.878,229.861,579.6Z" transform="translate(-148.409 -566.698)" fill="#fff" opacity="0"/>
              <path id="Trazado_19826" data-name="Trazado 19826" d="M229.557,580.233c-4,27.873,35.276,56.37,90.266,65.775,45.778,7.828,72.529,11.54,143.99,8.271,60.5-2.765,120.695-19.077,165.207-32.6s37.227,8.494,46.482,33.126,32.957,99.442-27.95,105.171-388.446,26-428.068,21.155S158.267,687.7,168.4,629.963,233.687,551.511,229.557,580.233Z" transform="translate(-148.111 -567.117)" fill="#fefdfc" opacity="0.011"/>
              <path id="Trazado_19827" data-name="Trazado 19827" d="M229.254,580.866c-4,28.033,35.211,56.631,90.2,66.009,45.808,7.809,72.618,11.52,143.942,8.282,60.442-2.739,120.46-18.935,164.972-32.46s37.519,8.169,46.774,32.8,32.817,99.673-28.091,105.4-388.446,26-428.068,21.155-61.217-93.432-51.081-151.166S233.366,552.141,229.254,580.866Z" transform="translate(-147.813 -567.535)" fill="#fefbf9" opacity="0.022"/>
              <path id="Trazado_19828" data-name="Trazado 19828" d="M228.951,581.5c-3.992,28.193,35.146,56.893,90.144,66.243,45.838,7.789,72.706,11.5,143.894,8.293,60.386-2.712,120.225-18.793,164.738-32.319s37.811,7.844,47.065,32.476,32.676,99.9-28.232,105.633-388.446,26-428.068,21.154-61.217-93.432-51.081-151.166S233.045,552.772,228.951,581.5Z" transform="translate(-147.516 -567.953)" fill="#fdf9f7" opacity="0.033"/>
              <path id="Trazado_19829" data-name="Trazado 19829" d="M228.648,582.13c-3.988,28.353,35.082,57.154,90.084,66.477,45.868,7.77,72.8,11.478,143.846,8.3,60.33-2.686,119.99-18.652,164.5-32.177s38.1,7.519,47.357,32.151,32.535,100.135-28.373,105.864S257.619,788.751,218,783.9s-61.217-93.432-51.081-151.166S232.724,553.4,228.648,582.13Z" transform="translate(-147.218 -568.369)" fill="#fcf7f4" opacity="0.044"/>
              <path id="Trazado_19830" data-name="Trazado 19830" d="M228.345,582.761c-3.985,28.512,35.017,57.415,90.023,66.71,45.9,7.75,72.884,11.457,143.8,8.315,60.275-2.659,119.756-18.51,164.268-32.035s38.394,7.193,47.649,31.825,32.395,100.366-28.513,106.1-388.446,26-428.068,21.154-61.217-93.432-51.081-151.166S232.4,554.031,228.345,582.761Z" transform="translate(-146.92 -568.786)" fill="#fcf5f1" opacity="0.055"/>
              <path id="Trazado_19831" data-name="Trazado 19831" d="M228.041,583.392c-3.981,28.672,34.952,57.676,89.962,66.944,45.927,7.731,72.973,11.436,143.75,8.326,60.219-2.632,119.521-18.368,164.033-31.894s38.686,6.867,47.941,31.5,32.254,100.6-28.654,106.327-388.446,26-428.068,21.154-61.217-93.432-51.081-151.166S232.082,554.659,228.041,583.392Z" transform="translate(-146.622 -569.201)" fill="#fbf3ee" opacity="0.066"/>
              <path id="Trazado_19832" data-name="Trazado 19832" d="M227.738,584.021c-3.978,28.832,34.887,57.937,89.9,67.178,45.957,7.711,73.062,11.415,143.7,8.337,60.164-2.606,119.287-18.227,163.8-31.752s38.978,6.542,48.233,31.174,32.113,100.828-28.794,106.558-388.446,26-428.068,21.154S155.294,693.239,165.43,635.5,231.761,555.286,227.738,584.021Z" transform="translate(-146.325 -569.615)" fill="#faf1eb" opacity="0.077"/>
              <path id="Trazado_19833" data-name="Trazado 19833" d="M227.435,584.65c-3.974,28.991,34.822,58.2,89.841,67.411,45.987,7.692,73.15,11.395,143.653,8.349,60.108-2.579,119.052-18.085,163.564-31.611s39.269,6.217,48.524,30.849,31.972,101.06-28.935,106.789-388.446,26-428.068,21.154S154.8,694.16,164.935,636.426,231.44,555.913,227.435,584.65Z" transform="translate(-146.027 -570.029)" fill="#faefe9" opacity="0.088"/>
              <path id="Trazado_19834" data-name="Trazado 19834" d="M227.132,585.279c-3.971,29.151,34.757,58.459,89.78,67.645,46.017,7.672,73.239,11.374,143.605,8.36,60.053-2.553,118.817-17.944,163.33-31.469s39.561,5.891,48.816,30.523,31.831,101.291-29.076,107.02-388.446,26-428.068,21.154S154.3,695.08,164.439,637.346,231.119,556.54,227.132,585.279Z" transform="translate(-145.729 -570.442)" fill="#f9ede6" opacity="0.099"/>
              <path id="Trazado_19835" data-name="Trazado 19835" d="M226.829,585.906c-3.967,29.311,34.693,58.721,89.719,67.879,46.047,7.653,73.328,11.353,143.557,8.371,60-2.526,118.583-17.8,163.1-31.328s39.853,5.566,49.108,30.2S704,762.548,643.092,768.278s-388.446,26-428.068,21.155S153.807,696,163.943,638.266,230.8,557.165,226.829,585.906Z" transform="translate(-145.431 -570.854)" fill="#f9ebe3" opacity="0.11"/>
              <path id="Trazado_19836" data-name="Trazado 19836" d="M226.526,586.532c-3.964,29.471,34.628,58.982,89.658,68.113,46.077,7.634,73.417,11.333,143.509,8.382,59.942-2.5,118.348-17.661,162.86-31.186s40.145,5.241,49.4,29.873S703.5,763.467,642.6,769.2s-388.446,26-428.068,21.155-61.217-93.433-51.081-151.166S230.477,557.789,226.526,586.532Z" transform="translate(-145.133 -571.266)" fill="#f8e9e0" opacity="0.121"/>
              <path id="Trazado_19837" data-name="Trazado 19837" d="M226.222,587.159c-3.96,29.631,34.563,59.243,89.6,68.347,46.107,7.614,73.506,11.311,143.461,8.393,59.887-2.473,118.114-17.519,162.626-31.044S662.343,637.77,671.6,662.4s31.409,101.984-29.5,107.714-388.446,26-428.068,21.155S152.815,697.838,162.952,640.1,230.156,558.414,226.222,587.159Z" transform="translate(-144.835 -571.677)" fill="#f7e7dd" opacity="0.132"/>
              <path id="Trazado_19838" data-name="Trazado 19838" d="M225.919,587.784c-3.957,29.79,34.5,59.5,89.537,68.581,46.137,7.594,73.594,11.291,143.413,8.4,59.831-2.446,117.879-17.378,162.391-30.9s40.729,4.59,49.983,29.221S702.512,765.3,641.6,771.033s-388.446,26-428.068,21.155-61.217-93.432-51.081-151.166S229.835,559.037,225.919,587.784Z" transform="translate(-144.538 -572.087)" fill="#f7e5db" opacity="0.143"/>
              <path id="Trazado_19839" data-name="Trazado 19839" d="M225.616,588.409c-3.954,29.95,34.434,59.766,89.476,68.814,46.167,7.575,73.683,11.27,143.365,8.415,59.775-2.42,117.645-17.236,162.157-30.761s41.02,4.265,50.275,28.9,31.127,102.446-29.78,108.175-388.446,26-428.068,21.155-61.217-93.432-51.081-151.166S229.514,559.659,225.616,588.409Z" transform="translate(-144.24 -572.497)" fill="#f6e3d8" opacity="0.154"/>
              <path id="Trazado_19840" data-name="Trazado 19840" d="M225.313,589.033c-3.95,30.11,34.369,60.027,89.415,69.048,46.2,7.556,73.772,11.249,143.317,8.427,59.72-2.393,117.41-17.094,161.922-30.62s41.312,3.939,50.566,28.571,30.987,102.677-29.92,108.406-388.446,26-428.068,21.155-61.217-93.432-51.081-151.166S229.193,560.282,225.313,589.033Z" transform="translate(-143.942 -572.906)" fill="#f5e1d5" opacity="0.165"/>
              <path id="Trazado_19841" data-name="Trazado 19841" d="M225.01,589.657c-3.946,30.269,34.3,60.288,89.355,69.282,46.226,7.536,73.861,11.228,143.268,8.437C517.3,665.01,574.808,650.424,619.321,636.9s41.6,3.614,50.858,28.246,30.846,102.908-30.061,108.637-388.446,26-428.068,21.155S150.833,701.5,160.97,643.77,228.872,560.9,225.01,589.657Z" transform="translate(-143.645 -573.314)" fill="#f5dfd2" opacity="0.176"/>
              <path id="Trazado_19842" data-name="Trazado 19842" d="M224.706,590.274c-4,30.421,34.239,60.549,89.294,69.516,46.256,7.517,73.95,11.208,143.221,8.449,59.609-2.34,116.94-16.811,161.453-30.336s41.895,3.288,51.15,27.92,30.705,103.14-30.2,108.869-388.446,26-428.068,21.154-61.217-93.432-51.081-151.166S228.492,561.511,224.706,590.274Z" transform="translate(-143.347 -573.717)" fill="#f4ddcf" opacity="0.187"/>
              <path id="Trazado_19843" data-name="Trazado 19843" d="M224.4,590.9c-4,30.581,34.175,60.811,89.234,69.75,46.286,7.5,74.038,11.187,143.172,8.46,59.554-2.313,116.706-16.669,161.219-30.195s42.187,2.963,51.442,27.595,30.565,103.371-30.343,109.1-388.446,26-428.068,21.155-61.217-93.432-51.081-151.166S228.169,562.131,224.4,590.9Z" transform="translate(-143.049 -574.124)" fill="#f3dbcd" opacity="0.198"/>
              <path id="Trazado_19844" data-name="Trazado 19844" d="M224.1,591.518c-4,30.74,34.11,61.072,89.173,69.984,46.316,7.477,74.127,11.166,143.124,8.471,59.5-2.287,116.472-16.528,160.984-30.053s42.478,2.638,51.734,27.27,30.424,103.6-30.484,109.331-388.446,26-428.068,21.154-61.217-93.432-51.081-151.166S227.846,562.75,224.1,591.518Z" transform="translate(-142.751 -574.53)" fill="#f3d9ca" opacity="0.209"/>
              <path id="Trazado_19845" data-name="Trazado 19845" d="M223.8,592.138c-4,30.9,34.045,61.333,89.112,70.217,46.346,7.458,74.216,11.145,143.076,8.482,59.443-2.26,116.237-16.386,160.749-29.912s42.77,2.312,52.025,26.944S699.042,771.7,638.135,777.432s-388.446,26-428.068,21.154-61.217-93.432-51.081-151.166S227.523,563.368,223.8,592.138Z" transform="translate(-142.453 -574.936)" fill="#f2d7c7" opacity="0.22"/>
              <path id="Trazado_19846" data-name="Trazado 19846" d="M223.494,592.758c-4,31.059,33.98,61.594,89.051,70.451,46.376,7.439,74.3,11.124,143.028,8.493,59.387-2.234,116-16.245,160.515-29.77s43.062,1.986,52.317,26.619,30.142,104.064-30.765,109.793-388.446,26-428.068,21.154-61.217-93.432-51.081-151.166S227.2,563.986,223.494,592.758Z" transform="translate(-142.156 -575.34)" fill="#f1d5c4" opacity="0.231"/>
              <path id="Trazado_19847" data-name="Trazado 19847" d="M223.19,593.378c-4,31.219,33.916,61.855,88.991,70.685,46.406,7.419,74.393,11.1,142.98,8.5,59.332-2.207,115.767-16.1,160.28-29.629s43.354,1.661,52.609,26.293,30,104.3-30.906,110.025-388.446,26-428.068,21.154S147.859,706.978,158,649.245,226.877,564.6,223.19,593.378Z" transform="translate(-141.858 -575.745)" fill="#f1d3c1" opacity="0.242"/>
              <path id="Trazado_19848" data-name="Trazado 19848" d="M222.887,594c-4,31.378,33.851,62.116,88.93,70.918,46.435,7.4,74.482,11.083,142.931,8.516,59.276-2.18,115.533-15.962,160.045-29.487s43.646,1.336,52.9,25.968,29.861,104.526-31.047,110.256-388.446,26-428.068,21.154S147.364,707.89,157.5,650.156,226.554,565.22,222.887,594Z" transform="translate(-141.56 -576.149)" fill="#f0d2bf" opacity="0.253"/>
              <path id="Trazado_19849" data-name="Trazado 19849" d="M222.584,594.615c-4,31.537,33.786,62.378,88.869,71.152,46.466,7.38,74.571,11.062,142.883,8.527,59.221-2.154,115.3-15.82,159.811-29.346s43.937,1.011,53.193,25.643,29.72,104.757-31.187,110.487-388.446,26-428.068,21.154S146.868,708.8,157,651.066,226.232,565.836,222.584,594.615Z" transform="translate(-141.262 -576.552)" fill="#efd0bc" opacity="0.264"/>
              <path id="Trazado_19850" data-name="Trazado 19850" d="M222.281,595.232c-4,31.7,33.721,62.639,88.808,71.386,46.5,7.361,74.66,11.041,142.835,8.538,59.165-2.127,115.064-15.678,159.576-29.2s44.229.685,53.484,25.317,29.579,104.988-31.328,110.718-388.445,26-428.067,21.154-61.217-93.432-51.081-151.166S225.909,566.451,222.281,595.232Z" transform="translate(-140.964 -576.954)" fill="#efceb9" opacity="0.275"/>
              <path id="Trazado_19851" data-name="Trazado 19851" d="M221.978,595.85c-3.994,31.856,33.657,62.9,88.748,71.62,46.525,7.342,74.749,11.02,142.787,8.549,59.11-2.1,114.829-15.537,159.341-29.062s44.521.36,53.776,24.992,29.439,105.22-31.469,110.949-388.446,26-428.068,21.155-61.217-93.432-51.081-151.166S225.587,567.066,221.978,595.85Z" transform="translate(-140.666 -577.356)" fill="#eeccb6" opacity="0.286"/>
              <path id="Trazado_19852" data-name="Trazado 19852" d="M221.675,596.465c-3.993,32.016,33.592,63.161,88.687,71.854,46.555,7.322,74.838,11,142.739,8.56,59.054-2.074,114.594-15.4,159.107-28.921s44.813.034,54.068,24.666,29.3,105.451-31.61,111.18-388.446,26-428.068,21.155-61.217-93.432-51.081-151.166S225.264,567.68,221.675,596.465Z" transform="translate(-140.369 -577.757)" fill="#edcab3" opacity="0.297"/>
              <path id="Trazado_19853" data-name="Trazado 19853" d="M221.371,597.081C217.38,629.258,254.9,660.5,310,669.169c46.585,7.3,74.926,10.979,142.691,8.571,59-2.047,114.36-15.254,158.872-28.779s45.1-.291,54.359,24.341,29.157,105.682-31.751,111.411-388.446,26-428.068,21.155S144.885,712.436,155.022,654.7,224.942,568.294,221.371,597.081Z" transform="translate(-140.071 -578.158)" fill="#edc8b1" opacity="0.308"/>
              <path id="Trazado_19854" data-name="Trazado 19854" d="M221.069,597.7c-3.989,32.335,33.462,63.684,88.565,72.321,46.615,7.283,75.015,10.958,142.643,8.582,58.943-2.021,114.126-15.112,158.638-28.637s45.4-.617,54.651,24.015,29.016,105.913-31.891,111.642-388.446,26-428.068,21.155-61.217-93.432-51.081-151.166S224.62,568.906,221.069,597.7Z" transform="translate(-139.773 -578.558)" fill="#ecc6ae" opacity="0.319"/>
              <path id="Trazado_19855" data-name="Trazado 19855" d="M220.765,598.311c-3.987,32.5,33.4,63.945,88.5,72.555,46.645,7.263,75.1,10.937,142.595,8.593,58.888-1.994,113.891-14.97,158.4-28.5s45.688-.942,54.943,23.69S694.086,780.8,633.179,786.528s-388.446,26-428.068,21.155-61.217-93.432-51.081-151.166S224.3,569.519,220.765,598.311Z" transform="translate(-139.475 -578.957)" fill="#ecc4ab" opacity="0.33"/>
              <path id="Trazado_19856" data-name="Trazado 19856" d="M220.462,598.925c-3.985,32.655,33.332,64.206,88.444,72.789,46.675,7.244,75.193,10.917,142.546,8.605,58.832-1.968,113.656-14.829,158.169-28.355s45.979-1.267,55.235,23.365,28.735,106.375-32.173,112.1-388.446,26-428.068,21.155S143.4,715.156,153.535,657.422,223.976,570.131,220.462,598.925Z" transform="translate(-139.177 -579.356)" fill="#ebc2a8" opacity="0.341"/>
              <path id="Trazado_19857" data-name="Trazado 19857" d="M220.159,599.539c-3.983,32.814,33.268,64.467,88.384,73.023,46.7,7.225,75.282,10.9,142.5,8.616,58.777-1.941,113.421-14.687,157.934-28.213S655.246,651.372,664.5,676,693.1,782.611,632.188,788.34s-388.445,26-428.068,21.155S142.9,716.062,153.04,658.328,223.654,570.742,220.159,599.539Z" transform="translate(-138.88 -579.755)" fill="#eac0a5" opacity="0.352"/>
              <path id="Trazado_19858" data-name="Trazado 19858" d="M219.856,600.152c-3.981,32.974,33.2,64.728,88.323,73.257,46.734,7.205,75.37,10.875,142.45,8.627,58.721-1.914,113.187-14.546,157.7-28.071s46.563-1.918,55.818,22.714S692.6,783.516,631.692,789.245s-388.446,26-428.068,21.155-61.217-93.432-51.081-151.166S223.332,571.354,219.856,600.152Z" transform="translate(-138.582 -580.153)" fill="#eabea3" opacity="0.363"/>
              <path id="Trazado_19859" data-name="Trazado 19859" d="M219.552,600.764c-3.978,33.134,33.138,64.989,88.262,73.49,46.764,7.186,75.459,10.854,142.4,8.638,58.666-1.888,112.952-14.4,157.465-27.929s46.855-2.244,56.11,22.388S692.1,784.42,631.2,790.149s-388.446,26-428.068,21.155-61.217-93.432-51.081-151.166S223.01,571.964,219.552,600.764Z" transform="translate(-138.284 -580.55)" fill="#e9bca0" opacity="0.374"/>
              <path id="Trazado_19860" data-name="Trazado 19860" d="M219.249,601.376c-3.976,33.293,33.073,65.251,88.2,73.724C354.245,682.267,383,685.933,449.8,683.75c58.61-1.861,112.718-14.263,157.23-27.788s47.146-2.569,56.4,22.063,28.172,107.3-32.735,113.029-388.446,26-428.068,21.155-61.217-93.432-51.081-151.166S222.689,572.573,219.249,601.376Z" transform="translate(-137.986 -580.947)" fill="#e8ba9d" opacity="0.385"/>
              <path id="Trazado_19861" data-name="Trazado 19861" d="M218.946,601.988c-3.974,33.453,33.009,65.512,88.141,73.958,46.824,7.147,75.636,10.812,142.306,8.66,58.555-1.834,112.483-14.121,157-27.646s47.438-2.895,56.693,21.737,28.031,107.531-32.876,113.26-388.446,26-428.068,21.155S140.92,719.68,151.057,661.946,222.367,573.183,218.946,601.988Z" transform="translate(-137.688 -581.343)" fill="#e8b89a" opacity="0.396"/>
              <path id="Trazado_19862" data-name="Trazado 19862" d="M218.643,602.6c-3.971,33.613,32.944,65.773,88.08,74.191,46.854,7.127,75.725,10.792,142.258,8.672,58.5-1.808,112.249-13.98,156.761-27.5s47.73-3.22,56.985,21.412,27.891,107.762-33.017,113.492-388.446,26-428.068,21.154-61.217-93.432-51.081-151.166S222.046,573.792,218.643,602.6Z" transform="translate(-137.391 -581.739)" fill="#e7b697" opacity="0.407"/>
              <path id="Trazado_19863" data-name="Trazado 19863" d="M218.34,603.209c-3.968,33.772,32.879,66.034,88.019,74.425,46.884,7.108,75.814,10.771,142.21,8.682,58.444-1.781,112.014-13.838,156.526-27.363s48.022-3.545,57.277,21.087,27.75,107.993-33.158,113.723-388.446,26-428.068,21.154-61.217-93.432-51.081-151.166S221.725,574.4,218.34,603.209Z" transform="translate(-137.093 -582.134)" fill="#e6b495" opacity="0.418"/>
              <path id="Trazado_19864" data-name="Trazado 19864" d="M218.037,603.818c-3.966,33.932,32.814,66.3,87.958,74.659,46.914,7.088,75.9,10.75,142.162,8.694,58.388-1.755,111.779-13.7,156.291-27.222s48.314-3.871,57.569,20.761,27.609,108.224-33.3,113.954-388.446,26-428.068,21.154-61.217-93.432-51.081-151.166S221.4,575.007,218.037,603.818Z" transform="translate(-136.795 -582.528)" fill="#e6b292" opacity="0.429"/>
              <path id="Trazado_19865" data-name="Trazado 19865" d="M217.733,604.427c-3.962,34.092,32.75,66.556,87.9,74.893,46.944,7.069,75.992,10.729,142.113,8.7,58.333-1.728,111.545-13.555,156.057-27.08s48.605-4.2,57.86,20.436,27.468,108.456-33.439,114.185-388.445,26-428.067,21.154-61.217-93.432-51.081-151.166S221.083,575.614,217.733,604.427Z" transform="translate(-136.498 -582.922)" fill="#e5b08f" opacity="0.44"/>
              <path id="Trazado_19866" data-name="Trazado 19866" d="M217.43,605.036c-3.96,34.251,32.685,66.817,87.837,75.127,46.973,7.049,76.08,10.708,142.065,8.716,58.277-1.7,111.31-13.413,155.823-26.938s48.9-4.522,58.152,20.11,27.328,108.687-33.58,114.416-388.446,26-428.068,21.154-61.217-93.432-51.081-151.166S220.761,576.221,217.43,605.036Z" transform="translate(-136.2 -583.316)" fill="#e4ae8c" opacity="0.451"/>
              <path id="Trazado_19867" data-name="Trazado 19867" d="M217.127,605.644C213.17,640.055,249.747,672.723,304.9,681c47,7.03,76.169,10.688,142.017,8.727,58.222-1.675,111.076-13.272,155.588-26.8s49.189-4.847,58.443,19.785,27.187,108.918-33.721,114.647-388.446,26-428.068,21.155-61.217-93.432-51.081-151.166S220.44,576.827,217.127,605.644Z" transform="translate(-135.902 -583.708)" fill="#e4ac89" opacity="0.462"/>
              <path id="Trazado_19868" data-name="Trazado 19868" d="M216.824,606.251c-3.953,34.571,32.555,67.34,87.716,75.594,47.033,7.011,76.258,10.667,141.969,8.738,58.166-1.648,110.841-13.13,155.353-26.655s49.48-5.172,58.735,19.46,27.046,109.149-33.861,114.878-388.446,26-428.068,21.154-61.217-93.432-51.081-151.166S220.119,577.432,216.824,606.251Z" transform="translate(-135.604 -584.101)" fill="#e3aa87" opacity="0.473"/>
              <path id="Trazado_19869" data-name="Trazado 19869" d="M216.52,606.858c-3.95,34.731,32.49,67.6,87.655,75.828,47.063,6.991,76.347,10.646,141.921,8.75,58.111-1.622,110.606-12.989,155.119-26.514s49.772-5.5,59.027,19.134,26.905,109.38-34,115.11-388.446,26-428.068,21.154-61.217-93.432-51.081-151.166S219.8,578.038,216.52,606.858Z" transform="translate(-135.306 -584.493)" fill="#e2a884" opacity="0.484"/>
              <path id="Trazado_19870" data-name="Trazado 19870" d="M216.218,607.465c-3.947,34.891,32.426,67.862,87.594,76.062,47.093,6.972,76.436,10.625,141.873,8.76,58.055-1.6,110.372-12.847,154.884-26.372s50.064-5.823,59.319,18.809,26.765,109.611-34.143,115.341-388.446,26-428.068,21.154S136.46,727.788,146.6,670.053,219.478,578.642,216.218,607.465Z" transform="translate(-135.009 -584.884)" fill="#e2a681" opacity="0.495"/>
              <path id="Trazado_19871" data-name="Trazado 19871" d="M215.914,608.071c-3.943,35.05,32.361,68.124,87.534,76.3,47.123,6.952,76.525,10.6,141.824,8.772,58-1.569,110.137-12.705,154.65-26.231s50.356-6.149,59.611,18.483,26.624,109.843-34.284,115.572-388.446,26-428.068,21.155S135.964,728.686,146.1,670.952,219.157,579.246,215.914,608.071Z" transform="translate(-134.711 -585.275)" fill="#e1a47e" opacity="0.505"/>
              <path id="Trazado_19872" data-name="Trazado 19872" d="M215.611,608.677c-3.94,35.211,32.3,68.385,87.473,76.53,47.153,6.932,76.613,10.584,141.776,8.783,57.945-1.542,109.9-12.563,154.415-26.089s50.648-6.474,59.9,18.158,26.483,110.074-34.424,115.8-388.446,26-428.068,21.155S135.469,729.584,145.6,671.849,218.836,579.85,215.611,608.677Z" transform="translate(-134.413 -585.666)" fill="#e1a27b" opacity="0.516"/>
              <path id="Trazado_19873" data-name="Trazado 19873" d="M215.308,609.282c-3.936,35.37,32.231,68.646,87.412,76.764,47.182,6.913,76.7,10.563,141.728,8.794,57.889-1.515,109.668-12.422,154.18-25.947s50.939-6.8,60.194,17.832,26.342,110.3-34.565,116.034-388.446,26-428.068,21.155-61.217-93.432-51.081-151.166S218.516,580.453,215.308,609.282Z" transform="translate(-134.115 -586.056)" fill="#e0a078" opacity="0.527"/>
              <path id="Trazado_19874" data-name="Trazado 19874" d="M215,609.886c-3.932,35.53,32.166,68.907,87.351,77,47.213,6.894,76.791,10.542,141.68,8.8,57.834-1.488,109.433-12.28,153.946-25.806s51.231-7.125,60.486,17.507,26.2,110.536-34.706,116.265-388.446,26-428.068,21.155-61.217-93.432-51.081-151.166S218.2,581.056,215,609.886Z" transform="translate(-133.817 -586.445)" fill="#df9e76" opacity="0.538"/>
              <path id="Trazado_19875" data-name="Trazado 19875" d="M214.7,610.49c-3.928,35.69,32.1,69.169,87.291,77.231,47.243,6.874,76.88,10.521,141.632,8.816,57.778-1.462,109.2-12.139,153.711-25.664s51.522-7.45,60.778,17.182,26.061,110.767-34.846,116.5-388.446,26-428.068,21.154-61.217-93.432-51.081-151.166S217.875,581.658,214.7,610.49Z" transform="translate(-133.519 -586.834)" fill="#df9c73" opacity="0.549"/>
              <path id="Trazado_19876" data-name="Trazado 19876" d="M214.4,611.094c-3.925,35.849,32.037,69.43,87.23,77.465,47.272,6.855,76.968,10.5,141.584,8.827,57.723-1.436,108.964-12,153.477-25.523s51.814-7.776,61.07,16.856,25.92,111-34.987,116.727-388.446,26-428.068,21.155-61.217-93.432-51.081-151.166S217.555,582.259,214.4,611.094Z" transform="translate(-133.222 -587.223)" fill="#de9a70" opacity="0.56"/>
              <path id="Trazado_19877" data-name="Trazado 19877" d="M214.095,611.7c-3.92,36.009,31.972,69.691,87.169,77.7,47.3,6.836,77.057,10.479,141.536,8.839,57.667-1.409,108.729-11.856,153.242-25.381s52.106-8.1,61.361,16.531,25.779,111.229-35.128,116.958-388.446,26-428.068,21.155-61.217-93.432-51.081-151.166S217.234,582.86,214.095,611.7Z" transform="translate(-132.924 -587.611)" fill="#dd986d" opacity="0.571"/>
              <path id="Trazado_19878" data-name="Trazado 19878" d="M213.792,612.3c-3.916,36.169,31.907,69.952,87.109,77.932,47.332,6.816,77.146,10.459,141.487,8.85C500,697.7,550.883,687.368,595.4,673.842s52.4-8.427,61.653,16.205,25.639,111.46-35.269,117.19-388.446,26-428.068,21.154-61.217-93.432-51.081-151.166S216.914,583.461,213.792,612.3Z" transform="translate(-132.626 -587.998)" fill="#dd966a" opacity="0.582"/>
              <path id="Trazado_19879" data-name="Trazado 19879" d="M213.489,612.9c-3.912,36.329,31.843,70.213,87.048,78.166,47.362,6.8,77.235,10.438,141.44,8.86,57.556-1.356,108.26-11.572,152.772-25.1s52.69-8.752,61.945,15.88,25.5,111.692-35.41,117.421-388.446,26-428.068,21.154S132,735.854,142.136,678.12,216.594,584.061,213.489,612.9Z" transform="translate(-132.328 -588.385)" fill="#dc9468" opacity="0.593"/>
              <path id="Trazado_19880" data-name="Trazado 19880" d="M213.186,613.5c-3.908,36.489,31.778,70.474,86.987,78.4,47.392,6.777,77.324,10.417,141.392,8.872,57.5-1.329,108.026-11.431,152.538-24.957s52.981-9.077,62.236,15.555S681.7,803.3,620.788,809.026s-388.446,26-428.068,21.154S131.5,736.748,141.64,679.015,216.274,584.662,213.186,613.5Z" transform="translate(-132.03 -588.772)" fill="#db9265" opacity="0.604"/>
              <path id="Trazado_19881" data-name="Trazado 19881" d="M212.882,614.105c-3.9,36.649,31.713,70.736,86.927,78.634,47.422,6.757,77.412,10.4,141.343,8.883,57.445-1.3,107.791-11.289,152.3-24.815s53.273-9.4,62.528,15.229S681.2,804.19,620.293,809.92s-388.446,26-428.068,21.154-61.217-93.432-51.081-151.166S215.954,585.261,212.882,614.105Z" transform="translate(-131.733 -589.158)" fill="#db9062" opacity="0.615"/>
              <path id="Trazado_19882" data-name="Trazado 19882" d="M212.579,614.706c-3.9,36.809,31.648,71,86.866,78.868,47.452,6.738,77.5,10.375,141.3,8.894a560.094,560.094,0,0,0,152.069-24.673c44.512-13.526,53.565-9.728,62.82,14.9S680.7,805.083,619.8,810.813s-388.446,26-428.068,21.154S130.512,738.535,140.649,680.8,215.634,585.86,212.579,614.706Z" transform="translate(-131.435 -589.544)" fill="#da8e5f" opacity="0.626"/>
              <path id="Trazado_19883" data-name="Trazado 19883" d="M212.276,615.306c-3.894,36.969,31.583,71.258,86.805,79.1,47.481,6.719,77.59,10.355,141.247,8.905a557.838,557.838,0,0,0,151.834-24.531c44.513-13.525,53.856-10.053,63.112,14.579S680.209,805.975,619.3,811.7s-388.446,26-428.068,21.155-61.217-93.432-51.081-151.166S215.315,586.458,212.276,615.306Z" transform="translate(-131.137 -589.929)" fill="#d98c5c" opacity="0.637"/>
              <path id="Trazado_19884" data-name="Trazado 19884" d="M211.973,615.906c-3.889,37.129,31.519,71.519,86.744,79.335,47.512,6.7,77.679,10.334,141.2,8.916a555.626,555.626,0,0,0,151.6-24.39c44.512-13.525,54.148-10.378,63.4,14.253S679.713,806.867,618.806,812.6s-388.446,26-428.068,21.155-61.217-93.432-51.081-151.166S214.995,587.056,211.973,615.906Z" transform="translate(-130.839 -590.313)" fill="#d98a5a" opacity="0.648"/>
              <path id="Trazado_19885" data-name="Trazado 19885" d="M211.669,616.505c-3.884,37.289,31.454,71.781,86.683,79.569,47.542,6.68,77.768,10.313,141.151,8.927a553.419,553.419,0,0,0,151.365-24.248c44.513-13.525,54.44-10.7,63.7,13.928S679.217,807.76,618.31,813.489s-388.446,26-428.068,21.155-61.217-93.432-51.081-151.166S214.675,587.654,211.669,616.505Z" transform="translate(-130.541 -590.698)" fill="#d88857" opacity="0.659"/>
              <path id="Trazado_19886" data-name="Trazado 19886" d="M211.367,617.1c-3.879,37.449,31.389,72.042,86.623,79.8,47.571,6.66,77.856,10.292,141.1,8.939a551.2,551.2,0,0,0,151.131-24.107c44.512-13.526,54.732-11.03,63.987,13.6s24.513,113.309-36.395,119.038-388.446,26-428.068,21.155S128.53,742.1,138.667,684.369,214.356,588.251,211.367,617.1Z" transform="translate(-130.244 -591.082)" fill="#d78654" opacity="0.67"/>
              <path id="Trazado_19887" data-name="Trazado 19887" d="M211.063,617.7c-3.874,37.609,31.324,72.3,86.562,80.037,47.6,6.641,77.945,10.272,141.054,8.95a549,549,0,0,0,150.9-23.965C634.088,669.2,644.6,671.369,653.854,696s24.372,113.54-36.536,119.269-388.446,26-428.068,21.155-61.217-93.432-51.081-151.166S214.036,588.848,211.063,617.7Z" transform="translate(-129.946 -591.465)" fill="#d78451" opacity="0.681"/>
              <path id="Trazado_19888" data-name="Trazado 19888" d="M210.76,618.3c-3.869,37.769,31.26,72.564,86.5,80.271,47.631,6.621,78.034,10.251,141.006,8.961a546.784,546.784,0,0,0,150.661-23.824c44.513-13.525,55.315-11.68,64.571,12.952s24.231,113.772-36.676,119.5-388.446,26-428.068,21.155-61.217-93.432-51.081-151.166S213.716,589.444,210.76,618.3Z" transform="translate(-129.648 -591.848)" fill="#d6824e" opacity="0.692"/>
              <path id="Trazado_19889" data-name="Trazado 19889" d="M210.457,618.9c-3.864,37.928,31.195,72.825,86.441,80.5,47.661,6.6,78.123,10.23,140.958,8.972a544.589,544.589,0,0,0,150.427-23.682c44.513-13.525,55.607-12.006,64.862,12.626s24.09,114-36.817,119.732-388.446,26-428.068,21.155S127.043,744.774,137.18,687.04,213.4,590.04,210.457,618.9Z" transform="translate(-129.35 -592.231)" fill="#d6804c" opacity="0.703"/>
              <path id="Trazado_19890" data-name="Trazado 19890" d="M210.154,619.5c-3.859,38.088,31.13,73.086,86.38,80.738,47.691,6.582,78.212,10.209,140.91,8.983a542.377,542.377,0,0,0,150.192-23.54c44.512-13.525,55.9-12.331,65.154,12.3s23.949,114.234-36.958,119.963-388.446,26-428.068,21.155-61.217-93.432-51.081-151.166S213.078,590.635,210.154,619.5Z" transform="translate(-129.053 -592.613)" fill="#d57e49" opacity="0.714"/>
              <path id="Trazado_19891" data-name="Trazado 19891" d="M209.851,620.093C206,658.342,240.916,693.44,296.17,701.065c47.721,6.563,78.3,10.188,140.862,8.994,56.89-1.037,105.445-9.874,149.957-23.4S643.18,674,652.435,698.636s23.809,114.465-37.1,120.194-388.446,26-428.068,21.155-61.217-93.432-51.08-151.166S212.759,591.23,209.851,620.093Z" transform="translate(-128.755 -592.995)" fill="#d47c46" opacity="0.725"/>
              <path id="Trazado_19892" data-name="Trazado 19892" d="M209.548,620.69c-3.848,38.409,31,73.609,86.258,81.206,47.751,6.543,78.389,10.168,140.814,9.005,56.835-1.01,105.21-9.732,149.723-23.257s56.482-12.982,65.737,11.65,23.668,114.7-37.239,120.425-388.446,26-428.068,21.154-61.217-93.432-51.081-151.166S212.439,591.824,209.548,620.69Z" transform="translate(-128.457 -593.376)" fill="#d47a43" opacity="0.736"/>
              <path id="Trazado_19893" data-name="Trazado 19893" d="M209.244,621.289c-3.766,38.576,30.936,73.87,86.2,81.439,47.78,6.524,78.478,10.147,140.765,9.017,56.779-.984,104.976-9.591,149.489-23.116s56.774-13.307,66.029,11.324,23.528,114.927-37.38,120.656-388.446,26-428.068,21.154S125.06,748.333,135.2,690.6,212.177,592.428,209.244,621.289Z" transform="translate(-128.159 -593.761)" fill="#d37840" opacity="0.747"/>
              <path id="Trazado_19894" data-name="Trazado 19894" d="M208.941,621.885c-3.762,38.736,30.871,74.131,86.137,81.673,47.81,6.5,78.567,10.126,140.717,9.027,56.724-.956,104.741-9.448,149.254-22.974s57.066-13.633,66.32,11S674.757,815.769,613.85,821.5s-388.446,26-428.068,21.154S124.565,749.221,134.7,691.487,211.856,593.022,208.941,621.885Z" transform="translate(-127.862 -594.141)" fill="#d2773e" opacity="0.758"/>
              <path id="Trazado_19895" data-name="Trazado 19895" d="M208.638,622.48c-3.758,38.9,30.806,74.392,86.076,81.907,47.841,6.485,78.656,10.105,140.67,9.039,56.668-.93,104.507-9.307,149.019-22.833s57.357-13.958,66.612,10.674,23.246,115.389-37.661,121.119-388.446,26-428.068,21.154-61.217-93.432-51.081-151.166S211.535,593.615,208.638,622.48Z" transform="translate(-127.564 -594.521)" fill="#d2753b" opacity="0.769"/>
              <path id="Trazado_19896" data-name="Trazado 19896" d="M208.335,623.075c-3.755,39.055,30.741,74.653,86.016,82.141,47.87,6.466,78.744,10.084,140.621,9.05,56.613-.9,104.272-9.166,148.784-22.691s57.649-14.283,66.9,10.349,23.105,115.62-37.8,121.35-388.446,26-428.068,21.154-61.217-93.432-51.081-151.166S211.214,594.207,208.335,623.075Z" transform="translate(-127.266 -594.901)" fill="#d17338" opacity="0.78"/>
              <path id="Trazado_19897" data-name="Trazado 19897" d="M208.032,623.669c-3.752,39.215,30.676,74.914,85.955,82.375,47.9,6.446,78.833,10.064,140.573,9.061,56.557-.877,104.038-9.024,148.55-22.549s57.941-14.609,67.2,10.023S673.27,818.43,612.363,824.159s-388.446,26-428.068,21.154-61.217-93.432-51.081-151.166S210.893,594.8,208.032,623.669Z" transform="translate(-126.968 -595.28)" fill="#d07135" opacity="0.791"/>
              <path id="Trazado_19898" data-name="Trazado 19898" d="M207.728,624.262c-3.748,39.375,30.612,75.176,85.894,82.608,47.93,6.427,78.921,10.043,140.525,9.073,56.5-.851,103.8-8.882,148.315-22.408s58.233-14.934,67.488,9.7,22.824,116.083-38.084,121.812-388.445,26-428.068,21.154-61.217-93.432-51.081-151.166S210.572,595.391,207.728,624.262Z" transform="translate(-126.67 -595.658)" fill="#d06f32" opacity="0.802"/>
              <path id="Trazado_19899" data-name="Trazado 19899" d="M207.425,624.856c-3.744,39.535,30.547,75.437,85.834,82.842,47.96,6.407,79.01,10.022,140.477,9.083,56.446-.824,103.568-8.741,148.081-22.266s58.525-15.26,67.779,9.372S672.279,820.2,611.372,825.931s-388.446,26-428.068,21.155-61.217-93.432-51.081-151.166S210.251,595.983,207.425,624.856Z" transform="translate(-126.373 -596.037)" fill="#cf6d30" opacity="0.813"/>
              <path id="Trazado_19900" data-name="Trazado 19900" d="M207.122,625.449c-3.741,39.694,30.482,75.7,85.773,83.076,47.99,6.387,79.1,10,140.429,9.094,56.391-.8,103.334-8.6,147.846-22.124s58.816-15.586,68.071,9.046,22.542,116.545-38.365,122.274-388.446,26-428.068,21.155S121.591,754.538,131.728,696.8,209.929,596.573,207.122,625.449Z" transform="translate(-126.075 -596.415)" fill="#ce6b2d" opacity="0.824"/>
              <path id="Trazado_19901" data-name="Trazado 19901" d="M206.818,626.042c-3.738,39.854,30.417,75.959,85.712,83.31,48.02,6.368,79.188,9.981,140.381,9.106,56.336-.77,103.1-8.458,147.611-21.983s59.108-15.911,68.363,8.721,22.4,116.776-38.506,122.505-388.446,26-428.068,21.155-61.217-93.432-51.081-151.166S209.608,597.164,206.818,626.042Z" transform="translate(-125.777 -596.792)" fill="#ce692a" opacity="0.835"/>
              <path id="Trazado_19902" data-name="Trazado 19902" d="M206.516,626.634c-3.735,40.014,30.353,76.22,85.651,83.544,48.05,6.349,79.277,9.959,140.333,9.117,56.28-.744,102.864-8.316,147.377-21.841s59.4-16.236,68.655,8.4,22.261,117.007-38.646,122.737-388.446,26-428.068,21.155S120.6,756.308,130.737,698.574,209.288,597.755,206.516,626.634Z" transform="translate(-125.479 -597.17)" fill="#cd6727" opacity="0.846"/>
              <path id="Trazado_19903" data-name="Trazado 19903" d="M206.212,627.226C202.482,667.4,236.5,703.708,291.8,711c48.079,6.329,79.366,9.939,140.284,9.128,56.225-.717,102.63-8.174,147.142-21.7s59.692-16.561,68.947,8.071S670.3,823.74,609.389,829.47s-388.446,26-428.068,21.155S120.1,757.192,130.241,699.458,208.966,598.345,206.212,627.226Z" transform="translate(-125.181 -597.547)" fill="#cc6524" opacity="0.857"/>
              <path id="Trazado_19904" data-name="Trazado 19904" d="M205.909,627.818c-3.727,40.333,30.223,76.743,85.53,84.011,48.109,6.31,79.455,9.918,140.236,9.139,56.169-.691,102.4-8.033,146.908-21.558s59.983-16.887,69.238,7.745,21.979,117.47-38.928,123.2-388.446,26-428.068,21.155-61.217-93.432-51.081-151.166S208.645,598.934,205.909,627.818Z" transform="translate(-124.883 -597.923)" fill="#cc6322" opacity="0.868"/>
              <path id="Trazado_19905" data-name="Trazado 19905" d="M205.606,628.409c-3.724,40.493,30.158,77,85.469,84.245,48.139,6.29,79.543,9.9,140.188,9.15,56.114-.664,102.16-7.891,146.673-21.416s60.275-17.213,69.53,7.419,21.839,117.7-39.069,123.43-388.446,26-428.068,21.155-61.217-93.432-51.081-151.166S208.324,599.523,205.606,628.409Z" transform="translate(-124.586 -598.299)" fill="#cb611f" opacity="0.879"/>
              <path id="Trazado_19906" data-name="Trazado 19906" d="M205.3,629c-3.721,40.653,30.093,77.265,85.409,84.479,48.169,6.271,79.632,9.877,140.14,9.161,56.058-.637,101.926-7.75,146.438-21.275s60.567-17.538,69.822,7.094,21.7,117.932-39.21,123.661-388.446,26-428.068,21.155-61.217-93.432-51.081-151.166S208,600.112,205.3,629Z" transform="translate(-124.288 -598.675)" fill="#ca5f1c" opacity="0.89"/>
              <path id="Trazado_19907" data-name="Trazado 19907" d="M205,629.591c-3.717,40.812,30.029,77.526,85.348,84.712,48.2,6.252,79.721,9.856,140.092,9.173,56-.611,101.691-7.608,146.2-21.134s60.858-17.863,70.113,6.769S668.314,827.274,607.407,833s-388.446,26-428.068,21.155-61.217-93.432-51.081-151.166S207.683,600.7,205,629.591Z" transform="translate(-123.99 -599.05)" fill="#ca5d19" opacity="0.901"/>
              <path id="Trazado_19908" data-name="Trazado 19908" d="M204.7,630.18c-3.713,40.972,29.964,77.787,85.287,84.946,48.229,6.232,79.81,9.835,140.043,9.183,55.947-.584,101.457-7.467,145.97-20.992s61.15-18.189,70.4,6.443,21.417,118.394-39.491,124.123-388.446,26-428.068,21.154-61.217-93.432-51.081-151.166S207.361,601.288,204.7,630.18Z" transform="translate(-123.692 -599.425)" fill="#c95b16" opacity="0.912"/>
              <path id="Trazado_19909" data-name="Trazado 19909" d="M204.393,630.77c-3.71,41.132,29.9,78.049,85.227,85.18,48.259,6.212,79.9,9.814,140,9.195,55.892-.558,101.222-7.325,145.735-20.85s61.441-18.514,70.7,6.118,21.276,118.625-39.632,124.354-388.446,26-428.068,21.155S117.13,762.49,127.267,704.756,207.04,601.876,204.393,630.77Z" transform="translate(-123.394 -599.8)" fill="#c95914" opacity="0.923"/>
              <path id="Trazado_19910" data-name="Trazado 19910" d="M204.09,631.36c-3.707,41.291,29.834,78.31,85.165,85.414,48.289,6.193,79.988,9.793,139.948,9.206,55.836-.531,100.988-7.183,145.5-20.709s61.733-18.84,70.989,5.793S666.827,829.92,605.92,835.649s-388.446,26-428.068,21.154-61.217-93.432-51.081-151.166S206.719,602.464,204.09,631.36Z" transform="translate(-123.097 -600.174)" fill="#c85711" opacity="0.934"/>
              <path id="Trazado_19911" data-name="Trazado 19911" d="M203.787,631.949c-3.7,41.451,29.77,78.571,85.105,85.648,48.318,6.173,80.076,9.772,139.9,9.217,55.781-.5,100.753-7.042,145.266-20.568s62.025-19.165,71.28,5.467S666.331,830.8,605.424,836.531s-388.446,26-428.067,21.154-61.217-93.432-51.081-151.166S206.4,603.051,203.787,631.949Z" transform="translate(-122.799 -600.548)" fill="#c7550e" opacity="0.945"/>
              <path id="Trazado_19912" data-name="Trazado 19912" d="M203.484,632.538c-3.7,41.611,29.7,78.832,85.044,85.881,48.348,6.154,80.165,9.752,139.851,9.228,55.725-.478,100.518-6.9,145.031-20.425s62.317-19.491,71.572,5.141,20.853,119.319-40.054,125.048-388.446,26-428.068,21.154S115.644,765.133,125.78,707.4,206.077,603.637,203.484,632.538Z" transform="translate(-122.501 -600.922)" fill="#c7530b" opacity="0.956"/>
              <path id="Trazado_19913" data-name="Trazado 19913" d="M203.181,633.125c-3.7,41.771,29.64,79.094,84.984,86.115,48.378,6.135,80.254,9.731,139.8,9.24,55.669-.451,100.284-6.759,144.8-20.284s62.609-19.816,71.864,4.816,20.713,119.55-40.195,125.279-388.446,26-428.068,21.154-61.217-93.432-51.081-151.166S205.756,604.223,203.181,633.125Z" transform="translate(-122.203 -601.295)" fill="#c65108" opacity="0.967"/>
              <path id="Trazado_19914" data-name="Trazado 19914" d="M202.877,633.713c-3.693,41.931,29.575,79.355,84.923,86.349,48.408,6.115,80.342,9.71,139.755,9.25,55.614-.425,100.049-6.617,144.562-20.142s62.9-20.141,72.156,4.491,20.572,119.781-40.336,125.51-388.445,26-428.067,21.154-61.217-93.432-51.081-151.166S205.435,604.809,202.877,633.713Z" transform="translate(-121.905 -601.668)" fill="#c54f06" opacity="0.978"/>
              <path id="Trazado_19915" data-name="Trazado 19915" d="M202.574,634.3c-3.689,42.09,29.511,79.616,84.862,86.583,48.438,6.1,80.432,9.69,139.707,9.262,55.559-.4,99.815-6.476,144.327-20s63.192-20.466,72.448,4.166,20.431,120.012-40.476,125.742-388.446,26-428.068,21.154-61.217-93.432-51.081-151.166S205.114,605.4,202.574,634.3Z" transform="translate(-121.608 -602.04)" fill="#c54d03" opacity="0.989"/>
              <path id="Trazado_19916" data-name="Trazado 19916" d="M202.271,634.889c-3.686,42.25,29.446,79.877,84.8,86.817,48.468,6.076,80.52,9.668,139.659,9.272,55.5-.371,99.58-6.334,144.092-19.859s63.484-20.792,72.739,3.84,20.29,120.243-40.617,125.973-388.446,26-428.068,21.155S113.661,768.654,123.8,710.92,204.793,605.98,202.271,634.889Z" transform="translate(-121.31 -602.413)" fill="#c44b00"/>
            </g>
          </g>
        </g>
      </g>
    </g>
  </g>
</svg>
