<svg xmlns="http://www.w3.org/2000/svg" width="64.1" height="77.739" viewBox="0 0 64.1 77.739">
  <g id="Grupo_9640" data-name="Grupo 9640" transform="translate(-4125.661 -4059.99)">
    <path id="Trazado_20488" data-name="Trazado 20488" d="M4376.9,4111.851a1.049,1.049,0,0,1-.674-.245l-3.224-2.7-6.846-3.133a1.036,1.036,0,0,1-.146-.082,5.5,5.5,0,0,1-.991-8.3l.252-.274a1.049,1.049,0,0,1,1.29-.2l10.965,6.2a1.041,1.041,0,0,1,.247.193l2.687,2.848a1.051,1.051,0,1,1-1.528,1.442l-2.579-2.733-10.074-5.7a3.4,3.4,0,0,0,.832,4.73l6.9,3.155a1.029,1.029,0,0,1,.238.15l3.333,2.794a1.051,1.051,0,0,1-.677,1.856Z" transform="translate(-212.909 -32.921)" fill="#4b4b4b"/>
    <path id="Trazado_20489" data-name="Trazado 20489" d="M4566.452,4339.2a1.008,1.008,0,0,1-.3-.043l-.253-.075a5.907,5.907,0,0,1-4.083-6.979l1.5-8.084a1.051,1.051,0,0,1,2.066.384l-1.51,8.127a3.825,3.825,0,0,0,2.006,4.3l2.548-5.839a24.748,24.748,0,0,1,6.357-8.8l3.429-3.024a1.05,1.05,0,0,1,1.389,1.576l-3.429,3.024a22.637,22.637,0,0,0-5.816,8.056l-2.945,6.75A1.053,1.053,0,0,1,4566.452,4339.2Z" transform="translate(-390.2 -231.714)" fill="#4b4b4b"/>
    <path id="Trazado_20490" data-name="Trazado 20490" d="M4377.635,4177.479a1.041,1.041,0,0,1-.652-.228l-1.478-1.172-5.646-2.164a5.433,5.433,0,0,1-3.266-3.371,4.744,4.744,0,0,1,.546-4.062l.19-.287a1.05,1.05,0,0,1,1.22-.416l6.114,2.112a1.051,1.051,0,1,1-.686,1.986l-5.3-1.833a2.621,2.621,0,0,0-.08,1.857,3.341,3.341,0,0,0,2.021,2.053l5.792,2.219a1.034,1.034,0,0,1,.277.158l1.6,1.272a1.05,1.05,0,0,1-.653,1.873Z" transform="translate(-215.414 -94.625)" fill="#4b4b4b"/>
    <path id="Trazado_20491" data-name="Trazado 20491" d="M4382.808,4232.643a1.061,1.061,0,0,1-.423-.089l-5.415-2.393a5.405,5.405,0,0,1-3.217-3.354,4.741,4.741,0,0,1,.546-4.06l.188-.287a1.051,1.051,0,0,1,1.223-.417l6.114,2.114a1.051,1.051,0,0,1-.688,1.986l-5.3-1.833a2.62,2.62,0,0,0-.081,1.857,3.345,3.345,0,0,0,2.022,2.055l5.458,2.409a1.051,1.051,0,0,1-.426,2.012Z" transform="translate(-221.821 -144.976)" fill="#4b4b4b"/>
    <path id="Trazado_20492" data-name="Trazado 20492" d="M4571.28,4358.4a1.05,1.05,0,0,1-.431-.093l-.82-.368a1.051,1.051,0,0,1,.862-1.917l.819.368a1.051,1.051,0,0,1-.431,2.009Z" transform="translate(-397.127 -264.854)" fill="#1d1e1c"/>
    <path id="Trazado_20493" data-name="Trazado 20493" d="M4431.272,4074.827c-2.56,0-4.813-.839-7.6-2.8l-14-9.583a3.1,3.1,0,0,0-.52,2.119,3.41,3.41,0,0,0,1.534,2.412,1.051,1.051,0,1,1-1.165,1.749,5.509,5.509,0,0,1-2.455-3.911,5.214,5.214,0,0,1,1.391-4.209l.252-.274a1.052,1.052,0,0,1,1.365-.155l14.8,10.126c2.649,1.862,4.587,2.55,6.948,2.412l8.357-.44a1.051,1.051,0,0,1,.111,2.1l-8.357.44C4431.7,4074.821,4431.488,4074.827,4431.272,4074.827Z" transform="translate(-251.801 0)" fill="#4b4b4b"/>
    <g id="Grupo_9639" data-name="Grupo 9639" transform="translate(4125.661 4077.284)">
      <g id="Grupo_9637" data-name="Grupo 9637" transform="translate(0 19.002)">
        <path id="Trazado_20494" data-name="Trazado 20494" d="M4393.126,4470.486a3.394,3.394,0,0,1-.829-.1l-4.63-1.168a1.051,1.051,0,0,1,.515-2.038l4.631,1.168a1.3,1.3,0,0,0,1.592-1.015l.294-1.533a1.3,1.3,0,0,0-.957-1.5l-6.611-1.949a1.051,1.051,0,0,1,.593-2.016l7.475,2.191a1.289,1.289,0,0,0,1.531-.89l.631-2.076a1.293,1.293,0,0,0-.822-1.608l-13.02-4.453a1.051,1.051,0,1,1,.679-1.988l13.02,4.453a3.385,3.385,0,0,1,2.154,4.208l-.632,2.077a2.995,2.995,0,0,0-1.978,3.951l-.294,1.533a3.4,3.4,0,0,1-3.343,2.759Z" transform="translate(-4355.793 -4446.617)" fill="#fa803f"/>
        <path id="Trazado_20495" data-name="Trazado 20495" d="M4180.752,4411.441a1.067,1.067,0,0,1-.277-.037l-5.057-1.38a1.051,1.051,0,1,1,.554-2.027l4.763,1.3,10.974-3.361a4.154,4.154,0,0,1,3.071-.314l7.751,2.194a1.05,1.05,0,1,1-.572,2.021l-7.751-2.193a2.072,2.072,0,0,0-1.582.185.957.957,0,0,1-.2.087l-11.363,3.48A1.038,1.038,0,0,1,4180.752,4411.441Z" transform="translate(-4169.498 -4405.461)" fill="#fa803f"/>
        <path id="Trazado_20496" data-name="Trazado 20496" d="M4156.442,4648.143a3.311,3.311,0,0,1-.63-.062l-17.619-4.285a1.052,1.052,0,0,1-.394-.189l-3.229-2.493-8.164-2.478a1.051,1.051,0,0,1,.611-2.011l8.347,2.535a1.088,1.088,0,0,1,.337.174l3.2,2.473,17.356,4.224a1.191,1.191,0,0,0,1.354-.936l.4-1.905a1.2,1.2,0,0,0-.854-1.4l-2.933-.8a1.051,1.051,0,0,1,.554-2.027l2.931.8a3.3,3.3,0,0,1,2.358,3.861l-.4,1.906A3.315,3.315,0,0,1,4156.442,4648.143Z" transform="translate(-4125.661 -4612.298)" fill="#fa803f"/>
        <path id="Trazado_20497" data-name="Trazado 20497" d="M4407.372,4607.2a3.366,3.366,0,0,1-.864-.112l-3.357-.889a1.051,1.051,0,0,1,.538-2.031l3.356.889a1.3,1.3,0,0,0,1.606-1.01l.391-2.016a1.307,1.307,0,0,0-.931-1.5l-4.29-1.178a1.05,1.05,0,0,1,.556-2.025l4.29,1.178a3.414,3.414,0,0,1,2.438,3.924l-.391,2.017a3.4,3.4,0,0,1-3.341,2.753Z" transform="translate(-4373.297 -4577.141)" fill="#fa803f"/>
      </g>
      <g id="Grupo_9638" data-name="Grupo 9638" transform="translate(17.192 0)">
        <path id="Trazado_20498" data-name="Trazado 20498" d="M4352.608,4729.091a1.05,1.05,0,0,1-.958-1.481l2.476-5.5a1.051,1.051,0,0,1,1.917.862l-2.476,5.5A1.05,1.05,0,0,1,4352.608,4729.091Z" transform="translate(-4345.017 -4669.283)" fill="#fa803f"/>
        <path id="Trazado_20499" data-name="Trazado 20499" d="M4290.686,4712.36a1.05,1.05,0,0,1-.961-1.473l1.843-4.2a1.051,1.051,0,0,1,1.924.846l-1.842,4.2A1.052,1.052,0,0,1,4290.686,4712.36Z" transform="translate(-4289.6 -4655.478)" fill="#fa803f"/>
        <path id="Trazado_20500" data-name="Trazado 20500" d="M4425.5,4253.925a1.063,1.063,0,0,1-.43-.092,1.051,1.051,0,0,1-.527-1.389l10.578-23.517c-.093-.314-.47-1.106-1.96-1.776a3.183,3.183,0,0,0-2.629-.289l-10.834,24.087a1.051,1.051,0,0,1-1.917-.861l10.957-24.361a1.064,1.064,0,0,1,.247-.342c.181-.167,1.854-1.583,5.039-.15s3.235,3.624,3.23,3.869a1.035,1.035,0,0,1-.092.412l-10.7,23.791A1.05,1.05,0,0,1,4425.5,4253.925Z" transform="translate(-4404.203 -4224.599)" fill="#fa803f"/>
        <path id="Trazado_20501" data-name="Trazado 20501" d="M4295.408,4751.671a6.682,6.682,0,0,1-2.871-.776c-3.771-1.826-3.278-3.814-3.141-4.194a1.051,1.051,0,0,1,2.012.6c.015.105.193.808,2.044,1.7,1.689.818,2.419.576,2.557.413a1.013,1.013,0,0,1,1.4-.4,1.087,1.087,0,0,1,.41,1.459A2.643,2.643,0,0,1,4295.408,4751.671Zm-4.034-4.258h0Zm0,0v0Zm0,0h0Z" transform="translate(-4289.298 -4691.226)" fill="#fa803f"/>
      </g>
    </g>
  </g>
</svg>
