<svg xmlns="http://www.w3.org/2000/svg" width="74.002" height="59.287" viewBox="0 0 74.002 59.287">
  <g id="Grupo_9633" data-name="Grupo 9633" transform="translate(-22.836 -267.413)">
    <g id="Grupo_9630" data-name="Grupo 9630">
      <g id="Grupo_9628" data-name="Grupo 9628">
        <path id="Trazado_20450" data-name="Trazado 20450" d="M61.824,312.6a14.891,14.891,0,0,1-10.606-4.376L49.1,306.105a15.041,15.041,0,0,1,0-21.212l11.668-11.667a4.5,4.5,0,0,1,6.363,6.363l-6.045,6.045a10,10,0,0,1-.672,13.4A1,1,0,1,1,59,297.62a8,8,0,0,0,0-11.313,1,1,0,0,1,0-1.414l6.717-6.718a2.51,2.51,0,0,0,0-3.535,2.568,2.568,0,0,0-3.535,0L50.51,286.307a13.042,13.042,0,0,0,0,18.384l2.122,2.122a13.043,13.043,0,0,0,18.385,0L89.4,288.428a2.009,2.009,0,0,0,0-2.828,2.056,2.056,0,0,0-2.828,0l-6.364,6.363a1,1,0,0,1-1.414-1.414l6.364-6.364a4,4,0,0,1,5.656,5.657L72.431,308.227A14.9,14.9,0,0,1,61.824,312.6Z" fill="#fa803f"/>
        <path id="Trazado_20451" data-name="Trazado 20451" d="M75.966,287.307a1,1,0,0,1-.707-1.707L87.28,273.579a2,2,0,0,0,0-2.829,2.056,2.056,0,0,0-2.828,0L72.431,282.771a1,1,0,0,1-1.414-1.415l12.021-12.02a4,4,0,0,1,5.656,5.657L76.673,287.014A1,1,0,0,1,75.966,287.307Z" fill="#fa803f"/>
        <path id="Trazado_20452" data-name="Trazado 20452" d="M78.795,292.963a1,1,0,0,1-.707-1.707l9.9-9.9a2.009,2.009,0,0,0,0-2.828,2.056,2.056,0,0,0-2.828,0l-9.9,9.9a1,1,0,0,1-1.414-1.414l9.9-9.9a4,4,0,0,1,5.656,5.657l-9.9,9.9A1,1,0,0,1,78.795,292.963Z" fill="#fa803f"/>
        <path id="Trazado_20453" data-name="Trazado 20453" d="M70.31,284.478a1,1,0,0,1-.708-1.706l9.9-9.9a2.009,2.009,0,0,0,0-2.828,2.058,2.058,0,0,0-2.829,0L64.652,282.064a1,1,0,1,1-1.414-1.415l12.021-12.02a4,4,0,0,1,5.657,5.656l-9.9,9.9A1,1,0,0,1,70.31,284.478Z" fill="#fa803f"/>
      </g>
      <g id="Grupo_9629" data-name="Grupo 9629">
        <path id="Trazado_20454" data-name="Trazado 20454" d="M56.874,321.917a4.5,4.5,0,0,1-3.182-7.68,1,1,0,1,1,1.414,1.414,2.5,2.5,0,0,0,3.536,3.537L70.31,307.52a1,1,0,0,1,1.414,1.414L60.056,320.6A4.489,4.489,0,0,1,56.874,321.917Z" fill="#fa803f"/>
        <path id="Trazado_20455" data-name="Trazado 20455" d="M32.833,310.809A4,4,0,0,1,30,303.984L48.389,285.6a1,1,0,0,1,1.414,1.414L31.418,305.4a2.01,2.01,0,0,0,0,2.829,2.058,2.058,0,0,0,2.829,0l6.364-6.364a1,1,0,0,1,1.414,1.414l-6.364,6.364A3.971,3.971,0,0,1,32.833,310.809Z" fill="#fa803f"/>
        <path id="Trazado_20456" data-name="Trazado 20456" d="M34.954,325.658a4,4,0,0,1-2.828-6.824l12.02-12.021a1,1,0,1,1,1.414,1.414L33.54,320.248a2.009,2.009,0,0,0,0,2.828,2.056,2.056,0,0,0,2.828,0l12.021-12.02A1,1,0,0,1,49.8,312.47L37.782,324.49A3.971,3.971,0,0,1,34.954,325.658Z" fill="#fa803f"/>
        <path id="Trazado_20457" data-name="Trazado 20457" d="M34.247,317.88a4,4,0,0,1-2.829-6.824l9.193-9.193a1,1,0,0,1,1.414,1.414l-9.192,9.193a2.009,2.009,0,0,0,0,2.828,2.057,2.057,0,0,0,2.828,0l8.966-8.985a1,1,0,1,1,1.415,1.412l-8.966,8.986A3.972,3.972,0,0,1,34.247,317.88Z" fill="#fa803f"/>
        <path id="Trazado_20458" data-name="Trazado 20458" d="M42.732,326.365a4,4,0,0,1-2.828-6.824l8.485-8.485A1,1,0,0,1,49.8,312.47l-8.485,8.485a2.009,2.009,0,0,0,0,2.828,2.056,2.056,0,0,0,2.828,0l13.191-13.2a1,1,0,1,1,1.415,1.414L45.561,325.2A3.973,3.973,0,0,1,42.732,326.365Z" fill="#fa803f"/>
      </g>
    </g>
    <g id="Grupo_9631" data-name="Grupo 9631">
      <path id="Trazado_20459" data-name="Trazado 20459" d="M68.8,322.248a4.465,4.465,0,0,1-3.181-1.313l-1.354-1.164a1,1,0,0,1,1.306-1.515l1.408,1.214a2.541,2.541,0,0,0,3.589.051,2.5,2.5,0,0,0,0-3.537,1,1,0,1,1,1.414-1.414,4.5,4.5,0,0,1-3.182,7.678Z" fill="#4b4b4b"/>
      <path id="Trazado_20460" data-name="Trazado 20460" d="M92.84,311.143a3.971,3.971,0,0,1-2.828-1.168l-6.364-6.365a1,1,0,0,1,1.414-1.414l6.364,6.364a2.056,2.056,0,0,0,2.828,0,2,2,0,0,0,0-2.829l-7.631-7.679a1,1,0,0,1,1.419-1.41l7.629,7.677a4,4,0,0,1-2.831,6.824Z" fill="#4b4b4b"/>
      <path id="Trazado_20461" data-name="Trazado 20461" d="M90.719,325.991a3.975,3.975,0,0,1-2.829-1.168L75.87,312.8a1,1,0,0,1,1.414-1.414l12.02,12.02a2.058,2.058,0,0,0,2.829,0,2.009,2.009,0,0,0,0-2.828L80.112,308.56a1,1,0,1,1,1.414-1.413l12.021,12.02a4,4,0,0,1-2.828,6.824Z" fill="#4b4b4b"/>
      <path id="Trazado_20462" data-name="Trazado 20462" d="M91.426,318.215a3.987,3.987,0,0,1-2.828-1.169l-9.9-9.9a1,1,0,0,1,1.414-1.415l9.9,9.9A2,2,0,0,0,92.84,312.8l-9.9-9.9a1,1,0,1,1,1.415-1.414l9.9,9.9a4,4,0,0,1-2.828,6.826Z" fill="#4b4b4b"/>
      <path id="Trazado_20463" data-name="Trazado 20463" d="M82.94,326.7a3.99,3.99,0,0,1-2.828-1.169L70.036,315.464a1,1,0,1,1,1.413-1.414l10.077,10.067a2,2,0,1,0,2.829-2.829l-9.9-9.9a1,1,0,0,1,1.414-1.414l9.9,9.9A4,4,0,0,1,82.94,326.7Z" fill="#4b4b4b"/>
    </g>
    <g id="Grupo_9632" data-name="Grupo 9632">
      <path id="Trazado_20464" data-name="Trazado 20464" d="M48.4,279.834a1,1,0,0,1-.707-.293,4.5,4.5,0,0,1,6.364-6.363l1.484,1.483a1,1,0,1,1-1.414,1.414l-1.484-1.483a2.569,2.569,0,0,0-3.536,0,2.512,2.512,0,0,0,0,3.535,1,1,0,0,1-.707,1.707Z" fill="#4b4b4b"/>
      <path id="Trazado_20465" data-name="Trazado 20465" d="M32.708,298.243a1,1,0,0,1-.714-.3l-8-8.156a4,4,0,0,1,5.663-5.649l6.364,6.363a1,1,0,0,1-1.414,1.414l-6.364-6.363a2.056,2.056,0,0,0-2.829,0,2.009,2.009,0,0,0,0,2.828l8,8.163a1,1,0,0,1-.713,1.7Z" fill="#4b4b4b"/>
      <path id="Trazado_20466" data-name="Trazado 20466" d="M38.854,287.259a1,1,0,0,1-.708-.293l-12.02-12.021a4,4,0,0,1,5.656-5.657L43.8,281.309a1,1,0,0,1-1.414,1.414L30.368,270.7a2.055,2.055,0,0,0-2.828,0,2,2,0,0,0,0,2.829l12.02,12.021a1,1,0,0,1-.706,1.707Z" fill="#4b4b4b"/>
      <path id="Trazado_20467" data-name="Trazado 20467" d="M36.025,292.916a1,1,0,0,1-.707-.293l-9.9-9.9a4,4,0,0,1,5.657-5.657l9.9,9.9a1,1,0,0,1-1.415,1.414l-9.9-9.9a2.056,2.056,0,0,0-2.828,0,2.01,2.01,0,0,0,0,2.829l9.9,9.9a1,1,0,0,1-.707,1.707Z" fill="#4b4b4b"/>
      <path id="Trazado_20468" data-name="Trazado 20468" d="M44.51,284.431a1,1,0,0,1-.707-.293l-9.9-9.9a4,4,0,0,1,5.656-5.657l10.077,10.067a1,1,0,1,1-1.413,1.415L38.147,269.995a2.058,2.058,0,0,0-2.829,0,2,2,0,0,0,0,2.829l9.9,9.9a1,1,0,0,1-.707,1.707Z" fill="#4b4b4b"/>
    </g>
  </g>
</svg>
