<svg xmlns="http://www.w3.org/2000/svg" width="99.014" height="81.036" viewBox="0 0 99.014 81.036">
  <g id="Grupo_9686" data-name="Grupo 9686" transform="translate(-146.215 -13)">
    <path id="Trazado_20609" data-name="Trazado 20609" d="M212.726,35.892a1.1,1.1,0,0,1-1.1-1.1V15.085a1.1,1.1,0,0,1,2.19,0V34.8A1.1,1.1,0,0,1,212.726,35.892Z" transform="translate(6.22 0.094)" fill="#fa803f"/>
    <path id="Trazado_20610" data-name="Trazado 20610" d="M212.726,91.555a1.1,1.1,0,0,1-1.1-1.1V40.085a1.1,1.1,0,0,1,2.19,0V90.46A1.1,1.1,0,0,1,212.726,91.555Z" transform="translate(6.22 2.471)" fill="#fa803f"/>
    <path id="Trazado_20611" data-name="Trazado 20611" d="M228.057,29.132H212.726a1.1,1.1,0,0,1-1.1-1.1V17.086a1.1,1.1,0,0,1,1.1-1.1h15.331a1.1,1.1,0,0,1,1.1,1.1V28.037A1.1,1.1,0,0,1,228.057,29.132Zm-14.236-2.19h13.141V18.181H213.821Z" transform="translate(6.22 0.284)" fill="#fa803f"/>
    <path id="Trazado_20612" data-name="Trazado 20612" d="M237.057,34.132H221.726a1.1,1.1,0,0,1-1.1-1.1V27.562a1.1,1.1,0,1,1,2.19,0v4.38h11.958l-2.957-3.7a1.092,1.092,0,0,1,0-1.368l2.957-3.7H227.2a1.1,1.1,0,1,1,0-2.19h9.856a1.094,1.094,0,0,1,.855,1.778l-3.833,4.792,3.833,4.791a1.095,1.095,0,0,1-.855,1.78Z" transform="translate(7.076 0.76)" fill="#fa803f"/>
    <g id="Grupo_9685" data-name="Grupo 9685" transform="translate(146.215 13)">
      <path id="Trazado_20613" data-name="Trazado 20613" d="M185.881,30.521c-4.585,0-7.666-3.521-7.666-8.761S181.3,13,185.881,13s7.666,3.521,7.666,8.761S190.466,30.521,185.881,30.521Zm0-15.331c-4.042,0-5.475,3.539-5.475,6.571s1.433,6.571,5.475,6.571,5.475-3.539,5.475-6.571S189.921,15.19,185.881,15.19Z" transform="translate(-143.172 -13)" fill="#4b4b4b"/>
      <path id="Trazado_20614" data-name="Trazado 20614" d="M176.31,91.184a1.1,1.1,0,0,1-1.1-1.1V44.1a1.1,1.1,0,0,1,2.19,0V90.089A1.1,1.1,0,0,1,176.31,91.184Z" transform="translate(-143.457 -10.147)" fill="#4b4b4b"/>
      <path id="Trazado_20615" data-name="Trazado 20615" d="M187.689,89.187a1.1,1.1,0,0,1-1.093-1.044L185.551,66.19h-.1L184.4,88.143a1.1,1.1,0,1,1-2.188-.1l1.1-23A1.1,1.1,0,0,1,184.405,64h2.19a1.1,1.1,0,0,1,1.094,1.044l1.1,23a1.1,1.1,0,0,1-1.043,1.145Z" transform="translate(-142.792 -8.151)" fill="#4b4b4b"/>
      <path id="Trazado_20616" data-name="Trazado 20616" d="M186.5,33.19h-2.19a1.1,1.1,0,0,1,0-2.19h2.19a1.1,1.1,0,1,1,0,2.19Z" transform="translate(-142.697 -11.288)" fill="#4b4b4b"/>
      <path id="Trazado_20617" data-name="Trazado 20617" d="M185.31,45.236a1.1,1.1,0,0,1-1.1-1.1V32.1a1.1,1.1,0,1,1,2.19,0V44.141A1.1,1.1,0,0,1,185.31,45.236Z" transform="translate(-142.602 -11.288)" fill="#4b4b4b"/>
      <path id="Trazado_20618" data-name="Trazado 20618" d="M167.411,78.272h-.051a1.094,1.094,0,0,1-1.069-1.078l-.171-11.124-19.2-7.4a1.1,1.1,0,0,1,.023-2.052c15.769-5.67,31.23-25.007,31.384-25.2a1.095,1.095,0,1,1,1.716,1.36c-.611.772-14.406,18.021-29.744,24.85l17.3,6.666a1.094,1.094,0,0,1,.7,1.005l.164,10.674c1.815-.323,5.711-1.587,9.66-6.506a1.095,1.095,0,1,1,1.707,1.371C174.027,78.066,168.065,78.272,167.411,78.272Z" transform="translate(-146.215 -11.288)" fill="#4b4b4b"/>
      <path id="Trazado_20619" data-name="Trazado 20619" d="M196.942,92.325h0a1.1,1.1,0,0,1-1.094-1.1l.038-50.145a1.094,1.094,0,0,1,1.329-1.069l9.009,1.978,8.785-2.928a1.1,1.1,0,0,1,.346-.056h3.817a.128.128,0,0,0,.127-.128v-3.6a.127.127,0,0,0-.127-.128h-3.7l-8.955,1.99a1.086,1.086,0,0,1-.678-.067L197,33.191h-2.637l-5.316,11.8a2.214,2.214,0,0,1-1.962,1.222h0a2.187,2.187,0,0,1-1.928-1.152l-5.349-11.87h-1.879l-9.835,14.695a2.2,2.2,0,0,0,.244,2.74l9.54,9.819a1.095,1.095,0,1,1-1.57,1.525l-9.543-9.82a4.4,4.4,0,0,1-.493-5.482l10.161-15.181a1.1,1.1,0,0,1,.91-.486h3.171a1.093,1.093,0,0,1,1,.645l5.607,12.446,5.538-12.446a1.094,1.094,0,0,1,1-.645h3.574a1.105,1.105,0,0,1,.44.092l8.725,3.831,8.721-1.937a1.09,1.09,0,0,1,.238-.026h3.817a2.32,2.32,0,0,1,2.317,2.318v3.6a2.32,2.32,0,0,1-2.317,2.318h-3.64l-8.9,2.968a1.093,1.093,0,0,1-.581.03l-7.974-1.75-.037,48.785A1.1,1.1,0,0,1,196.942,92.325Z" transform="translate(-144.377 -11.288)" fill="#4b4b4b"/>
    </g>
  </g>
</svg>
