<svg xmlns="http://www.w3.org/2000/svg" width="72.594" height="80.736" viewBox="0 0 72.594 80.736">
  <g id="Grupo_9684" data-name="Grupo 9684" transform="translate(-142 -244.018)">
    <g id="Grupo_9675" data-name="Grupo 9675" transform="translate(158.313 252.173)">
      <path id="Trazado_20577" data-name="Trazado 20577" d="M172.816,270.973a.815.815,0,0,1-.816-.816v-7.341a.816.816,0,1,1,1.631,0v7.341A.815.815,0,0,1,172.816,270.973Z" transform="translate(-163.843 -255.488)" fill="#fa803f"/>
      <path id="Trazado_20578" data-name="Trazado 20578" d="M166.078,264.607a.815.815,0,0,1-.816-.816V262.16h-2.447a.815.815,0,0,1-.613-1.352l5.71-6.525a.839.839,0,0,1,1.227,0l5.71,6.525a.815.815,0,0,1-.613,1.352h-4.078a.816.816,0,1,1,0-1.631h2.281l-3.912-4.471-3.912,4.471h1.465a.815.815,0,0,1,.816.816v2.446A.815.815,0,0,1,166.078,264.607Z" transform="translate(-162 -254.016)" fill="#fa803f"/>
      <path id="Trazado_20579" data-name="Trazado 20579" d="M166.825,271.949a.815.815,0,0,1-.816-.816v-.816a.816.816,0,0,1,1.631,0v.816A.815.815,0,0,1,166.825,271.949Z" transform="translate(-162.739 -256.87)" fill="#fa803f"/>
    </g>
    <g id="Grupo_9676" data-name="Grupo 9676" transform="translate(186.046 252.173)">
      <path id="Trazado_20580" data-name="Trazado 20580" d="M200.816,270.973a.815.815,0,0,1-.816-.816v-7.341a.816.816,0,1,1,1.631,0v7.341A.815.815,0,0,1,200.816,270.973Z" transform="translate(-196.737 -255.488)" fill="#fa803f"/>
      <path id="Trazado_20581" data-name="Trazado 20581" d="M204.972,264.607a.815.815,0,0,1-.816-.816v-2.446a.815.815,0,0,1,.816-.816h1.465l-3.912-4.471-3.912,4.471h2.281a.816.816,0,1,1,0,1.631h-4.078a.815.815,0,0,1-.613-1.352l5.71-6.525a.839.839,0,0,1,1.227,0l5.71,6.525a.815.815,0,0,1-.613,1.352h-2.447v1.631A.815.815,0,0,1,204.972,264.607Z" transform="translate(-196 -254.016)" fill="#fa803f"/>
      <path id="Trazado_20582" data-name="Trazado 20582" d="M206.807,271.949a.815.815,0,0,1-.816-.816v-.816a.816.816,0,0,1,1.631,0v.816A.815.815,0,0,1,206.807,271.949Z" transform="translate(-197.842 -256.87)" fill="#fa803f"/>
    </g>
    <g id="Grupo_9677" data-name="Grupo 9677" transform="translate(172.179 244.018)">
      <path id="Trazado_20583" data-name="Trazado 20583" d="M189.816,262.6a.815.815,0,0,1-.816-.816v-8.972a.816.816,0,0,1,1.631,0v8.972A.815.815,0,0,1,189.816,262.6Z" transform="translate(-180.843 -245.489)" fill="#fa803f"/>
      <path id="Trazado_20584" data-name="Trazado 20584" d="M183.078,261.174a.816.816,0,0,1-.816-.816v-8.2h-2.447a.815.815,0,0,1-.613-1.352l5.71-6.525a.841.841,0,0,1,1.227,0l5.71,6.525a.815.815,0,0,1-.613,1.352h-4.078a.816.816,0,0,1,0-1.631h2.281l-3.912-4.471-3.912,4.471h1.465a.815.815,0,0,1,.816.816v9.013A.816.816,0,0,1,183.078,261.174Z" transform="translate(-179 -244.017)" fill="#fa803f"/>
    </g>
    <g id="Grupo_9683" data-name="Grupo 9683" transform="translate(142 264.395)">
      <g id="Grupo_9679" data-name="Grupo 9679" transform="translate(45.658 5.71)">
        <g id="Grupo_9678" data-name="Grupo 9678">
          <path id="Trazado_20585" data-name="Trazado 20585" d="M213.051,317.285h-.816a.816.816,0,0,1,0-1.631v-14.93A7.173,7.173,0,0,0,205,293.631h-4.184a.816.816,0,1,1,0-1.631H205a8.807,8.807,0,0,1,8.866,8.724V316.47A.815.815,0,0,1,213.051,317.285Z" transform="translate(-198.35 -278.949)" fill="#4b4b4b"/>
          <path id="Trazado_20586" data-name="Trazado 20586" d="M210.816,336a.815.815,0,0,1-.816-.816V305.816a.815.815,0,0,1,.816-.816h.764a.816.816,0,0,1,.051,1.63v28.55A.815.815,0,0,1,210.816,336Z" transform="translate(-200.193 -281.346)" fill="#4b4b4b"/>
          <path id="Trazado_20587" data-name="Trazado 20587" d="M202.793,339.129a.815.815,0,0,1-.816-.816v-15.5a.816.816,0,1,1,1.631,0v15.5A.815.815,0,0,1,202.793,339.129Z" transform="translate(-198.714 -284.48)" fill="#4b4b4b"/>
          <path id="Trazado_20588" data-name="Trazado 20588" d="M202.871,287.419c-2.927,0-4.894-2.3-4.894-5.71s1.967-5.71,4.894-5.71,4.894,2.3,4.894,5.71S205.8,287.419,202.871,287.419Zm0-9.788c-2.405,0-3.263,2.107-3.263,4.078s.857,4.078,3.263,4.078,3.263-2.107,3.263-4.078S205.276,277.631,202.871,277.631Z" transform="translate(-197.977 -276)" fill="#4b4b4b"/>
        </g>
        <path id="Trazado_20589" data-name="Trazado 20589" d="M227.6,318.654h-.816a.816.816,0,0,1,0-1.631V302.341c0-3.414-2.622-5.71-6.525-5.71h-2.447a.816.816,0,1,1,0-1.631h2.447c4.8,0,8.157,3.019,8.157,7.341v15.5A.815.815,0,0,1,227.6,318.654Z" transform="translate(-201.484 -279.502)" fill="#4b4b4b"/>
        <path id="Trazado_20590" data-name="Trazado 20590" d="M224.816,336.732a.815.815,0,0,1-.816-.816v-26.1a.815.815,0,0,1,.816-.816h.816a.816.816,0,1,1,0,1.631v25.285A.815.815,0,0,1,224.816,336.732Z" transform="translate(-202.774 -282.083)" fill="#4b4b4b"/>
        <path id="Trazado_20591" data-name="Trazado 20591" d="M217.816,339.682a.815.815,0,0,1-.816-.816V325.816a.816.816,0,0,1,1.631,0v13.051A.815.815,0,0,1,217.816,339.682Z" transform="translate(-201.484 -285.033)" fill="#4b4b4b"/>
        <path id="Trazado_20592" data-name="Trazado 20592" d="M218.078,290.788c-2.44,0-4.078-1.967-4.078-4.894S215.639,281,218.078,281s4.078,1.967,4.078,4.894S220.518,290.788,218.078,290.788Zm0-8.157c-1.8,0-2.447,1.685-2.447,3.263s.643,3.263,2.447,3.263,2.447-1.685,2.447-3.263S219.883,282.631,218.078,282.631Z" transform="translate(-200.931 -276.922)" fill="#4b4b4b"/>
      </g>
      <g id="Grupo_9681" data-name="Grupo 9681" transform="translate(0 5.71)">
        <g id="Grupo_9680" data-name="Grupo 9680" transform="translate(11.419)">
          <path id="Trazado_20593" data-name="Trazado 20593" d="M157.631,317.285h-.816a.815.815,0,0,1-.816-.816V300.724A8.806,8.806,0,0,1,164.866,292h4.184a.816.816,0,1,1,0,1.631h-4.184a7.173,7.173,0,0,0-7.235,7.093v14.93a.816.816,0,0,1,0,1.631Z" transform="translate(-156 -278.949)" fill="#4b4b4b"/>
          <path id="Trazado_20594" data-name="Trazado 20594" d="M161.631,336a.815.815,0,0,1-.816-.816V306.631a.816.816,0,0,1,0-1.631h.816a.815.815,0,0,1,.816.816v29.364A.815.815,0,0,1,161.631,336Z" transform="translate(-156.737 -281.346)" fill="#4b4b4b"/>
          <path id="Trazado_20595" data-name="Trazado 20595" d="M169.839,339.129a.815.815,0,0,1-.816-.816v-15.5a.816.816,0,1,1,1.631,0v15.5A.815.815,0,0,1,169.839,339.129Z" transform="translate(-158.401 -284.48)" fill="#4b4b4b"/>
          <path id="Trazado_20596" data-name="Trazado 20596" d="M167.917,287.419c-2.927,0-4.894-2.3-4.894-5.71s1.967-5.71,4.894-5.71,4.894,2.3,4.894,5.71S170.844,287.419,167.917,287.419Zm0-9.788c-2.405,0-3.263,2.107-3.263,4.078s.857,4.078,3.263,4.078,3.263-2.107,3.263-4.078S170.322,277.631,167.917,277.631Z" transform="translate(-157.295 -276)" fill="#4b4b4b"/>
        </g>
        <path id="Trazado_20597" data-name="Trazado 20597" d="M143.631,318.654h-.816a.815.815,0,0,1-.816-.816v-15.5c0-4.322,3.354-7.341,8.157-7.341H152.6a.816.816,0,1,1,0,1.631h-2.447c-3.9,0-6.525,2.3-6.525,5.71v14.682a.816.816,0,1,1,0,1.631Z" transform="translate(-142 -279.502)" fill="#4b4b4b"/>
        <path id="Trazado_20598" data-name="Trazado 20598" d="M147.631,336.732a.815.815,0,0,1-.816-.816V310.631a.816.816,0,1,1,0-1.631h.816a.815.815,0,0,1,.816.816v26.1A.815.815,0,0,1,147.631,336.732Z" transform="translate(-142.737 -282.083)" fill="#4b4b4b"/>
        <path id="Trazado_20599" data-name="Trazado 20599" d="M154.816,339.682a.815.815,0,0,1-.816-.816V325.816a.816.816,0,0,1,1.631,0v13.051A.815.815,0,0,1,154.816,339.682Z" transform="translate(-144.212 -285.033)" fill="#4b4b4b"/>
        <path id="Trazado_20600" data-name="Trazado 20600" d="M153.078,290.788c-2.44,0-4.078-1.967-4.078-4.894S150.639,281,153.078,281s4.078,1.967,4.078,4.894S155.518,290.788,153.078,290.788Zm0-8.157c-1.8,0-2.447,1.685-2.447,3.263s.643,3.263,2.447,3.263,2.447-1.685,2.447-3.263S154.883,282.631,153.078,282.631Z" transform="translate(-143.29 -276.922)" fill="#4b4b4b"/>
      </g>
      <g id="Grupo_9682" data-name="Grupo 9682" transform="translate(22.024)">
        <path id="Trazado_20601" data-name="Trazado 20601" d="M185.71,282.051c-3.415,0-5.71-2.622-5.71-6.525S182.294,269,185.71,269s5.71,2.622,5.71,6.525S189.125,282.051,185.71,282.051Zm0-11.419c-3.01,0-4.078,2.636-4.078,4.894s1.069,4.894,4.078,4.894,4.078-2.636,4.078-4.894S188.719,270.631,185.71,270.631Z" transform="translate(-171.029 -269)" fill="#4b4b4b"/>
        <path id="Trazado_20602" data-name="Trazado 20602" d="M195.816,336.548a.815.815,0,0,1-.816-.816V308.816a.816.816,0,1,1,1.631,0v26.917A.815.815,0,0,1,195.816,336.548Z" transform="translate(-173.794 -276.189)" fill="#4b4b4b"/>
        <path id="Trazado_20603" data-name="Trazado 20603" d="M188.709,338.576a.815.815,0,0,1-.814-.779l-.781-17.166h-1.7L184.63,337.8a.816.816,0,1,1-1.63-.073l.816-17.945a.816.816,0,0,1,.815-.779h3.263a.816.816,0,0,1,.815.779l.816,17.945a.816.816,0,0,1-.778.852Z" transform="translate(-171.582 -278.217)" fill="#4b4b4b"/>
        <path id="Trazado_20604" data-name="Trazado 20604" d="M177.816,336.548a.815.815,0,0,1-.816-.816V308.816a.816.816,0,1,1,1.631,0v26.917A.815.815,0,0,1,177.816,336.548Z" transform="translate(-170.476 -276.189)" fill="#4b4b4b"/>
        <path id="Trazado_20605" data-name="Trazado 20605" d="M187.447,288.631h-1.631a.816.816,0,0,1,0-1.631h1.631a.816.816,0,0,1,0,1.631Z" transform="translate(-171.95 -272.318)" fill="#4b4b4b"/>
        <path id="Trazado_20606" data-name="Trazado 20606" d="M186.816,297.6a.815.815,0,0,1-.816-.816v-8.972a.816.816,0,1,1,1.631,0v8.972A.815.815,0,0,1,186.816,297.6Z" transform="translate(-172.135 -272.318)" fill="#4b4b4b"/>
        <path id="Trazado_20607" data-name="Trazado 20607" d="M193.357,305.01H187.3a8.641,8.641,0,0,1-2.2-.4.736.736,0,0,1-.105.015l-4.691.384-7.939,0a3.69,3.69,0,0,1-2.741-1.172,2.511,2.511,0,0,1-.6-2.031l1.694-9.458c.592-2.908,3.825-5.348,7.065-5.348h1a.815.815,0,0,1,.744.48l4.175,9.269,4.125-9.269a.815.815,0,0,1,.744-.48h.582a6.522,6.522,0,0,1,6.259,5.33l1.28,9.487a2.324,2.324,0,0,1-.533,1.925A3.743,3.743,0,0,1,193.357,305.01Zm-8.488-2.218a8.046,8.046,0,0,0,2.427.586h6.061a2.113,2.113,0,0,0,1.545-.672.7.7,0,0,0,.185-.622l-1.279-9.483a4.872,4.872,0,0,0-4.65-3.97H189.1l-3.959,8.789a1.648,1.648,0,0,1-1.462.91,1.629,1.629,0,0,1-1.436-.859l-3.984-8.84h-.473c-2.474,0-5.027,1.88-5.462,4.024l-1.688,9.415a.855.855,0,0,0,.221.7,2.084,2.084,0,0,0,1.507.608h7.872l2.309-.19c-1.819-1.151-5.059-2.906-7.6-2.652a.827.827,0,0,1-.689-.27.813.813,0,0,1-.188-.716l.9-4.107a.816.816,0,0,1,1.594.348l-.68,3.1C179.813,299.131,184.242,302.326,184.87,302.792Z" transform="translate(-169.001 -272.318)" fill="#4b4b4b"/>
        <path id="Trazado_20608" data-name="Trazado 20608" d="M176.2,302.019a.816.816,0,0,1-.661-1.293l.988-1.369a1.935,1.935,0,0,1,2.211-.828l3.207.6c.874-.1,5.69-.577,9.058.48l-.239-2.42a.816.816,0,0,1,1.623-.162l.372,3.768a.816.816,0,0,1-1.2.8c-3.018-1.625-9.477-.841-9.542-.833a.894.894,0,0,1-.251-.007l-3.407-.639a.824.824,0,0,1-.175-.054c-.059-.029-.229.1-.335.247l-.988,1.368A.812.812,0,0,1,176.2,302.019Z" transform="translate(-170.178 -274.032)" fill="#4b4b4b"/>
      </g>
    </g>
  </g>
</svg>
