<svg xmlns="http://www.w3.org/2000/svg" width="82.107" height="85.747" viewBox="0 0 82.107 85.747">
  <g id="Grupo_9665" data-name="Grupo 9665" transform="translate(-2857.637 -4124.619)">
    <g id="Grupo_9663" data-name="Grupo 9663" transform="translate(2857.637 4124.619)">
      <g id="Grupo_9661" data-name="Grupo 9661" transform="translate(0)">
        <path id="Trazado_20539" data-name="Trazado 20539" d="M2898.76,4210.366c-.035,0-.162,0-.2-.007a3.932,3.932,0,0,1-2.156-.706c-28.586-18.808-36.574-48.555-38.681-60.472l-.032-.184a2.461,2.461,0,0,1-.056-.542,2.729,2.729,0,0,1,2.308-2.7c.46-.07,6.162-1.076,10.033-1.761.415-1.125,1.153-4.041,1.418-5.088.365-1.441.365-1.441.543-1.678.244-.321.375-.493,13.279-6.552s13.194-6.057,13.564-6.057c.323,0,.6,0,13.519,6.169,13.167,6.291,13.218,6.423,13.463,7.053a1.334,1.334,0,0,1,.056.183c.51,2.261,1.2,4.925,1.574,5.966,2.96.529,9.413,1.67,10.018,1.762a2.722,2.722,0,0,1,2.332,2.7,3.066,3.066,0,0,1-.044.5l-.046.251c-2.115,11.911-10.121,41.659-38.687,60.448a4.062,4.062,0,0,1-2.1.708Zm-24.675-71.491c-.047.183-.1.412-.17.67-1.581,6.242-1.863,6.726-2.894,6.9-.094.017-10,1.772-10.7,1.878a.121.121,0,0,0-.09.129l.048.28c2.048,11.579,9.809,40.495,37.553,58.749a1.466,1.466,0,0,0,.879.282l.043,1.3.054-1.3a1.46,1.46,0,0,0,.719-.279c27.727-18.236,35.506-47.154,37.564-58.74l.046-.25c0-.119-.054-.167-.1-.174-.711-.108-8.082-1.412-10.709-1.883-.835-.141-1.311-.222-2.935-7.319-3.016-1.658-21.644-10.494-24.642-11.812C2895.774,4128.565,2877.192,4137.273,2874.085,4138.875Zm-3.512,5.014h0Zm56.212-.007.024,0Z" transform="translate(-2857.637 -4124.619)" fill="#4b4b4b"/>
      </g>
      <g id="Grupo_9662" data-name="Grupo 9662" transform="translate(20.365 6.577)">
        <path id="Trazado_20540" data-name="Trazado 20540" d="M3054.642,4187a1.288,1.288,0,0,1-.567-.131c-6.94-3.377-16.756-8.008-18.88-8.937-2.1.875-11.766,5.376-18.948,8.8a1.3,1.3,0,0,1-1.116-2.347c12.734-6.063,19.492-9.138,20.084-9.138.9,0,19.807,9.2,20,9.29a1.3,1.3,0,0,1-.57,2.468Z" transform="translate(-3014.389 -4175.244)" fill="#4b4b4b"/>
      </g>
    </g>
    <g id="Grupo_9664" data-name="Grupo 9664" transform="translate(2880.542 4148.898)">
      <path id="Trazado_20541" data-name="Trazado 20541" d="M3052.124,4347.872a18.189,18.189,0,1,1,18.189-18.189A18.21,18.21,0,0,1,3052.124,4347.872Zm0-33.779a15.59,15.59,0,1,0,15.59,15.59A15.608,15.608,0,0,0,3052.124,4314.092Z" transform="translate(-3033.935 -4311.494)" fill="#fa803f"/>
      <path id="Trazado_20542" data-name="Trazado 20542" d="M3109.185,4413.587a1.3,1.3,0,0,1-.812-.284l-8.5-6.8a1.3,1.3,0,0,1-.131-1.908l3.724-3.929a1.3,1.3,0,0,1,1.741-.132l3.626,2.826L3115,4397.4a1.3,1.3,0,0,1,1.822.015l3.754,3.753a1.3,1.3,0,0,1-.011,1.849l-10.469,10.2A1.3,1.3,0,0,1,3109.185,4413.587Zm-6.588-8.234,6.5,5.2,8.7-8.484-1.92-1.919-6.059,5.855a1.3,1.3,0,0,1-1.7.092l-3.586-2.794Z" transform="translate(-3090.879 -4385.918)" fill="#fa803f"/>
    </g>
  </g>
</svg>
