<svg xmlns="http://www.w3.org/2000/svg" width="76.008" height="65.983" viewBox="0 0 76.008 65.983">
  <g id="Grupo_9671" data-name="Grupo 9671" transform="translate(-22 -14.13)">
    <path id="Trazado_20551" data-name="Trazado 20551" d="M78.008,80.113a1,1,0,0,1-1-1V44.6a24.153,24.153,0,0,1-5.675-7.48,1,1,0,1,1,1.8-.879,21.834,21.834,0,0,0,5.488,7.1,1,1,0,0,1,.391.793V79.113A1,1,0,0,1,78.008,80.113Z" fill="#4b4b4b"/>
    <path id="Trazado_20552" data-name="Trazado 20552" d="M97.008,66.13h-2a1,1,0,0,1,0-2h1v-19c0-4.561-3.869-8-9-8h-2a11.012,11.012,0,0,1-11-11,1,1,0,0,1,2,0,9.01,9.01,0,0,0,9,9h2c6.271,0,11,4.3,11,10v20A1,1,0,0,1,97.008,66.13Z" fill="#4b4b4b"/>
    <path id="Trazado_20553" data-name="Trazado 20553" d="M92.008,80.113a1,1,0,0,1-1-1V49.13a1,1,0,0,1,1-1h1a1,1,0,0,1,0,2V79.113A1,1,0,0,1,92.008,80.113Z" fill="#4b4b4b"/>
    <path id="Trazado_20554" data-name="Trazado 20554" d="M85.008,80.113a1,1,0,0,1-1-1V63.13a1,1,0,0,1,2,0V79.113A1,1,0,0,1,85.008,80.113Z" fill="#4b4b4b"/>
    <path id="Trazado_20555" data-name="Trazado 20555" d="M85.008,33.13c-3.589,0-6-2.813-6-7s2.411-7,6-7,6,2.813,6,7S88.6,33.13,85.008,33.13Zm0-12c-2.949,0-4,2.583-4,5s1.051,5,4,5,4-2.583,4-5S87.957,21.13,85.008,21.13Z" fill="#4b4b4b"/>
    <path id="Trazado_20556" data-name="Trazado 20556" d="M42,80.113a1,1,0,0,1-1-1V44.13a1,1,0,0,1,.391-.793,21.839,21.839,0,0,0,5.487-7.1,1,1,0,0,1,1.8.879A24.153,24.153,0,0,1,43,44.6V79.113A1,1,0,0,1,42,80.113Z" fill="#4b4b4b"/>
    <path id="Trazado_20557" data-name="Trazado 20557" d="M25,66.13H23a1,1,0,0,1-1-1v-20c0-5.7,4.729-10,11-10h2a9.011,9.011,0,0,0,9-9,1,1,0,0,1,2,0,11.013,11.013,0,0,1-11,11H33c-5.131,0-9,3.439-9,8v19h1a1,1,0,0,1,0,2Z" fill="#4b4b4b"/>
    <path id="Trazado_20558" data-name="Trazado 20558" d="M28,80.113a1,1,0,0,1-1-1V50.13a1,1,0,0,1,0-2h1a1,1,0,0,1,1,1V79.113A1,1,0,0,1,28,80.113Z" fill="#4b4b4b"/>
    <path id="Trazado_20559" data-name="Trazado 20559" d="M35,80.113a1,1,0,0,1-1-1V63.13a1,1,0,0,1,2,0V79.113A1,1,0,0,1,35,80.113Z" fill="#4b4b4b"/>
    <path id="Trazado_20560" data-name="Trazado 20560" d="M35,33.13c-3.589,0-6-2.813-6-7s2.411-7,6-7,6,2.813,6,7S38.589,33.13,35,33.13Zm0-12c-2.949,0-4,2.583-4,5s1.051,5,4,5,4-2.583,4-5S37.949,21.13,35,21.13Z" fill="#4b4b4b"/>
    <path id="Trazado_20561" data-name="Trazado 20561" d="M60.008,80.113a1,1,0,0,1-1-1V63.13a1,1,0,0,1,2,0V79.113A1,1,0,0,1,60.008,80.113Z" fill="#fa803f"/>
    <path id="Trazado_20562" data-name="Trazado 20562" d="M68.008,80.113a1,1,0,0,1-1-1V41.13a1,1,0,0,1,.409-.807c.064-.047,6.591-4.994,6.591-15.193v-7.5a1.5,1.5,0,0,0-3,0v6.5a11.043,11.043,0,0,1-3.479,8.027,10.9,10.9,0,0,1-8.251,2.949,11.2,11.2,0,0,1-10.27-11.318V17.63a1.5,1.5,0,1,0-3,0v7.5c0,10.2,6.527,15.146,6.593,15.2a1,1,0,0,1,.407.805V79.113a1,1,0,0,1-2,0v-37.5c-1.568-1.328-7-6.641-7-16.479v-7.5a3.5,3.5,0,0,1,7,0v6.158a9.2,9.2,0,0,0,8.4,9.322,9,9,0,0,0,9.6-8.98v-6.5a3.5,3.5,0,0,1,7,0v7.5c0,9.838-5.432,15.151-7,16.479v37.5A1,1,0,0,1,68.008,80.113Z" fill="#fa803f"/>
    <path id="Trazado_20563" data-name="Trazado 20563" d="M60.008,31.13c-3.589,0-6-2.813-6-7s2.411-7,6-7,6,2.813,6,7S63.6,31.13,60.008,31.13Zm0-12c-2.949,0-4,2.583-4,5s1.051,5,4,5,4-2.583,4-5S62.957,19.13,60.008,19.13Z" fill="#fa803f"/>
  </g>
</svg>
