<svg xmlns="http://www.w3.org/2000/svg" width="73.933" height="68.776" viewBox="0 0 73.933 68.776">
  <g id="Grupo_9674" data-name="Grupo 9674" transform="translate(-4040 -2690)">
    <path id="Trazado_20564" data-name="Trazado 20564" d="M4103.806,2806.588h-18.23a1.013,1.013,0,0,1,0-2.026h18.23a1.013,1.013,0,0,0,1.013-1.013v-40.511a1.013,1.013,0,0,0-1.013-1.013h-60.767a1.013,1.013,0,0,0-1.013,1.013v40.511a1.013,1.013,0,0,0,1.013,1.013h18.23a1.013,1.013,0,0,1,0,2.026h-18.23a3.042,3.042,0,0,1-3.038-3.039v-40.511a3.042,3.042,0,0,1,3.038-3.038h60.767a3.042,3.042,0,0,1,3.039,3.038v40.511A3.042,3.042,0,0,1,4103.806,2806.588Z" transform="translate(0 -62.91)" fill="#4b4b4b"/>
    <path id="Trazado_20565" data-name="Trazado 20565" d="M4041.013,2772.153a1.013,1.013,0,0,1,0-2.025,9.125,9.125,0,0,0,9.115-9.115,1.013,1.013,0,0,1,2.025,0A11.153,11.153,0,0,1,4041.013,2772.153Z" transform="translate(0 -62.91)" fill="#4b4b4b"/>
    <path id="Trazado_20566" data-name="Trazado 20566" d="M4051.141,3112.153a1.012,1.012,0,0,1-1.013-1.013,9.125,9.125,0,0,0-9.115-9.115,1.013,1.013,0,0,1,0-2.026,11.153,11.153,0,0,1,11.141,11.141A1.012,1.012,0,0,1,4051.141,3112.153Z" transform="translate(0 -368.476)" fill="#4b4b4b"/>
    <path id="Trazado_20567" data-name="Trazado 20567" d="M4591.141,2772.153A11.153,11.153,0,0,1,4580,2761.013a1.013,1.013,0,0,1,2.025,0,9.125,9.125,0,0,0,9.115,9.115,1.013,1.013,0,0,1,0,2.025Z" transform="translate(-485.309 -62.91)" fill="#4b4b4b"/>
    <path id="Trazado_20568" data-name="Trazado 20568" d="M4581.013,3112.153a1.012,1.012,0,0,1-1.013-1.013A11.153,11.153,0,0,1,4591.141,3100a1.013,1.013,0,0,1,0,2.026,9.125,9.125,0,0,0-9.115,9.115A1.012,1.012,0,0,1,4581.013,3112.153Z" transform="translate(-485.309 -368.476)" fill="#4b4b4b"/>
    <path id="Trazado_20569" data-name="Trazado 20569" d="M4305.192,2842.026h-14.179a1.013,1.013,0,0,1,0-2.026h14.179a1.013,1.013,0,0,1,0,2.026Z" transform="translate(-224.68 -134.808)" fill="#4b4b4b"/>
    <path id="Trazado_20570" data-name="Trazado 20570" d="M4177.6,2932.026h-46.588a1.013,1.013,0,0,1,0-2.026H4177.6a1.013,1.013,0,0,1,0,2.026Z" transform="translate(-80.885 -215.693)" fill="#4b4b4b"/>
    <path id="Trazado_20571" data-name="Trazado 20571" d="M4176.761,2992.025h-46.588a1.013,1.013,0,0,1,0-2.025h46.588a1.013,1.013,0,0,1,0,2.025Z" transform="translate(-80.13 -269.616)" fill="#4b4b4b"/>
    <path id="Trazado_20572" data-name="Trazado 20572" d="M4177.6,3052.026h-46.588a1.013,1.013,0,0,1,0-2.026H4177.6a1.013,1.013,0,0,1,0,2.026Z" transform="translate(-80.885 -323.54)" fill="#4b4b4b"/>
    <path id="Trazado_20573" data-name="Trazado 20573" d="M4173.806,2736.588h-1.013a1.013,1.013,0,0,1,0-2.026h1.013a1.013,1.013,0,0,0,1.013-1.013v-40.512a1.013,1.013,0,0,0-1.013-1.013h-60.768a1.013,1.013,0,0,0-1.013,1.013v1.013a1.013,1.013,0,0,1-2.025,0v-1.013a3.042,3.042,0,0,1,3.038-3.038h60.768a3.042,3.042,0,0,1,3.038,3.038v40.512A3.042,3.042,0,0,1,4173.806,2736.588Z" transform="translate(-62.91)" fill="#4b4b4b"/>
    <g id="Grupo_9673" data-name="Grupo 9673" transform="translate(4063.143 2731.599)">
      <path id="Trazado_20574" data-name="Trazado 20574" d="M4324.63,3268.441a1.013,1.013,0,0,1-.492-.127l-4.374-2.428-4.374,2.428a1.013,1.013,0,0,1-1.5-.885v-9.316a1.013,1.013,0,0,1,2.025,0v7.595l3.361-1.865a1.01,1.01,0,0,1,.983,0l3.361,1.865v-7.595a1.013,1.013,0,0,1,2.026,0v9.316a1.014,1.014,0,0,1-1.013,1.013Z" transform="translate(-4309.291 -3241.264)" fill="#fa803f"/>
      <g id="Grupo_9672" data-name="Grupo 9672" transform="translate(0 0)">
        <path id="Trazado_20575" data-name="Trazado 20575" d="M4318.69,3156.57a5.614,5.614,0,1,1,5.614-5.613A5.62,5.62,0,0,1,4318.69,3156.57Zm0-9.2a3.588,3.588,0,1,0,3.588,3.589A3.593,3.593,0,0,0,4318.69,3147.367Z" transform="translate(-4308.562 -3140.824)" fill="#fa803f"/>
        <path id="Trazado_20576" data-name="Trazado 20576" d="M4280.719,3121a4.7,4.7,0,0,0-5.159-.155,3.253,3.253,0,0,1-2.224-2.452,3.15,3.15,0,0,1-2.836-1.289,3.35,3.35,0,0,1-.415-3.367,3.4,3.4,0,0,1,0-5.738,3.351,3.351,0,0,1,.416-3.366,3.145,3.145,0,0,1,2.836-1.29,3.251,3.251,0,0,1,2.224-2.453,7.53,7.53,0,0,0,6.149,0,3.252,3.252,0,0,1,2.224,2.451,3.143,3.143,0,0,1,2.836,1.29,3.352,3.352,0,0,1,.415,3.368,3.394,3.394,0,0,1,0,5.735,3.351,3.351,0,0,1-.415,3.368,3.14,3.14,0,0,1-2.836,1.289,3.252,3.252,0,0,1-2.224,2.452A3.29,3.29,0,0,1,4280.719,3121Zm-2.085-3.328a1.221,1.221,0,0,1,1.074.642,1.129,1.129,0,0,0,1.394.6,1.239,1.239,0,0,0,.868-1.4,1.224,1.224,0,0,1,1.739-1.252,1.121,1.121,0,0,0,1.441-.369,1.314,1.314,0,0,0-.064-1.715,1.242,1.242,0,0,1-.25-1.21,1.228,1.228,0,0,1,.913-.816,1.32,1.32,0,0,0,0-2.555,1.233,1.233,0,0,1-.667-2.023,1.315,1.315,0,0,0,.067-1.718,1.121,1.121,0,0,0-1.44-.369,1.225,1.225,0,0,1-1.741-1.249,1.241,1.241,0,0,0-.867-1.408,1.132,1.132,0,0,0-1.394.6,1.22,1.22,0,0,1-2.148,0,1.131,1.131,0,0,0-1.393-.6,1.242,1.242,0,0,0-.869,1.406,1.234,1.234,0,0,1-.507,1.143,1.221,1.221,0,0,1-1.228.11,1.128,1.128,0,0,0-1.445.367,1.314,1.314,0,0,0,.064,1.714,1.233,1.233,0,0,1-.669,2.028,1.32,1.32,0,0,0,0,2.553,1.232,1.232,0,0,1,.666,2.026,1.315,1.315,0,0,0-.064,1.716,1.126,1.126,0,0,0,1.442.369,1.214,1.214,0,0,1,1.227.106,1.234,1.234,0,0,1,.512,1.143,1.24,1.24,0,0,0,.868,1.407,1.129,1.129,0,0,0,1.393-.6A1.221,1.221,0,0,1,4278.634,3117.675Zm-4.2.41,0,0Zm-3.328-10.475-.009,0Zm15.05,0,.01,0Zm-8.229-5.149,0,0h0Z" transform="translate(-4268.506 -3100.74)" fill="#fa803f"/>
      </g>
    </g>
  </g>
</svg>
