<svg xmlns="http://www.w3.org/2000/svg" xmlns:xlink="http://www.w3.org/1999/xlink" width="340.263" height="257.359" viewBox="0 0 340.263 257.359">
  <defs>
    <radialGradient id="radial-gradient" cx="0.401" cy="0.599" r="0.872" gradientTransform="matrix(-0.61, 0.168, 0.104, 0.986, 1.745, -0.18)" gradientUnits="objectBoundingBox">
      <stop offset="0" stop-color="#acca6b"/>
      <stop offset="0.249" stop-color="#93b458"/>
      <stop offset="0.774" stop-color="#547e28"/>
      <stop offset="1" stop-color="#386613"/>
    </radialGradient>
    <linearGradient id="linear-gradient" y1="0.5" x2="1" y2="0.5" gradientUnits="objectBoundingBox">
      <stop offset="0" stop-color="#b9d647"/>
      <stop offset="0.178" stop-color="#a7c740"/>
      <stop offset="0.532" stop-color="#7ba02e"/>
      <stop offset="1" stop-color="#386613"/>
    </linearGradient>
    <clipPath id="clip-path">
      <path id="Trazado_18862" data-name="Trazado 18862" d="M1124.646,573.385c13.731-10.72,38.452-35.214,82.326-46.2,44.513-11.146,110.3,15.117,123.26,68.842,12.793,53.031-4.446,76.948-36.144,104.36-27.666,23.925-56.228,28.252-105.761,22.157-45.708-5.624-67.113,1.928-106.47.664-38.808-1.246-69.842-27.754-62.156-65.5,3.937-19.334,11.544-42.92,50.428-56.212C1093.178,593.62,1105.1,588.646,1124.646,573.385Z" transform="translate(-1018.525 -524.66)" fill="none"/>
    </clipPath>
    <radialGradient id="radial-gradient-2" cx="0.438" cy="0.176" r="0.798" gradientTransform="translate(0.147) scale(0.706 1)" xlink:href="#radial-gradient"/>
    <linearGradient id="linear-gradient-4" x1="-1.425" y1="-0.159" x2="-1.425" y2="0.729" xlink:href="#linear-gradient"/>
    <linearGradient id="linear-gradient-5" x1="-2.081" y1="-0.048" x2="-2.081" y2="0.838" xlink:href="#linear-gradient"/>
    <linearGradient id="linear-gradient-6" x1="-10.91" y1="1" x2="-10.91" y2="-0.061" xlink:href="#linear-gradient"/>
    <linearGradient id="linear-gradient-7" x1="-1.577" y1="-0.12" x2="-1.577" y2="0.869" xlink:href="#linear-gradient"/>
    <linearGradient id="linear-gradient-8" x1="-1.355" y1="0.017" x2="-1.355" y2="0.992" xlink:href="#linear-gradient"/>
    <linearGradient id="linear-gradient-9" x1="-9.645" y1="1.158" x2="-9.438" y2="0.177" gradientUnits="objectBoundingBox">
      <stop offset="0" stop-color="#f80"/>
      <stop offset="0.689" stop-color="#ffb300"/>
      <stop offset="1" stop-color="#ffc800"/>
    </linearGradient>
    <linearGradient id="linear-gradient-10" x1="0.452" y1="-0.12" x2="0.558" y2="1.093" xlink:href="#linear-gradient"/>
    <linearGradient id="linear-gradient-11" x1="0.534" y1="1.673" x2="0.485" y2="-0.026" gradientUnits="objectBoundingBox">
      <stop offset="0" stop-color="#b9d647"/>
      <stop offset="0.132" stop-color="#bfd958"/>
      <stop offset="0.393" stop-color="#d0e384"/>
      <stop offset="0.756" stop-color="#ebf3cb"/>
      <stop offset="1" stop-color="#fff"/>
    </linearGradient>
    <linearGradient id="linear-gradient-12" x1="0.519" y1="2.95" x2="0.492" y2="-0.714" gradientUnits="objectBoundingBox">
      <stop offset="0" stop-color="#e7ff8b"/>
      <stop offset="0.166" stop-color="#d5f27f"/>
      <stop offset="0.496" stop-color="#a9d061"/>
      <stop offset="0.954" stop-color="#629b31"/>
      <stop offset="1" stop-color="#5b962c"/>
    </linearGradient>
    <linearGradient id="linear-gradient-13" x1="0.478" y1="0.361" x2="0.64" y2="1.057" xlink:href="#linear-gradient-11"/>
    <linearGradient id="linear-gradient-14" x1="0.526" y1="0.001" x2="0.465" y2="1.181" xlink:href="#linear-gradient"/>
    <linearGradient id="linear-gradient-15" x1="1.662" y1="-3.244" x2="1.791" y2="-2.124" gradientUnits="objectBoundingBox">
      <stop offset="0" stop-color="#b7d447"/>
      <stop offset="0.181" stop-color="#a5c540"/>
      <stop offset="0.539" stop-color="#799e2d"/>
      <stop offset="1" stop-color="#386613"/>
    </linearGradient>
    <linearGradient id="linear-gradient-16" x1="0" y1="0.5" x2="1" y2="0.5" xlink:href="#linear-gradient-15"/>
  </defs>
  <g id="Grupo_9617" data-name="Grupo 9617" transform="translate(-790 -502.365)">
    <path id="Trazado_18711" data-name="Trazado 18711" d="M1110.627,592.188c36.58-26.589,66.387-19.172,91.826-21.77,46.753-4.775,96.643,7.735,106.7,65.953,9.931,57.467-20.132,89.763-61.383,115.87-31.848,20.156-87.976,21.437-120.9,16.8-23.093-3.256-58.613-10.133-85.392-19.9C1009.937,737.628,994.1,740.579,985.45,703c-2.742-11.914.739-42.452,52.325-64.008C1062.386,628.709,1076.843,616.744,1110.627,592.188Z" transform="translate(-186.968 -41.619)" opacity="0.2" fill="url(#radial-gradient)"/>
    <path id="Trazado_18712" data-name="Trazado 18712" d="M2474.286,631.088c.083-.05,8.431-4.91,16.729-.209,3.986,2.258,7.392,6.965,9.344,12.916a29.65,29.65,0,0,1,.636,17.33l-.8-.242c3.109-10.273-1.643-24.776-9.593-29.279-7.882-4.465-15.812.153-15.891.2Z" transform="translate(-1398.642 -89.89)" fill="#004700"/>
    <path id="Trazado_18713" data-name="Trazado 18713" d="M1807.731,578.031l-.449.7c-6.12-3.913-15.622-5.285-23.054.469-6.146,4.759-4.97,13.861-4.957,13.952l-.827.114c-.054-.393-1.25-9.675,5.273-14.725C1791.471,572.541,1801.365,573.961,1807.731,578.031Z" transform="translate(-832.496 -45.694)" fill="#004700"/>
    <g id="Grupo_9286" data-name="Grupo 9286" transform="translate(1079.768 509.167)">
      <path id="Trazado_18714" data-name="Trazado 18714" d="M2590.281,476.406a.431.431,0,0,1-.192-.816c.219-.109.446-.213.674-.31a.431.431,0,0,1,.337.793c-.212.091-.424.188-.627.289A.432.432,0,0,1,2590.281,476.406Z" transform="translate(-2572.419 -474.118)" fill="#a5d030"/>
      <path id="Trazado_18715" data-name="Trazado 18715" d="M2624.326,472.271l-.04,0a15.243,15.243,0,0,1-1.55-.222.431.431,0,0,1,.166-.845,14.328,14.328,0,0,0,1.462.209.431.431,0,0,1-.039.86Zm3.038-.04a.431.431,0,0,1-.049-.858,14.7,14.7,0,0,0,1.458-.244.431.431,0,0,1,.185.841c-.509.112-1.028.2-1.544.258Zm-7.466-1.023a.429.429,0,0,1-.13-.02c-.48-.152-.964-.291-1.441-.413a.431.431,0,1,1,.215-.834c.491.126.991.269,1.486.426a.431.431,0,0,1-.13.841Zm-10.513-.887a.431.431,0,0,1-.079-.854c.5-.094,1.021-.168,1.545-.218a.431.431,0,0,1,.082.857c-.5.048-.993.118-1.468.207A.436.436,0,0,1,2609.385,470.322Zm6.064-.114a.442.442,0,0,1-.056,0c-.5-.065-1-.113-1.486-.143a.431.431,0,0,1,.052-.86c.507.031,1.026.081,1.545.148a.431.431,0,0,1-.055.857Z" transform="translate(-2587.959 -469.202)" fill="#a5d030"/>
      <path id="Trazado_18716" data-name="Trazado 18716" d="M2729.327,473.792a.431.431,0,0,1-.18-.822c.384-.177.6-.3.6-.3a.431.431,0,0,1,.441.74c-.01.006-.249.148-.679.346A.43.43,0,0,1,2729.327,473.792Z" transform="translate(-2685.529 -471.971)" fill="#a5d030"/>
      <path id="Trazado_18717" data-name="Trazado 18717" d="M2496.827,494.08a.431.431,0,0,1-.192-.816c.219-.109.446-.213.674-.31a.431.431,0,1,1,.337.792c-.212.09-.424.188-.628.289A.431.431,0,0,1,2496.827,494.08Z" transform="translate(-2496.396 -488.495)" fill="#a5d030"/>
      <path id="Trazado_18718" data-name="Trazado 18718" d="M2530.873,489.944l-.04,0a15.246,15.246,0,0,1-1.55-.222.431.431,0,0,1,.166-.845,14.469,14.469,0,0,0,1.462.209.431.431,0,0,1-.038.859Zm3.038-.04a.431.431,0,0,1-.049-.858,14.76,14.76,0,0,0,1.458-.244.43.43,0,1,1,.185.841,15.627,15.627,0,0,1-1.543.259Zm-7.466-1.024a.432.432,0,0,1-.13-.02c-.48-.152-.964-.291-1.441-.413a.431.431,0,1,1,.215-.834c.491.126.991.27,1.486.426a.431.431,0,0,1-.13.841Zm-10.513-.887a.431.431,0,0,1-.08-.854c.5-.095,1.021-.168,1.546-.218a.431.431,0,0,1,.082.857c-.5.048-.993.118-1.468.207A.445.445,0,0,1,2515.931,487.995Zm6.064-.114a.437.437,0,0,1-.056,0c-.5-.065-1-.113-1.486-.143a.431.431,0,0,1,.052-.86c.506.031,1.026.081,1.544.148a.431.431,0,0,1-.055.857Z" transform="translate(-2511.937 -483.578)" fill="#a5d030"/>
      <path id="Trazado_18719" data-name="Trazado 18719" d="M2635.873,491.465a.431.431,0,0,1-.181-.822c.385-.177.6-.3.6-.3a.431.431,0,0,1,.441.74c-.01.006-.249.148-.679.346A.431.431,0,0,1,2635.873,491.465Z" transform="translate(-2609.506 -486.348)" fill="#a5d030"/>
    </g>
    <g id="Grupo_9287" data-name="Grupo 9287" transform="translate(901.303 518.092)">
      <path id="Trazado_18720" data-name="Trazado 18720" d="M1540.045,524.255a.431.431,0,0,1-.192-.816c.219-.109.446-.213.674-.31a.431.431,0,1,1,.337.793c-.213.09-.424.187-.628.289A.43.43,0,0,1,1540.045,524.255Z" transform="translate(-1539.614 -521.967)" fill="#a5d030"/>
      <path id="Trazado_18721" data-name="Trazado 18721" d="M1574.09,520.12l-.04,0a15.245,15.245,0,0,1-1.551-.222.431.431,0,1,1,.166-.845,14.331,14.331,0,0,0,1.462.209.431.431,0,0,1-.038.859Zm3.038-.039a.431.431,0,0,1-.049-.859,14.752,14.752,0,0,0,1.458-.244.431.431,0,0,1,.185.841,15.623,15.623,0,0,1-1.544.258Zm-7.466-1.023a.435.435,0,0,1-.13-.02c-.48-.152-.964-.291-1.44-.413a.431.431,0,0,1,.214-.834c.491.126.991.27,1.486.426a.431.431,0,0,1-.13.841Zm-10.514-.887a.431.431,0,0,1-.079-.854c.5-.094,1.021-.168,1.545-.218a.431.431,0,0,1,.082.857c-.5.048-.993.118-1.468.207A.444.444,0,0,1,1559.149,518.17Zm6.064-.114a.424.424,0,0,1-.056,0c-.5-.065-1-.113-1.486-.142a.431.431,0,0,1,.052-.86c.507.031,1.026.081,1.545.148a.431.431,0,0,1-.055.857Z" transform="translate(-1555.155 -517.051)" fill="#a5d030"/>
      <path id="Trazado_18722" data-name="Trazado 18722" d="M1679.09,521.64a.431.431,0,0,1-.18-.822c.384-.177.6-.3.6-.3a.431.431,0,0,1,.441.74c-.01.006-.249.148-.679.346A.43.43,0,0,1,1679.09,521.64Z" transform="translate(-1652.723 -519.82)" fill="#a5d030"/>
      <path id="Trazado_18723" data-name="Trazado 18723" d="M1565.3,547.46a.431.431,0,0,1-.192-.816c.219-.109.446-.213.674-.31a.431.431,0,0,1,.337.792c-.212.09-.424.188-.628.289A.428.428,0,0,1,1565.3,547.46Z" transform="translate(-1560.161 -540.843)" fill="#a5d030"/>
      <path id="Trazado_18724" data-name="Trazado 18724" d="M1599.349,543.324l-.04,0a15.236,15.236,0,0,1-1.55-.222.431.431,0,0,1,.166-.845,14.466,14.466,0,0,0,1.462.209.431.431,0,0,1-.038.859Zm3.038-.039a.431.431,0,0,1-.049-.858,14.685,14.685,0,0,0,1.458-.244.431.431,0,1,1,.185.841,15.645,15.645,0,0,1-1.543.259Zm-7.466-1.024a.432.432,0,0,1-.13-.02c-.48-.152-.965-.291-1.441-.413a.43.43,0,1,1,.214-.834c.491.126.991.269,1.486.426a.431.431,0,0,1-.13.841Zm-10.514-.887a.431.431,0,0,1-.079-.854c.5-.095,1.021-.168,1.545-.219a.431.431,0,0,1,.082.857c-.5.048-.993.118-1.468.207A.453.453,0,0,1,1584.408,541.375Zm6.064-.114a.462.462,0,0,1-.056,0c-.5-.065-1-.113-1.485-.143a.431.431,0,0,1,.052-.859c.506.031,1.026.081,1.544.148a.431.431,0,0,1-.055.857Z" transform="translate(-1575.702 -535.926)" fill="#a5d030"/>
      <path id="Trazado_18725" data-name="Trazado 18725" d="M1704.35,544.845a.431.431,0,0,1-.181-.822c.384-.177.6-.3.6-.3a.431.431,0,0,1,.441.74c-.01.006-.249.148-.679.346A.43.43,0,0,1,1704.35,544.845Z" transform="translate(-1673.271 -538.696)" fill="#a5d030"/>
    </g>
    <path id="Trazado_18726" data-name="Trazado 18726" d="M1929.177,495.708a.314.314,0,0,1-.16-.584,70.394,70.394,0,0,1,18.773-6.788,93.776,93.776,0,0,1,27.2-1.741.314.314,0,0,1,.281.344.31.31,0,0,1-.344.281,94.649,94.649,0,0,0-27,1.73,69.751,69.751,0,0,0-18.589,6.715A.316.316,0,0,1,1929.177,495.708Z" transform="translate(-954.955 26.083)" fill="#a5d030"/>
    <path id="Trazado_18727" data-name="Trazado 18727" d="M2030.7,1622.226a269.052,269.052,0,0,1-59.559,1.969.314.314,0,1,1,.056-.625,267.089,267.089,0,0,0,59.94-2.053h0a.314.314,0,0,1,.1.619Z" transform="translate(-989.114 -897.408)" fill="#a5d030"/>
    <path id="Trazado_18728" data-name="Trazado 18728" d="M946.752,1327.647a.313.313,0,0,1-.367-.21,35.151,35.151,0,0,1-1.888-11.052.314.314,0,0,1,.627-.01,34.575,34.575,0,0,0,1.858,10.87.313.313,0,0,1-.2.394Z" transform="translate(-154.201 -648.937)" fill="#a5d030"/>
    <path id="Trazado_18729" data-name="Trazado 18729" d="M2623.637,1337.757a.313.313,0,0,1-.111-.543,96.722,96.722,0,0,0,17.137-19.055.314.314,0,1,1,.53.335,97.443,97.443,0,0,1-17.269,19.2A.312.312,0,0,1,2623.637,1337.757Z" transform="translate(-1519.951 -650.52)" fill="#a5d030"/>
    <path id="Trazado_18730" data-name="Trazado 18730" d="M943.286,1179.745a.327.327,0,0,1-.072.008.314.314,0,0,1-.311-.317c.078-7.767.779-13.95,2.085-18.377a.314.314,0,0,1,.6.178c-1.29,4.371-1.982,10.5-2.06,18.206A.314.314,0,0,1,943.286,1179.745Z" transform="translate(-152.904 -522.659)" fill="#a5d030"/>
    <path id="Trazado_18731" data-name="Trazado 18731" d="M2660.068,1578.727c-4.938-1.122-10.32,3.6-10.633,7.349s9.225,8.913,14.854,4.534S2663.508,1579.509,2660.068,1578.727Z" transform="translate(-1541.114 -862.466)" fill="url(#linear-gradient)"/>
    <path id="Trazado_18732" data-name="Trazado 18732" d="M2709.976,675.506c-3.556,1.046-4.534,6.349-1.719,6.662s8.6-2.189,8.6-4.691S2712.635,674.724,2709.976,675.506Z" transform="translate(-1587.641 -127.538)" fill="url(#linear-gradient)"/>
    <path id="Trazado_18733" data-name="Trazado 18733" d="M2392,1706.418c-2.75-3.312-7.269-1.015-8.726.731s4.646,3.836,7.865,3.631S2393.542,1708.273,2392,1706.418Z" transform="translate(-1324.427 -965.106)" fill="url(#linear-gradient)"/>
    <path id="Trazado_18734" data-name="Trazado 18734" d="M2349.876,434.106a5.74,5.74,0,0,1,1.453,1.11,2.691,2.691,0,0,1,.3,3.309,4.927,4.927,0,0,1-5.08,2.291h0a7.312,7.312,0,0,1-5.589-5.671,1.788,1.788,0,0,1,.784-1.99C2343.351,432.378,2347.313,432.68,2349.876,434.106Zm-3.192,6.064a4.243,4.243,0,0,0,4.377-1.969,2.065,2.065,0,0,0-.217-2.54c-1.905-2.081-7.1-2.742-8.807-1.913-.5.241-.458,1-.418,1.314a6.605,6.605,0,0,0,5.065,5.108Zm-.065.323h0Z" transform="translate(-1290.166 69.628)" fill="#a5d030"/>
    <path id="Trazado_18735" data-name="Trazado 18735" d="M1531.042,1708.094a5.739,5.739,0,0,1-1.758-.5,2.691,2.691,0,0,1-1.494-2.969,4.927,4.927,0,0,1,3.891-3.99h0a7.311,7.311,0,0,1,7.275,3.235,1.788,1.788,0,0,1,0,2.139C1537.746,1707.316,1533.949,1708.484,1531.042,1708.094Zm.754-6.812a4.243,4.243,0,0,0-3.354,3.433,2.065,2.065,0,0,0,1.131,2.285c2.535,1.24,7.61-.044,8.9-1.44.375-.406.061-1.1-.091-1.376a6.606,6.606,0,0,0-6.582-2.9Zm-.057-.324h0Z" transform="translate(-628.663 -961.687)" fill="#a5d030"/>
    <g id="Grupo_9299" data-name="Grupo 9299" transform="translate(1036.121 630.382)">
      <path id="Trazado_18736" data-name="Trazado 18736" d="M2356.541,1119.054c-11.651.145-35.026,7.206-50.89,18.257S2262.4,1178.1,2262.4,1178.1l24.975,13.048s23.1-9.449,40.8-25.326C2350.226,1146.036,2356.541,1119.054,2356.541,1119.054Z" transform="translate(-2262.399 -1119.054)" fill="#004700"/>
      <path id="Trazado_18737" data-name="Trazado 18737" d="M2334.924,1193.872l-.226-.2c21.611-24.083,77.449-63.429,77.864-63.661l.149.264C2412.261,1130.544,2356.449,1169.884,2334.924,1193.872Z" transform="translate(-2321.212 -1127.966)" fill="#fff"/>
      <g id="Grupo_9288" data-name="Grupo 9288" transform="translate(75.726 13.355)">
        <rect id="Rectángulo_2186" data-name="Rectángulo 2186" width="0.303" height="0.303" transform="translate(10.938 1.404) rotate(-84.228)" fill="#fff"/>
        <path id="Trazado_18738" data-name="Trazado 18738" d="M2673.35,1191.457l.031-.3.625.063-.031.3Zm1.251.126.03-.3.626.063-.031.3Zm1.251.126.03-.3.626.063-.03.3Zm1.251.126.031-.3.625.063-.031.3Zm1.251.126.03-.3.625.063-.03.3Zm1.251.126.031-.3.626.063-.031.3Zm1.251.126.031-.3.626.063-.031.3Zm1.251.126.031-.3.625.063-.03.3Z" transform="translate(-2672.422 -1191.062)" fill="#fff"/>
        <rect id="Rectángulo_2187" data-name="Rectángulo 2187" width="0.303" height="0.303" transform="translate(0 0.302) rotate(-84.228)" fill="#fff"/>
      </g>
      <g id="Grupo_9289" data-name="Grupo 9289" transform="translate(64.277 21.936)">
        <rect id="Rectángulo_2188" data-name="Rectángulo 2188" width="0.303" height="0.303" transform="translate(15.978 3.753) rotate(-77.751)" fill="#fff"/>
        <path id="Trazado_18739" data-name="Trazado 18739" d="M2611.7,1237.972l.064-.3.581.126-.064.3Zm1.162.251.064-.3.581.126-.064.3Zm1.162.251.064-.3.581.126-.064.3Zm1.162.251.064-.3.581.126-.064.3Zm1.162.251.064-.3.581.125-.064.3Zm1.162.251.064-.3.581.125-.064.3Zm1.161.251.065-.3.581.126-.064.3Zm1.162.251.064-.3.581.126-.064.3Zm1.162.251.064-.3.581.126-.065.3Zm1.161.251.064-.3.581.125-.065.3Zm1.162.251.064-.3.581.126-.064.3Zm1.161.251.064-.3.581.126-.064.3Zm1.162.251.064-.3.581.126-.064.3Z" transform="translate(-2610.823 -1237.485)" fill="#fff"/>
        <rect id="Rectángulo_2189" data-name="Rectángulo 2189" width="0.303" height="0.303" transform="translate(0 0.296) rotate(-77.748)" fill="#fff"/>
      </g>
      <g id="Grupo_9290" data-name="Grupo 9290" transform="translate(50.857 32.365)">
        <rect id="Rectángulo_2190" data-name="Rectángulo 2190" width="0.303" height="0.304" transform="translate(20.291 5.416) rotate(-75.794)" fill="#fff"/>
        <path id="Trazado_18740" data-name="Trazado 18740" d="M2539.692,1294.034l.074-.294.571.144-.075.294Zm1.143.289.074-.294.571.144-.074.294Zm1.143.288.074-.294.572.144-.074.294Zm1.143.288.074-.294.572.144-.075.294Zm1.143.288.074-.294.571.144-.074.294Zm1.142.288.074-.294.572.144-.074.294Zm1.143.289.074-.294.571.144-.074.294Zm1.143.288.075-.294.571.144-.074.294Zm1.142.288.075-.294.572.144-.075.294Zm1.143.288.075-.294.571.144-.075.294Zm1.142.289.075-.294.571.144-.074.294Zm1.143.288.074-.294.572.144-.075.294Zm1.142.288.074-.294.572.144-.074.294Zm1.143.288.075-.294.572.144-.075.294Zm1.143.288.074-.294.572.145-.074.294Zm1.143.288.075-.294.571.144-.074.294Zm1.143.289.074-.294.572.144-.075.294Z" transform="translate(-2538.827 -1293.521)" fill="#fff"/>
        <rect id="Rectángulo_2191" data-name="Rectángulo 2191" width="0.303" height="0.303" transform="translate(0 0.294) rotate(-75.794)" fill="#fff"/>
      </g>
      <g id="Grupo_9291" data-name="Grupo 9291" transform="translate(37.564 43.213)">
        <rect id="Rectángulo_2192" data-name="Rectángulo 2192" width="0.303" height="0.303" transform="translate(20.67 6.527) rotate(-73.163)" fill="#fff"/>
        <path id="Trazado_18741" data-name="Trazado 18741" d="M2468.462,1352.425l.088-.29.583.176-.088.29Zm1.165.351.088-.29.582.176-.088.29Zm1.165.352.088-.291.583.176-.088.291Zm1.164.351.088-.291.582.176-.088.29Zm1.165.351.088-.29.583.175-.088.291Zm1.165.351.088-.291.583.176-.088.29Zm1.165.352.088-.291.582.176-.088.29Zm1.165.351.087-.291.582.175-.087.291Zm1.164.351.088-.29.582.176-.088.291Zm1.165.352.087-.291.582.176-.087.291Zm1.164.351.088-.29.582.175-.088.291Zm1.165.352.088-.291.583.176-.088.291Zm1.165.351.088-.29.583.176-.088.29Zm1.164.351.088-.291.583.176-.088.29Zm1.165.351.088-.29.583.176-.088.291Zm1.165.351.088-.29.583.176-.088.291Zm1.165.351.087-.29.583.176-.088.29Z" transform="translate(-2467.59 -1351.872)" fill="#fff"/>
        <rect id="Rectángulo_2193" data-name="Rectángulo 2193" width="0.303" height="0.303" transform="matrix(0.29, -0.957, 0.957, 0.29, 0, 0.29)" fill="#fff"/>
      </g>
      <g id="Grupo_9292" data-name="Grupo 9292" transform="translate(23.745 55.396)">
        <rect id="Rectángulo_2194" data-name="Rectángulo 2194" width="0.303" height="0.304" transform="translate(17.33 6.165) rotate(-71.232)" fill="#fff"/>
        <path id="Trazado_18742" data-name="Trazado 18742" d="M2394.391,1417.917l.1-.288.587.2-.1.287Zm1.175.4.1-.287.588.2-.1.288Zm1.176.4.1-.287.588.2-.1.287Zm1.175.4.1-.287.588.2-.1.287Zm1.175.4.1-.287.588.2-.1.287Zm1.176.4.1-.287.588.2-.1.287Zm1.175.4.1-.287.588.2-.1.287Zm1.176.4.1-.287.588.2-.1.288Zm1.176.4.1-.287.588.2-.1.287Zm1.175.4.1-.287.588.2-.1.287Zm1.176.4.1-.287.588.2-.1.287Zm1.175.4.1-.287.587.2-.1.287Zm1.175.4.1-.287.588.2-.1.287Zm1.175.4.1-.287.588.2-.1.288Z" transform="translate(-2393.517 -1417.332)" fill="#fff"/>
        <rect id="Rectángulo_2195" data-name="Rectángulo 2195" width="0.303" height="0.303" transform="translate(0 0.287) rotate(-71.228)" fill="#fff"/>
      </g>
      <g id="Grupo_9293" data-name="Grupo 9293" transform="translate(19.313 41.435)">
        <rect id="Rectángulo_2196" data-name="Rectángulo 2196" width="0.303" height="0.303" transform="matrix(0.998, -0.068, 0.068, 0.998, 0, 0.021)" fill="#fff"/>
        <path id="Trazado_18743" data-name="Trazado 18743" d="M2367.318,1361.384l-.042-.611.3-.021.042.611Zm-.083-1.222-.042-.611.3-.021.042.611Zm-.084-1.222-.042-.611.3-.021.042.611Zm-.083-1.222-.042-.611.3-.021.042.611Zm-.083-1.222-.042-.611.3-.021.042.611Zm-.084-1.222-.042-.611.3-.021.042.611Zm-.084-1.222-.042-.611.3-.021.042.611Zm-.083-1.222-.042-.611.3-.021.042.611Zm-.084-1.222-.042-.611.3-.021.042.611Zm-.084-1.222-.042-.611.3-.021.042.611Zm-.083-1.222-.042-.611.3-.021.042.611Zm-.084-1.222-.042-.611.3-.021.042.612Zm-.083-1.222-.042-.611.3-.021.042.611Z" transform="translate(-2366.21 -1345.175)" fill="#fff"/>
        <rect id="Rectángulo_2197" data-name="Rectángulo 2197" width="0.303" height="0.303" transform="matrix(0.998, -0.068, 0.068, 0.998, 1.149, 16.819)" fill="#fff"/>
      </g>
      <g id="Grupo_9294" data-name="Grupo 9294" transform="translate(6.349 54.378)">
        <rect id="Rectángulo_2198" data-name="Rectángulo 2198" width="0.303" height="0.303" transform="translate(0 0.059) rotate(-11.131)" fill="#fff"/>
        <path id="Trazado_18744" data-name="Trazado 18744" d="M2300.344,1430.476l-.118-.6.3-.059.118.6Zm-.237-1.2-.118-.6.3-.059.118.6Zm-.237-1.2-.118-.6.3-.059.118.6Zm-.237-1.2-.118-.6.3-.059.118.6Zm-.237-1.2-.118-.6.3-.059.118.6Zm-.237-1.2-.118-.6.3-.059.118.6Zm-.237-1.2-.118-.6.3-.059.119.6Zm-.237-1.2-.118-.6.3-.059.118.6Zm-.237-1.2-.118-.6.3-.059.118.6Zm-.237-1.2-.118-.6.3-.059.118.6Zm-.236-1.2-.119-.6.3-.059.118.6Zm-.237-1.2-.119-.6.3-.059.119.6Zm-.237-1.2-.119-.6.3-.059.119.6Z" transform="translate(-2297.208 -1414.498)" fill="#fff"/>
        <rect id="Rectángulo_2199" data-name="Rectángulo 2199" width="0.303" height="0.303" transform="translate(3.254 16.579) rotate(-11.131)" fill="#fff"/>
      </g>
      <g id="Grupo_9295" data-name="Grupo 9295" transform="translate(31.169 31.121)">
        <path id="Trazado_18745" data-name="Trazado 18745" d="M2429.527,1286.287c-.035-.292-.029-.341,0-.391l.134.071.148.03a1.777,1.777,0,0,0,.022.254Z" transform="translate(-2429.503 -1285.897)" fill="#fff"/>
        <path id="Trazado_18746" data-name="Trazado 18746" d="M2432.442,1304.5l-.107-.584.3-.058.107.588Zm-.214-1.176-.106-.588.3-.054.106.588Zm-.213-1.175-.106-.588.3-.054.106.588Zm-.212-1.175-.105-.588.3-.053.106.588Zm-.21-1.175-.105-.588.3-.053.105.587Zm-.21-1.175-.1-.588.3-.053.1.588Zm-.209-1.176-.1-.587.3-.052.1.587Zm-.207-1.175-.1-.588.3-.052.1.588Zm-.206-1.176-.1-.589.3-.052.1.588Zm-.2-1.177-.1-.589.3-.051.1.588Zm-.2-1.178-.1-.589.3-.049.1.589Zm-.193-1.18c-.035-.218-.065-.416-.092-.592l.3-.045c.027.175.057.372.091.589Z" transform="translate(-2429.968 -1289.99)" fill="#fff"/>
        <rect id="Rectángulo_2200" data-name="Rectángulo 2200" width="0.303" height="0.302" transform="matrix(0.984, -0.18, 0.18, 0.984, 2.576, 15.079)" fill="#fff"/>
      </g>
      <g id="Grupo_9296" data-name="Grupo 9296" transform="translate(45.227 19.776)">
        <rect id="Rectángulo_2201" data-name="Rectángulo 2201" width="0.303" height="0.303" transform="translate(0 0.059) rotate(-11.226)" fill="#fff"/>
        <path id="Trazado_18747" data-name="Trazado 18747" d="M2508.413,1242.979l-.122-.616.3-.059.122.616Zm-.245-1.233-.122-.616.3-.059.123.616Zm-.244-1.232-.123-.616.3-.059.123.616Zm-.245-1.232-.122-.616.3-.059.122.616Zm-.244-1.233-.123-.616.3-.059.122.616Zm-.245-1.232-.123-.616.3-.059.122.616Zm-.245-1.232-.122-.617.3-.059.123.616Zm-.245-1.233-.122-.616.3-.059.123.616Zm-.245-1.233-.122-.616.3-.059.122.616Zm-.245-1.233-.122-.616.3-.059.122.616Zm-.245-1.233-.122-.616.3-.059.122.616Z" transform="translate(-2505.661 -1229.063)" fill="#fff"/>
        <rect id="Rectángulo_2202" data-name="Rectángulo 2202" width="0.303" height="0.303" transform="translate(2.874 14.532) rotate(-11.244)" fill="#fff"/>
      </g>
      <g id="Grupo_9297" data-name="Grupo 9297" transform="translate(60.678 10.758)">
        <rect id="Rectángulo_2203" data-name="Rectángulo 2203" width="0.303" height="0.303" transform="matrix(0.997, -0.078, 0.078, 0.997, 0, 0.024)" fill="#fff"/>
        <path id="Trazado_18748" data-name="Trazado 18748" d="M2588.975,1192.965l-.047-.6.3-.024.048.6Zm-.094-1.2-.047-.6.3-.024.047.6Zm-.094-1.2-.047-.6.3-.024.047.6Zm-.094-1.2-.047-.6.3-.024.047.6Zm-.094-1.2-.047-.6.3-.024.047.6Zm-.094-1.2-.047-.6.3-.024.047.6Zm-.094-1.2-.047-.6.3-.024.047.6Zm-.094-1.2-.047-.6.3-.024.047.6Zm-.094-1.2-.047-.6.3-.024.047.6Zm-.094-1.2-.047-.6.3-.024.047.6Z" transform="translate(-2588.01 -1180.659)" fill="#fff"/>
        <rect id="Rectángulo_2204" data-name="Rectángulo 2204" width="0.303" height="0.303" transform="matrix(0.997, -0.078, 0.078, 0.997, 1.011, 12.906)" fill="#fff"/>
      </g>
      <g id="Grupo_9298" data-name="Grupo 9298" transform="translate(73.072 5.367)">
        <rect id="Rectángulo_2205" data-name="Rectángulo 2205" width="0.303" height="0.303" transform="translate(1.04 0.301) rotate(-83.876)" fill="#fff"/>
        <path id="Trazado_18749" data-name="Trazado 18749" d="M2654.68,1160.937l.067-.626.3.032-.067.626Zm.134-1.252.067-.626.3.032-.067.626Zm.135-1.252.067-.626.3.032-.067.626Zm.134-1.252.068-.626.3.032-.067.626Zm.135-1.252.067-.626.3.032-.068.626Zm.134-1.252.067-.626.3.032-.067.626Zm.134-1.252.067-.626.3.032-.067.626Z" transform="translate(-2654.581 -1151.874)" fill="#fff"/>
        <rect id="Rectángulo_2206" data-name="Rectángulo 2206" width="0.303" height="0.303" transform="matrix(0.107, -0.994, 0.994, 0.107, 0, 9.991)" fill="#fff"/>
      </g>
    </g>
    <g id="Grupo_9330" data-name="Grupo 9330" transform="translate(804.105 519.511)">
      <g id="Grupo_9329" data-name="Grupo 9329" transform="translate(0 0)" clip-path="url(#clip-path)">
        <path id="Trazado_18750" data-name="Trazado 18750" d="M985.124,431.247c17.319-13.521,32.822-49.409,88.16-63.266,56.145-14.059,124.8,16.434,141.143,84.2,16.135,66.887-9.236,110.709-58.053,145.169-37.689,26.6-110.73,35.189-151.443,32.646-28.557-1.784-56.324-9.6-91.133-5.187-48.641,6.171-84.538-54.283-65.828-99.117,9.779-23.433,18.987-42.309,68.031-59.074C945.073,456.677,960.469,450.5,985.124,431.247Z" transform="translate(-875.682 -394.475)" fill="url(#radial-gradient-2)"/>
        <g id="Grupo_9308" data-name="Grupo 9308" transform="translate(-24.168 47.132)">
          <path id="Trazado_18751" data-name="Trazado 18751" d="M895.517,947.006h-6.559v2.014l327.267-.8s14.418-113.948,5.246-121.35-57.174-50.844-90.937-49.5c-37.638,1.5-41.872,46.395-64.606,46.395s-28.707-11.835-49.882-11.835-34.5,25.784-48.353,25.784-20.176-10.843-41.768-10.843c-16.489,0-19.275,8.218-30.787,15.447h.379Z" transform="translate(-888.958 -777.342)" fill="url(#linear-gradient-4)"/>
          <path id="Trazado_18752" data-name="Trazado 18752" d="M1626.789,858.811c-4.477-9.6-23.249-35.042-58.592-35.042s-45.6,37.464-69.5,37.464-32.2-9.884-58.515-9.884-57.009,25.323-62.915,51.2,21.29,40.816,64.362,40.816,185.16-4.98,185.16-4.98Z" transform="translate(-1285.531 -815.109)" fill="url(#linear-gradient-5)"/>
          <path id="Trazado_18753" data-name="Trazado 18753" d="M1699.281,1013.315l-.048.076a20.542,20.542,0,0,1-3.467,3.859,51.747,51.747,0,0,1-8.852,6.079c-3.159,1.772-6.443,3.357-9.784,4.825q-2.507,1.1-5.055,2.118l-1.275.506c-.446.185-.9.365-1.348.562-.9.381-1.786.8-2.67,1.226a47.306,47.306,0,0,0-10.016,6.512,34.922,34.922,0,0,0-7.912,9.571,28.613,28.613,0,0,0-3.581,12.437c-.227,4.417,2.2,14.578,3.93,18.607l12.526-2.553c-1.423-2.686-6.97-8.878-7.554-15.919a18.4,18.4,0,0,1,1.817-8.96,27.363,27.363,0,0,1,5.594-7.975,40.685,40.685,0,0,1,8.137-6.269c.753-.444,1.514-.88,2.294-1.288.387-.211.781-.4,1.177-.608l1.26-.642q2.516-1.29,4.994-2.664c3.3-1.836,6.549-3.792,9.68-5.956a55.226,55.226,0,0,0,8.829-7.376,23.291,23.291,0,0,0,3.522-4.764c.143-.267.273-.542.4-.821Z" transform="translate(-1504.188 -969.3)" fill="url(#linear-gradient-6)"/>
          <path id="Trazado_18754" data-name="Trazado 18754" d="M1399.142,996.286c-13.454-4.624-20.73-15.144-37.677-15.144-21.72,0-26.046,24.811-40.255,24.811s-26.319-11.6-48.466-11.6-27.066,26.9-48.416,26.9-27.071-10.81-47.863-10.81-30.267,23.051-46.368,23.051c-20.908,0-24.591-10.729-24.591-10.729l-17.418,104.48,311.053-.758Z" transform="translate(-1050.946 -943.128)" fill="url(#linear-gradient-7)"/>
          <g id="Grupo_9301" data-name="Grupo 9301" transform="translate(116.748 72.922)">
            <path id="Trazado_18755" data-name="Trazado 18755" d="M1520.148,1168.329a2.979,2.979,0,0,0-3.395,4.069,11.148,11.148,0,0,1-1.061,8.011c-1.018,1.7-1.7,5.426,1.655,6.485s8.368-.513,6.577-5.171c-1.48-3.848-1.613-4.493-1.219-8.153C1523.155,1169.393,1521.506,1168.541,1520.148,1168.329Z" transform="translate(-1514.86 -1168.286)" fill="#378a13"/>
            <g id="Grupo_9300" data-name="Grupo 9300" transform="translate(1.587 1.934)">
              <path id="Trazado_18756" data-name="Trazado 18756" d="M1536.482,1199.452h-1.368l.585-20.7a.1.1,0,0,1,.1-.1h0a.1.1,0,0,1,.1.1Z" transform="translate(-1532.923 -1178.653)" fill="#004700"/>
              <path id="Trazado_18757" data-name="Trazado 18757" d="M1532.249,1201.818l-1.421-1.42.093-.093,1.421,1.419Z" transform="translate(-1529.436 -1196.266)" fill="#004700"/>
              <path id="Trazado_18758" data-name="Trazado 18758" d="M1538.8,1190.913l1.176-1.175-.093-.093-1.083,1.082Z" transform="translate(-1535.923 -1187.594)" fill="#004700"/>
              <path id="Trazado_18759" data-name="Trazado 18759" d="M1526.194,1240.142l-2.826-2.823.093-.093,2.826,2.823Z" transform="translate(-1523.368 -1226.301)" fill="#004700"/>
              <path id="Trazado_18760" data-name="Trazado 18760" d="M1539.086,1221.112l1.626-1.625-.093-.093-1.533,1.531Z" transform="translate(-1536.154 -1211.795)" fill="#004700"/>
            </g>
          </g>
          <path id="Trazado_18761" data-name="Trazado 18761" d="M1237.155,1138.832c-13.253,8.01-27.1,17.026-45.631,17.026-33.349,0-53.207-17.91-85.021-17.91s-34.019,25.112-86.574,25.112-78.052-22.791-122.134-22.791c-.777,0-1.534.038-2.277.1v99.976h-6.559v9.564h348.2Z" transform="translate(-888.958 -1070.685)" fill="url(#linear-gradient-8)"/>
          <path id="Trazado_18762" data-name="Trazado 18762" d="M1845.3,1194.073a29.7,29.7,0,0,0,8.4-6.74,25.547,25.547,0,0,0,3.053-4.524,28.57,28.57,0,0,0,2.012-4.9,43.226,43.226,0,0,0,1.715-9.877l.078-1.114c.032-.346.058-.694.106-1.037.082-.69.2-1.374.35-2.051a20.643,20.643,0,0,1,1.292-3.953,21.891,21.891,0,0,1,4.906-6.893,30.819,30.819,0,0,1,7.226-5.076,40.3,40.3,0,0,1,4.194-1.861q-2.236-.5-4.531-.9c-.258.094-.516.187-.773.285a34.038,34.038,0,0,0-8.535,4.73,26.137,26.137,0,0,0-6.679,7.545,25.585,25.585,0,0,0-2.123,4.695c-.276.816-.515,1.645-.709,2.482-.1.418-.184.839-.269,1.26l-.216,1.2a37.021,37.021,0,0,1-2.373,8.253,19.165,19.165,0,0,1-4.427,6.455c-3.682,3.512-21.163,9.389-34,9.389l21.908,6.624A54.536,54.536,0,0,0,1845.3,1194.073Z" transform="translate(-1641.444 -1076.54)" fill="url(#linear-gradient-9)"/>
          <g id="Grupo_9303" data-name="Grupo 9303" transform="translate(187.313 52.148)">
            <path id="Trazado_18763" data-name="Trazado 18763" d="M1897.6,1056.95a2.494,2.494,0,0,0-2.842,3.407,9.335,9.335,0,0,1-.888,6.708c-.853,1.419-1.421,4.543,1.385,5.43s7.006-.43,5.507-4.33c-1.239-3.222-1.35-3.762-1.021-6.827C1900.112,1057.841,1898.732,1057.128,1897.6,1056.95Z" transform="translate(-1893.167 -1056.915)" fill="#378a13"/>
            <g id="Grupo_9302" data-name="Grupo 9302" transform="translate(1.329 1.619)">
              <path id="Trazado_18764" data-name="Trazado 18764" d="M1911.271,1083.009h-1.145l.49-17.333a.082.082,0,0,1,.083-.082h0a.082.082,0,0,1,.082.082Z" transform="translate(-1908.291 -1065.594)" fill="#004700"/>
              <path id="Trazado_18765" data-name="Trazado 18765" d="M1907.727,1084.989l-1.19-1.188.078-.078,1.19,1.189Z" transform="translate(-1905.372 -1080.341)" fill="#004700"/>
              <path id="Trazado_18766" data-name="Trazado 18766" d="M1913.213,1075.859l.985-.984-.078-.078-.907.906Z" transform="translate(-1910.802 -1073.08)" fill="#004700"/>
              <path id="Trazado_18767" data-name="Trazado 18767" d="M1902.657,1117.077l-2.366-2.364.078-.078,2.367,2.364Z" transform="translate(-1900.291 -1105.488)" fill="#004700"/>
              <path id="Trazado_18768" data-name="Trazado 18768" d="M1913.451,1101.144l1.362-1.36-.078-.078-1.284,1.282Z" transform="translate(-1910.996 -1093.343)" fill="#004700"/>
            </g>
          </g>
          <g id="Grupo_9305" data-name="Grupo 9305" transform="translate(204.862 36.754)">
            <path id="Trazado_18769" data-name="Trazado 18769" d="M1990.24,974.407c-1.166-.147-2.4.543-1.917,1.862a4.265,4.265,0,0,1-.6,3.665c-.575.776-.958,2.482.935,2.967s4.727-.235,3.715-2.365c-.836-1.76-.911-2.055-.689-3.73C1991.938,974.893,1991.007,974.5,1990.24,974.407Z" transform="translate(-1987.253 -974.387)" fill="#378a13"/>
            <g id="Grupo_9304" data-name="Grupo 9304" transform="translate(0.896 0.885)">
              <path id="Trazado_18770" data-name="Trazado 18770" d="M1999.466,988.645h-.773l.331-9.47a.051.051,0,0,1,.055-.045h0a.051.051,0,0,1,.056.045Z" transform="translate(-1997.455 -979.13)" fill="#004700"/>
              <path id="Trazado_18771" data-name="Trazado 18771" d="M1997.074,989.727l-.8-.649.053-.043.8.649Z" transform="translate(-1995.486 -987.187)" fill="#004700"/>
              <path id="Trazado_18772" data-name="Trazado 18772" d="M2000.776,984.738l.664-.538-.052-.043-.612.5Z" transform="translate(-1999.15 -983.22)" fill="#004700"/>
              <path id="Trazado_18773" data-name="Trazado 18773" d="M1993.655,1007.259l-1.6-1.292.052-.042,1.6,1.292Z" transform="translate(-1992.058 -1000.927)" fill="#004700"/>
              <path id="Trazado_18774" data-name="Trazado 18774" d="M2000.936,998.553l.919-.743-.052-.042-.866.7Z" transform="translate(-1999.28 -994.291)" fill="#004700"/>
            </g>
          </g>
          <g id="Grupo_9306" data-name="Grupo 9306" transform="translate(251.184 60.364)">
            <path id="Trazado_18775" data-name="Trazado 18775" d="M2239.057,1100.961c-1.471,2.032-3.467,5.531-3.467,8.12a3.481,3.481,0,1,0,6.935,0C2242.525,1106.493,2240.529,1102.993,2239.057,1100.961Z" transform="translate(-2235.59 -1100.961)" fill="#004700"/>
            <path id="Trazado_18776" data-name="Trazado 18776" d="M2253.966,1136.939h-.449l.21-10.836h.028Z" transform="translate(-2250.173 -1121.414)" fill="#378a13"/>
          </g>
          <g id="Grupo_9307" data-name="Grupo 9307" transform="translate(226.001 10.975)">
            <path id="Trazado_18777" data-name="Trazado 18777" d="M2102.941,836.179c-1,1.529-2.361,4.162-2.361,6.11s1.192,2.849,2.361,2.849,2.361-.9,2.361-2.849S2103.942,837.708,2102.941,836.179Z" transform="translate(-2100.58 -836.179)" fill="#378a13"/>
            <path id="Trazado_18778" data-name="Trazado 18778" d="M2113.091,863.251h-.306l.143-8.154h.019Z" transform="translate(-2110.509 -851.568)" fill="#004700"/>
          </g>
        </g>
        <path id="Trazado_18779" data-name="Trazado 18779" d="M1637.647,1169.817c-17.374-4.389-62.25-11.937-114.357-5.074s-120.927,29.474-135.121,36.982c-51.151,27.059-1.42,46.118-1.42,46.118h250.9Z" transform="translate(-1300.422 -1043.102)" fill="url(#linear-gradient-10)"/>
        <g id="Grupo_9309" data-name="Grupo 9309" transform="translate(22.012 52.629)">
          <path id="Trazado_18780" data-name="Trazado 18780" d="M1138.441,1038.314l-.953-4.419-.953,4.419Z" transform="translate(-1136.534 -991.538)" fill="#004700"/>
          <path id="Trazado_18781" data-name="Trazado 18781" d="M1151.479,1036.449l-.953-4.419-.953,4.419Z" transform="translate(-1147.14 -990.021)" fill="#004700"/>
          <path id="Trazado_18782" data-name="Trazado 18782" d="M1160.406,1042.735l-.953-4.419-.953,4.419Z" transform="translate(-1154.402 -995.134)" fill="#004700"/>
          <path id="Trazado_18783" data-name="Trazado 18783" d="M1171.975,1039.273l-.953-4.419-.953,4.419Z" transform="translate(-1163.813 -992.318)" fill="#004700"/>
          <path id="Trazado_18784" data-name="Trazado 18784" d="M1145.8,1033.064l-1.121-5.2-1.121,5.2Z" transform="translate(-1142.251 -986.636)" fill="#004700"/>
          <path id="Trazado_18785" data-name="Trazado 18785" d="M1154.732,1038.53l-1.121-5.2-1.121,5.2Z" transform="translate(-1149.514 -991.082)" fill="#004700"/>
          <path id="Trazado_18786" data-name="Trazado 18786" d="M1166.3,1036.526l-1.121-5.2-1.121,5.2Z" transform="translate(-1158.925 -989.452)" fill="#004700"/>
          <path id="Trazado_18787" data-name="Trazado 18787" d="M1175.5,1041.992l-1.121-5.2-1.121,5.2Z" transform="translate(-1166.409 -993.898)" fill="#004700"/>
          <path id="Trazado_18788" data-name="Trazado 18788" d="M1859.911,1115.718l-1.351-6.262-1.351,6.262h1.106v1.405h.491v-1.405Z" transform="translate(-1722.783 -1053.004)" fill="#004700"/>
          <path id="Trazado_18789" data-name="Trazado 18789" d="M1535.255,1022.19l-.93-4.312-.93,4.312h.761v.968h.338v-.968Z" transform="translate(-1459.369 -978.509)" fill="#004700"/>
          <path id="Trazado_18790" data-name="Trazado 18790" d="M2249.386,966.415l-.93-4.312-.93,4.312h.761v.968h.338v-.968Z" transform="translate(-2040.295 -933.137)" fill="#004700"/>
          <path id="Trazado_18791" data-name="Trazado 18791" d="M2221.212,964.574l-.93-4.312-.93,4.312h.761v.968h.338v-.968Z" transform="translate(-2017.376 -931.64)" fill="#004700"/>
          <path id="Trazado_18792" data-name="Trazado 18792" d="M2238.739,959.631l-1.351-6.262-1.351,6.262h1.106v1.406h.491v-1.406Z" transform="translate(-2030.949 -926.032)" fill="#004700"/>
          <path id="Trazado_18793" data-name="Trazado 18793" d="M2197.684,971.619l-.931-4.312-.93,4.312h.761v.968h.338v-.968Z" transform="translate(-1998.237 -937.37)" fill="#004700"/>
          <path id="Trazado_18794" data-name="Trazado 18794" d="M2227,956.95l-1.248-5.785-1.248,5.785h1.021v1.3h.454v-1.3Z" transform="translate(-2021.571 -924.24)" fill="#004700"/>
          <path id="Trazado_18795" data-name="Trazado 18795" d="M2204.777,961.622l-1.249-5.785-1.248,5.785h1.021v1.3h.453v-1.3Z" transform="translate(-2003.489 -928.04)" fill="#004700"/>
          <path id="Trazado_18796" data-name="Trazado 18796" d="M2288.728,955.128l-2.463-11.414-2.463,11.414h2.015v2.562h.895v-2.562Z" transform="translate(-2069.806 -918.178)" fill="#004700"/>
          <path id="Trazado_18797" data-name="Trazado 18797" d="M2430.532,1119.871l-2.094-9.706-2.094,9.706h1.714v2.178h.761v-2.178Z" transform="translate(-2185.759 -1053.581)" fill="#004700"/>
          <path id="Trazado_18798" data-name="Trazado 18798" d="M2634.676,1117.393l1.938-7.709,1.939,7.709Z" transform="translate(-2355.231 -1053.19)" fill="#004700"/>
          <path id="Trazado_18799" data-name="Trazado 18799" d="M2623.5,1125.559l1.938-6.952,1.938,6.952Z" transform="translate(-2346.137 -1060.449)" fill="#004700"/>
          <path id="Trazado_18800" data-name="Trazado 18800" d="M2596.195,1126.4l1.68-6.441,1.679,6.441Z" transform="translate(-2323.928 -1061.548)" fill="#004700"/>
          <path id="Trazado_18801" data-name="Trazado 18801" d="M2681.8,1131.368l1.938-6.952,1.938,6.952Z" transform="translate(-2393.568 -1065.174)" fill="#004700"/>
          <path id="Trazado_18802" data-name="Trazado 18802" d="M2642.874,1108.157l1.938-9.827,1.938,9.827Z" transform="translate(-2361.901 -1043.954)" fill="#004700"/>
          <path id="Trazado_18803" data-name="Trazado 18803" d="M2669.758,1120.208l1.938-8.489,1.938,8.489Z" transform="translate(-2383.77 -1054.845)" fill="#004700"/>
          <path id="Trazado_18804" data-name="Trazado 18804" d="M2660.157,1126.91l1.938-6.952,1.938,6.952Z" transform="translate(-2375.959 -1061.548)" fill="#004700"/>
          <path id="Trazado_18805" data-name="Trazado 18805" d="M2650.9,1112.885l1.938-8.526,1.938,8.526Z" transform="translate(-2368.433 -1048.859)" fill="#004700"/>
          <path id="Trazado_18806" data-name="Trazado 18806" d="M2609.522,1113.831l1.938-8.526,1.938,8.526Z" transform="translate(-2334.77 -1049.628)" fill="#004700"/>
          <path id="Trazado_18807" data-name="Trazado 18807" d="M2506.517,859.675l-2.463-11.414-2.463,11.414h2.015v2.562h.895v-2.562Z" transform="translate(-2246.971 -840.53)" fill="#004700"/>
          <path id="Trazado_18808" data-name="Trazado 18808" d="M2610.576,855.689l-1.6-7.427-1.6,7.427h1.311v1.667h.583v-1.667Z" transform="translate(-2333.02 -840.53)" fill="#004700"/>
          <path id="Trazado_18809" data-name="Trazado 18809" d="M2273.865,814.24l-1.6-7.427-1.6,7.427h1.311v1.667h.583V814.24Z" transform="translate(-2059.114 -806.812)" fill="#004700"/>
          <path id="Trazado_18810" data-name="Trazado 18810" d="M2057.9,943.069l-1.278-5.922-1.278,5.922h1.046V944.4h.464v-1.329Z" transform="translate(-1883.962 -912.835)" fill="#004700"/>
          <path id="Trazado_18811" data-name="Trazado 18811" d="M1770.953,952.01l-1.715-7.949-1.715,7.949h1.4v1.784h.623V952.01Z" transform="translate(-1649.826 -918.46)" fill="#004700"/>
          <path id="Trazado_18812" data-name="Trazado 18812" d="M1202.738,1109.71l-1.784-8.27-1.784,8.27h1.46v1.856h.648v-1.856Z" transform="translate(-1187.486 -1046.484)" fill="#004700"/>
          <path id="Trazado_18813" data-name="Trazado 18813" d="M1600.33,1120.884l-1.351-6.262-1.351,6.262h1.106v1.405h.491v-1.405Z" transform="translate(-1511.621 -1057.207)" fill="#004700"/>
          <path id="Trazado_18814" data-name="Trazado 18814" d="M1579.01,1132.746l-1.2-5.573-1.2,5.573h.984V1134h.437v-1.251Z" transform="translate(-1494.52 -1067.417)" fill="#004700"/>
        </g>
        <g id="fire" transform="translate(117.927 147.67)">
          <ellipse id="Elipse_612" data-name="Elipse 612" cx="13.205" cy="3.513" rx="13.205" ry="3.513" transform="translate(0 17.554)" fill="url(#linear-gradient-11)" style="mix-blend-mode: multiply;isolation: isolate"/>
          <rect id="Rectángulo_2207" data-name="Rectángulo 2207" width="17.389" height="2.863" rx="1.432" transform="translate(18.617 22.408) rotate(-167.492)" fill="#5c4133"/>
          <path id="Trazado_18815" data-name="Trazado 18815" d="M1660.549,1414.039l15.893,3.526a.555.555,0,0,0,.662-.422l-16.977-3.766A.555.555,0,0,0,1660.549,1414.039Z" transform="translate(-1658.367 -1395.277)" fill="#33241d"/>
          <g id="Grupo_9310" data-name="Grupo 9310" transform="translate(3.119)">
            <path id="Trazado_18816" data-name="Trazado 18816" d="M1681.646,1325.927a9.528,9.528,0,0,1-1.007,1.636c.01-.054.024-.107.031-.161a9.248,9.248,0,0,0-2.052-6.526,7.038,7.038,0,0,1-.687,3.214c-.327-.422-.7-.879-1.117-1.422-1.772-2.314-1.027-6.329-1.027-6.329a10.707,10.707,0,0,0-3.238,6.236,5.244,5.244,0,0,1-.856-2.89,8.862,8.862,0,0,0-2.083,6.685c-.062-.072-.123-.147-.185-.231a6.194,6.194,0,0,1-.946-2.45,9.281,9.281,0,0,0-.638,6.848c.812,2.671,3.549,3.919,5.964,4.069a9.37,9.37,0,0,0,6.129-1.854C1681.723,1331.366,1682.284,1327.84,1681.646,1325.927Z" transform="translate(-1667.466 -1316.34)" fill="#ff4a2f"/>
            <path id="Trazado_18817" data-name="Trazado 18817" d="M1687.342,1354.633a6.129,6.129,0,0,0,1.047-2.362,4.219,4.219,0,0,0-.307-2.943,8.97,8.97,0,0,1-1.328,1.777,2.606,2.606,0,0,0-.592-1.029,10.424,10.424,0,0,1-2.719-4.806,7.712,7.712,0,0,0-1.385,5.445,2.785,2.785,0,0,1-.46-.555,7.815,7.815,0,0,1-1.093-2.917,9.879,9.879,0,0,0-.552,3.865,5.436,5.436,0,0,0,1.3,3.224,4.417,4.417,0,0,1-2.195,0,5.307,5.307,0,0,0,3.517,2.81,6.759,6.759,0,0,0,4.064-.051,3.778,3.778,0,0,0,2.8-3.259A3.378,3.378,0,0,1,1687.342,1354.633Z" transform="translate(-1676.897 -1339.874)" fill="#ff862f"/>
            <path id="Trazado_18818" data-name="Trazado 18818" d="M1697.406,1367.167a3.383,3.383,0,0,0,.245-2.255c-.436-1.29-1.36-1.29-2.093-2.476a9.5,9.5,0,0,1-1.029-2.825,7.01,7.01,0,0,0-.209,3.836,6.237,6.237,0,0,1,.024,2.245,3.972,3.972,0,0,1-1.408-1.971c-.259.725-1.157,4.241,2.22,4.87a3.421,3.421,0,0,0,3.615-1.588A1.372,1.372,0,0,1,1697.406,1367.167Z" transform="translate(-1687.938 -1351.54)" fill="#febd0d"/>
          </g>
          <rect id="Rectángulo_2208" data-name="Rectángulo 2208" width="17.389" height="2.863" rx="1.432" transform="matrix(0.976, -0.217, 0.217, 0.976, 1.641, 19.613)" fill="#7d5845"/>
          <path id="Trazado_18819" data-name="Trazado 18819" d="M1678.777,1414.039l-15.894,3.526a.555.555,0,0,1-.662-.422l16.977-3.766A.555.555,0,0,1,1678.777,1414.039Z" transform="translate(-1660.081 -1395.277)" fill="#473228"/>
        </g>
        <g id="Grupo_9311" data-name="Grupo 9311" transform="translate(130.034 95.417)">
          <path id="Trazado_18820" data-name="Trazado 18820" d="M1722.31,1301.829s16.23,1.458,19.484,1.124,1.731-.9,1.731-.9-18.559-.4-20.753-.555A.341.341,0,0,0,1722.31,1301.829Z" transform="translate(-1721.069 -1252.004)" opacity="0.5" fill="url(#linear-gradient-12)" style="mix-blend-mode: multiply;isolation: isolate"/>
          <path id="Trazado_18821" data-name="Trazado 18821" d="M1817.223,1230.93c-2.682.375-9.434,3.854-6.216,4.652s8.047,2.386,16.033,4.234,37.675,7.577,40.424,8.52,12.4,2.19,20.216,2.679,42.663-21.413,42.663-21.413-27.62-6.911-39.705-12.162C1880.12,1212.868,1817.223,1230.93,1817.223,1230.93Z" transform="translate(-1792.529 -1183.031)" fill="url(#linear-gradient-13)" style="mix-blend-mode: multiply;isolation: isolate"/>
          <g id="tent">
            <path id="Trazado_18822" data-name="Trazado 18822" d="M1718.174,1272.2l-.124-.569c4.364-.953,13.875-3.289,15.706-4.095l.235.533C1732.1,1268.9,1722.675,1271.216,1718.174,1272.2Z" transform="translate(-1717.604 -1224.386)" fill="#edad00"/>
            <path id="Trazado_18823" data-name="Trazado 18823" d="M1811.1,1045.217s-1.492,10.965-12.57,24.97-19.509,18.253-19.509,18.253,43.194-5.057,51.119-6.678-1.891-30.411-1.891-30.411Z" transform="translate(-1767.205 -1043.536)" fill="#edad00"/>
            <path id="Trazado_18824" data-name="Trazado 18824" d="M1894.547,1078.1s-6.824,22.166-8.917,26.624-4.17,8.848-4.17,8.848S1900.1,1112,1899.922,1112s-3.234-16.816-3.881-21.814-1.118-10.549-1.118-10.549Z" transform="translate(-1850.533 -1070.285)" fill="#ad5b20"/>
            <path id="Trazado_18825" data-name="Trazado 18825" d="M1883.6,1261.465l-15.625-2.078-4.241-11.076,23.536-3.274,3.179,10.686Z" transform="translate(-1836.11 -1206.084)" fill="#c96a25"/>
            <path id="Trazado_18826" data-name="Trazado 18826" d="M1844.5,1078.1c-.077,4.253-2.219,22.776-5.622,31.2s-6.532,14.284-6.532,14.284l-12.41-2.094s.369-8.417.6-9.964c2.716-1.969,8.191-7.635,14.068-14.594S1844.5,1078.1,1844.5,1078.1Z" transform="translate(-1800.485 -1070.285)" fill="#ff862f"/>
            <path id="Trazado_18827" data-name="Trazado 18827" d="M2056.293,1278.294s15-5.494,26.809-7.462,15.778-2.027,15.778-2.027l.77-6.218-43.878,1.06v12.2Z" transform="translate(-1992.331 -1220.361)" fill="#d46f27"/>
            <path id="Trazado_18828" data-name="Trazado 18828" d="M1971.106,1128.218c-.01,0,.8-11.918.8-11.918s-11.295-17.144-14.2-22.723-6.545-15.478-6.545-15.478-.516,23.614.721,32.661a143.662,143.662,0,0,0,2.75,14.906Z" transform="translate(-1907.144 -1070.285)" fill="#ff862f"/>
            <path id="Trazado_18829" data-name="Trazado 18829" d="M2096.074,1326.962c-.056-.072-5.586-7.227-7.427-10.2l.5-.307c1.824,2.946,7.337,10.077,7.393,10.149Z" transform="translate(-2019.074 -1264.182)" fill="#febd0d"/>
            <path id="Trazado_18830" data-name="Trazado 18830" d="M2322.548,1266.908c-.109-.047-10.912-4.727-12.111-5.224l.223-.538c1.2.5,12.01,5.18,12.119,5.228Z" transform="translate(-2199.494 -1219.188)" fill="#febd0d"/>
            <path id="Trazado_18831" data-name="Trazado 18831" d="M1950.734,1037.539c1.9.53,17.2,1.611,23.6,1.445s18.7-2.779,18.7-2.779,2.352,12.233,8.58,21.779c5.651,8.661,18.047,21.03,18.047,21.03s-10.318,2.132-19.8,4.211-22.869,6.282-22.869,6.282-12.641-12.02-18.545-25.16A109.108,109.108,0,0,1,1950.734,1037.539Z" transform="translate(-1906.886 -1036.205)" fill="#febd0d"/>
            <path id="Trazado_18832" data-name="Trazado 18832" d="M1716.9,1288.583l-1.241-2.957,1.4-.422.422,3.194Z" transform="translate(-1715.658 -1238.759)" fill="#7d5845"/>
            <path id="Trazado_18833" data-name="Trazado 18833" d="M2126.386,1362.192l-1.012,2.685.807.288,1.521-2.394Z" transform="translate(-2048.951 -1301.386)" fill="#7d5845"/>
            <path id="Trazado_18834" data-name="Trazado 18834" d="M2373.124,1284.584l1.026-2.021-1.207-.466-.414,2.339Z" transform="translate(-2250.004 -1236.232)" fill="#7d5845"/>
          </g>
        </g>
        <path id="Trazado_18835" data-name="Trazado 18835" d="M836.115,1354.961c14.374-1.563,49.768-2.644,94.969,2.711a300.032,300.032,0,0,1,95.738,28.015c69.935,34.125,24.709,18.1,24.709,18.1l-205.909-1.03Z" transform="translate(-870.139 -1199.049)" fill="url(#linear-gradient-14)"/>
        <g id="Grupo_9328" data-name="Grupo 9328" transform="translate(149.791 76.718)">
          <g id="Grupo_9314" data-name="Grupo 9314" transform="translate(63.562 53.307)">
            <g id="Grupo_9313" data-name="Grupo 9313">
              <path id="Trazado_18836" data-name="Trazado 18836" d="M2176.576,1221.844c-5.558-.759-11.424,2.8-9.139,9.587s-.115,14.881-2.856,18.875-4.569,12.783,4.455,15.28,22.528-1.209,17.706-12.184c-3.983-9.066-4.341-10.586-3.282-19.21C2184.669,1224.349,2180.231,1222.343,2176.576,1221.844Z" transform="translate(-2162.34 -1221.743)" fill="#378a13"/>
              <g id="Grupo_9312" data-name="Grupo 9312" transform="translate(4.272 4.556)">
                <path id="Trazado_18837" data-name="Trazado 18837" d="M2220.547,1295.174h-3.681l1.576-48.775a.25.25,0,0,1,.265-.232h0a.25.25,0,0,1,.265.232Z" transform="translate(-2210.968 -1246.168)" fill="#004700"/>
                <path id="Trazado_18838" data-name="Trazado 18838" d="M2209.152,1300.748l-3.826-3.345.251-.219,3.825,3.345Z" transform="translate(-2201.58 -1287.668)" fill="#004700"/>
                <path id="Trazado_18839" data-name="Trazado 18839" d="M2226.792,1275.055l3.167-2.769-.251-.219-2.916,2.549Z" transform="translate(-2219.042 -1267.236)" fill="#004700"/>
                <path id="Trazado_18840" data-name="Trazado 18840" d="M2192.852,1391.047l-7.609-6.652.251-.219,7.609,6.652Z" transform="translate(-2185.243 -1358.433)" fill="#004700"/>
                <path id="Trazado_18841" data-name="Trazado 18841" d="M2227.559,1346.208l4.378-3.828-.25-.219-4.128,3.608Z" transform="translate(-2219.666 -1324.255)" fill="#004700"/>
              </g>
            </g>
          </g>
          <path id="Trazado_18842" data-name="Trazado 18842" d="M1980.059,1306.478c-10.073-10.024-18.631-7.959-23.941.089s-20.788-9.757-28.924.212c-7.008,8.587.913,14.782-9.6,18.843-8.237,3.183-12.054-14.54-21.433-3.137s-11.747-5.962-23.191-1.4c-10.308,4.106-3.336,18.43-11.431,21.349s-9.817-9.4-22.074-5.553c-13.765,4.323-13.847,17.1-17.787,29.124s103.357,56.632,103.357,56.632l95.539-101.68Z" transform="translate(-1821.573 -1231.869)" fill="url(#linear-gradient-15)"/>
          <g id="Grupo_9315" data-name="Grupo 9315" transform="translate(109.215)">
            <path id="Trazado_18843" data-name="Trazado 18843" d="M2428.958,936.182c10.874-1.7,22.349,6.258,17.879,21.455s.224,33.3,5.587,42.24,8.94,28.607-8.716,34.195-44.075-2.706-34.642-27.266c7.793-20.289,8.493-23.69,6.421-42.99C2413.124,941.789,2421.807,937.3,2428.958,936.182Z" transform="translate(-2407.089 -935.956)" fill="#378a13"/>
            <path id="Trazado_18844" data-name="Trazado 18844" d="M2544.887,1081.792h1.037V991.138a.519.519,0,0,0-.519-.519h0a.519.519,0,0,0-.519.519Z" transform="translate(-2519.184 -980.423)" fill="#004700"/>
            <rect id="Rectángulo_2209" data-name="Rectángulo 2209" width="10.585" height="0.694" transform="translate(34.034 31.982) rotate(135)" fill="#004700"/>
            <path id="Trazado_18845" data-name="Trazado 18845" d="M2520.534,1055.262l-6.2-6.2.491-.491,5.7,5.705Z" transform="translate(-2494.333 -1027.568)" fill="#004700"/>
            <rect id="Rectángulo_2210" data-name="Rectángulo 2210" width="21.052" height="0.694" transform="translate(41.363 68.294) rotate(135)" fill="#004700"/>
            <path id="Trazado_18846" data-name="Trazado 18846" d="M2508.7,1214.492l-8.566-8.566.491-.491,8.075,8.075Z" transform="translate(-2482.777 -1155.17)" fill="#004700"/>
          </g>
          <g id="Grupo_9327" data-name="Grupo 9327" transform="translate(82.226 34.153)">
            <path id="Trazado_18847" data-name="Trazado 18847" d="M2356.541,1119.054c-11.651.145-35.026,7.206-50.89,18.257S2262.4,1178.1,2262.4,1178.1l24.975,13.048s23.1-9.449,40.8-25.326C2350.226,1146.036,2356.541,1119.054,2356.541,1119.054Z" transform="translate(-2262.399 -1119.054)" fill="#004700"/>
            <path id="Trazado_18848" data-name="Trazado 18848" d="M2334.924,1193.872l-.226-.2c21.611-24.083,77.449-63.429,77.864-63.661l.149.264C2412.261,1130.544,2356.449,1169.884,2334.924,1193.872Z" transform="translate(-2321.212 -1127.966)" fill="#fff"/>
            <g id="Grupo_9316" data-name="Grupo 9316" transform="translate(75.726 13.355)">
              <rect id="Rectángulo_2211" data-name="Rectángulo 2211" width="0.303" height="0.303" transform="translate(10.938 1.404) rotate(-84.228)" fill="#fff"/>
              <path id="Trazado_18849" data-name="Trazado 18849" d="M2673.35,1191.457l.031-.3.625.063-.031.3Zm1.251.126.03-.3.626.063-.031.3Zm1.251.126.03-.3.626.063-.03.3Zm1.251.126.031-.3.625.063-.031.3Zm1.251.126.03-.3.625.063-.03.3Zm1.251.126.031-.3.626.063-.031.3Zm1.251.126.031-.3.626.063-.031.3Zm1.251.126.031-.3.625.063-.03.3Z" transform="translate(-2672.422 -1191.062)" fill="#fff"/>
              <rect id="Rectángulo_2212" data-name="Rectángulo 2212" width="0.303" height="0.303" transform="translate(0 0.302) rotate(-84.228)" fill="#fff"/>
            </g>
            <g id="Grupo_9317" data-name="Grupo 9317" transform="translate(64.277 21.936)">
              <rect id="Rectángulo_2213" data-name="Rectángulo 2213" width="0.303" height="0.303" transform="translate(15.978 3.753) rotate(-77.751)" fill="#fff"/>
              <path id="Trazado_18850" data-name="Trazado 18850" d="M2611.7,1237.972l.064-.3.581.126-.064.3Zm1.162.251.064-.3.581.126-.064.3Zm1.162.251.064-.3.581.126-.064.3Zm1.162.251.064-.3.581.126-.064.3Zm1.162.251.064-.3.581.125-.064.3Zm1.162.251.064-.3.581.125-.064.3Zm1.161.251.065-.3.581.126-.064.3Zm1.162.251.064-.3.581.126-.064.3Zm1.162.251.064-.3.581.126-.065.3Zm1.161.251.064-.3.581.125-.065.3Zm1.162.251.064-.3.581.126-.064.3Zm1.161.251.064-.3.581.126-.064.3Zm1.162.251.064-.3.581.126-.064.3Z" transform="translate(-2610.823 -1237.485)" fill="#fff"/>
              <rect id="Rectángulo_2214" data-name="Rectángulo 2214" width="0.303" height="0.303" transform="translate(0 0.296) rotate(-77.748)" fill="#fff"/>
            </g>
            <g id="Grupo_9318" data-name="Grupo 9318" transform="translate(50.857 32.365)">
              <rect id="Rectángulo_2215" data-name="Rectángulo 2215" width="0.303" height="0.304" transform="translate(20.291 5.416) rotate(-75.794)" fill="#fff"/>
              <path id="Trazado_18851" data-name="Trazado 18851" d="M2539.692,1294.034l.074-.294.571.144-.075.294Zm1.143.289.074-.294.571.144-.074.294Zm1.143.288.074-.294.572.144-.074.294Zm1.143.288.074-.294.572.144-.075.294Zm1.143.288.074-.294.571.144-.074.294Zm1.142.288.074-.294.572.144-.074.294Zm1.143.289.074-.294.571.144-.074.294Zm1.143.288.075-.294.571.144-.074.294Zm1.142.288.075-.294.572.144-.075.294Zm1.143.288.075-.294.571.144-.075.294Zm1.142.289.075-.294.571.144-.074.294Zm1.143.288.074-.294.572.144-.075.294Zm1.142.288.074-.294.572.144-.074.294Zm1.143.288.075-.294.572.144-.075.294Zm1.143.288.074-.294.572.145-.074.294Zm1.143.288.075-.294.571.144-.074.294Zm1.143.289.074-.294.572.144-.075.294Z" transform="translate(-2538.827 -1293.521)" fill="#fff"/>
              <rect id="Rectángulo_2216" data-name="Rectángulo 2216" width="0.303" height="0.303" transform="translate(0 0.294) rotate(-75.794)" fill="#fff"/>
            </g>
            <g id="Grupo_9319" data-name="Grupo 9319" transform="translate(37.564 43.213)">
              <rect id="Rectángulo_2217" data-name="Rectángulo 2217" width="0.303" height="0.303" transform="translate(20.67 6.527) rotate(-73.163)" fill="#fff"/>
              <path id="Trazado_18852" data-name="Trazado 18852" d="M2468.462,1352.425l.088-.29.583.176-.088.29Zm1.165.351.088-.29.582.176-.088.29Zm1.165.352.088-.291.583.176-.088.291Zm1.164.351.088-.291.582.176-.088.29Zm1.165.351.088-.29.583.175-.088.291Zm1.165.351.088-.291.583.176-.088.29Zm1.165.352.088-.291.582.176-.088.29Zm1.165.351.087-.291.582.175-.087.291Zm1.164.351.088-.29.582.176-.088.291Zm1.165.352.087-.291.582.176-.087.291Zm1.164.351.088-.29.582.175-.088.291Zm1.165.352.088-.291.583.176-.088.291Zm1.165.351.088-.29.583.176-.088.29Zm1.164.351.088-.291.583.176-.088.29Zm1.165.351.088-.29.583.176-.088.291Zm1.165.351.088-.29.583.176-.088.291Zm1.165.351.087-.29.583.176-.088.29Z" transform="translate(-2467.59 -1351.872)" fill="#fff"/>
              <rect id="Rectángulo_2218" data-name="Rectángulo 2218" width="0.303" height="0.303" transform="matrix(0.29, -0.957, 0.957, 0.29, 0, 0.29)" fill="#fff"/>
            </g>
            <g id="Grupo_9320" data-name="Grupo 9320" transform="translate(23.745 55.396)">
              <rect id="Rectángulo_2219" data-name="Rectángulo 2219" width="0.303" height="0.304" transform="translate(17.33 6.165) rotate(-71.232)" fill="#fff"/>
              <path id="Trazado_18853" data-name="Trazado 18853" d="M2394.391,1417.917l.1-.288.587.2-.1.287Zm1.175.4.1-.287.588.2-.1.288Zm1.176.4.1-.287.588.2-.1.287Zm1.175.4.1-.287.588.2-.1.287Zm1.175.4.1-.287.588.2-.1.287Zm1.176.4.1-.287.588.2-.1.287Zm1.175.4.1-.287.588.2-.1.287Zm1.176.4.1-.287.588.2-.1.288Zm1.176.4.1-.287.588.2-.1.287Zm1.175.4.1-.287.588.2-.1.287Zm1.176.4.1-.287.588.2-.1.287Zm1.175.4.1-.287.587.2-.1.287Zm1.175.4.1-.287.588.2-.1.287Zm1.175.4.1-.287.588.2-.1.288Z" transform="translate(-2393.517 -1417.332)" fill="#fff"/>
              <rect id="Rectángulo_2220" data-name="Rectángulo 2220" width="0.303" height="0.303" transform="translate(0 0.287) rotate(-71.228)" fill="#fff"/>
            </g>
            <g id="Grupo_9321" data-name="Grupo 9321" transform="translate(19.313 41.435)">
              <rect id="Rectángulo_2221" data-name="Rectángulo 2221" width="0.303" height="0.303" transform="matrix(0.998, -0.068, 0.068, 0.998, 0, 0.021)" fill="#fff"/>
              <path id="Trazado_18854" data-name="Trazado 18854" d="M2367.318,1361.384l-.042-.611.3-.021.042.611Zm-.083-1.222-.042-.611.3-.021.042.611Zm-.084-1.222-.042-.611.3-.021.042.611Zm-.083-1.222-.042-.611.3-.021.042.611Zm-.083-1.222-.042-.611.3-.021.042.611Zm-.084-1.222-.042-.611.3-.021.042.611Zm-.084-1.222-.042-.611.3-.021.042.611Zm-.083-1.222-.042-.611.3-.021.042.611Zm-.084-1.222-.042-.611.3-.021.042.611Zm-.084-1.222-.042-.611.3-.021.042.611Zm-.083-1.222-.042-.611.3-.021.042.611Zm-.084-1.222-.042-.611.3-.021.042.612Zm-.083-1.222-.042-.611.3-.021.042.611Z" transform="translate(-2366.21 -1345.175)" fill="#fff"/>
              <rect id="Rectángulo_2222" data-name="Rectángulo 2222" width="0.303" height="0.303" transform="matrix(0.998, -0.068, 0.068, 0.998, 1.149, 16.819)" fill="#fff"/>
            </g>
            <g id="Grupo_9322" data-name="Grupo 9322" transform="translate(6.349 54.378)">
              <rect id="Rectángulo_2223" data-name="Rectángulo 2223" width="0.303" height="0.303" transform="translate(0 0.059) rotate(-11.131)" fill="#fff"/>
              <path id="Trazado_18855" data-name="Trazado 18855" d="M2300.344,1430.476l-.118-.6.3-.059.118.6Zm-.237-1.2-.118-.6.3-.059.118.6Zm-.237-1.2-.118-.6.3-.059.118.6Zm-.237-1.2-.118-.6.3-.059.118.6Zm-.237-1.2-.118-.6.3-.059.118.6Zm-.237-1.2-.118-.6.3-.059.118.6Zm-.237-1.2-.118-.6.3-.059.119.6Zm-.237-1.2-.118-.6.3-.059.118.6Zm-.237-1.2-.118-.6.3-.059.118.6Zm-.237-1.2-.118-.6.3-.059.118.6Zm-.236-1.2-.119-.6.3-.059.118.6Zm-.237-1.2-.119-.6.3-.059.119.6Zm-.237-1.2-.119-.6.3-.059.119.6Z" transform="translate(-2297.208 -1414.498)" fill="#fff"/>
              <rect id="Rectángulo_2224" data-name="Rectángulo 2224" width="0.303" height="0.303" transform="translate(3.254 16.579) rotate(-11.131)" fill="#fff"/>
            </g>
            <g id="Grupo_9323" data-name="Grupo 9323" transform="translate(31.169 31.121)">
              <path id="Trazado_18856" data-name="Trazado 18856" d="M2429.527,1286.287c-.035-.292-.029-.341,0-.391l.134.071.148.03a1.777,1.777,0,0,0,.022.254Z" transform="translate(-2429.503 -1285.897)" fill="#fff"/>
              <path id="Trazado_18857" data-name="Trazado 18857" d="M2432.442,1304.5l-.107-.584.3-.058.107.588Zm-.214-1.176-.106-.588.3-.054.106.588Zm-.213-1.175-.106-.588.3-.054.106.588Zm-.212-1.175-.105-.588.3-.053.106.588Zm-.21-1.175-.105-.588.3-.053.105.587Zm-.21-1.175-.1-.588.3-.053.1.588Zm-.209-1.176-.1-.587.3-.052.1.587Zm-.207-1.175-.1-.588.3-.052.1.588Zm-.206-1.176-.1-.589.3-.052.1.588Zm-.2-1.177-.1-.589.3-.051.1.588Zm-.2-1.178-.1-.589.3-.049.1.589Zm-.193-1.18c-.035-.218-.065-.416-.092-.592l.3-.045c.027.175.057.372.091.589Z" transform="translate(-2429.968 -1289.99)" fill="#fff"/>
              <rect id="Rectángulo_2225" data-name="Rectángulo 2225" width="0.303" height="0.302" transform="matrix(0.984, -0.18, 0.18, 0.984, 2.576, 15.079)" fill="#fff"/>
            </g>
            <g id="Grupo_9324" data-name="Grupo 9324" transform="translate(45.227 19.776)">
              <rect id="Rectángulo_2226" data-name="Rectángulo 2226" width="0.303" height="0.303" transform="translate(0 0.059) rotate(-11.226)" fill="#fff"/>
              <path id="Trazado_18858" data-name="Trazado 18858" d="M2508.413,1242.979l-.122-.616.3-.059.122.616Zm-.245-1.233-.122-.616.3-.059.123.616Zm-.244-1.232-.123-.616.3-.059.123.616Zm-.245-1.232-.122-.616.3-.059.122.616Zm-.244-1.233-.123-.616.3-.059.122.616Zm-.245-1.232-.123-.616.3-.059.122.616Zm-.245-1.232-.122-.617.3-.059.123.616Zm-.245-1.233-.122-.616.3-.059.123.616Zm-.245-1.233-.122-.616.3-.059.122.616Zm-.245-1.233-.122-.616.3-.059.122.616Zm-.245-1.233-.122-.616.3-.059.122.616Z" transform="translate(-2505.661 -1229.063)" fill="#fff"/>
              <rect id="Rectángulo_2227" data-name="Rectángulo 2227" width="0.303" height="0.303" transform="translate(2.874 14.532) rotate(-11.244)" fill="#fff"/>
            </g>
            <g id="Grupo_9325" data-name="Grupo 9325" transform="translate(60.678 10.758)">
              <rect id="Rectángulo_2228" data-name="Rectángulo 2228" width="0.303" height="0.303" transform="matrix(0.997, -0.078, 0.078, 0.997, 0, 0.024)" fill="#fff"/>
              <path id="Trazado_18859" data-name="Trazado 18859" d="M2588.975,1192.965l-.047-.6.3-.024.048.6Zm-.094-1.2-.047-.6.3-.024.047.6Zm-.094-1.2-.047-.6.3-.024.047.6Zm-.094-1.2-.047-.6.3-.024.047.6Zm-.094-1.2-.047-.6.3-.024.047.6Zm-.094-1.2-.047-.6.3-.024.047.6Zm-.094-1.2-.047-.6.3-.024.047.6Zm-.094-1.2-.047-.6.3-.024.047.6Zm-.094-1.2-.047-.6.3-.024.047.6Zm-.094-1.2-.047-.6.3-.024.047.6Z" transform="translate(-2588.01 -1180.659)" fill="#fff"/>
              <rect id="Rectángulo_2229" data-name="Rectángulo 2229" width="0.303" height="0.303" transform="matrix(0.997, -0.078, 0.078, 0.997, 1.011, 12.906)" fill="#fff"/>
            </g>
            <g id="Grupo_9326" data-name="Grupo 9326" transform="translate(73.072 5.367)">
              <rect id="Rectángulo_2230" data-name="Rectángulo 2230" width="0.303" height="0.303" transform="translate(1.04 0.301) rotate(-83.876)" fill="#fff"/>
              <path id="Trazado_18860" data-name="Trazado 18860" d="M2654.68,1160.937l.067-.626.3.032-.067.626Zm.134-1.252.067-.626.3.032-.067.626Zm.135-1.252.067-.626.3.032-.067.626Zm.134-1.252.068-.626.3.032-.067.626Zm.135-1.252.067-.626.3.032-.068.626Zm.134-1.252.067-.626.3.032-.067.626Zm.134-1.252.067-.626.3.032-.067.626Z" transform="translate(-2654.581 -1151.874)" fill="#fff"/>
              <rect id="Rectángulo_2231" data-name="Rectángulo 2231" width="0.303" height="0.303" transform="matrix(0.107, -0.994, 0.994, 0.107, 0, 9.991)" fill="#fff"/>
            </g>
          </g>
          <path id="Trazado_18861" data-name="Trazado 18861" d="M2122.5,1389.7c11.383-15.976,13.6-34.964,5.056-26.012s-17.944,19.359-16,12.693,5.887-25.429.833-26.627-5.91,13.752-7.146,19.056-5.63-4.87-6.49-13.078-9.2-13.785-7.979-.188,3.347,25.473,3.347,25.473-3.388-16.9-6.775-17.614-4.257,2.779-2.553,10.212,2.192,10.937.355,11.911-5.924-13.9-10.065-12.318.545,8.413,1.96,13.337-10.53-9.924-13.245-16.842-8.107-11.044-9.236-7.608,1.31,7.465,6.255,15.929-10.468-6.016-13.114-3.357c-3.944,3.963,8.013,21.913,24.946,26.15S2122.5,1389.7,2122.5,1389.7Z" transform="translate(-2004.906 -1270.595)" fill="#005900"/>
        </g>
      </g>
    </g>
    <g id="Grupo_9332" data-name="Grupo 9332" transform="translate(981.842 683.858)">
      <g id="Grupo_9331" data-name="Grupo 9331" transform="translate(1.699 4.674)">
        <path id="Trazado_18863" data-name="Trazado 18863" d="M1980.5,1460.745c2.961-3.18,5.37-8.059,7.336-15.4,1.914-7.143,4.514-12.171,7.521-14.541l.207.262c-2.95,2.325-5.51,7.292-7.405,14.365-1.98,7.4-4.208,12.135-7.208,15.357Z" transform="translate(-1980.5 -1430.805)" fill="#004700"/>
      </g>
      <path id="Trazado_18864" data-name="Trazado 18864" d="M2010.666,1525.45c.046-.128,6.947-4.853,8.758-2.6s-1.187,3.778-3.395,3.708A24.228,24.228,0,0,1,2010.666,1525.45Z" transform="translate(-2003.341 -1500.51)" fill="#004700"/>
      <path id="Trazado_18865" data-name="Trazado 18865" d="M1990.382,1573.667c.076-.112,7.937-2.969,9.13-.34s-2.091,3.363-4.212,2.746A24.221,24.221,0,0,1,1990.382,1573.667Z" transform="translate(-1986.84 -1541.167)" fill="#004700"/>
      <path id="Trazado_18866" data-name="Trazado 18866" d="M2022.007,1484.818c.026-.126,5.9-5.475,7.9-3.6s-.622,3.709-2.708,3.933A23.009,23.009,0,0,1,2022.007,1484.818Z" transform="translate(-2012.566 -1466.818)" fill="#004700"/>
      <path id="Trazado_18867" data-name="Trazado 18867" d="M2036.672,1446.793c.024-.117,5.471-5.078,7.324-3.336s-.577,3.44-2.511,3.648A21.339,21.339,0,0,1,2036.672,1446.793Z" transform="translate(-2024.496 -1436.121)" fill="#004700"/>
      <path id="Trazado_18868" data-name="Trazado 18868" d="M2039.467,1413.551c-.1-.056-2.941-6.381-.84-7.528s2.909,1.523,2.528,3.314A20.089,20.089,0,0,1,2039.467,1413.551Z" transform="translate(-2025.458 -1405.746)" fill="#004700"/>
      <path id="Trazado_18869" data-name="Trazado 18869" d="M2010.97,1450.758c-.118-.018-5.372-5.2-3.729-7.143s3.471.392,3.782,2.314A21.356,21.356,0,0,1,2010.97,1450.758Z" transform="translate(-2000.296 -1435.955)" fill="#004700"/>
      <path id="Trazado_18870" data-name="Trazado 18870" d="M1995.944,1488.954c-.126-.011-6.018-5.113-4.419-7.276s3.686.176,4.146,2.182A22.586,22.586,0,0,1,1995.944,1488.954Z" transform="translate(-1987.547 -1466.811)" fill="#004700"/>
      <path id="Trazado_18871" data-name="Trazado 18871" d="M1977.27,1524.427c-.136,0-7.122-4.727-5.68-7.257s3.984-.282,4.735,1.816A24.447,24.447,0,0,1,1977.27,1524.427Z" transform="translate(-1971.394 -1495.474)" fill="#004700"/>
      <path id="Trazado_18872" data-name="Trazado 18872" d="M2057.984,1413.446c0-.111,4.073-5.655,6.09-4.4s.105,3.255-1.627,3.8A19.935,19.935,0,0,1,2057.984,1413.446Z" transform="translate(-2041.832 -1408.28)" fill="#004700"/>
    </g>
    <g id="Grupo_9333" data-name="Grupo 9333" transform="translate(1026.371 691.808)">
      <path id="Trazado_18873" data-name="Trazado 18873" d="M2460.751,1486.711c.149-.048,9.344,2.948,8.558,6.192s-4.3,1.574-5.791-.5A28,28,0,0,1,2460.751,1486.711Z" transform="translate(-2414.001 -1479.558)" fill="url(#linear-gradient-16)"/>
      <path id="Trazado_18874" data-name="Trazado 18874" d="M2389.16,1480.27c.144-.061,9.574,2.082,9.088,5.384s-4.137,1.96-5.812.033A28,28,0,0,1,2389.16,1480.27Z" transform="translate(-2355.764 -1474.318)" fill="url(#linear-gradient-16)"/>
      <path id="Trazado_18875" data-name="Trazado 18875" d="M2318.115,1499.818c.139-.1,10.562.068,10.783,3.659s-3.929,2.987-6.124,1.327A30.188,30.188,0,0,1,2318.115,1499.818Z" transform="translate(-2297.971 -1490.206)" fill="url(#linear-gradient-16)"/>
      <path id="Trazado_18876" data-name="Trazado 18876" d="M2252.182,1537.773c.115-.123,10.351-2.1,11.3,1.374s-3.234,3.728-5.722,2.552A30.2,30.2,0,0,1,2252.182,1537.773Z" transform="translate(-2244.336 -1520.552)" fill="url(#linear-gradient-16)"/>
      <path id="Trazado_18877" data-name="Trazado 18877" d="M2503.365,1484.221c.1.108,9.224,1.788,10.045-1.306s-2.9-3.292-5.109-2.228A26.853,26.853,0,0,0,2503.365,1484.221Z" transform="translate(-2448.666 -1474.184)" fill="url(#linear-gradient-16)"/>
      <path id="Trazado_18878" data-name="Trazado 18878" d="M2425.074,1457.446c.129.089,9.8-.075,10-3.407s-3.648-2.766-5.682-1.223A28,28,0,0,0,2425.074,1457.446Z" transform="translate(-2384.979 -1450.99)" fill="url(#linear-gradient-16)"/>
      <path id="Trazado_18879" data-name="Trazado 18879" d="M2348.651,1456.067c.147.055,9.472-2.506,8.839-5.784s-4.221-1.773-5.808.226A28,28,0,0,0,2348.651,1456.067Z" transform="translate(-2322.811 -1448.367)" fill="url(#linear-gradient-16)"/>
      <path id="Trazado_18880" data-name="Trazado 18880" d="M2287.146,1470.381c.168-.007,8.357-6.458,6.355-9.448s-4.936.007-5.674,2.658A30.189,30.189,0,0,0,2287.146,1470.381Z" transform="translate(-2272.777 -1457.576)" fill="url(#linear-gradient-16)"/>
      <path id="Trazado_18881" data-name="Trazado 18881" d="M2219.646,1513.2c.145-.087,4.255-9.666,1.068-11.336s-4.332,2.365-3.713,5.046A30.2,30.2,0,0,0,2219.646,1513.2Z" transform="translate(-2215.586 -1491.568)" fill="url(#linear-gradient-16)"/>
      <path id="Trazado_18882" data-name="Trazado 18882" d="M2210.12,1500.509c1.09-4.01,6.242-9.425,12.925-13.777,4.625-3.011,13.933-8,24.311-7.57,15.944.659,23.813,7.342,23.891,7.409a.36.36,0,0,1-.473.544c-.077-.066-7.777-6.584-23.448-7.232-10.177-.421-19.334,4.489-23.887,7.454-6.137,4-10.965,9.274-12.411,13.062C2210.639,1500.469,2210.17,1500.5,2210.12,1500.509Z" transform="translate(-2210.12 -1473.397)" fill="url(#linear-gradient-16)"/>
      <path id="Trazado_18883" data-name="Trazado 18883" d="M2527.155,1513.144c.137-.062,9.222,1.8,8.824,4.973s-3.926,1.965-5.572.152A26.855,26.855,0,0,1,2527.155,1513.144Z" transform="translate(-2468.019 -1501.06)" fill="url(#linear-gradient-16)"/>
    </g>
    <path id="mark" d="M2158.045,707.173a6.67,6.67,0,1,0-13.339,0s-.6,6.307,6.669,13.578C2158.646,713.48,2158.045,707.173,2158.045,707.173Zm-6.3,3.64a3.659,3.659,0,1,1,3.267-3.267A3.661,3.661,0,0,1,2151.748,710.813Z" transform="translate(-1130.527 -148.192)" fill="#fff"/>
    <g id="man" transform="translate(801.711 505.214)">
      <ellipse id="shadow" cx="94.439" cy="9.772" rx="94.439" ry="9.772" transform="translate(0 234.967)" opacity="0.5" fill="url(#linear-gradient)" style="mix-blend-mode: multiply;isolation: isolate"/>
      <ellipse id="shadow-2" data-name="shadow" cx="58.651" cy="3.851" rx="58.651" ry="3.851" transform="translate(35.983 240.323)" opacity="0.5" fill="url(#linear-gradient)" style="mix-blend-mode: multiply;isolation: isolate"/>
      <path id="Trazado_18884" data-name="Trazado 18884" d="M1236.464,1729.537l-.894,4.289,6.955.715,2.69-2.419.447-1.174,5.212-2.934v-1.736l-3.676-.306-6.909,1.37Z" transform="translate(-1192.691 -1487.597)" fill="#20232e"/>
      <path id="Trazado_18885" data-name="Trazado 18885" d="M1275.073,1038.4c0,.742-11.139,35.76-15.347,48.384-1.98,15.1-13.032,61.191-13.032,61.191s-4.837-.413-6.522-.413c3.324-30.117-3.106-41.9,4.6-60.3-1.093-23.63-3.519-51.43,4.8-76.037,13.291-1.209,25.5-1.047,25.5-1.047Z" transform="translate(-1196.434 -905.319)" fill="#302800"/>
      <path id="Trazado_18886" data-name="Trazado 18886" d="M1354.472,1183.2a67.62,67.62,0,0,0-.873,7.823c-.114,3.537-.019,7.393-.687,10.881-.665,3.47-1.709,6.459-2.588,9.878a53.737,53.737,0,0,0-1.249,13.464c3.672-11.141,10.646-33.008,13.414-42.045Z" transform="translate(-1285.024 -1046.064)"/>
      <path id="Trazado_18887" data-name="Trazado 18887" d="M1470.517,1738.118l-1.317,3.2.389,2.253,22.648-.093.289-1.66-1.653-1.342-7.276-1.877-5.994-1.437-3.347-.746Z" transform="translate(-1382.743 -1496.096)" fill="#20232e"/>
      <path id="Trazado_18888" data-name="Trazado 18888" d="M1394.674,1142.854s2.04-48.866,2.04-56.355-1.6-80.6-1.6-80.6l-27.55,4.244s-1.342,43,13.475,74.427c-4.063,22.519,5.459,26.252,6.692,59.515C1390.874,1143.488,1394.674,1142.854,1394.674,1142.854Z" transform="translate(-1300.035 -901.834)" fill="#302800"/>
      <path id="Trazado_18889" data-name="Trazado 18889" d="M1206.72,723.248a158.705,158.705,0,0,0-14.835,26.16c-3.284,7.474-2.491,10.079-2.491,10.079s5.889,9.512,23.328,12.457,8.72-5.662,8.72-5.662-16.13-8.712-18.847-9.392c2.421-2.867,6.617-8.475,7.3-11.885s7.021-14.055,7.021-14.055Z" transform="translate(-1155.06 -671.909)" fill="#f4b2a2"/>
      <path id="Trazado_18890" data-name="Trazado 18890" d="M1233.51,694.553c-6.277,6.781-11.74,22.843-11.74,22.843s8.212,5.624,12.458,9.293a28.82,28.82,0,0,0,5.094-5.849s2.9-11.944,1.278-16.81S1233.51,694.553,1233.51,694.553Z" transform="translate(-1181.465 -648.566)" fill="#ff4a2f"/>
      <path id="Trazado_18891" data-name="Trazado 18891" d="M1266.073,775.045c1.53,1.158,3.016,2.327,4.195,3.345a28.814,28.814,0,0,0,5.094-5.849,111.253,111.253,0,0,1-1.474-14.433A82.042,82.042,0,0,1,1266.073,775.045Z" transform="translate(-1217.505 -700.267)" fill="#8b2792"/>
      <path id="Trazado_18892" data-name="Trazado 18892" d="M1370.762,614.148c1.6-1.233,5.1-7.583,5.176-8.816s11.542,1.325,11.542,1.325-1.964,4.7-1.553,7.491S1370.762,614.148,1370.762,614.148Z" transform="translate(-1302.666 -575.714)" fill="#f4b2a2"/>
      <path id="Trazado_18893" data-name="Trazado 18893" d="M1377.431,612.631a21.166,21.166,0,0,1,8.965-2.713,27.9,27.9,0,0,1,1.085-3.261s-11.466-2.558-11.542-1.325-3.578,7.583-5.176,8.816c0,0,1.452.26,3.457.541A26.359,26.359,0,0,1,1377.431,612.631Z" transform="translate(-1302.666 -575.714)" fill="#ff987d"/>
      <path id="Trazado_18894" data-name="Trazado 18894" d="M1269.02,738.655c.535-7.757,1.772-27.275,1.147-34.838-.555-6.714-5.51-24.27-5.325-29.808,2.52-6.616,10.821-9.844,21.018-10.728,12.433-1.077,24.313,2.61,27.318,6.3s.9,22.74-.576,35.662-.724,31.8-.724,31.8-13.015,4.015-24.342,4.438C1278.395,741.821,1269.02,738.655,1269.02,738.655Z" transform="translate(-1216.498 -622.973)" fill="#ff4a2f"/>
      <path id="Trazado_18895" data-name="Trazado 18895" d="M1478.594,886.458c-.465,2.643-6.807,13.872-7.331,14.512s-.989,6.982-.989,6.982,7.629-9.949,9.982-16.524S1478.594,886.458,1478.594,886.458Z" transform="translate(-1383.617 -804.535)" fill="#3e4357"/>
      <path id="Trazado_18896" data-name="Trazado 18896" d="M1498.967,730.908c4.568,7.983,8.107,13.809,9.25,22.439s3.517,23.123,3.517,23.123,4.244,1.443,10.645,3.6c7.7,2.594,22.069,8.937,22.069,8.937l-2.007,6.022s-38.261-4.555-41.114-14.306c-4.046-13.828-8.58-37.734-8.58-37.734Z" transform="translate(-1401.897 -678.14)" fill="#f4b2a2"/>
      <path id="Trazado_18897" data-name="Trazado 18897" d="M1503.047,758.023c1.768-1.371,3.967-3.065,5.1-5.163-1.211-8.361-4.7-14.122-9.176-21.952l-6.221,12.083s1.682,8.869,3.911,18.928A23.059,23.059,0,0,0,1503.047,758.023Z" transform="translate(-1401.897 -678.14)" fill="#ff987d"/>
      <path id="Trazado_18898" data-name="Trazado 18898" d="M1491.516,716.931c-2.218,2.07-12.718,3.993-12.718,3.993s-4.436-10.2-5.028-12.422-5.208-23.23,6.106-20.849C1492.477,696.135,1491.516,716.931,1491.516,716.931Z" transform="translate(-1385.297 -642.8)" fill="#ff4a2f"/>
      <path id="Trazado_18899" data-name="Trazado 18899" d="M1351.191,642.756c-3.178-.506-11.4-.867-13.983-.347s-3.47,3.885-7.458,5.217,7.839,1.547,12.168,2.241,12.444-2.46,12.444-2.46S1353.642,643.146,1351.191,642.756Z" transform="translate(-1268.646 -605.942)" fill="#ff4a2f"/>
      <path id="Trazado_18900" data-name="Trazado 18900" d="M1316.035,668.327a2.558,2.558,0,0,0-2.344-.4,3.614,3.614,0,0,0-2.221,1.945v2.406l5.06.394Z" transform="translate(-1254.434 -626.827)" fill="#3e4357"/>
      <path id="Trazado_18901" data-name="Trazado 18901" d="M1430.067,673.225l7.67-4.106a3.811,3.811,0,0,1,3.208-.407c1.648.638.978,1.758.978,1.758l-6.2,3.546Z" transform="translate(-1350.909 -627.377)" fill="#3e4357"/>
      <path id="Trazado_18902" data-name="Trazado 18902" d="M1388.71,490.219a30.122,30.122,0,0,0-1.792-4.6c-.049-.534-.1-1.037-.15-1.5-.007-.08-.017-.16-.027-.239-.006-.055-.012-.112-.019-.165h0a11.854,11.854,0,1,0-22.669,6.17c2.36,6.253,8.169,12.323,12.587,12.287,3.217-.026,7.468.271,9.377-1.438,1.067-.955,1.337-4.653,1.27-8.572C1388.04,491.733,1388.877,491.052,1388.71,490.219Z" transform="translate(-1296.447 -468.673)" fill="#f4b2a2"/>
      <path id="Trazado_18903" data-name="Trazado 18903" d="M1372.569,485.686a9.6,9.6,0,0,1,3.744.483c1.752.408,3.577-.29,5.251-.825a9.1,9.1,0,0,0,4.875-3.068,11.853,11.853,0,1,0-22.524,7.266A16.889,16.889,0,0,1,1372.569,485.686Z" transform="translate(-1296.447 -468.673)" fill="#ff987d"/>
      <path id="Trazado_18904" data-name="Trazado 18904" d="M1368.775,449.722c.738,2.682,2.686,10.018-2.194,12.029-4.621,1.9-5.184,3.357-6.028,4.743-.532.874-3.52-1.9-5.216.537-1.288,1.854-.166,4.171,1.943,5.139a3.8,3.8,0,0,1,1.627,5.306c-1.059,2.163-2.54,4.248-4.582,4.7s-6.809-4.873-9.532-9.888-4.085-17.347,3.026-20.827S1367.935,446.671,1368.775,449.722Z" transform="translate(-1279.75 -448.012)" fill="#302800"/>
      <path id="Trazado_18905" data-name="Trazado 18905" d="M1242.307,748.641c2.057,3.58,4.791,11.939,4.741,27.729s-1.445,29.3-3.459,32.17-8.833,5.911-11.777,6.924-18.673-.591-26.421-1.351-10.67-9.646-11.379-14.917a61.95,61.95,0,0,1,1.616-23.164c2.479-9.964,7.663-23.862,12.344-27.858s22.987-.682,26.009-.513S1242.307,748.641,1242.307,748.641Z" transform="translate(-1158.516 -690.59)" fill="#e6e6e6"/>
      <path id="Trazado_18906" data-name="Trazado 18906" d="M1266.713,757.2c4.881,1.114,10.224,2.112,15.25,1.524,3.459-.4,6.322-2.732,9.644-3.49a27.76,27.76,0,0,0-2.527-6.6s-5.3-.81-8.326-.98-21.327-3.482-26.009.513a19.063,19.063,0,0,0-3.689,4.873C1256.279,754.394,1261.445,756,1266.713,757.2Z" transform="translate(-1205.289 -690.59)" fill="#c4c4c4"/>
      <path id="Trazado_18907" data-name="Trazado 18907" d="M1375.193,764.712c-2.99,4.785-2.99,4.684-4.671,22.4-1.334,14.055-4.137,35.285-2.114,43.713a18.87,18.87,0,0,0,5.061-.311,46.373,46.373,0,0,0,6.232-2.763,37.368,37.368,0,0,0,3.459-13.563c.908-11.5,1.375-33.39-.4-39.906A16.661,16.661,0,0,0,1375.193,764.712Z" transform="translate(-1300.173 -705.639)" fill="#c4c4c4"/>
      <path id="Trazado_18908" data-name="Trazado 18908" d="M1426.257,693.807c3.326.09,6.216,2.444,6.344,7.17s-3.179,9.591-9.259,9.426-10.89-5.091-10.259-9.4,6.707-6.512,8.472-6.816A42.655,42.655,0,0,1,1426.257,693.807Z" transform="translate(-1337.048 -647.96)" fill="#c4c4c4"/>
      <path id="Trazado_18909" data-name="Trazado 18909" d="M1225.172,684.039c-3.113.826-8.256,3.413-8.307,8.59-.054,5.5,4.494,8.287,15,8.571s31.909,1.257,31.909,1.257-6.606-2.4-6.291-8.241c.349-6.485,9.206-8.355,9.206-8.355Z" transform="translate(-1177.475 -640.014)" fill="#e6e6e6"/>
      <path id="Trazado_18910" data-name="Trazado 18910" d="M1245.574,684.039a15.084,15.084,0,0,0-3.629,1.531l39.534,2.757a17.138,17.138,0,0,1,5.608-2.466Z" transform="translate(-1197.877 -640.014)" fill="#fff"/>
      <path id="Trazado_18911" data-name="Trazado 18911" d="M1768.18,1015.83c-.7.421-4.135,3.259-4.31,4.065s4.555-.526,4.555-.526Z" transform="translate(-1622.445 -909.917)" fill="#f5b3a3"/>
      <path id="Trazado_18912" data-name="Trazado 18912" d="M1792.333,800.358a29.288,29.288,0,0,1,14.938-3.964c10.027-.014,12.465,6.192,21.117,6.966s12.459-2.228,12.459-2.228-.893,13.55-11.911,16.228c-9.644,2.344-12.346-.652-21.5.177-7.374.668-15.1,5.138-15.1,5.138Z" transform="translate(-1645.603 -731.411)" fill="#f04800"/>
      <rect id="Rectángulo_2232" data-name="Rectángulo 2232" width="3.741" height="180.685" rx="1.871" transform="translate(144.86 63.032)" fill="#fff"/>
      <path id="Trazado_18913" data-name="Trazado 18913" d="M1753.75,1034.924a34.616,34.616,0,0,0,6.615-1.791,6.52,6.52,0,0,0,3.2-2.416l.259-3.521-.609-1.662-3.2.173-2.754.467-1.951.257-3.26,1.959-.735.67.223,5.481Z" transform="translate(-1612.24 -917.81)" fill="#f4b2a2"/>
    </g>
  </g>
</svg>
