<svg xmlns="http://www.w3.org/2000/svg" xmlns:xlink="http://www.w3.org/1999/xlink" width="352.63" height="270.464" viewBox="0 0 352.63 270.464">
  <defs>
    <radialGradient id="radial-gradient" cx="0.596" cy="0.59" r="0.793" gradientTransform="matrix(0.687, 0.168, -0.117, 0.986, 0.29, -0.099)" gradientUnits="objectBoundingBox">
      <stop offset="0" stop-color="#acca6b"/>
      <stop offset="0.249" stop-color="#93b458"/>
      <stop offset="0.774" stop-color="#547e28"/>
      <stop offset="1" stop-color="#386613"/>
    </radialGradient>
    <clipPath id="clip-path">
      <path id="Trazado_18997" data-name="Trazado 18997" d="M316.871,506.02c-17.983-8.583-45.178-38.64-96.513-39.247-52.083-.616-105.817,42.2-105.984,107.686-.166,64.636,31.19,99.153,81.115,120.008,38.545,16.1,84.657,13.277,118.338-1.67,28.393-12.6,53.772-25.64,91.13-33.357,43.235-8.931,71.289-60.745,45.553-97.639-13.451-19.282-25.451-34.526-71.883-39.161C351.1,519.892,342.471,518.238,316.871,506.02Z" transform="translate(-114.373 -466.766)" fill="none"/>
    </clipPath>
    <radialGradient id="radial-gradient-2" cx="0.605" cy="0.544" r="0.815" gradientTransform="translate(0.16) scale(0.681 1)" xlink:href="#radial-gradient"/>
    <linearGradient id="linear-gradient" x1="1.424" y1="0.107" x2="1.424" y2="0.993" gradientUnits="objectBoundingBox">
      <stop offset="0" stop-color="#b9d647"/>
      <stop offset="0.178" stop-color="#a7c740"/>
      <stop offset="0.532" stop-color="#7ba02e"/>
      <stop offset="1" stop-color="#386613"/>
    </linearGradient>
    <linearGradient id="linear-gradient-2" x1="0.13" y1="0.5" x2="0.947" y2="0.5" gradientUnits="objectBoundingBox">
      <stop offset="0" stop-color="#bce6bd"/>
      <stop offset="1" stop-color="#70b87b"/>
    </linearGradient>
    <linearGradient id="linear-gradient-3" x1="3.196" y1="0.107" x2="3.196" y2="0.993" xlink:href="#linear-gradient"/>
    <linearGradient id="linear-gradient-4" x1="2.213" y1="0.107" x2="2.213" y2="0.993" xlink:href="#linear-gradient"/>
    <linearGradient id="linear-gradient-5" x1="10.769" y1="1" x2="10.769" y2="-0.061" gradientUnits="objectBoundingBox">
      <stop offset="0" stop-color="#386613"/>
      <stop offset="0.279" stop-color="#507a17"/>
      <stop offset="0.869" stop-color="#8fb023"/>
      <stop offset="1" stop-color="#9ebd26"/>
    </linearGradient>
    <linearGradient id="linear-gradient-6" x1="1.865" y1="0.107" x2="1.865" y2="0.993" xlink:href="#linear-gradient"/>
    <linearGradient id="linear-gradient-7" x1="10.442" y1="1.158" x2="10.65" y2="0.177" gradientUnits="objectBoundingBox">
      <stop offset="0" stop-color="#386613"/>
      <stop offset="0.632" stop-color="#7b9f1f"/>
      <stop offset="1" stop-color="#9ebd26"/>
    </linearGradient>
    <linearGradient id="linear-gradient-8" x1="1.749" y1="0.072" x2="1.752" y2="0.691" xlink:href="#linear-gradient"/>
    <linearGradient id="linear-gradient-9" x1="-2.165" y1="-0.098" x2="-2.036" y2="1.023" gradientUnits="objectBoundingBox">
      <stop offset="0" stop-color="#b7d447"/>
      <stop offset="0.181" stop-color="#a5c540"/>
      <stop offset="0.539" stop-color="#799e2d"/>
      <stop offset="1" stop-color="#386613"/>
    </linearGradient>
  </defs>
  <g id="Grupo_9335" data-name="Grupo 9335" transform="translate(-102.662 -432.294)">
    <path id="Trazado_18914" data-name="Trazado 18914" d="M325.354,509.766c-44.8-22.464-50.767-19.576-101.272-28.786-51.242-9.344-107.112,8.572-118.262,73.1-11.006,63.692,22.313,99.486,68.032,128.421,35.3,22.339,95.415,31.327,131.9,26.182,25.594-3.608,51.586-16.167,77.794-33.809,32.006-21.545,66.007-43.8,46.825-84.485-10.025-21.266,19.267-26.907-25.729-39.266C377.973,543.8,357.176,525.72,325.354,509.766Z" transform="translate(-0.451 -20.055)" opacity="0.2" fill="url(#radial-gradient)"/>
    <path id="Trazado_18915" data-name="Trazado 18915" d="M139.543,555.634c-.108-.04-10.881-3.9-19.536,3.363-4.157,3.49-7.11,9.709-8.1,17.062-.988,7.322.1,14.732,2.995,20.329l.878-.453c-5.837-11.3-3.427-29.22,4.865-36.181,8.22-6.9,18.455-3.23,18.557-3.192Z" transform="translate(-3.844 -52.881)" fill="#28790e"/>
    <path id="Trazado_18916" data-name="Trazado 18916" d="M398.207,502.42l.532.832c7.251-4.636,18.51-6.262,27.316.556,7.281,5.638,5.889,16.423,5.873,16.531l.98.135c.064-.465,1.481-11.463-6.248-17.448C417.474,495.914,405.751,497.6,398.207,502.42Z" transform="translate(-127.812 -28.518)" fill="#28790e"/>
    <g id="Grupo_9336" data-name="Grupo 9336" transform="translate(298.121 438.2)">
      <path id="Trazado_18917" data-name="Trazado 18917" d="M502.464,446.43a.51.51,0,0,0,.228-.967c-.26-.129-.529-.253-.8-.368a.51.51,0,0,0-.4.939c.252.107.5.222.744.342A.506.506,0,0,0,502.464,446.43Z" transform="translate(-470.467 -443.719)" fill="#77ab45"/>
      <path id="Trazado_18918" data-name="Trazado 18918" d="M459.813,445.874a.51.51,0,0,1,.462-.554,17.161,17.161,0,0,0,1.733-.248.51.51,0,1,1,.2,1,17.909,17.909,0,0,1-1.837.263l-.047,0A.51.51,0,0,1,459.813,445.874Zm-3.152.414c-.611-.071-1.226-.174-1.829-.306a.51.51,0,0,1,.219-1c.569.125,1.15.222,1.728.289a.51.51,0,0,1-.058,1.017A.527.527,0,0,1,456.662,446.288Zm8.419-1.566a.51.51,0,0,1,.333-.64c.586-.186,1.178-.355,1.76-.505a.51.51,0,0,1,.254.988c-.564.145-1.138.31-1.707.49a.522.522,0,0,1-.154.024A.51.51,0,0,1,465.081,444.722Zm12.848-.7c-.563-.106-1.148-.189-1.74-.246a.51.51,0,0,1,.1-1.016c.621.06,1.238.147,1.831.259a.51.51,0,0,1-.094,1.012A.5.5,0,0,1,477.929,444.019Zm-7.595-.57a.51.51,0,0,1,.44-.572c.614-.08,1.23-.139,1.83-.175a.51.51,0,0,1,.062,1.019c-.577.035-1.169.091-1.76.169a.516.516,0,0,1-.066,0A.51.51,0,0,1,470.334,443.448Z" transform="translate(-450.249 -442.701)" fill="#77ab45"/>
      <path id="Trazado_18919" data-name="Trazado 18919" d="M448.328,445.432a.51.51,0,0,0,.214-.974c-.455-.21-.707-.359-.709-.36a.51.51,0,0,0-.522.877c.012.007.3.175.8.41A.506.506,0,0,0,448.328,445.432Z" transform="translate(-447.062 -443.274)" fill="#77ab45"/>
      <path id="Trazado_18920" data-name="Trazado 18920" d="M538.857,453.312a.51.51,0,0,0,.227-.967c-.26-.129-.528-.253-.8-.368a.51.51,0,0,0-.4.939c.251.107.5.222.743.342A.508.508,0,0,0,538.857,453.312Z" transform="translate(-486.206 -446.695)" fill="#77ab45"/>
      <path id="Trazado_18921" data-name="Trazado 18921" d="M496.206,452.756a.51.51,0,0,1,.462-.554,17.129,17.129,0,0,0,1.732-.249.51.51,0,1,1,.2,1,17.858,17.858,0,0,1-1.837.263l-.047,0A.51.51,0,0,1,496.206,452.756Zm-3.152.414a18.5,18.5,0,0,1-1.829-.307.51.51,0,0,1,.219-1,17.474,17.474,0,0,0,1.728.289.51.51,0,0,1-.058,1.017A.524.524,0,0,1,493.055,453.17Zm8.419-1.566a.51.51,0,0,1,.333-.64c.586-.186,1.178-.356,1.76-.505a.51.51,0,1,1,.254.988c-.564.145-1.138.31-1.707.49a.524.524,0,0,1-.154.024A.51.51,0,0,1,501.474,451.6Zm12.848-.7c-.563-.106-1.148-.189-1.74-.246a.51.51,0,0,1,.1-1.016c.622.06,1.238.147,1.831.259a.51.51,0,0,1-.094,1.012A.5.5,0,0,1,514.322,450.9Zm-7.595-.57a.51.51,0,0,1,.44-.572c.615-.079,1.23-.139,1.83-.175a.51.51,0,0,1,.062,1.019c-.577.035-1.169.092-1.76.169a.528.528,0,0,1-.066,0A.51.51,0,0,1,506.727,450.331Z" transform="translate(-465.988 -445.677)" fill="#77ab45"/>
      <path id="Trazado_18922" data-name="Trazado 18922" d="M484.721,452.314a.51.51,0,0,0,.214-.974c-.456-.21-.707-.359-.71-.36a.51.51,0,0,0-.522.876c.012.007.3.175.8.41A.512.512,0,0,0,484.721,452.314Z" transform="translate(-462.8 -446.25)" fill="#77ab45"/>
    </g>
    <g id="Grupo_9337" data-name="Grupo 9337" transform="translate(388.197 468.295)">
      <path id="Trazado_18923" data-name="Trazado 18923" d="M671.014,499.457a.51.51,0,0,0,.228-.967c-.26-.129-.528-.253-.8-.368a.51.51,0,0,0-.4.939c.252.107.5.222.744.342A.506.506,0,0,0,671.014,499.457Z" transform="translate(-633.434 -496.745)" fill="#77ab45"/>
      <path id="Trazado_18924" data-name="Trazado 18924" d="M628.364,498.9a.51.51,0,0,1,.461-.554,17.157,17.157,0,0,0,1.733-.248.51.51,0,0,1,.2,1,18.1,18.1,0,0,1-1.837.263l-.047,0A.51.51,0,0,1,628.364,498.9Zm-3.152.414a18.475,18.475,0,0,1-1.829-.306.51.51,0,1,1,.219-1,17.513,17.513,0,0,0,1.728.289.51.51,0,0,1-.058,1.018A.529.529,0,0,1,625.212,499.314Zm8.419-1.565a.51.51,0,0,1,.332-.64c.586-.186,1.179-.356,1.761-.505a.51.51,0,0,1,.254.988c-.564.145-1.138.31-1.707.49a.522.522,0,0,1-.154.024A.51.51,0,0,1,633.631,497.749Zm12.848-.7c-.563-.107-1.148-.189-1.74-.246a.51.51,0,0,1,.1-1.016c.622.06,1.238.147,1.831.259a.51.51,0,0,1-.094,1.011A.546.546,0,0,1,646.48,497.046Zm-7.6-.57a.51.51,0,0,1,.44-.572c.614-.08,1.23-.139,1.83-.175a.51.51,0,1,1,.062,1.018c-.577.035-1.169.092-1.76.169a.551.551,0,0,1-.066,0A.51.51,0,0,1,638.884,496.475Z" transform="translate(-613.216 -495.728)" fill="#77ab45"/>
      <path id="Trazado_18925" data-name="Trazado 18925" d="M616.879,498.458a.51.51,0,0,0,.214-.973c-.455-.21-.707-.359-.71-.36a.51.51,0,0,0-.522.877c.012.007.3.175.8.41A.5.5,0,0,0,616.879,498.458Z" transform="translate(-610.029 -496.301)" fill="#77ab45"/>
      <path id="Trazado_18926" data-name="Trazado 18926" d="M661.178,508.493a.51.51,0,0,0,.228-.967c-.26-.129-.529-.253-.8-.368a.51.51,0,0,0-.4.939c.252.107.5.222.744.342A.505.505,0,0,0,661.178,508.493Z" transform="translate(-629.18 -500.653)" fill="#77ab45"/>
      <path id="Trazado_18927" data-name="Trazado 18927" d="M618.527,507.937a.51.51,0,0,1,.462-.554,17.142,17.142,0,0,0,1.733-.248.51.51,0,1,1,.2,1,18.173,18.173,0,0,1-1.836.263l-.047,0A.51.51,0,0,1,618.527,507.937Zm-3.151.414a18.479,18.479,0,0,1-1.829-.306.51.51,0,0,1,.219-1,17.454,17.454,0,0,0,1.727.289.51.51,0,1,1-.117,1.014Zm8.419-1.566a.511.511,0,0,1,.333-.641c.586-.185,1.179-.355,1.761-.5a.51.51,0,0,1,.254.988c-.564.145-1.139.309-1.707.49a.516.516,0,0,1-.154.024A.51.51,0,0,1,623.8,506.785Zm12.848-.7c-.563-.106-1.148-.189-1.74-.246a.51.51,0,0,1,.1-1.016c.621.06,1.238.147,1.831.259a.51.51,0,0,1-.094,1.012A.552.552,0,0,1,636.643,506.082Zm-7.595-.57a.51.51,0,0,1,.44-.571c.614-.08,1.23-.139,1.83-.175a.51.51,0,1,1,.062,1.018c-.577.035-1.169.092-1.76.169a.541.541,0,0,1-.066,0A.511.511,0,0,1,629.048,505.511Z" transform="translate(-608.963 -499.635)" fill="#77ab45"/>
      <path id="Trazado_18928" data-name="Trazado 18928" d="M607.042,507.495a.511.511,0,0,0,.214-.974c-.456-.21-.708-.359-.71-.36a.51.51,0,0,0-.523.877c.012.007.3.175.8.41A.511.511,0,0,0,607.042,507.495Z" transform="translate(-605.775 -500.209)" fill="#77ab45"/>
    </g>
    <path id="Trazado_18929" data-name="Trazado 18929" d="M353.033,465.325a.371.371,0,0,1-.209-.065,82.649,82.649,0,0,0-21.444-9.411,112.2,112.2,0,0,0-31.782-4.183.365.365,0,0,1-.384-.359.371.371,0,0,1,.359-.384,111.131,111.131,0,0,1,32.014,4.212,83.393,83.393,0,0,1,21.656,9.511.371.371,0,0,1-.21.678Z" transform="translate(-85.001 -8.041)" fill="#197002"/>
    <path id="Trazado_18930" data-name="Trazado 18930" d="M346.4,891.832a.372.372,0,0,1-.008-.744c9.452-.2,40.485-2.612,70.178-11.171a.372.372,0,1,1,.206.714c-29.769,8.581-60.889,10.994-70.368,11.2Z" transform="translate(-105.246 -193.574)" fill="#197002"/>
    <path id="Trazado_18931" data-name="Trazado 18931" d="M658.939,576.671a.369.369,0,0,1-.223-.074,40.983,40.983,0,0,0-11.451-6.294.372.372,0,0,1,.255-.7,41.646,41.646,0,0,1,11.642,6.4.371.371,0,0,1-.224.669Z" transform="translate(-235.416 -59.372)" fill="#197002"/>
    <path id="Trazado_18932" data-name="Trazado 18932" d="M121.056,769.859a.372.372,0,0,1-.308-.162c-5.7-8.368-11.322-20.832-13.254-27.581a.372.372,0,1,1,.715-.2c1.917,6.694,7.49,19.061,13.153,27.367a.372.372,0,0,1-.306.581Z" transform="translate(-2.084 -133.781)" fill="#197002"/>
    <path id="Trazado_18933" data-name="Trazado 18933" d="M610.341,558.82a.372.372,0,0,1-.118-.019c-8.662-2.9-15.789-4.5-21.183-4.751a.372.372,0,0,1,.035-.743c5.463.254,12.657,1.865,21.384,4.789a.372.372,0,0,1-.118.724Z" transform="translate(-210.188 -52.334)" fill="#197002"/>
    <path id="Trazado_18934" data-name="Trazado 18934" d="M172.662,445.429c-2.141,8.661-14.178,25.363-20.711,20.334s-4.772-15.026,2.641-20.537C162.235,439.544,174.228,439.093,172.662,445.429Z" transform="translate(-19.57 -3.687)" fill="#317b13"/>
    <path id="Trazado_18935" data-name="Trazado 18935" d="M194.105,880.392c5.851-1.33,12.228,4.261,12.6,8.707s-10.931,10.561-17.6,5.373S190.029,881.318,194.105,880.392Z" transform="translate(-36.242 -193.699)" fill="#317b13"/>
    <path id="Trazado_18936" data-name="Trazado 18936" d="M158.331,855.409c4.214,1.24,5.373,7.523,2.038,7.893s-10.19-2.594-10.19-5.558S155.181,854.483,158.331,855.409Z" transform="translate(-20.55 -182.78)" fill="#317b13"/>
    <path id="Trazado_18937" data-name="Trazado 18937" d="M272.181,888.149c5.053.692,5.572,6.677,4.728,9.236s-6.768-2.272-8.577-5.638S269.35,887.761,272.181,888.149Z" transform="translate(-71.4 -197.096)" fill="#317b13"/>
    <path id="Trazado_18938" data-name="Trazado 18938" d="M244.787,432.789a2.119,2.119,0,0,1,.928,2.358,8.664,8.664,0,0,1-6.622,6.719h0a5.838,5.838,0,0,1-6.019-2.714,3.188,3.188,0,0,1,.361-3.921,6.806,6.806,0,0,1,1.722-1.316C238.194,432.226,242.888,431.868,244.787,432.789Zm-5.848,8.312a7.829,7.829,0,0,0,6-6.052c.047-.373.094-1.272-.5-1.557-2.024-.982-8.178-.2-10.435,2.266a2.448,2.448,0,0,0-.257,3.01,5.027,5.027,0,0,0,5.186,2.333Zm.079.381h0Z" transform="translate(-56.18 0)" fill="#197002"/>
    <g id="Grupo_9370" data-name="Grupo 9370" transform="translate(109.308 451.858)">
      <g id="Grupo_9369" data-name="Grupo 9369" clip-path="url(#clip-path)">
        <path id="Trazado_18939" data-name="Trazado 18939" d="M281.979,460.965c-22.682-10.825-49.245-47.928-113.994-48.694C102.294,411.5,34.52,465.5,34.308,548.095,34.1,629.62,73.648,673.156,136.619,699.459c48.617,20.308,131.524,10.132,175.806-3.986,31.061-9.9,59.662-26.545,99.258-31.019,55.33-6.252,79.052-85.792,46.592-132.325-16.965-24.321-32.1-43.547-90.665-49.393C332.9,479.271,314.269,476.376,281.979,460.965Z" transform="translate(-79.748 -443.196)" fill="url(#radial-gradient-2)"/>
        <g id="Grupo_9356" data-name="Grupo 9356" transform="translate(-201.629 51.341)">
          <path id="Trazado_18940" data-name="Trazado 18940" d="M593.751,661.381c-17.473,0-27.755-25.015-50.319-25.015S514.659,648.1,491.49,648.1s-28.507-29.191-52.542-29.191-37.175,12.589-52.6,12.589-20.115-26.925-43.686-26.925-29.9,18.754-55.208,18.754-36.143-37.143-65.282-37.143S146.7,609.33,136.488,617.569,120.16,761.858,120.16,761.858l519.181,1.265-18.9-113.384S616.441,661.381,593.751,661.381Z" transform="translate(84.754 -569.75)" fill="url(#linear-gradient)"/>
          <path id="Trazado_18941" data-name="Trazado 18941" d="M280.92,564.379c-1.747,0-.8-3.107-6.106-3.107-4.561,0-7.359,2.151-8.394,2.151s.066-5.258-8.61-5.258c-6.719,0-9.953,5.338-15.132,5.338s-15.057,3.426-9.879,3.426h52.264C287.931,566.928,286.656,564.379,280.92,564.379Z" transform="translate(36.672 -557.633)" fill="url(#linear-gradient-2)"/>
          <path id="Trazado_18942" data-name="Trazado 18942" d="M92.721,607.772c4.984-10.687,25.213-50.543,64.554-50.543S208.7,610.468,235.3,610.468s35.839-11,65.133-11,63.458,28.188,70.032,56.994-23.7,45.433-71.642,45.433-206.105-5.544-206.105-5.544Z" transform="translate(96.62 -557.229)" fill="url(#linear-gradient-3)"/>
          <path id="Trazado_18943" data-name="Trazado 18943" d="M232.693,685.11c-17.472,0-27.755-25.015-50.319-25.015s-28.772,11.732-51.942,11.732-28.507-29.191-52.542-29.191-37.175,12.589-52.6,12.589S5.179,628.3-18.393,628.3s-29.9,18.754-55.208,18.754-36.143-37.143-65.282-37.143-75.477,23.148-85.688,31.387S-240.9,785.587-240.9,785.587l519.18,1.265-18.9-113.385S255.383,685.11,232.693,685.11Z" transform="translate(240.898 -580.012)" fill="url(#linear-gradient-4)"/>
          <g id="Grupo_9340" data-name="Grupo 9340" transform="translate(428.739 83.068)">
            <path id="Trazado_18944" data-name="Trazado 18944" d="M519.162,703.643c2.3-.359,4.723,1.321,3.779,4.529a12.409,12.409,0,0,0,1.181,8.917c1.133,1.888,1.889,6.039-1.842,7.219s-9.315-.572-7.321-5.756c1.647-4.283,1.795-5,1.357-9.076C515.815,704.826,517.651,703.878,519.162,703.643Z" transform="translate(-514.54 -703.595)" fill="#378a13"/>
            <g id="Grupo_9339" data-name="Grupo 9339" transform="translate(3.668 2.152)">
              <g id="Grupo_9338" data-name="Grupo 9338">
                <path id="Trazado_18945" data-name="Trazado 18945" d="M522.964,730.539h1.522l-.652-23.043a.109.109,0,0,0-.109-.109h0a.109.109,0,0,0-.109.109Z" transform="translate(-521.851 -707.387)" fill="#3a3f53"/>
                <path id="Trazado_18946" data-name="Trazado 18946" d="M524.348,716.992l1.582-1.58-.1-.1-1.582,1.58Z" transform="translate(-522.405 -710.813)" fill="#3a3f53"/>
                <path id="Trazado_18947" data-name="Trazado 18947" d="M523.3,712.82l-1.309-1.308.1-.1,1.206,1.2Z" transform="translate(-521.43 -709.126)" fill="#3a3f53"/>
                <rect id="Rectángulo_2234" data-name="Rectángulo 2234" width="4.447" height="0.147" transform="matrix(0.708, -0.707, 0.707, 0.708, 1.824, 15.304)" fill="#3a3f53"/>
                <path id="Trazado_18948" data-name="Trazado 18948" d="M522.813,724.2,521,722.4l.1-.1,1.707,1.7Z" transform="translate(-521.003 -713.833)" fill="#3a3f53"/>
              </g>
            </g>
          </g>
          <path id="Trazado_18949" data-name="Trazado 18949" d="M377.193,646.9c.018.028.035.057.054.085a22.866,22.866,0,0,0,3.859,4.3,57.607,57.607,0,0,0,9.853,6.766c3.516,1.973,7.172,3.737,10.891,5.372q2.79,1.223,5.627,2.358l1.419.563c.5.206,1,.406,1.5.625,1,.425,1.989.888,2.972,1.365a52.7,52.7,0,0,1,11.149,7.248,38.893,38.893,0,0,1,8.806,10.654,31.85,31.85,0,0,1,3.986,13.844c.253,4.917-2.453,16.228-4.375,20.711l-13.943-2.841c1.585-2.99,7.759-9.883,8.409-17.72a20.478,20.478,0,0,0-2.022-9.973,30.457,30.457,0,0,0-6.228-8.876,45.248,45.248,0,0,0-9.057-6.978c-.838-.494-1.685-.98-2.554-1.434-.431-.234-.869-.448-1.31-.676l-1.4-.714q-2.8-1.436-5.56-2.965c-3.675-2.043-7.289-4.221-10.775-6.63a61.483,61.483,0,0,1-9.828-8.21,25.954,25.954,0,0,1-3.921-5.3c-.159-.3-.3-.6-.444-.914Z" transform="translate(-25.153 -596.008)" fill="url(#linear-gradient-5)"/>
          <path id="Trazado_18950" data-name="Trazado 18950" d="M-230.713,678.255c12.721,11.306,23.928,25.535,46.2,25.535s63.292-33.414,93.194-33.414,50.116,32.49,87.238,32.49S55.143,682.93,90.556,682.93s37.867,27.952,96.367,27.952,86.881-25.368,135.95-25.368S358.1,807.561,358.1,807.561h-588.81Z" transform="translate(236.493 -606.161)" fill="url(#linear-gradient-6)"/>
          <path id="Trazado_18951" data-name="Trazado 18951" d="M333.947,749.591a33.052,33.052,0,0,1-9.347-7.5,28.436,28.436,0,0,1-3.4-5.036,31.811,31.811,0,0,1-2.239-5.455,48.115,48.115,0,0,1-1.91-10.994l-.086-1.24c-.036-.385-.065-.772-.118-1.154-.091-.769-.224-1.53-.39-2.283a22.951,22.951,0,0,0-1.438-4.4,24.373,24.373,0,0,0-5.46-7.672,34.307,34.307,0,0,0-8.044-5.651,44.852,44.852,0,0,0-4.668-2.072q2.488-.553,5.043-1c.287.1.575.208.861.318a37.873,37.873,0,0,1,9.5,5.265,29.094,29.094,0,0,1,7.435,8.4,28.472,28.472,0,0,1,2.363,5.226c.307.908.573,1.831.789,2.763.116.465.2.934.3,1.4l.241,1.331a41.207,41.207,0,0,0,2.641,9.187,21.343,21.343,0,0,0,4.927,7.185c4.1,3.909,23.557,10.452,37.85,10.452l-24.387,7.374A60.711,60.711,0,0,1,333.947,749.591Z" transform="translate(8.343 -616.865)" fill="url(#linear-gradient-7)"/>
          <g id="Grupo_9347" data-name="Grupo 9347" transform="translate(296.271 73.621)">
            <g id="Grupo_9343" data-name="Grupo 9343" transform="translate(0 12.885)">
              <path id="Trazado_18952" data-name="Trazado 18952" d="M293.573,709.766c6.187-.845,12.716,3.112,10.173,10.672s.127,16.563,3.179,21.01,5.086,14.229-4.959,17.008-25.077-1.346-19.709-13.562c4.434-10.091,4.831-11.784,3.653-21.384C284.564,712.555,289.5,710.322,293.573,709.766Z" transform="translate(-281.131 -709.654)" fill="#378a13"/>
              <g id="Grupo_9342" data-name="Grupo 9342" transform="translate(9.874 5.072)">
                <g id="Grupo_9341" data-name="Grupo 9341">
                  <path id="Trazado_18953" data-name="Trazado 18953" d="M303.807,773.14h4.1l-1.754-54.292a.278.278,0,0,0-.3-.258h0a.278.278,0,0,0-.3.258Z" transform="translate(-300.811 -718.59)" fill="#3a3f53"/>
                  <path id="Trazado_18954" data-name="Trazado 18954" d="M307.534,741.221l4.258-3.723-.279-.244-4.259,3.723Z" transform="translate(-302.302 -726.661)" fill="#3a3f53"/>
                  <path id="Trazado_18955" data-name="Trazado 18955" d="M304.711,731.39l-3.525-3.082.279-.244,3.246,2.838Z" transform="translate(-299.678 -722.687)" fill="#3a3f53"/>
                  <path id="Trazado_18956" data-name="Trazado 18956" d="M307.461,776.727l8.47-7.4-.279-.244-8.47,7.4Z" transform="translate(-302.271 -740.424)" fill="#3a3f53"/>
                  <path id="Trazado_18957" data-name="Trazado 18957" d="M303.4,758.212l-4.874-4.261.279-.244,4.594,4.017Z" transform="translate(-298.529 -733.777)" fill="#3a3f53"/>
                </g>
              </g>
            </g>
            <g id="Grupo_9346" data-name="Grupo 9346" transform="translate(60.488)">
              <path id="Trazado_18958" data-name="Trazado 18958" d="M398.135,687.062c5.183-.846,10.653,3.115,8.523,10.679s.107,16.574,2.663,21.024,4.261,14.239-4.155,17.02-21.01-1.347-16.513-13.571c3.715-10.1,4.049-11.791,3.061-21.4C390.587,689.853,394.726,687.619,398.135,687.062Z" transform="translate(-387.711 -686.95)" fill="#378a13"/>
              <g id="Grupo_9345" data-name="Grupo 9345" transform="translate(8.273 5.075)">
                <g id="Grupo_9344" data-name="Grupo 9344">
                  <path id="Trazado_18959" data-name="Trazado 18959" d="M406.71,750.478h3.434l-1.469-54.328a.253.253,0,0,0-.247-.258h0a.253.253,0,0,0-.247.258Z" transform="translate(-404.2 -695.892)" fill="#3a3f53"/>
                  <path id="Trazado_18960" data-name="Trazado 18960" d="M409.832,718.538l3.568-3.725-.234-.244-3.568,3.725Z" transform="translate(-405.449 -703.969)" fill="#3a3f53"/>
                  <path id="Trazado_18961" data-name="Trazado 18961" d="M407.467,708.7l-2.953-3.084.234-.244,2.719,2.84Z" transform="translate(-403.25 -699.992)" fill="#3a3f53"/>
                  <path id="Trazado_18962" data-name="Trazado 18962" d="M409.771,754.067l7.1-7.409-.234-.244-7.1,7.409Z" transform="translate(-405.423 -717.741)" fill="#3a3f53"/>
                  <path id="Trazado_18963" data-name="Trazado 18963" d="M406.371,735.541l-4.083-4.264.234-.244,3.849,4.019Z" transform="translate(-402.287 -711.089)" fill="#3a3f53"/>
                </g>
              </g>
            </g>
          </g>
          <g id="Grupo_9350" data-name="Grupo 9350" transform="translate(372.763 29.215)">
            <path id="Trazado_18964" data-name="Trazado 18964" d="M420.533,608.753c2.3-.359,4.723,1.321,3.779,4.53a12.409,12.409,0,0,0,1.18,8.917c1.134,1.887,1.889,6.039-1.842,7.219s-9.314-.571-7.321-5.756c1.647-4.283,1.8-5,1.357-9.075C417.186,609.936,419.021,608.988,420.533,608.753Z" transform="translate(-415.911 -608.705)" fill="#378a13"/>
            <g id="Grupo_9349" data-name="Grupo 9349" transform="translate(3.668 2.152)">
              <g id="Grupo_9348" data-name="Grupo 9348">
                <path id="Trazado_18965" data-name="Trazado 18965" d="M424.334,635.649h1.523l-.652-23.043a.11.11,0,0,0-.11-.109h0a.11.11,0,0,0-.109.109Z" transform="translate(-423.221 -612.497)" fill="#3a3f53"/>
                <path id="Trazado_18966" data-name="Trazado 18966" d="M425.719,622.1l1.582-1.58-.1-.1L425.615,622Z" transform="translate(-423.775 -615.923)" fill="#3a3f53"/>
                <path id="Trazado_18967" data-name="Trazado 18967" d="M424.67,617.93l-1.309-1.308.1-.1,1.206,1.2Z" transform="translate(-422.8 -614.236)" fill="#3a3f53"/>
                <path id="Trazado_18968" data-name="Trazado 18968" d="M425.691,637.172l3.146-3.143-.1-.1-3.146,3.143Z" transform="translate(-423.764 -621.764)" fill="#3a3f53"/>
                <path id="Trazado_18969" data-name="Trazado 18969" d="M424.184,629.314l-1.81-1.808.1-.1,1.707,1.7Z" transform="translate(-422.374 -618.943)" fill="#3a3f53"/>
              </g>
            </g>
          </g>
          <g id="Grupo_9353" data-name="Grupo 9353" transform="translate(335.231 42.809)">
            <path id="Trazado_18970" data-name="Trazado 18970" d="M352.389,632.68c1.3-.164,2.667.6,2.134,2.072a4.749,4.749,0,0,0,.667,4.079c.641.863,1.068,2.763-1.04,3.3s-5.261-.261-4.135-2.633c.93-1.96,1.014-2.288.767-4.152C350.5,633.222,351.535,632.788,352.389,632.68Z" transform="translate(-349.778 -632.659)" fill="#378a13"/>
            <g id="Grupo_9352" data-name="Grupo 9352" transform="translate(2.072 0.985)">
              <g id="Grupo_9351" data-name="Grupo 9351">
                <path id="Trazado_18971" data-name="Trazado 18971" d="M354.536,644.985h.86l-.368-10.541a.056.056,0,0,0-.062-.05h0a.057.057,0,0,0-.062.05Z" transform="translate(-353.907 -634.394)" fill="#3a3f53"/>
                <path id="Trazado_18972" data-name="Trazado 18972" d="M355.318,638.788l.893-.723-.059-.047-.893.723Z" transform="translate(-354.22 -635.961)" fill="#3a3f53"/>
                <path id="Trazado_18973" data-name="Trazado 18973" d="M354.725,636.879l-.74-.6.059-.047.681.551Z" transform="translate(-353.669 -635.189)" fill="#3a3f53"/>
                <path id="Trazado_18974" data-name="Trazado 18974" d="M355.3,645.681l1.777-1.438-.059-.047-1.777,1.438Z" transform="translate(-354.213 -638.633)" fill="#3a3f53"/>
                <path id="Trazado_18975" data-name="Trazado 18975" d="M354.451,642.087l-1.023-.827.059-.047.964.78Z" transform="translate(-353.428 -637.342)" fill="#3a3f53"/>
              </g>
            </g>
          </g>
          <path id="Trazado_18976" data-name="Trazado 18976" d="M-31.427,797.742c21.469,5.585,76.363,21.8,217.455-11.418s267.321-6.673,283.88-3.446,18.615,46.814,18.615,46.814L-29.448,849.5Z" transform="translate(150.31 -649.151)" fill="url(#linear-gradient-8)"/>
          <g id="Grupo_9354" data-name="Grupo 9354" transform="translate(251.871 74.818)">
            <path id="Trazado_18977" data-name="Trazado 18977" d="M206.758,689.059c1.638,2.261,3.859,6.157,3.859,9.038a3.874,3.874,0,1,1-7.719,0C202.9,695.216,205.12,691.32,206.758,689.059Z" transform="translate(-202.899 -689.059)" fill="#4b6900"/>
            <path id="Trazado_18978" data-name="Trazado 18978" d="M209.059,710.318h.5l-.234-12.062h-.031Z" transform="translate(-205.563 -693.037)" fill="#3a3f53"/>
          </g>
          <g id="Grupo_9355" data-name="Grupo 9355" transform="translate(312.381 14.114)">
            <path id="Trazado_18979" data-name="Trazado 18979" d="M312.145,582.1c1.115,1.7,2.627,4.633,2.627,6.8s-1.326,3.171-2.627,3.171-2.628-1-2.628-3.171S311.03,583.8,312.145,582.1Z" transform="translate(-309.517 -582.097)" fill="#4b6900"/>
            <path id="Trazado_18980" data-name="Trazado 18980" d="M313.711,598.094h.341l-.16-9.076h-.021Z" transform="translate(-311.331 -585.09)" fill="#3a3f53"/>
          </g>
        </g>
        <g id="Grupo_9368" data-name="Grupo 9368" transform="translate(-22.81 100.734)">
          <path id="Trazado_18981" data-name="Trazado 18981" d="M74.181,644.26c13.293,2.77,38.448,16.071,54.122,32.256s40.348,56.322,40.348,56.322l-31.481,9.34s-24.309-15.971-41-38.086C75.372,676.53,74.181,644.26,74.181,644.26Z" transform="translate(-74.181 -644.26)" fill="#004700"/>
          <path id="Trazado_18982" data-name="Trazado 18982" d="M153.346,739.873l.3-.181c-19.333-32.375-74.4-89.857-74.823-90.215l-.23.268C79.051,650.156,134.09,707.626,153.346,739.873Z" transform="translate(-76.091 -646.516)" fill="#fff"/>
          <g id="Grupo_9357" data-name="Grupo 9357" transform="translate(4.9 18.168)">
            <rect id="Rectángulo_2235" data-name="Rectángulo 2235" width="0.353" height="0.353" transform="translate(0 0.352) rotate(-84.708)" fill="#fff"/>
            <path id="Trazado_18983" data-name="Trazado 18983" d="M94.937,677.748l.032-.352.73.068-.032.352Zm-1.459-.136.032-.352.73.068-.033.352Zm-1.46-.135.032-.352.73.068-.032.352Zm-1.459-.136.032-.352.73.068-.033.352Zm-1.459-.136.032-.352.729.068-.032.352Zm-1.46-.135.033-.352.729.068-.032.352Zm-1.459-.136.032-.352.73.068-.032.352Zm-1.459-.136.032-.352.73.068-.033.352Z" transform="translate(-83.64 -676.348)" fill="#fff"/>
            <rect id="Rectángulo_2236" data-name="Rectángulo 2236" width="0.353" height="0.353" transform="translate(12.756 1.536) rotate(-84.714)" fill="#fff"/>
          </g>
          <g id="Grupo_9358" data-name="Grupo 9358" transform="translate(9.778 31.75)">
            <rect id="Rectángulo_2237" data-name="Rectángulo 2237" width="0.354" height="0.353" transform="translate(0 0.389) rotate(-1.193)" fill="#fff"/>
            <path id="Trazado_18984" data-name="Trazado 18984" d="M109.877,700.608l-.007-.354.692-.014.007.353Zm-1.385.028-.007-.353.692-.014.007.353Zm-1.385.028-.007-.354.692-.014.007.354Zm-1.385.028-.007-.354.692-.014.007.354Zm-1.385.028-.007-.354.692-.014.007.354Zm-1.384.027-.007-.353.692-.014.007.354Zm-1.385.028-.007-.353.692-.014.007.354Zm-1.384.028-.007-.353.692-.014.007.354Zm-1.385.028-.007-.353.692-.014.007.354Zm-1.385.028-.007-.353.692-.014.007.354Zm-1.385.028-.007-.354.692-.014.007.354Zm-1.385.028-.007-.354.692-.014.007.354Zm-1.385.028-.007-.354.692-.014.007.354Z" transform="translate(-92.207 -700.22)" fill="#fff"/>
            <rect id="Rectángulo_2238" data-name="Rectángulo 2238" width="0.354" height="0.353" transform="translate(19.047 0.007) rotate(-1.187)" fill="#fff"/>
          </g>
          <g id="Grupo_9359" data-name="Grupo 9359" transform="translate(17.479 46.675)">
            <rect id="Rectángulo_2239" data-name="Rectángulo 2239" width="0.354" height="0.353" transform="matrix(0.998, -0.055, 0.055, 0.998, 0, 1.341)" fill="#fff"/>
            <path id="Trazado_18985" data-name="Trazado 18985" d="M128.771,726.991l-.019-.353.686-.037.019.353Zm-1.371.074-.02-.352.686-.037.02.353Zm-1.372.075-.019-.353.686-.038.02.353Zm-1.371.074-.019-.353.686-.037.019.353Zm-1.371.074-.02-.353.686-.037.019.353Zm-1.372.074-.019-.352.686-.037.02.353Zm-1.371.074-.019-.353.686-.037.019.353Zm-1.372.074-.019-.353.686-.037.019.353Zm-1.371.075-.019-.353.686-.037.019.353Zm-1.371.074-.019-.353.686-.037.019.353Zm-1.372.074-.019-.353.686-.037.019.352Zm-1.371.074-.019-.353.686-.037.019.352Zm-1.371.074-.019-.353.686-.037.019.353Zm-1.372.074-.019-.352.686-.038.019.353Zm-1.371.075-.02-.353.686-.038.019.353Zm-1.371.074-.019-.353.686-.037.019.353Zm-1.372.074-.019-.353.686-.037.019.352Z" transform="translate(-105.771 -726.545)" fill="#fff"/>
            <rect id="Rectángulo_2240" data-name="Rectángulo 2240" width="0.353" height="0.353" transform="matrix(0.998, -0.055, 0.055, 0.998, 24.352, 0.019)" fill="#fff"/>
          </g>
          <g id="Grupo_9360" data-name="Grupo 9360" transform="translate(29.562 62.05)">
            <rect id="Rectángulo_2241" data-name="Rectángulo 2241" width="0.354" height="0.354" transform="matrix(0.995, -0.101, 0.101, 0.995, 0, 2.547)" fill="#fff"/>
            <path id="Trazado_18986" data-name="Trazado 18986" d="M150.734,754.2l-.036-.352.705-.071.036.352Zm-1.41.141-.036-.352.705-.071.036.352Zm-1.41.141-.036-.351.705-.071.036.352Zm-1.41.142-.036-.352.705-.071.035.352Zm-1.411.141-.035-.352.705-.07.035.351Zm-1.41.141-.035-.351.7-.071.036.352Zm-1.41.142-.036-.352.705-.071.035.352Zm-1.411.141-.035-.352.7-.07.035.351Zm-1.41.141-.036-.351.7-.071.036.352Zm-1.411.142-.035-.352.7-.071.035.352Zm-1.41.141-.036-.352.7-.07.036.351Zm-1.411.142-.036-.352.705-.071.036.352Zm-1.41.141-.036-.352.705-.071.036.352Zm-1.41.141-.036-.351.705-.071.035.351Zm-1.411.142-.035-.352.7-.071.036.352Zm-1.41.141-.036-.352.705-.071.036.352Zm-1.41.141-.036-.351.705-.071.036.351Z" transform="translate(-127.074 -753.673)" fill="#fff"/>
            <rect id="Rectángulo_2242" data-name="Rectángulo 2242" width="0.353" height="0.354" transform="matrix(0.995, -0.101, 0.101, 0.995, 25.035, 0.036)" fill="#fff"/>
          </g>
          <g id="Grupo_9361" data-name="Grupo 9361" transform="translate(46.533 79.071)">
            <rect id="Rectángulo_2243" data-name="Rectángulo 2243" width="0.354" height="0.354" transform="matrix(0.991, -0.134, 0.134, 0.991, 0, 2.896)" fill="#fff"/>
            <path id="Trazado_18987" data-name="Trazado 18987" d="M176.734,784.283l-.047-.35.717-.1.047.35Zm-1.434.194-.047-.351.717-.1.048.351Zm-1.433.193-.048-.351.717-.1.048.351Zm-1.433.193-.048-.351.717-.1.047.351Zm-1.434.193-.047-.35.717-.1.048.351Zm-1.433.193-.048-.35.717-.1.048.35Zm-1.434.193-.047-.351.717-.1.047.351Zm-1.434.194-.047-.351.717-.1.047.35Zm-1.433.193-.048-.351.717-.1.048.351Zm-1.434.193-.048-.35.717-.1.047.351Zm-1.434.193-.047-.35.716-.1.048.35Zm-1.433.193-.048-.35.717-.1.048.35Zm-1.434.193-.048-.35.717-.1.047.35Zm-1.434.193-.047-.351.717-.1.047.351Z" transform="translate(-156.985 -783.692)" fill="#fff"/>
            <rect id="Rectángulo_2244" data-name="Rectángulo 2244" width="0.353" height="0.354" transform="matrix(0.991, -0.134, 0.134, 0.991, 21.135, 0.047)" fill="#fff"/>
          </g>
          <g id="Grupo_9362" data-name="Grupo 9362" transform="translate(70.813 64.048)">
            <rect id="Rectángulo_2245" data-name="Rectángulo 2245" width="0.353" height="0.353" transform="matrix(0.258, -0.966, 0.966, 0.258, 5.069, 0.341)" fill="#fff"/>
            <path id="Trazado_18988" data-name="Trazado 18988" d="M199.439,776.165l.184-.69.342.091-.184.689Zm.369-1.379.184-.689.342.091-.184.69Zm.368-1.378.185-.69.341.091-.184.689Zm.369-1.379.184-.689.342.092-.184.69Zm.369-1.379.184-.689.342.091-.185.69Zm.368-1.379.185-.689.341.091-.184.689Zm.369-1.379.184-.69.342.092-.184.689Zm.369-1.379.184-.689.342.091-.184.69Zm.369-1.379.184-.69.341.091-.184.689Zm.368-1.379.184-.69.342.092-.184.69Zm.369-1.379.184-.69.342.091-.184.69ZM203.5,761l.184-.69.342.091-.185.69Zm.368-1.379.184-.689.342.092-.184.69Z" transform="translate(-199.163 -757.898)" fill="#fff"/>
            <rect id="Rectángulo_2246" data-name="Rectángulo 2246" width="0.353" height="0.353" transform="translate(0 19.297) rotate(-75.039)" fill="#fff"/>
          </g>
          <g id="Grupo_9363" data-name="Grupo 9363" transform="translate(80.365 81.75)">
            <rect id="Rectángulo_2247" data-name="Rectángulo 2247" width="0.353" height="0.353" transform="translate(7.415 0.327) rotate(-67.807)" fill="#fff"/>
            <path id="Trazado_18989" data-name="Trazado 18989" d="M216.495,806.562l.27-.661.327.133-.27.661Zm.539-1.321.27-.661.327.134-.27.661Zm.539-1.322.27-.661.327.134-.27.661Zm.54-1.321.27-.661.327.133-.27.661Zm.539-1.322.27-.661.327.134-.27.661Zm.539-1.321.27-.661.327.134-.27.661Zm.539-1.321.27-.661.327.133-.27.661Zm.54-1.322.27-.661.328.134-.27.661Zm.539-1.321.27-.661.327.134-.27.661Zm.539-1.321.27-.661.327.134-.27.661Zm.54-1.322.27-.661.327.134-.27.661Zm.539-1.321.27-.661.327.134-.27.661Zm.539-1.321.27-.661.327.134-.27.66Z" transform="translate(-216.092 -789.056)" fill="#fff"/>
            <rect id="Rectángulo_2248" data-name="Rectángulo 2248" width="0.353" height="0.353" transform="translate(0 18.494) rotate(-67.813)" fill="#fff"/>
          </g>
          <g id="Grupo_9364" data-name="Grupo 9364" transform="translate(58.29 49.665)">
            <path id="Trazado_18990" data-name="Trazado 18990" d="M188.367,732.215c.106-.326.108-.384.09-.446l-.169.051h-.175a2.059,2.059,0,0,1-.082.285Z" transform="translate(-181.706 -731.769)" fill="#fff"/>
            <path id="Trazado_18991" data-name="Trazado 18991" d="M177.544,748.444l.254-.648.327.133-.253.645Zm.507-1.3.253-.649.329.129-.253.648Zm.506-1.3.253-.648.329.128-.253.648Zm.5-1.3.252-.648.33.128-.252.649Zm.5-1.3.251-.648.33.128-.251.649Zm.5-1.3.251-.649.329.128-.251.649Zm.5-1.3.25-.648.33.127-.25.648Zm.5-1.3.249-.649.33.126-.25.65Zm.5-1.3.248-.65.33.126-.249.65Zm.495-1.3.246-.651.33.125-.246.651Zm.492-1.3.242-.652.331.124-.243.652Zm.483-1.3c.088-.24.167-.459.236-.653l.333.119c-.069.195-.149.415-.237.656Z" transform="translate(-177.172 -732.521)" fill="#fff"/>
            <rect id="Rectángulo_2249" data-name="Rectángulo 2249" width="0.352" height="0.354" transform="translate(0 16.873) rotate(-68.604)" fill="#fff"/>
          </g>
          <g id="Grupo_9365" data-name="Grupo 9365" transform="translate(44.526 33.486)">
            <rect id="Rectángulo_2250" data-name="Rectángulo 2250" width="0.354" height="0.354" transform="matrix(0.379, -0.925, 0.925, 0.379, 6.522, 0.327)" fill="#fff"/>
            <path id="Trazado_18992" data-name="Trazado 18992" d="M153.362,719.26l.278-.677.327.134-.278.678Zm.556-1.355.278-.678.327.134-.278.678Zm.555-1.355.278-.678.327.135-.278.677Zm.556-1.355.278-.678.327.134-.278.677Zm.556-1.355.278-.678.327.135-.278.677Zm.555-1.355.278-.677.327.134-.278.678Zm.556-1.355.278-.678.327.134-.278.678Zm.556-1.355.278-.677.327.134-.278.678Zm.555-1.355.278-.678.327.134-.278.678Zm.556-1.355.278-.678.327.135-.278.678Zm.556-1.355.278-.678.327.134-.278.678Z" transform="translate(-152.95 -704.027)" fill="#fff"/>
            <rect id="Rectángulo_2251" data-name="Rectángulo 2251" width="0.353" height="0.354" transform="translate(0 16.237) rotate(-67.693)" fill="#fff"/>
          </g>
          <g id="Grupo_9366" data-name="Grupo 9366" transform="translate(31.391 19.716)">
            <rect id="Rectángulo_2252" data-name="Rectángulo 2252" width="0.353" height="0.353" transform="translate(4.036 0.34) rotate(-74.447)" fill="#fff"/>
            <path id="Trazado_18993" data-name="Trazado 18993" d="M129.99,693.606l.188-.674.34.095-.188.674Zm.375-1.349.188-.675.341.095-.188.675Zm.376-1.349.188-.675.34.095-.188.675Zm.375-1.35.188-.675.341.095-.188.675Zm.376-1.349.188-.675.34.095-.188.675Zm.375-1.349.187-.675.34.095-.188.675Zm.375-1.35.188-.674.341.095-.188.674Zm.376-1.349.187-.675.341.095-.188.675Zm.375-1.349.188-.675.341.095-.188.675Zm.376-1.35.187-.674.341.095-.188.674Z" transform="translate(-129.707 -679.774)" fill="#fff"/>
            <rect id="Rectángulo_2253" data-name="Rectángulo 2253" width="0.353" height="0.353" transform="translate(0 14.848) rotate(-74.451)" fill="#fff"/>
          </g>
          <g id="Grupo_9367" data-name="Grupo 9367" transform="translate(20.312 10.578)">
            <rect id="Rectángulo_2254" data-name="Rectángulo 2254" width="0.353" height="0.353" transform="matrix(0.086, -0.996, 0.996, 0.086, 0.977, 0.352)" fill="#fff"/>
            <path id="Trazado_18994" data-name="Trazado 18994" d="M110.136,674.308l.064-.73.352.03-.064.731Zm.127-1.461.063-.731.352.031-.063.731Zm.126-1.462.063-.73.352.03-.064.731Zm.127-1.461.062-.731.352.031-.063.731Zm.126-1.461.063-.731.352.031-.063.73Zm.126-1.462.063-.731.352.031-.063.731Zm.127-1.461.063-.731.352.031-.063.73Z" transform="translate(-110.043 -663.724)" fill="#fff"/>
            <rect id="Rectángulo_2255" data-name="Rectángulo 2255" width="0.353" height="0.353" transform="translate(0 11.667) rotate(-85.07)" fill="#fff"/>
          </g>
        </g>
        <path id="Trazado_18995" data-name="Trazado 18995" d="M120.183,793.11c11.739-11.682,21.712-9.275,27.9.1s24.225-11.37,33.707.247c8.166,10.006-1.064,17.225,11.186,21.958,9.6,3.709,14.047-16.944,24.977-3.656s13.689-6.947,27.026-1.635c12.012,4.784,3.888,21.476,13.321,24.879s11.441-10.957,25.724-6.471c16.041,5.038,16.136,19.932,20.728,33.939s-120.447,66-120.447,66L72.967,809.979Z" transform="translate(-96.466 -604.493)" fill="url(#linear-gradient-9)"/>
        <path id="Trazado_18996" data-name="Trazado 18996" d="M258.08,846.221c-13.266-18.617-15.853-40.746-5.893-30.313s20.911,22.56,18.645,14.791-6.86-29.634-.969-31.03,6.887,16.026,8.328,22.207,6.56-5.675,7.563-15.24,10.717-16.064,9.3-.219-3.9,29.684-3.9,29.684,3.948-19.7,7.9-20.526,4.961,3.239,2.976,11.9-2.554,12.745-.414,13.88,6.9-16.195,11.729-14.355-.636,9.8-2.284,15.541,12.271-11.564,15.435-19.627,9.447-12.871,10.764-8.866-1.527,8.7-7.29,18.563,11.072-5.088,15.283-3.911,1.21,30.662-18.522,35.6S258.08,846.221,258.08,846.221Z" transform="translate(-171.355 -609.51)" fill="#005900"/>
      </g>
    </g>
    <g id="Grupo_9372" data-name="Grupo 9372" transform="translate(294.001 632.301)">
      <g id="Grupo_9371" data-name="Grupo 9371" transform="translate(7.517 5.538)">
        <path id="Trazado_18998" data-name="Trazado 18998" d="M470.743,829.816c-3.508-3.768-6.212-9.426-8.541-18.122-2.267-8.464-5.348-14.421-8.91-17.229l-.246.311c3.5,2.755,6.529,8.64,8.774,17.021,2.347,8.763,4.979,14.373,8.534,18.191Z" transform="translate(-453.046 -794.465)" fill="#004700"/>
      </g>
      <path id="Trazado_18999" data-name="Trazado 18999" d="M464.338,833.875c-.054-.151-8.232-5.75-10.377-3.085s1.407,4.476,4.023,4.394A28.691,28.691,0,0,0,464.338,833.875Z" transform="translate(-445.64 -804.325)" fill="#004700"/>
      <path id="Trazado_19000" data-name="Trazado 19000" d="M472.174,851.251c-.09-.133-9.4-3.518-10.818-.4s2.478,3.985,4.99,3.254A28.716,28.716,0,0,0,472.174,851.251Z" transform="translate(-448.993 -812.742)" fill="#004700"/>
      <path id="Trazado_19001" data-name="Trazado 19001" d="M460.558,818.678c-.031-.149-6.99-6.487-9.357-4.262s.737,4.395,3.208,4.66A27.273,27.273,0,0,0,460.558,818.678Z" transform="translate(-444.366 -797.35)" fill="#004700"/>
      <path id="Trazado_19002" data-name="Trazado 19002" d="M455.412,803.64c-.029-.139-6.482-6.017-8.678-3.953s.683,4.076,2.975,4.322A25.3,25.3,0,0,0,455.412,803.64Z" transform="translate(-442.461 -790.995)" fill="#004700"/>
      <path id="Trazado_19003" data-name="Trazado 19003" d="M457.189,793.955c.115-.066,3.485-7.56,1-8.919s-3.446,1.8-3,3.926A23.785,23.785,0,0,0,457.189,793.955Z" transform="translate(-446.41 -784.707)" fill="#004700"/>
      <path id="Trazado_19004" data-name="Trazado 19004" d="M465.595,808.5c.14-.021,6.365-6.158,4.419-8.464s-4.112.464-4.481,2.742A25.305,25.305,0,0,0,465.595,808.5Z" transform="translate(-450.865 -790.961)" fill="#004700"/>
      <path id="Trazado_19005" data-name="Trazado 19005" d="M470.476,823.586c.149-.013,7.13-6.058,5.236-8.622s-4.367.209-4.911,2.586A26.747,26.747,0,0,0,470.476,823.586Z" transform="translate(-453.048 -797.349)" fill="#004700"/>
      <path id="Trazado_19006" data-name="Trazado 19006" d="M475.774,837.589c.161,0,8.439-5.6,6.73-8.6s-4.721-.334-5.61,2.151A28.945,28.945,0,0,0,475.774,837.589Z" transform="translate(-455.358 -803.283)" fill="#004700"/>
      <path id="Trazado_19007" data-name="Trazado 19007" d="M448.043,791.353c0-.132-4.827-6.7-7.216-5.215s-.124,3.856,1.928,4.5A23.6,23.6,0,0,0,448.043,791.353Z" transform="translate(-439.802 -785.232)" fill="#004700"/>
    </g>
    <g id="Grupo_9373" data-name="Grupo 9373" transform="translate(102.662 644.282)">
      <path id="Trazado_19008" data-name="Trazado 19008" d="M189.268,843.074c-1.291-4.75-7.4-11.12-15.314-16.276-5.48-3.568-16.509-9.478-28.805-8.969-18.891.781-28.215,8.7-28.307,8.778a.427.427,0,0,0,.561.645c.091-.078,9.214-7.8,27.782-8.569,12.058-.5,22.908,5.319,28.3,8.831,7.272,4.735,13,10.58,14.716,15.068C188.546,842.75,189.27,843.083,189.268,843.074Z" transform="translate(-108.73 -810.998)" fill="#004700"/>
      <path id="Trazado_19009" data-name="Trazado 19009" d="M113.132,831.043c-.162-.073-10.926,2.129-10.455,5.892s4.652,2.328,6.6.18A31.816,31.816,0,0,0,113.132,831.043Z" transform="translate(-102.662 -816.725)" fill="#004700"/>
      <path id="Trazado_19010" data-name="Trazado 19010" d="M139.2,820.748c-.177-.056-11.071,3.493-10.14,7.336s5.094,1.865,6.862-.59A33.2,33.2,0,0,0,139.2,820.748Z" transform="translate(-114.053 -812.273)" fill="#004700"/>
      <path id="Trazado_19011" data-name="Trazado 19011" d="M166.626,818.241c-.171-.073-11.344,2.466-10.768,6.379s4.9,2.322,6.887.039A33.18,33.18,0,0,0,166.626,818.241Z" transform="translate(-125.658 -811.189)" fill="#004700"/>
      <path id="Trazado_19012" data-name="Trazado 19012" d="M192.771,825.867c-.164-.115-12.514.079-12.776,4.334s4.655,3.54,7.256,1.573A35.78,35.78,0,0,0,192.771,825.867Z" transform="translate(-136.101 -814.478)" fill="#004700"/>
      <path id="Trazado_19013" data-name="Trazado 19013" d="M217.859,841.164c-.137-.145-12.265-2.483-13.393,1.628s3.832,4.417,6.78,3.024A35.769,35.769,0,0,0,217.859,841.164Z" transform="translate(-146.617 -820.76)" fill="#004700"/>
      <path id="Trazado_19014" data-name="Trazado 19014" d="M121.2,823.053c-.123.129-10.928,2.118-11.9-1.548s3.442-3.9,6.054-2.64A31.832,31.832,0,0,1,121.2,823.053Z" transform="translate(-105.473 -811.161)" fill="#004700"/>
      <path id="Trazado_19015" data-name="Trazado 19015" d="M151.828,814.009c-.152.105-11.608-.09-11.847-4.037s4.323-3.278,6.733-1.45A33.189,33.189,0,0,1,151.828,814.009Z" transform="translate(-118.797 -806.359)" fill="#004700"/>
      <path id="Trazado_19016" data-name="Trazado 19016" d="M182.615,814.94c-.174.065-11.223-2.97-10.473-6.853s5-2.1,6.881.268A33.188,33.188,0,0,1,182.615,814.94Z" transform="translate(-132.694 -805.816)" fill="#004700"/>
      <path id="Trazado_19017" data-name="Trazado 19017" d="M208.55,822.894c-.2-.008-9.9-7.651-7.53-11.194s5.847.008,6.722,3.149A35.773,35.773,0,0,1,208.55,822.894Z" transform="translate(-145.036 -807.723)" fill="#004700"/>
      <path id="Trazado_19018" data-name="Trazado 19018" d="M234.037,840.394c-.171-.1-5.041-11.453-1.265-13.432s5.132,2.8,4.4,5.979A35.791,35.791,0,0,1,234.037,840.394Z" transform="translate(-158.31 -814.76)" fill="#004700"/>
    </g>
    <path id="mark" d="M208.044,529.372a7.349,7.349,0,1,0-14.7,0s-.662,6.95,7.35,14.961C208.707,536.322,208.044,529.372,208.044,529.372ZM200.7,533.4a4.031,4.031,0,1,1,4.031-4.031A4.031,4.031,0,0,1,200.7,533.4Z" transform="translate(-39.212 -38.804)" fill="#fff"/>
    <g id="clouds" transform="translate(230.201 447.772)">
      <path id="Trazado_19019" data-name="Trazado 19019" d="M468.794,536.758h76.444c12.52,0,6.819-3.325,2.721-3.325s-.848-9.467-15.824-10.314-17.2,7.488-23.438,8.618-4.679-2.684-11.319-3.39-9.184,3.956-14.129,4.945S459.848,536.758,468.794,536.758Z" transform="translate(-387.497 -487.025)" fill="url(#linear-gradient-2)"/>
      <path id="Trazado_19020" data-name="Trazado 19020" d="M395.345,468.085c-2.4,0-1.09-4.259-8.369-4.259-6.252,0-10.087,2.948-11.506,2.948s.091-7.207-11.8-7.207c-9.21,0-13.644,7.317-20.742,7.317s-20.64,4.7-13.541,4.7h71.639C404.955,471.579,403.208,468.085,395.345,468.085Z" transform="translate(-327.386 -459.567)" fill="url(#linear-gradient-2)"/>
    </g>
  </g>
</svg>
