<svg xmlns="http://www.w3.org/2000/svg" xmlns:xlink="http://www.w3.org/1999/xlink" width="461.043" height="277.158" viewBox="0 0 461.043 277.158">
  <defs>
    <linearGradient id="linear-gradient" y1="0.5" x2="1" y2="0.5" gradientUnits="objectBoundingBox">
      <stop offset="0" stop-color="#b7d447"/>
      <stop offset="0.181" stop-color="#a5c540"/>
      <stop offset="0.539" stop-color="#799e2d"/>
      <stop offset="1" stop-color="#386613"/>
    </linearGradient>
    <linearGradient id="linear-gradient-3" y1="0.5" x2="1" y2="0.5" gradientUnits="objectBoundingBox">
      <stop offset="0" stop-color="#fb0"/>
      <stop offset="1" stop-color="#ffe600"/>
    </linearGradient>
    <radialGradient id="radial-gradient" cx="0.573" cy="0.18" r="0.972" gradientTransform="translate(0.185) scale(0.63 1)" gradientUnits="objectBoundingBox">
      <stop offset="0" stop-color="#ffc800"/>
      <stop offset="1" stop-color="#ffe600"/>
    </radialGradient>
    <clipPath id="clip-path">
      <path id="Trazado_20001" data-name="Trazado 20001" d="M3094.351,1277.7c-22.243-19.2-54.8-58.249-99.079-54.937-47.584,3.56-77.394,42.086-74.089,103.124,2.488,45.959,20.572,70.07,49.577,92.525,29.267,22.659,82.826,31.194,116.576,31.911,62.294,1.322,113.444-3.389,146.426-21.031,37.441-20.026,44.011-50.393,29.836-77.285-10.985-20.84-52.546-38.5-87.2-42.312C3151.21,1306.926,3117.327,1297.537,3094.351,1277.7Z" transform="translate(-2920.934 -1222.567)" fill="none"/>
    </clipPath>
    <linearGradient id="linear-gradient-9" x1="0.424" y1="0.393" x2="0.636" y2="1.319" xlink:href="#linear-gradient"/>
    <linearGradient id="linear-gradient-10" x1="0.406" y1="0.104" x2="0.607" y2="0.867" gradientUnits="objectBoundingBox">
      <stop offset="0" stop-color="#f80"/>
      <stop offset="0.689" stop-color="#ffb300"/>
      <stop offset="1" stop-color="#ffc800"/>
    </linearGradient>
    <linearGradient id="linear-gradient-11" x1="0.434" y1="0.883" x2="0.627" y2="-0.273" gradientUnits="objectBoundingBox">
      <stop offset="0" stop-color="#fa0"/>
      <stop offset="0.732" stop-color="#ffd500"/>
      <stop offset="1" stop-color="#ffe600"/>
    </linearGradient>
    <linearGradient id="linear-gradient-12" x1="0.404" y1="1.089" x2="0.594" y2="-0.221" xlink:href="#linear-gradient"/>
  </defs>
  <g id="Grupo_9511" data-name="Grupo 9511" transform="translate(-2901.196 -1128.4)">
    <g id="bubble" transform="translate(2901.196 1128.4)">
      <g id="Grupo_9464" data-name="Grupo 9464" transform="translate(0 0)">
        <path id="Trazado_19918" data-name="Trazado 19918" d="M3481.51,1802.843c-5.377-1.2-11.365-4.556-17.305-11.865a.365.365,0,0,1,.566-.46c10.351,12.738,20.8,13.2,27.749,11.338,9.757-2.61,17.664-11.3,18.656-17.467a.364.364,0,0,1,.418-.3.37.37,0,0,1,.3.417c-1.028,6.387-9.161,15.372-19.187,18.055A23.353,23.353,0,0,1,3481.51,1802.843Z" transform="translate(-3246.718 -1530.855)" fill="#e38e04"/>
        <path id="Trazado_19919" data-name="Trazado 19919" d="M3662.657,1466.3a.364.364,0,0,1-.353-.274c-1.968-7.722-6.944-12.908-14.012-14.606-7.154-1.718-15.684.553-19.842,5.283a.364.364,0,0,1-.547-.481c4.322-4.918,13.16-7.288,20.559-5.511,7.343,1.764,12.509,7.138,14.548,15.134a.364.364,0,0,1-.353.454Z" transform="translate(-3347.19 -1325.871)" fill="#e38e04"/>
        <path id="Trazado_19920" data-name="Trazado 19920" d="M2961.6,1623.8c-6.125,0-13.253-3.784-17.276-9.37-4.413-6.128-4.82-13.573-1.146-20.961a.365.365,0,0,1,.653.324c-3.549,7.135-3.163,14.313,1.084,20.211,4.3,5.971,12.246,9.816,18.481,8.946a.364.364,0,0,1,.1.721A13.694,13.694,0,0,1,2961.6,1623.8Z" transform="translate(-2925.435 -1413.731)" fill="#e38e04"/>
        <path id="Trazado_19921" data-name="Trazado 19921" d="M2926.031,1232.7c12.742-1.575,22.783-9.294,19.9-17.461s-16.708-10.133-20.85-2.725C2920.418,1220.844,2915.724,1233.972,2926.031,1232.7Z" transform="translate(-2912.65 -1177.198)" fill="url(#linear-gradient)"/>
        <path id="Trazado_19922" data-name="Trazado 19922" d="M4053.977,1773.58c8.375-3.829,7.917,6.318,6.1,10.823-3.414,8.445-8.712,11.05-16.908,8.705C4035.9,1791.03,4041.25,1779.4,4053.977,1773.58Z" transform="translate(-3600.122 -1523.889)" fill="url(#linear-gradient)"/>
        <path id="Trazado_19923" data-name="Trazado 19923" d="M2907.995,1586.681c3.588-2.779-4.141-5.138-6.213-.574S2903.466,1590.188,2907.995,1586.681Z" transform="translate(-2901.196 -1407.761)" fill="url(#linear-gradient-3)"/>
        <path id="Trazado_19924" data-name="Trazado 19924" d="M2961.947,1758.374c5.68-.319,8.748,7.658,3.588,7.156S2957.846,1758.6,2961.947,1758.374Z" transform="translate(-2937.232 -1515.07)" fill="url(#linear-gradient-3)"/>
        <path id="Trazado_19925" data-name="Trazado 19925" d="M3392.571,1825.642c5.783-2.714,10.283,6.745,4.173,6.339C3389.947,1831.531,3387.662,1827.945,3392.571,1825.642Z" transform="translate(-3201.185 -1556.063)" fill="url(#linear-gradient-3)"/>
        <path id="Trazado_19926" data-name="Trazado 19926" d="M3695.353,1834.944c-3.91-2.708-.108-4.868,4.2-6.27S3698.732,1837.284,3695.353,1834.944Z" transform="translate(-3387.644 -1558.142)" fill="url(#linear-gradient-3)"/>
        <path id="Trazado_19927" data-name="Trazado 19927" d="M3806.017,1436.434a2.782,2.782,0,0,1-1.455-.482c-2.113-1.307-3.075-2.522-2.942-3.712s1.4-2.216,3.766-3.031h0a1.708,1.708,0,0,1,2.078.867c.944,1.507,1.014,4.607-.207,5.835A1.724,1.724,0,0,1,3806.017,1436.434Zm-.394-6.535c-2.047.7-3.18,1.542-3.279,2.422-.1.858.8,1.9,2.6,3.012.763.473,1.368.495,1.8.065.9-.9.956-3.578.106-4.934-.509-.812-1.048-.626-1.224-.565Z" transform="translate(-3453.865 -1312.976)" fill="#e38e04"/>
        <path id="Trazado_19928" data-name="Trazado 19928" d="M2912.32,1806.626a1.762,1.762,0,0,1-.822-.192c-1.128-.583-1.525-2.359-1.249-5.588a2.6,2.6,0,0,1,2.228-2.5,4.873,4.873,0,0,1,4.913,2.372c.355.755.659,2.271-1.3,3.928C2914.526,1805.972,2913.282,1806.626,2912.32,1806.626Zm.852-7.608a3.217,3.217,0,0,0-.566.049,1.865,1.865,0,0,0-1.63,1.841h0c-.3,3.511.3,4.591.857,4.879.506.261,1.572.18,3.786-1.694,1.194-1.01,1.579-2.069,1.111-3.062A4.142,4.142,0,0,0,2913.172,1799.018Zm-2.559,1.859h0Z" transform="translate(-2906.701 -1539.576)" fill="#e38e04"/>
        <path id="Trazado_19929" data-name="Trazado 19929" d="M3610.593,1830.508c-2.905,0-5.224-1.336-6.046-2.713a2.192,2.192,0,0,1,.37-2.893c1.945-1.794,5.332-1.411,7.828-.236,1.544.727,3.167,1.987,3.093,3.346-.032.585-.405,1.4-2,1.944A9.973,9.973,0,0,1,3610.593,1830.508Zm-2.077-6.117a4.478,4.478,0,0,0-3.1,1.047h0a1.463,1.463,0,0,0-.239,1.984c.984,1.649,4.462,3.207,8.429,1.845.668-.229,1.472-.64,1.508-1.295.044-.808-1.031-1.872-2.676-2.646A9.516,9.516,0,0,0,3608.515,1824.391Zm-3.352.78h0Z" transform="translate(-3332.677 -1555.154)" fill="#e38e04"/>
        <path id="Trazado_19930" data-name="Trazado 19930" d="M4069.3,1525.464a3.656,3.656,0,0,1-3.25-1.793h0a4.468,4.468,0,0,1,.735-5.121c1.422-1.756,3.573-2.691,5.117-2.221.79.241,1.769.944,1.948,2.93.324,3.594-1.482,5.463-3.281,6.013A4.314,4.314,0,0,1,4069.3,1525.464Zm-2.613-2.145a3.1,3.1,0,0,0,3.667,1.257c.74-.227,3.127-1.276,2.769-5.252a2.409,2.409,0,0,0-1.434-2.3c-1.251-.381-3.115.472-4.339,1.982a3.884,3.884,0,0,0-.664,4.311Z" transform="translate(-3615.865 -1366.435)" fill="#e38e04"/>
        <path id="Trazado_19931" data-name="Trazado 19931" d="M3736.115,1448.407a2.75,2.75,0,0,1-2.449-1.99,2.272,2.272,0,0,1,.6-2.319,1.989,1.989,0,0,1,3.412,1.317c.387,2.348-.718,2.849-1.212,2.955A1.666,1.666,0,0,1,3736.115,1448.407Zm-.383-4.172a1.434,1.434,0,0,0-.964.4,1.566,1.566,0,0,0-.4,1.6h0a1.931,1.931,0,0,0,1.948,1.428c.612-.132.847-.906.646-2.124a1.444,1.444,0,0,0-.861-1.24A1.149,1.149,0,0,0,3735.732,1444.235Z" transform="translate(-3412.104 -1321.811)" fill="#e38e04"/>
        <path id="Trazado_19932" data-name="Trazado 19932" d="M2945.619,1706.583c-.037,0-.074,0-.112,0-1.417-.077-2.558-1.612-3.94-4.063a1.575,1.575,0,0,1,.3-2.188c1.461-1.131,5.242-.727,6.742.719a2.281,2.281,0,0,1,.095,3.261h0C2947.6,1705.857,2946.613,1706.583,2945.619,1706.583Zm-1.2-6.18a3.649,3.649,0,0,0-2.1.5c-.245.19-.524.526-.113,1.254,1.225,2.174,2.263,3.634,3.344,3.693.756.039,1.591-.6,2.569-1.967.657-.916.654-1.673-.009-2.312A5.682,5.682,0,0,0,2944.417,1700.4Zm3.995,3.7h0Z" transform="translate(-2925.792 -1479.048)" fill="#e38e04"/>
        <path id="Trazado_19933" data-name="Trazado 19933" d="M3805.39,1530.195a.357.357,0,0,1-.135.1.364.364,0,0,1-.481-.184,69.531,69.531,0,0,0-21.608-27.5.363.363,0,0,1-.077-.509.369.369,0,0,1,.509-.077,70.262,70.262,0,0,1,21.841,27.789A.362.362,0,0,1,3805.39,1530.195Z" transform="translate(-3442.454 -1357.69)" fill="#e38e04"/>
        <path id="Trazado_19934" data-name="Trazado 19934" d="M3141.174,1797.263l-.048,0c-25.421-3.35-52.19-10.845-63.651-17.822a.364.364,0,1,1,.379-.622c11.385,6.93,38.035,14.384,63.368,17.722a.364.364,0,0,1-.047.725Z" transform="translate(-3009.288 -1527.589)" fill="#e38e04"/>
        <path id="Trazado_19935" data-name="Trazado 19935" d="M3278.9,1829.6h-.027a101.063,101.063,0,0,1-10.337-1.271.364.364,0,1,1,.142-.714,100.446,100.446,0,0,0,10.249,1.259.364.364,0,0,1-.027.728Z" transform="translate(-3126.486 -1557.569)" fill="#e38e04"/>
        <path id="Trazado_19936" data-name="Trazado 19936" d="M3245.072,1240.013a.361.361,0,0,1-.248-.1,57,57,0,0,0-9.17-6.794.364.364,0,1,1,.355-.636,57.848,57.848,0,0,1,9.31,6.9.365.365,0,0,1-.248.631Z" transform="translate(-3106.37 -1192.259)" fill="#e38e04"/>
        <path id="Trazado_19937" data-name="Trazado 19937" d="M3210.732,1220.488a.369.369,0,0,1-.182-.049,49.426,49.426,0,0,0-5.734-2.576.364.364,0,1,1,.259-.681,50.408,50.408,0,0,1,5.839,2.626.365.365,0,0,1-.183.68Z" transform="translate(-3087.412 -1182.88)" fill="#e38e04"/>
        <g id="Grupo_9461" data-name="Grupo 9461" transform="translate(272.444 45.391)">
          <g id="Grupo_9460" data-name="Grupo 9460">
            <path id="Trazado_19938" data-name="Trazado 19938" d="M3656.1,1250.36a.467.467,0,0,1-.208-.886c.238-.118.484-.232.732-.337a.467.467,0,0,1,.366.86c-.231.1-.46.2-.682.314A.463.463,0,0,1,3656.1,1250.36Z" transform="translate(-3636.708 -1247.876)" fill="#fd0"/>
            <path id="Trazado_19939" data-name="Trazado 19939" d="M3682.331,1249.263l-.043,0a16.507,16.507,0,0,1-1.683-.241.467.467,0,0,1,.18-.917,15.615,15.615,0,0,0,1.587.227.467.467,0,0,1-.042.933Zm3.3-.043a.468.468,0,0,1-.054-.932,15.8,15.8,0,0,0,1.583-.265.468.468,0,1,1,.2.913,16.981,16.981,0,0,1-1.675.28A.521.521,0,0,1,3685.628,1249.221Zm-8.1-1.111a.472.472,0,0,1-.141-.022c-.521-.165-1.047-.316-1.564-.448a.467.467,0,0,1,.233-.905c.533.137,1.076.292,1.613.462a.468.468,0,0,1-.141.913Zm-11.412-.963a.467.467,0,0,1-.086-.927c.543-.1,1.108-.182,1.678-.237a.467.467,0,1,1,.089.931c-.541.052-1.077.128-1.593.225A.469.469,0,0,1,3666.112,1247.147Zm6.582-.123a.472.472,0,0,1-.061,0c-.542-.07-1.084-.122-1.612-.155a.467.467,0,1,1,.056-.933c.55.034,1.114.088,1.677.161a.468.468,0,0,1-.06.931Z" transform="translate(-3642.855 -1245.931)" fill="#fd0"/>
            <path id="Trazado_19940" data-name="Trazado 19940" d="M3728.993,1249a.468.468,0,0,1-.2-.892c.417-.192.647-.329.65-.33a.467.467,0,0,1,.478.8c-.011.007-.27.161-.737.376A.461.461,0,0,1,3728.993,1249Z" transform="translate(-3681.451 -1247.027)" fill="#fd0"/>
            <path id="Trazado_19941" data-name="Trazado 19941" d="M3607.1,1259.625a.467.467,0,0,1-.208-.886c.238-.118.484-.232.732-.337a.467.467,0,0,1,.366.86c-.231.1-.46.2-.682.314A.47.47,0,0,1,3607.1,1259.625Z" transform="translate(-3606.636 -1253.563)" fill="#fd0"/>
            <path id="Trazado_19942" data-name="Trazado 19942" d="M3633.338,1258.529l-.043,0a16.483,16.483,0,0,1-1.683-.241.467.467,0,0,1,.18-.917,15.581,15.581,0,0,0,1.587.228.467.467,0,0,1-.042.933Zm3.3-.043a.467.467,0,0,1-.053-.932,16.043,16.043,0,0,0,1.583-.265.467.467,0,1,1,.2.913,16.913,16.913,0,0,1-1.676.281A.5.5,0,0,1,3636.635,1258.486Zm-8.1-1.111a.472.472,0,0,1-.141-.022c-.521-.165-1.047-.316-1.563-.449a.467.467,0,1,1,.233-.905c.533.137,1.076.293,1.613.463a.467.467,0,0,1-.141.913Zm-11.412-.962a.468.468,0,0,1-.086-.927c.543-.1,1.108-.182,1.677-.237a.467.467,0,1,1,.09.93c-.542.052-1.078.128-1.594.225A.485.485,0,0,1,3617.119,1256.412Zm6.582-.123a.474.474,0,0,1-.061,0c-.542-.071-1.084-.122-1.612-.155a.467.467,0,1,1,.057-.933c.55.033,1.114.087,1.676.161a.467.467,0,0,1-.06.931Z" transform="translate(-3612.783 -1251.619)" fill="#fd0"/>
            <path id="Trazado_19943" data-name="Trazado 19943" d="M3680,1258.269a.467.467,0,0,1-.2-.892c.417-.192.648-.328.65-.33a.467.467,0,0,1,.479.8c-.011.007-.271.161-.738.376A.466.466,0,0,1,3680,1258.269Z" transform="translate(-3651.379 -1252.714)" fill="#fd0"/>
          </g>
        </g>
        <g id="Grupo_9463" data-name="Grupo 9463" transform="translate(95.231)">
          <g id="Grupo_9462" data-name="Grupo 9462">
            <path id="Trazado_19944" data-name="Trazado 19944" d="M3148.247,1132.828a.467.467,0,0,1-.208-.886c.238-.118.484-.232.732-.337a.467.467,0,1,1,.366.86c-.231.1-.46.2-.681.313A.468.468,0,0,1,3148.247,1132.828Z" transform="translate(-3147.779 -1130.344)" fill="#fd0"/>
            <path id="Trazado_19945" data-name="Trazado 19945" d="M3174.48,1131.732l-.043,0a16.492,16.492,0,0,1-1.683-.241.467.467,0,1,1,.181-.917,15.635,15.635,0,0,0,1.587.228.467.467,0,0,1-.042.933Zm3.3-.043a.467.467,0,0,1-.053-.932,15.9,15.9,0,0,0,1.583-.265.468.468,0,0,1,.2.913,16.9,16.9,0,0,1-1.676.28A.432.432,0,0,1,3177.778,1131.689Zm-8.1-1.111a.471.471,0,0,1-.141-.022c-.521-.165-1.047-.316-1.563-.448a.467.467,0,0,1,.232-.905c.533.137,1.076.292,1.613.462a.468.468,0,0,1-.141.913Zm-11.412-.963a.467.467,0,0,1-.086-.927c.543-.1,1.108-.182,1.677-.237a.467.467,0,1,1,.09.93c-.542.052-1.078.128-1.594.225A.474.474,0,0,1,3158.261,1129.615Zm6.583-.123a.463.463,0,0,1-.061,0c-.542-.071-1.084-.123-1.613-.155a.467.467,0,1,1,.057-.933c.55.033,1.113.087,1.676.161a.467.467,0,0,1-.059.931Z" transform="translate(-3153.926 -1128.4)" fill="#fd0"/>
            <path id="Trazado_19946" data-name="Trazado 19946" d="M3221.142,1131.472a.468.468,0,0,1-.2-.892c.417-.192.648-.328.65-.33a.467.467,0,0,1,.479.8c-.01.007-.27.161-.737.376A.46.46,0,0,1,3221.142,1131.472Z" transform="translate(-3192.522 -1129.495)" fill="#fd0"/>
            <path id="Trazado_19947" data-name="Trazado 19947" d="M3161.489,1144.993a.467.467,0,0,1-.208-.886c.238-.118.484-.232.732-.337a.468.468,0,0,1,.366.86c-.23.1-.46.2-.682.314A.471.471,0,0,1,3161.489,1144.993Z" transform="translate(-3155.907 -1137.811)" fill="#fd0"/>
            <path id="Trazado_19948" data-name="Trazado 19948" d="M3187.722,1143.9l-.043,0a16.556,16.556,0,0,1-1.682-.241.467.467,0,1,1,.18-.917,15.551,15.551,0,0,0,1.587.227.468.468,0,0,1-.042.933Zm3.3-.043a.468.468,0,0,1-.053-.932,15.894,15.894,0,0,0,1.583-.265.467.467,0,1,1,.2.913,16.851,16.851,0,0,1-1.675.281Zm-8.1-1.111a.472.472,0,0,1-.141-.022c-.521-.165-1.047-.316-1.564-.449a.467.467,0,0,1,.233-.905c.533.137,1.076.293,1.613.463a.467.467,0,0,1-.141.913Zm-11.412-.962a.468.468,0,0,1-.086-.927c.543-.1,1.108-.182,1.677-.237a.467.467,0,1,1,.09.93c-.542.052-1.078.128-1.594.225A.49.49,0,0,1,3171.5,1141.781Zm6.582-.123a.415.415,0,0,1-.061,0c-.541-.07-1.084-.122-1.612-.155a.467.467,0,1,1,.057-.933c.549.033,1.114.087,1.676.161a.467.467,0,0,1-.06.931Z" transform="translate(-3162.055 -1135.867)" fill="#fd0"/>
            <path id="Trazado_19949" data-name="Trazado 19949" d="M3234.385,1143.637a.468.468,0,0,1-.2-.892c.417-.192.648-.329.65-.33a.467.467,0,0,1,.479.8c-.011.006-.27.161-.737.376A.467.467,0,0,1,3234.385,1143.637Z" transform="translate(-3200.65 -1136.962)" fill="#fd0"/>
          </g>
        </g>
      </g>
      <path id="Trazado_19950" data-name="Trazado 19950" d="M3012.911,1212.434c14.049,2.389,49.482,3.546,77.721,40.243s42.785,41.213,54.451,47.613,68.289,9.288,94.855,17.226c42.226,12.618,47.491,49.079,39.885,70.3-8.829,24.637-34.338,44.414-79.816,44.42s-132.628,3.267-151.643,3.389-53.964-.3-82.822-20.217c-28.482-19.656-38.55-50.308-37.005-73.195s47.006-110.418,47.006-110.418Z" transform="translate(-2917.884 -1179.98)" opacity="0.2" fill="url(#radial-gradient)"/>
      <g id="Grupo_9465" data-name="Grupo 9465" transform="translate(32.219 11.965)">
        <path id="Trazado_19951" data-name="Trazado 19951" d="M3020.413,1159.75c17.8-2.781,36.578,10.242,29.262,35.115s.366,54.5,9.145,69.132,14.631,46.82-14.266,55.965-72.135-4.428-56.7-44.625c12.754-33.206,13.9-38.773,10.509-70.361C2994.5,1168.927,3008.708,1161.579,3020.413,1159.75Z" transform="translate(-2984.621 -1159.381)" fill="#004700"/>
        <path id="Trazado_19952" data-name="Trazado 19952" d="M3093.546,1351.81h1.7V1203.439a.849.849,0,0,0-.849-.849h0a.849.849,0,0,0-.849.849Z" transform="translate(-3051.479 -1185.902)" fill="#e39400"/>
        <rect id="Rectángulo_2294" data-name="Rectángulo 2294" width="17.324" height="1.136" transform="translate(55.703 52.344) rotate(135)" fill="#e39400"/>
        <path id="Trazado_19953" data-name="Trazado 19953" d="M3079.538,1259.346l-10.14-10.141.8-.8,9.337,9.337Z" transform="translate(-3036.656 -1214.022)" fill="#e39400"/>
        <rect id="Rectángulo_2295" data-name="Rectángulo 2295" width="34.455" height="1.136" transform="matrix(-0.707, 0.707, -0.707, -0.707, 67.697, 111.774)" fill="#e39400"/>
        <path id="Trazado_19954" data-name="Trazado 19954" d="M3072.188,1387.218l-14.02-14.02.8-.8,13.217,13.217Z" transform="translate(-3029.764 -1290.128)" fill="#e39400"/>
      </g>
      <g id="Grupo_9477" data-name="Grupo 9477" transform="translate(86.264 47.701)">
        <path id="Trazado_19955" data-name="Trazado 19955" d="M3184.55,1251.913c2.427,12.2.226,38.176-7.8,57.19s-33.031,54.2-33.031,54.2l-19.154-23.2s4.756-26.218,17.422-48.213C3157.768,1264.479,3184.55,1251.913,3184.55,1251.913Z" transform="translate(-3124.56 -1251.913)" fill="url(#linear-gradient)"/>
        <path id="Trazado_19956" data-name="Trazado 19956" d="M3147.752,1355.7l.261.191c20.37-27.9,49.106-94.925,49.256-95.41l-.309-.1C3196.777,1260.911,3168.041,1327.907,3147.752,1355.7Z" transform="translate(-3138.795 -1257.11)" fill="#fff"/>
        <g id="Grupo_9466" data-name="Grupo 9466" transform="translate(46.131 10.669)">
          <rect id="Rectángulo_2296" data-name="Rectángulo 2296" width="0.324" height="0.324" transform="translate(0 0.099) rotate(-17.737)" fill="#fff"/>
          <path id="Trazado_19957" data-name="Trazado 19957" d="M3247.653,1291.043l.308-.1.2.64-.308.1Zm-.409-1.279.309-.1.2.639-.309.1Zm-.408-1.279.308-.1.2.64-.308.1Zm-.409-1.279.308-.1.2.64-.308.1Zm-.408-1.279.308-.1.2.639-.308.1Zm-.409-1.279.308-.1.2.639-.308.1Zm-.408-1.279.308-.1.2.639-.308.1Zm-.409-1.279.309-.1.2.64-.309.1Z" transform="translate(-3244.489 -1281.044)" fill="#fff"/>
          <rect id="Rectángulo_2297" data-name="Rectángulo 2297" width="0.324" height="0.324" transform="translate(3.572 11.278) rotate(-17.737)" fill="#fff"/>
        </g>
        <g id="Grupo_9467" data-name="Grupo 9467" transform="translate(36.1 19.76)">
          <rect id="Rectángulo_2298" data-name="Rectángulo 2298" width="0.324" height="0.324" transform="translate(0 0.133) rotate(-24.214)" fill="#fff"/>
          <path id="Trazado_19958" data-name="Trazado 19958" d="M3225.286,1319.365l.295-.133.26.579-.3.133Zm-.52-1.158.3-.133.26.579-.3.133Zm-.52-1.158.3-.133.26.579-.3.133Zm-.519-1.157.3-.133.26.579-.3.132Zm-.52-1.157.295-.133.26.578-.3.133Zm-.52-1.158.3-.133.26.579-.3.133Zm-.52-1.158.3-.133.26.579-.3.133Zm-.52-1.157.3-.133.26.578-.3.133Zm-.52-1.158.3-.133.26.579-.3.133Zm-.52-1.157.3-.133.26.579-.3.133Zm-.52-1.157.3-.133.259.578-.295.133Zm-.519-1.158.3-.133.26.579-.295.133Zm-.52-1.158.3-.133.26.579-.3.133Z" transform="translate(-3218.658 -1304.467)" fill="#fff"/>
          <rect id="Rectángulo_2299" data-name="Rectángulo 2299" width="0.324" height="0.324" transform="translate(7.147 16.055) rotate(-24.211)" fill="#fff"/>
        </g>
        <g id="Grupo_9468" data-name="Grupo 9468" transform="translate(25.478 31.942)">
          <rect id="Rectángulo_2300" data-name="Rectángulo 2300" width="0.324" height="0.324" transform="translate(0 0.143) rotate(-26.168)" fill="#fff"/>
          <path id="Trazado_19959" data-name="Trazado 19959" d="M3200.482,1355.051l.291-.143.277.564-.29.143Zm-.554-1.13.29-.143.277.565-.291.143Zm-.554-1.13.29-.143.278.565-.291.143Zm-.554-1.13.291-.143.277.565-.291.142Zm-.554-1.13.291-.143.277.565-.29.143Zm-.554-1.13.291-.143.277.565-.29.143Zm-.554-1.13.29-.142.277.565-.291.143Zm-.554-1.13.29-.143.277.565-.29.143Zm-.554-1.13.291-.143.277.565-.291.143Zm-.554-1.13.29-.143.277.565-.29.143Zm-.554-1.13.291-.143.277.565-.291.143Zm-.554-1.13.29-.143.277.565-.291.142Zm-.555-1.13.291-.143.277.565-.29.143Zm-.553-1.13.29-.143.277.565-.291.142Zm-.554-1.13.291-.143.277.565-.291.143Zm-.554-1.13.291-.142.277.565-.291.143Zm-.554-1.13.291-.142.277.565-.291.143Z" transform="translate(-3191.196 -1335.979)" fill="#fff"/>
          <rect id="Rectángulo_2301" data-name="Rectángulo 2301" width="0.324" height="0.324" transform="translate(9.84 20.201) rotate(-26.174)" fill="#fff"/>
        </g>
        <g id="Grupo_9469" data-name="Grupo 9469" transform="translate(15.833 48.07)">
          <rect id="Rectángulo_2302" data-name="Rectángulo 2302" width="0.324" height="0.324" transform="translate(0 0.156) rotate(-28.802)" fill="#fff"/>
          <path id="Trazado_19960" data-name="Trazado 19960" d="M3176.764,1396.961l.284-.156.312.569-.284.156Zm-.625-1.138.284-.156.313.569-.284.156Zm-.625-1.139.284-.156.313.569-.284.156Zm-.625-1.139.284-.156.313.569-.284.156Zm-.625-1.138.283-.156.313.57-.284.156Zm-.625-1.138.284-.156.313.57-.284.156Zm-.625-1.139.284-.156.312.569-.284.156Zm-.625-1.139.284-.156.312.569-.284.155Zm-.625-1.138.284-.156.312.569-.284.156Zm-.625-1.139.284-.156.312.569-.284.156Zm-.625-1.138.284-.156.312.569-.284.156Zm-.625-1.139.284-.156.312.569-.284.156Zm-.625-1.139.284-.156.312.57-.283.156Zm-.625-1.138.284-.156.312.569-.284.156Zm-.625-1.139.284-.156.312.569-.283.156Zm-.625-1.138.284-.156.312.569-.284.156Zm-.625-1.139.284-.156.313.569-.284.156Z" transform="translate(-3166.301 -1377.736)" fill="#fff"/>
          <rect id="Rectángulo_2303" data-name="Rectángulo 2303" width="0.324" height="0.324" transform="translate(11.088 20.364) rotate(-28.805)" fill="#fff"/>
        </g>
        <g id="Grupo_9470" data-name="Grupo 9470" transform="translate(7.274 68.602)">
          <rect id="Rectángulo_2304" data-name="Rectángulo 2304" width="0.324" height="0.324" transform="matrix(0.86, -0.511, 0.511, 0.86, 0, 0.166)" fill="#fff"/>
          <path id="Trazado_19961" data-name="Trazado 19961" d="M3153.493,1446.717l.279-.165.338.569-.278.166Zm-.676-1.14.279-.166.338.57-.279.166Zm-.676-1.139.278-.165.338.569-.278.166Zm-.677-1.139.278-.165.338.57-.278.165Zm-.676-1.139.278-.166.338.57-.278.165Zm-.677-1.139.279-.166.338.57-.279.166Zm-.676-1.139.278-.166.339.57-.279.166Zm-.677-1.139.278-.166.338.569-.279.165Zm-.677-1.14.279-.165.338.57-.278.165Zm-.676-1.139.279-.166.338.57-.278.165Zm-.677-1.139.279-.166.338.57-.278.166Zm-.677-1.139.279-.166.338.57-.278.166Zm-.676-1.139.279-.166.338.57-.279.166Zm-.677-1.14.279-.165.338.57-.279.166Z" transform="translate(-3144.195 -1430.892)" fill="#fff"/>
          <rect id="Rectángulo_2305" data-name="Rectángulo 2305" width="0.324" height="0.324" transform="matrix(0.86, -0.511, 0.511, 0.86, 9.974, 16.965)" fill="#fff"/>
        </g>
        <g id="Grupo_9471" data-name="Grupo 9471" transform="translate(15.09 87.005)">
          <rect id="Rectángulo_2306" data-name="Rectángulo 2306" width="0.324" height="0.324" transform="translate(17.799 0.045) rotate(-8.07)" fill="#fff"/>
          <path id="Trazado_19962" data-name="Trazado 19962" d="M3166.138,1479.838l.648-.092.045.321-.648.092Zm1.295-.183.648-.092.045.321-.648.092Zm1.294-.183.648-.092.045.321-.648.092Zm1.294-.183.648-.092.045.321-.647.092Zm1.295-.183.647-.092.045.321-.647.091Zm1.294-.183.647-.092.046.321-.648.091Zm1.3-.183.647-.091.045.321-.647.091Zm1.295-.183.647-.091.045.321-.647.091Zm1.294-.183.648-.092.045.321-.648.091Zm1.294-.183.648-.092.045.321-.648.092Zm1.294-.183.648-.092.045.321-.648.092Zm1.295-.183.647-.092.045.321-.647.092Zm1.295-.183.647-.092.045.321-.647.092Z" transform="translate(-3165.17 -1477.412)" fill="#fff"/>
          <rect id="Rectángulo_2307" data-name="Rectángulo 2307" width="0.324" height="0.324" transform="translate(0 2.563) rotate(-8.064)" fill="#fff"/>
        </g>
        <g id="Grupo_9472" data-name="Grupo 9472" transform="translate(4.264 103.414)">
          <rect id="Rectángulo_2308" data-name="Rectángulo 2308" width="0.324" height="0.324" transform="translate(17.974 0.005) rotate(-0.834)" fill="#fff"/>
          <path id="Trazado_19963" data-name="Trazado 19963" d="M3138.132,1519.953l.654-.01,0,.324-.654.009Zm1.307-.019.654-.009,0,.324-.654.009Zm1.307-.019.654-.009,0,.324-.654.009Zm1.307-.019.654-.009,0,.324-.654.009Zm1.307-.019.654-.009,0,.324-.653.009Zm1.308-.019.654-.009,0,.324-.653.009Zm1.307-.019.654-.009,0,.324-.654.009Zm1.307-.019.654-.009,0,.324-.654.009Zm1.307-.019.654-.009,0,.324-.654.009Zm1.307-.019.654-.009,0,.324-.655.009Zm1.307-.019.654-.009,0,.324-.654.009Zm1.307-.019.654-.009,0,.324-.654.009Zm1.307-.019.654-.009,0,.324-.654.009Z" transform="translate(-3137.154 -1519.705)" fill="#fff"/>
          <rect id="Rectángulo_2309" data-name="Rectángulo 2309" width="0.324" height="0.324" transform="translate(0 0.262) rotate(-0.834)" fill="#fff"/>
        </g>
        <g id="Grupo_9473" data-name="Grupo 9473" transform="translate(24.774 72.361)">
          <path id="Trazado_19964" data-name="Trazado 19964" d="M3230.7,1439.633c.313-.028.363-.046.408-.084l-.1-.124-.064-.147a1.923,1.923,0,0,1-.27.033Z" transform="translate(-3214.466 -1439.277)" fill="#fff"/>
          <path id="Trazado_19965" data-name="Trazado 19965" d="M3191.129,1440l.637-.019.005.324-.634.018Zm1.275-.037.637-.019.01.324-.637.019Zm1.274-.038.637-.019.01.324-.637.019Zm1.274-.039.637-.019.01.323-.637.02Zm1.274-.04.637-.02.01.324-.637.02Zm1.273-.041.636-.021.011.324-.637.021Zm1.274-.042.636-.022.011.324-.635.022Zm1.272-.044.637-.022.012.324-.637.022Zm1.273-.046.637-.024.012.324-.637.023Zm1.273-.048.637-.026.013.323-.637.026Zm1.273-.052.636-.029.015.323-.637.029Zm1.272-.059.636-.035.019.323c-.189.011-.4.023-.638.035Z" transform="translate(-3190.193 -1439.4)" fill="#fff"/>
          <rect id="Rectángulo_2310" data-name="Rectángulo 2310" width="0.323" height="0.324" transform="matrix(1, -0.028, 0.028, 1, 0, 0.626)" fill="#fff"/>
        </g>
        <g id="Grupo_9474" data-name="Grupo 9474" transform="translate(34.02 55.152)">
          <rect id="Rectángulo_2311" data-name="Rectángulo 2311" width="0.324" height="0.324" transform="matrix(1, -0.013, 0.013, 1, 15.751, 0.004)" fill="#fff"/>
          <path id="Trazado_19966" data-name="Trazado 19966" d="M3215.223,1394.93l.671-.008,0,.324-.671.008Zm1.342-.017.67-.009,0,.324-.67.008Zm1.341-.017.671-.009,0,.324-.671.009Zm1.342-.017.671-.009,0,.324-.671.009Zm1.342-.017.67-.008,0,.324-.671.009Zm1.341-.017.671-.009,0,.324-.671.009Zm1.342-.017.67-.009,0,.324-.671.009Zm1.341-.017.671-.008,0,.324-.671.009Zm1.341-.017.671-.008,0,.324-.671.009Zm1.342-.017.671-.009,0,.324-.67.009Zm1.342-.017.671-.009,0,.324-.671.008Z" transform="translate(-3214.229 -1394.737)" fill="#fff"/>
          <rect id="Rectángulo_2312" data-name="Rectángulo 2312" width="0.324" height="0.324" transform="translate(0 0.206) rotate(-0.718)" fill="#fff"/>
        </g>
        <g id="Grupo_9475" data-name="Grupo 9475" transform="translate(42.095 37.015)">
          <rect id="Rectángulo_2313" data-name="Rectángulo 2313" width="0.324" height="0.324" transform="translate(13.678 0.042) rotate(-7.478)" fill="#fff"/>
          <path id="Trazado_19967" data-name="Trazado 19967" d="M3236.034,1349.666l.636-.083.042.321-.636.083Zm1.272-.167.636-.083.042.321-.636.083Zm1.272-.167.636-.084.042.321-.636.084Zm1.272-.167.636-.084.042.321-.636.083Zm1.272-.167.636-.083.042.321-.635.083Zm1.272-.167.636-.083.042.321-.636.083Zm1.272-.167.636-.083.042.321-.636.084Zm1.272-.167.636-.084.042.321-.636.084Zm1.272-.167.636-.083.042.321-.636.083Zm1.272-.167.635-.083.042.321-.636.083Z" transform="translate(-3235.077 -1347.954)" fill="#fff"/>
          <rect id="Rectángulo_2314" data-name="Rectángulo 2314" width="0.324" height="0.324" transform="translate(0 1.837) rotate(-7.47)" fill="#fff"/>
        </g>
        <g id="Grupo_9476" data-name="Grupo 9476" transform="translate(48.512 21.766)">
          <rect id="Rectángulo_2315" data-name="Rectángulo 2315" width="0.324" height="0.324" transform="translate(9.89 0.1) rotate(-18.087)" fill="#fff"/>
          <path id="Trazado_19968" data-name="Trazado 19968" d="M3252.624,1311.784l.639-.208.1.308-.639.208Zm1.277-.417.639-.208.1.307-.639.209Zm1.278-.417.639-.208.1.308-.639.208Zm1.278-.417.639-.209.1.308-.639.209Zm1.278-.417.639-.208.1.308-.639.208Zm1.277-.417.639-.209.1.308-.639.209Zm1.278-.417.639-.208.1.308-.639.209Z" transform="translate(-3251.677 -1308.763)" fill="#fff"/>
          <rect id="Rectángulo_2316" data-name="Rectángulo 2316" width="0.324" height="0.324" transform="translate(0 3.331) rotate(-18.087)" fill="#fff"/>
        </g>
      </g>
      <g id="Grupo_9504" data-name="Grupo 9504" transform="translate(7.623 36.368)">
        <g id="Grupo_9503" data-name="Grupo 9503" clip-path="url(#clip-path)">
          <rect id="Rectángulo_2317" data-name="Rectángulo 2317" width="218.716" height="383.995" transform="translate(353.311 -6.643) rotate(90)" fill="#9ee2e3"/>
          <g id="Grupo_9489" data-name="Grupo 9489" transform="translate(-29.293 -0.765)">
            <g id="Grupo_9488" data-name="Grupo 9488">
              <g id="Grupo_9478" data-name="Grupo 9478" transform="translate(106.384)">
                <path id="Trazado_19969" data-name="Trazado 19969" d="M3169.413,1220.587c22.051,4.385,43.846,9.493,66.047,13.448,25.005,4.454,50.472,7.132,75.934,9.593,13.052,1.262,26.1,2.515,39.124,3.928,12.9,1.4,25.871,2.552,38.9,2.992,2.9.1,5.821.194,8.736.2v20.381c-5.585-.4-11.169-.825-16.745-1.31q-42.408-3.694-84.755-7.924c-27.178-2.712-53.659-8.272-79.761-14.451-12.1-2.864-24.331-5.591-36.141-9.083-11.116-3.286-21.937-7.1-32.953-10.571a257.723,257.723,0,0,0-27.257-7.2Z" transform="translate(-3120.544 -1220.587)" fill="#a9f1f2"/>
              </g>
              <g id="Grupo_9479" data-name="Grupo 9479" transform="translate(0 11.163)">
                <path id="Trazado_19970" data-name="Trazado 19970" d="M3196.788,1290.372c-26.233-2.219-52.4-4.591-78.116-7.548-25.937-2.982-51.033-6.757-75.914-10.788-24.533-3.974-48.917-8.1-74.016-11.563-9.474-1.307-113.227-2.638-123.657-3.442v-7.54c4.109.475,101.709.966,105.79,1.476q21.356,2.665,42.188,5.877,20.778,3.182,40.993,6.838c13.072,2.387,26.025,4.929,39.549,6.948,26.893,4.014,55.365,6.191,83.29,8.927,23.979,2.349,47.887,4.731,72.186,6.533v5.575C3218.214,1291.63,3207.44,1291.273,3196.788,1290.372Z" transform="translate(-2845.085 -1249.492)" fill="#a9f1f2"/>
              </g>
              <g id="Grupo_9480" data-name="Grupo 9480" transform="translate(0 29.569)">
                <path id="Trazado_19971" data-name="Trazado 19971" d="M3220.891,1352.8c-12.679-.265-25.335-.933-37.877-2.007a548.846,548.846,0,0,1-67.717-10.464c-11.585-2.464-23.088-5.033-34.763-7.364q-17.588-3.51-35.42-6.62c-21.786-3.817-43.8-7.563-66.336-9.739-13.1-1.265-120.267-2.08-133.694-1.628v-17.827q2.776.322,5.506.7c11.987,1.667,117.108,4.1,128.6,6.6,24.945,5.44,49.279,11.7,73.914,17.553,24.311,5.777,48.957,10.932,74.322,15.079,12.778,2.09,25.656,3.983,38.583,5.761q9.645,1.326,19.323,2.574c6.452.836,12.913,1.776,19.448,2.385,6.34.591,12.761.834,19.182.92q2.555.035,5.117.057v4.153C3226.346,1352.895,3223.615,1352.855,3220.891,1352.8Z" transform="translate(-2845.085 -1297.149)" fill="#a9f1f2"/>
              </g>
              <g id="Grupo_9481" data-name="Grupo 9481" transform="translate(0 87.761)">
                <path id="Trazado_19972" data-name="Trazado 19972" d="M2984.143,1449.422q37.058,1.635,73.848,4.211c24.247,1.718,48.288,3.88,72.348,6.062,32.76,2.97,65.634,5.83,98.741,7.893v7.407c-5.18-.233-10.374-.557-15.355-1.207-12.44-1.622-74.994-9.026-93.9-10.313-9.547-.65-19.066-1.4-28.625-2q-15.241-.968-30.6-1.455c-20.773-.667-41.66-.691-62.476-.615q-15.71.059-31.41.344c-7.573.144-108.558.232-116.137.155q-2.744-.028-5.493-.05v-12.022C2860.3,1448.149,2968.99,1448.754,2984.143,1449.422Z" transform="translate(-2845.085 -1447.828)" fill="#a9f1f2"/>
              </g>
              <g id="Grupo_9482" data-name="Grupo 9482" transform="translate(0 33.552)">
                <path id="Trazado_19973" data-name="Trazado 19973" d="M3183.527,1333.035q-37.059-1.635-73.849-4.211c-24.247-1.719-48.287-3.881-72.348-6.062-32.76-2.97-159.138-5.83-192.245-7.893v-7.407c5.179.234,103.878.558,108.859,1.207,12.441,1.622,74.994,9.026,93.895,10.313,9.547.65,19.066,1.4,28.626,2q15.24.969,30.6,1.455c20.773.667,41.66.691,62.476.615q15.709-.058,31.41-.343c7.573-.144,15.054-.232,22.633-.154q2.745.028,5.493.05v12.022C3213.869,1334.308,3198.679,1333.7,3183.527,1333.035Z" transform="translate(-2845.085 -1307.462)" fill="#a9f1f2"/>
              </g>
              <g id="Grupo_9483" data-name="Grupo 9483" transform="translate(0 57.464)">
                <path id="Trazado_19974" data-name="Trazado 19974" d="M3193.059,1420.908c-48.44-6.232-96.323-14.661-144.954-20.075-24.206-2.695-48.491-4.79-72.854-6.487-12.2-.849-117.927-1.581-130.166-2.009v-22.661c18.536-.86,130.718.2,149.051,2.343,23.521,2.747,46.606,7.23,69.539,11.962,11.34,2.34,22.61,4.848,34.156,6.565,11.508,1.712,23.157,2.862,34.834,3.68,11.89.833,23.809,1.281,35.737,1.654,12.311.385,24.591,1.231,36.813,2.4q11.959,1.147,23.866,2.586v24.247Q3211.024,1423.247,3193.059,1420.908Z" transform="translate(-2845.085 -1369.377)" fill="#a9f1f2"/>
              </g>
              <g id="Grupo_9484" data-name="Grupo 9484" transform="translate(263.498 83.292)">
                <path id="Trazado_19975" data-name="Trazado 19975" d="M3550.317,1436.7c5.827.017,11.655.026,17.48.156,5.766.129,36.8,3.869,79.413,1.339.215-.013.431.007.646.011v4.826c-14.618-.377-29.395.172-43.948-.1a564.623,564.623,0,0,1-68.679-5.488q-3.953-.563-7.87-1.187Q3538.825,1436.661,3550.317,1436.7Z" transform="translate(-3527.36 -1436.254)" fill="#a9f1f2"/>
              </g>
              <g id="Grupo_9485" data-name="Grupo 9485" transform="translate(221.544 72.68)">
                <path id="Trazado_19976" data-name="Trazado 19976" d="M3464.013,1412.774a223.931,223.931,0,0,1,24.665-1.045c17.924.528,39.723,3.516,57.494,6-1.395-.007-2.79,0-4.186-.023-6.057-.092-12.043-.509-18.06-1.145-20.5-2.164-41.408-3.118-61.831-1.249-9.014.825-33.505-1.017-43.365-6.535C3428.316,1410.164,3458.443,1413.225,3464.013,1412.774Z" transform="translate(-3418.73 -1408.778)" fill="#a9f1f2"/>
              </g>
              <g id="Grupo_9486" data-name="Grupo 9486" transform="translate(0 47.135)">
                <path id="Trazado_19977" data-name="Trazado 19977" d="M2988.33,1345.435c22.6,2.648,44.8,6.528,66.744,10.514,6.739,1.225,25.843,3.624,33.6,6.6-7.443-.829-22.319-.21-26.308-.48-12.867-.874-27.81-2.653-45.352-3.089-22.18-.551-156.575-2.3-171.925-2.246v-13.958C2861.719,1342.185,2972.187,1343.543,2988.33,1345.435Z" transform="translate(-2845.085 -1342.634)" fill="#a9f1f2"/>
              </g>
              <g id="Grupo_9487" data-name="Grupo 9487" transform="translate(161.94 62.618)">
                <path id="Trazado_19978" data-name="Trazado 19978" d="M3270.135,1382.736c9.052.934,16.768,2.045,24.723,2.691s15.854,1.755,23.8,2.482c8.022.734,15.129.968,23.2,1.2,2.247.064,18.461-.17,21.224.386,2.031.409,9.944,3.245,11.983,3.631a170.6,170.6,0,0,0-20.753-1.778c-28.093,0-63.955-.831-69.049-1.8q-10.377-1.982-20.872-3.692C3266.568,1385.7,3267.976,1382.513,3270.135,1382.736Z" transform="translate(-3264.397 -1382.725)" fill="#a9f1f2"/>
              </g>
            </g>
          </g>
          <g id="Grupo_9501" data-name="Grupo 9501" transform="translate(78.641 11.334)">
            <path id="Trazado_19979" data-name="Trazado 19979" d="M3184.55,1251.913c2.427,12.2.226,38.176-7.8,57.19s-33.031,54.2-33.031,54.2l-19.154-23.2s4.756-26.218,17.422-48.213C3157.768,1264.479,3184.55,1251.913,3184.55,1251.913Z" transform="translate(-3124.56 -1251.913)" fill="url(#linear-gradient)"/>
            <path id="Trazado_19980" data-name="Trazado 19980" d="M3147.752,1355.7l.261.191c20.37-27.9,49.106-94.925,49.256-95.41l-.309-.1C3196.777,1260.911,3168.041,1327.907,3147.752,1355.7Z" transform="translate(-3138.795 -1257.11)" fill="#fff"/>
            <g id="Grupo_9490" data-name="Grupo 9490" transform="translate(46.131 10.669)">
              <rect id="Rectángulo_2318" data-name="Rectángulo 2318" width="0.324" height="0.324" transform="translate(0 0.099) rotate(-17.737)" fill="#fff"/>
              <path id="Trazado_19981" data-name="Trazado 19981" d="M3247.653,1291.043l.308-.1.2.64-.308.1Zm-.409-1.279.309-.1.2.639-.309.1Zm-.408-1.279.308-.1.2.64-.308.1Zm-.409-1.279.308-.1.2.64-.308.1Zm-.408-1.279.308-.1.2.639-.308.1Zm-.409-1.279.308-.1.2.639-.308.1Zm-.408-1.279.308-.1.2.639-.308.1Zm-.409-1.279.309-.1.2.64-.309.1Z" transform="translate(-3244.489 -1281.044)" fill="#fff"/>
              <rect id="Rectángulo_2319" data-name="Rectángulo 2319" width="0.324" height="0.324" transform="translate(3.572 11.278) rotate(-17.737)" fill="#fff"/>
            </g>
            <g id="Grupo_9491" data-name="Grupo 9491" transform="translate(36.1 19.76)">
              <rect id="Rectángulo_2320" data-name="Rectángulo 2320" width="0.324" height="0.324" transform="translate(0 0.133) rotate(-24.214)" fill="#fff"/>
              <path id="Trazado_19982" data-name="Trazado 19982" d="M3225.286,1319.365l.295-.133.26.579-.3.133Zm-.52-1.158.3-.133.26.579-.3.133Zm-.52-1.158.3-.133.26.579-.3.133Zm-.519-1.157.3-.133.26.579-.3.132Zm-.52-1.157.295-.133.26.578-.3.133Zm-.52-1.158.3-.133.26.579-.3.133Zm-.52-1.158.3-.133.26.579-.3.133Zm-.52-1.157.3-.133.26.578-.3.133Zm-.52-1.158.3-.133.26.579-.3.133Zm-.52-1.157.3-.133.26.579-.3.133Zm-.52-1.157.3-.133.259.578-.295.133Zm-.519-1.158.3-.133.26.579-.295.133Zm-.52-1.158.3-.133.26.579-.3.133Z" transform="translate(-3218.658 -1304.467)" fill="#fff"/>
              <rect id="Rectángulo_2321" data-name="Rectángulo 2321" width="0.324" height="0.324" transform="translate(7.147 16.055) rotate(-24.211)" fill="#fff"/>
            </g>
            <g id="Grupo_9492" data-name="Grupo 9492" transform="translate(25.478 31.942)">
              <rect id="Rectángulo_2322" data-name="Rectángulo 2322" width="0.324" height="0.324" transform="translate(0 0.143) rotate(-26.168)" fill="#fff"/>
              <path id="Trazado_19983" data-name="Trazado 19983" d="M3200.482,1355.051l.291-.143.277.564-.29.143Zm-.554-1.13.29-.143.277.565-.291.143Zm-.554-1.13.29-.143.278.565-.291.143Zm-.554-1.13.291-.143.277.565-.291.142Zm-.554-1.13.291-.143.277.565-.29.143Zm-.554-1.13.291-.143.277.565-.29.143Zm-.554-1.13.29-.142.277.565-.291.143Zm-.554-1.13.29-.143.277.565-.29.143Zm-.554-1.13.291-.143.277.565-.291.143Zm-.554-1.13.29-.143.277.565-.29.143Zm-.554-1.13.291-.143.277.565-.291.143Zm-.554-1.13.29-.143.277.565-.291.142Zm-.555-1.13.291-.143.277.565-.29.143Zm-.553-1.13.29-.143.277.565-.291.142Zm-.554-1.13.291-.143.277.565-.291.143Zm-.554-1.13.291-.142.277.565-.291.143Zm-.554-1.13.291-.142.277.565-.291.143Z" transform="translate(-3191.196 -1335.979)" fill="#fff"/>
              <rect id="Rectángulo_2323" data-name="Rectángulo 2323" width="0.324" height="0.324" transform="translate(9.84 20.201) rotate(-26.174)" fill="#fff"/>
            </g>
            <g id="Grupo_9493" data-name="Grupo 9493" transform="translate(15.833 48.07)">
              <rect id="Rectángulo_2324" data-name="Rectángulo 2324" width="0.324" height="0.324" transform="translate(0 0.156) rotate(-28.802)" fill="#fff"/>
              <path id="Trazado_19984" data-name="Trazado 19984" d="M3176.764,1396.961l.284-.156.312.569-.284.156Zm-.625-1.138.284-.156.313.569-.284.156Zm-.625-1.139.284-.156.313.569-.284.156Zm-.625-1.139.284-.156.313.569-.284.156Zm-.625-1.138.283-.156.313.57-.284.156Zm-.625-1.138.284-.156.313.57-.284.156Zm-.625-1.139.284-.156.312.569-.284.156Zm-.625-1.139.284-.156.312.569-.284.155Zm-.625-1.138.284-.156.312.569-.284.156Zm-.625-1.139.284-.156.312.569-.284.156Zm-.625-1.138.284-.156.312.569-.284.156Zm-.625-1.139.284-.156.312.569-.284.156Zm-.625-1.139.284-.156.312.57-.283.156Zm-.625-1.138.284-.156.312.569-.284.156Zm-.625-1.139.284-.156.312.569-.283.156Zm-.625-1.138.284-.156.312.569-.284.156Zm-.625-1.139.284-.156.313.569-.284.156Z" transform="translate(-3166.301 -1377.736)" fill="#fff"/>
              <rect id="Rectángulo_2325" data-name="Rectángulo 2325" width="0.324" height="0.324" transform="translate(11.088 20.364) rotate(-28.805)" fill="#fff"/>
            </g>
            <g id="Grupo_9494" data-name="Grupo 9494" transform="translate(7.274 68.602)">
              <rect id="Rectángulo_2326" data-name="Rectángulo 2326" width="0.324" height="0.324" transform="matrix(0.86, -0.511, 0.511, 0.86, 0, 0.166)" fill="#fff"/>
              <path id="Trazado_19985" data-name="Trazado 19985" d="M3153.493,1446.717l.279-.165.338.569-.278.166Zm-.676-1.14.279-.166.338.57-.279.166Zm-.676-1.139.278-.165.338.569-.278.166Zm-.677-1.139.278-.165.338.57-.278.165Zm-.676-1.139.278-.166.338.57-.278.165Zm-.677-1.139.279-.166.338.57-.279.166Zm-.676-1.139.278-.166.339.57-.279.166Zm-.677-1.139.278-.166.338.569-.279.165Zm-.677-1.14.279-.165.338.57-.278.165Zm-.676-1.139.279-.166.338.57-.278.165Zm-.677-1.139.279-.166.338.57-.278.166Zm-.677-1.139.279-.166.338.57-.278.166Zm-.676-1.139.279-.166.338.57-.279.166Zm-.677-1.14.279-.165.338.57-.279.166Z" transform="translate(-3144.195 -1430.892)" fill="#fff"/>
              <rect id="Rectángulo_2327" data-name="Rectángulo 2327" width="0.324" height="0.324" transform="matrix(0.86, -0.511, 0.511, 0.86, 9.974, 16.965)" fill="#fff"/>
            </g>
            <g id="Grupo_9495" data-name="Grupo 9495" transform="translate(15.09 87.005)">
              <rect id="Rectángulo_2328" data-name="Rectángulo 2328" width="0.324" height="0.324" transform="translate(17.799 0.045) rotate(-8.07)" fill="#fff"/>
              <path id="Trazado_19986" data-name="Trazado 19986" d="M3166.138,1479.838l.648-.092.045.321-.648.092Zm1.295-.183.648-.092.045.321-.648.092Zm1.294-.183.648-.092.045.321-.648.092Zm1.294-.183.648-.092.045.321-.647.092Zm1.295-.183.647-.092.045.321-.647.091Zm1.294-.183.647-.092.046.321-.648.091Zm1.3-.183.647-.091.045.321-.647.091Zm1.295-.183.647-.091.045.321-.647.091Zm1.294-.183.648-.092.045.321-.648.091Zm1.294-.183.648-.092.045.321-.648.092Zm1.294-.183.648-.092.045.321-.648.092Zm1.295-.183.647-.092.045.321-.647.092Zm1.295-.183.647-.092.045.321-.647.092Z" transform="translate(-3165.17 -1477.412)" fill="#fff"/>
              <rect id="Rectángulo_2329" data-name="Rectángulo 2329" width="0.324" height="0.324" transform="translate(0 2.563) rotate(-8.064)" fill="#fff"/>
            </g>
            <g id="Grupo_9496" data-name="Grupo 9496" transform="translate(4.264 103.414)">
              <rect id="Rectángulo_2330" data-name="Rectángulo 2330" width="0.324" height="0.324" transform="translate(17.974 0.005) rotate(-0.834)" fill="#fff"/>
              <path id="Trazado_19987" data-name="Trazado 19987" d="M3138.132,1519.953l.654-.01,0,.324-.654.009Zm1.307-.019.654-.009,0,.324-.654.009Zm1.307-.019.654-.009,0,.324-.654.009Zm1.307-.019.654-.009,0,.324-.654.009Zm1.307-.019.654-.009,0,.324-.653.009Zm1.308-.019.654-.009,0,.324-.653.009Zm1.307-.019.654-.009,0,.324-.654.009Zm1.307-.019.654-.009,0,.324-.654.009Zm1.307-.019.654-.009,0,.324-.654.009Zm1.307-.019.654-.009,0,.324-.655.009Zm1.307-.019.654-.009,0,.324-.654.009Zm1.307-.019.654-.009,0,.324-.654.009Zm1.307-.019.654-.009,0,.324-.654.009Z" transform="translate(-3137.154 -1519.705)" fill="#fff"/>
              <rect id="Rectángulo_2331" data-name="Rectángulo 2331" width="0.324" height="0.324" transform="translate(0 0.262) rotate(-0.834)" fill="#fff"/>
            </g>
            <g id="Grupo_9497" data-name="Grupo 9497" transform="translate(24.774 72.361)">
              <path id="Trazado_19988" data-name="Trazado 19988" d="M3230.7,1439.633c.313-.028.363-.046.408-.084l-.1-.124-.064-.147a1.923,1.923,0,0,1-.27.033Z" transform="translate(-3214.466 -1439.277)" fill="#fff"/>
              <path id="Trazado_19989" data-name="Trazado 19989" d="M3191.129,1440l.637-.019.005.324-.634.018Zm1.275-.037.637-.019.01.324-.637.019Zm1.274-.038.637-.019.01.324-.637.019Zm1.274-.039.637-.019.01.323-.637.02Zm1.274-.04.637-.02.01.324-.637.02Zm1.273-.041.636-.021.011.324-.637.021Zm1.274-.042.636-.022.011.324-.635.022Zm1.272-.044.637-.022.012.324-.637.022Zm1.273-.046.637-.024.012.324-.637.023Zm1.273-.048.637-.026.013.323-.637.026Zm1.273-.052.636-.029.015.323-.637.029Zm1.272-.059.636-.035.019.323c-.189.011-.4.023-.638.035Z" transform="translate(-3190.193 -1439.4)" fill="#fff"/>
              <rect id="Rectángulo_2332" data-name="Rectángulo 2332" width="0.323" height="0.324" transform="matrix(1, -0.028, 0.028, 1, 0, 0.626)" fill="#fff"/>
            </g>
            <g id="Grupo_9498" data-name="Grupo 9498" transform="translate(34.02 55.152)">
              <rect id="Rectángulo_2333" data-name="Rectángulo 2333" width="0.324" height="0.324" transform="matrix(1, -0.013, 0.013, 1, 15.751, 0.004)" fill="#fff"/>
              <path id="Trazado_19990" data-name="Trazado 19990" d="M3215.223,1394.93l.671-.008,0,.324-.671.008Zm1.342-.017.67-.009,0,.324-.67.008Zm1.341-.017.671-.009,0,.324-.671.009Zm1.342-.017.671-.009,0,.324-.671.009Zm1.342-.017.67-.008,0,.324-.671.009Zm1.341-.017.671-.009,0,.324-.671.009Zm1.342-.017.67-.009,0,.324-.671.009Zm1.341-.017.671-.008,0,.324-.671.009Zm1.341-.017.671-.008,0,.324-.671.009Zm1.342-.017.671-.009,0,.324-.67.009Zm1.342-.017.671-.009,0,.324-.671.008Z" transform="translate(-3214.229 -1394.737)" fill="#fff"/>
              <rect id="Rectángulo_2334" data-name="Rectángulo 2334" width="0.324" height="0.324" transform="translate(0 0.206) rotate(-0.718)" fill="#fff"/>
            </g>
            <g id="Grupo_9499" data-name="Grupo 9499" transform="translate(42.095 37.015)">
              <rect id="Rectángulo_2335" data-name="Rectángulo 2335" width="0.324" height="0.324" transform="translate(13.678 0.042) rotate(-7.478)" fill="#fff"/>
              <path id="Trazado_19991" data-name="Trazado 19991" d="M3236.034,1349.666l.636-.083.042.321-.636.083Zm1.272-.167.636-.083.042.321-.636.083Zm1.272-.167.636-.084.042.321-.636.084Zm1.272-.167.636-.084.042.321-.636.083Zm1.272-.167.636-.083.042.321-.635.083Zm1.272-.167.636-.083.042.321-.636.083Zm1.272-.167.636-.083.042.321-.636.084Zm1.272-.167.636-.084.042.321-.636.084Zm1.272-.167.636-.083.042.321-.636.083Zm1.272-.167.635-.083.042.321-.636.083Z" transform="translate(-3235.077 -1347.954)" fill="#fff"/>
              <rect id="Rectángulo_2336" data-name="Rectángulo 2336" width="0.324" height="0.324" transform="translate(0 1.837) rotate(-7.47)" fill="#fff"/>
            </g>
            <g id="Grupo_9500" data-name="Grupo 9500" transform="translate(48.512 21.766)">
              <rect id="Rectángulo_2337" data-name="Rectángulo 2337" width="0.324" height="0.324" transform="translate(9.89 0.1) rotate(-18.087)" fill="#fff"/>
              <path id="Trazado_19992" data-name="Trazado 19992" d="M3252.624,1311.784l.639-.208.1.308-.639.208Zm1.277-.417.639-.208.1.307-.639.209Zm1.278-.417.639-.208.1.308-.639.208Zm1.278-.417.639-.209.1.308-.639.209Zm1.278-.417.639-.208.1.308-.639.208Zm1.277-.417.639-.209.1.308-.639.209Zm1.278-.417.639-.208.1.308-.639.209Z" transform="translate(-3251.677 -1308.763)" fill="#fff"/>
              <rect id="Rectángulo_2338" data-name="Rectángulo 2338" width="0.324" height="0.324" transform="translate(0 3.331) rotate(-18.087)" fill="#fff"/>
            </g>
          </g>
          <path id="Trazado_19993" data-name="Trazado 19993" d="M3481.467,1424.108c-19.081-21.708-38.162-25.181-48.3-7.815s-16.1,19.972-28.025,3.474-28.312-17.352-30.256-1.73,11.485,37.33,0,42.54-21.025-18.235-33.548-10.42-2.981,38.206-22.062,39.074-38.29,5.062-35.181,29.523c14.7,115.674,261.342,14.439,261.342,14.439Z" transform="translate(-3143.637 -1334.693)" fill="url(#linear-gradient-9)"/>
          <path id="Trazado_19994" data-name="Trazado 19994" d="M3334.959,1511.776c1.549-19.166,12.167-24.566,24.7-20.956s12.806-28.31,29.938-25.209c14.757,2.671,12.055,16.007,26.438,10.943,11.27-3.967-.384-25.552,19.288-22.068s6.842-16.458,22.62-21.831c14.212-4.839,19.633,16.023,30.525,11.911s1.042-20.584,17.823-25.117c40.665-10.984,60.33-58.442,74.95-49.543s-87.577,212.974-87.577,212.974l-187.656-20.6Z" transform="translate(-3157.292 -1312.325)" fill="url(#linear-gradient-10)"/>
          <path id="Trazado_19995" data-name="Trazado 19995" d="M2883.679,1455.04c12.467-7.326,23.942-5.431,33.343,3.773s22.6,1.657,33.273-.625,22.878.5,30.959,12.228,26.8,6.217,41.308,3.151,42.278,1.558,48.9,22.9,23.79,20.427,37.325,16.827,29.609-5.121,40.491,13.027,7.251,16.462,27.932,15.194,34.872-1.075,45.914,16.5,1.626,45.136-109.42,47.524-194.063-1.645-227.1-59.529S2883.679,1455.04,2883.679,1455.04Z" transform="translate(-2890.358 -1362.5)" fill="url(#linear-gradient-11)"/>
          <g id="Grupo_9502" data-name="Grupo 9502" transform="translate(24.596 -24.403)">
            <path id="Trazado_19996" data-name="Trazado 19996" d="M3020.413,1159.75c17.8-2.781,36.578,10.242,29.262,35.115s.366,54.5,9.145,69.132,14.631,46.82-14.266,55.965-72.135-4.428-56.7-44.625c12.754-33.206,13.9-38.773,10.509-70.361C2994.5,1168.927,3008.708,1161.579,3020.413,1159.75Z" transform="translate(-2984.621 -1159.381)" fill="#004700"/>
            <path id="Trazado_19997" data-name="Trazado 19997" d="M3093.546,1351.81h1.7V1203.439a.849.849,0,0,0-.849-.849h0a.849.849,0,0,0-.849.849Z" transform="translate(-3051.479 -1185.902)" fill="#e39400"/>
            <rect id="Rectángulo_2339" data-name="Rectángulo 2339" width="17.324" height="1.136" transform="translate(55.703 52.344) rotate(135)" fill="#e39400"/>
            <path id="Trazado_19998" data-name="Trazado 19998" d="M3079.538,1259.346l-10.14-10.141.8-.8,9.337,9.337Z" transform="translate(-3036.656 -1214.022)" fill="#e39400"/>
            <rect id="Rectángulo_2340" data-name="Rectángulo 2340" width="34.455" height="1.136" transform="matrix(-0.707, 0.707, -0.707, -0.707, 67.697, 111.774)" fill="#e39400"/>
            <path id="Trazado_19999" data-name="Trazado 19999" d="M3072.188,1387.218l-14.02-14.02.8-.8,13.217,13.217Z" transform="translate(-3029.764 -1290.128)" fill="#e39400"/>
          </g>
          <path id="Trazado_20000" data-name="Trazado 20000" d="M2879.833,1499.534c26.154-8.6,27.234-3.157,47.209,16.256s37.446-11.874,57.088-1.717,8.52,28.178,47.125,26.016,66.5,38.784,181.239,44.811c91.575,4.81-76.259,41.981-129.837,44.123s-177.594,29.04-201.156-38.328S2879.833,1499.534,2879.833,1499.534Z" transform="translate(-2890.026 -1390.142)" fill="url(#linear-gradient-12)"/>
        </g>
      </g>
    </g>
    <g id="man" transform="translate(2970.456 1147.495)">
      <ellipse id="shadow" cx="131.023" cy="8.327" rx="131.023" ry="8.327" transform="translate(2.97 211.14)" fill="#c3eeb4" style="mix-blend-mode: multiply;isolation: isolate"/>
      <path id="shadow-2" data-name="shadow" d="M3150.75,1742.539c0,1.241,45.421,2.246,101.45,2.246s101.451-1.005,101.451-2.246-45.421-2.247-101.451-2.247S3150.75,1741.3,3150.75,1742.539Z" transform="translate(-3123.631 -1523.072)" fill="#c3eeb4" style="mix-blend-mode: multiply;isolation: isolate"/>
      <path id="Trazado_20002" data-name="Trazado 20002" d="M3441.286,1304.141c-3.334-.853-26.5-9.7-28.054-10.185-1.6-.507-15.2-21.833-21.65-27.9s-9.008,5.572-9.008,5.572c4.973,7.472,19.133,27.92,24.12,29.65,4.626,1.6,28.9,7.75,34.775,8.749Z" transform="translate(-3265.923 -1230.911)" fill="#ff997d"/>
      <path id="Trazado_20003" data-name="Trazado 20003" d="M3532.458,1373.342l2.436,2.293,2.087,2.894,8.873-.327-7.376-7.487-6.2-3.255-1.461,1.888Z" transform="translate(-3356.912 -1294.228)" fill="#ff997d"/>
      <path id="Trazado_20004" data-name="Trazado 20004" d="M3316.668,1570.556l-1.288,3.121.375,2.2,15.136.642,6.615.984.321-1.363-1.417-1.768-5.83-2.428-7-2.3-3.26-.733Z" transform="translate(-3224.68 -1417.876)" fill="#20232e"/>
      <path id="Trazado_20005" data-name="Trazado 20005" d="M3371.14,1472.856c-.861,3.934-8.487,9.261-20.9,18.394-13.338,9.817-22.97,16.222-22.97,16.222l-8.559.374s7.739-9.778,9.049-11.121c11.274-11.548,13.954-17.943,18.758-22.093,7.761-6.7,13.468-7.892,13.468-7.892Z" transform="translate(-3226.727 -1355.166)" fill="#ff987d"/>
      <path id="Trazado_20006" data-name="Trazado 20006" d="M3372.694,1409.665c-2.081-2.513-6.265-6.519-11.987-12.234-12.884-12.868-22.7-18.953-29.593-21.663a33.145,33.145,0,0,0-5.83-1.6V1399.6c16.682,6.876,36.3,19.221,36.3,19.221l13.587-2.777A10.259,10.259,0,0,0,3372.694,1409.665Z" transform="translate(-3230.759 -1298.349)" fill="#ff987d"/>
      <path id="Trazado_20007" data-name="Trazado 20007" d="M3315.031,1402.114c5.944,2.373,7.159,1.606,16.337,6.1,6.192,3.03,17.076,9.284,17.076,9.284a32.382,32.382,0,0,0,6.441-4.415c2.721-2.533,5.682-8.516,5.682-8.516s-14.872-14.062-21.8-19.849a75.464,75.464,0,0,0-9.354-6.986Z" transform="translate(-3224.466 -1300.533)" fill="#302800"/>
      <path id="Trazado_20008" data-name="Trazado 20008" d="M3341.188,1413.08c-2.385-2.4-5.359-3.9-7.985-5.939-2.818-.193-5.718.625-8.456,1.22-.857.187-1.709.39-2.56.6l-6.6,11.189c5.944,2.373,7.159,1.606,16.337,6.1,6.193,3.03,17.076,9.284,17.076,9.284a32.37,32.37,0,0,0,6.441-4.415c.191-.178.383-.374.575-.582-2.158-2.673-4.5-5.21-6.709-7.831C3346.613,1419.5,3344.137,1416.052,3341.188,1413.08Z" transform="translate(-3224.807 -1318.567)"/>
      <path id="Trazado_20009" data-name="Trazado 20009" d="M3399.772,1458.141a.364.364,0,0,1-.2-.669c6.006-3.942,10.253-9.345,10.655-11.483a.364.364,0,1,1,.716.134c-.416,2.217-4.562,7.751-10.971,11.958A.363.363,0,0,1,3399.772,1458.141Z" transform="translate(-3276.255 -1342.248)" fill="#fff"/>
      <path id="Trazado_20010" data-name="Trazado 20010" d="M3351.184,1605.653c-1.48-1.208-19.29-17.2-19.29-17.2l-2.854,2.758,18.525,16.21Z" transform="translate(-3233.064 -1429.873)" fill="#2e3242"/>
      <rect id="Rectángulo_2341" data-name="Rectángulo 2341" width="15.688" height="3.859" transform="matrix(-1, -0.002, 0.002, -1, 105.718, 161.835)" fill="#2e3242"/>
      <g id="Grupo_9505" data-name="Grupo 9505" transform="translate(20.691 136.485)">
        <rect id="Rectángulo_2342" data-name="Rectángulo 2342" width="39.322" height="0.298" transform="translate(39.194 39.143) rotate(-35.464)" fill="#74a4b0"/>
        <rect id="Rectángulo_2343" data-name="Rectángulo 2343" width="39.322" height="0.298" transform="matrix(0.814, -0.58, 0.58, 0.814, 7.149, 61.932)" fill="#74a4b0"/>
        <rect id="Rectángulo_2344" data-name="Rectángulo 2344" width="39.323" height="0.298" transform="matrix(0.944, -0.33, 0.33, 0.944, 39.218, 39.1)" fill="#74a4b0"/>
        <rect id="Rectángulo_2345" data-name="Rectángulo 2345" width="39.322" height="0.298" transform="matrix(0.944, -0.33, 0.33, 0.944, 2.101, 52.082)" fill="#74a4b0"/>
        <path id="Trazado_20011" data-name="Trazado 20011" d="M3235.786,1629.36l-.016-.3,39.263-2.158.016.3Z" transform="translate(-3196.507 -1589.96)" fill="#74a4b0"/>
        <path id="Trazado_20012" data-name="Trazado 20012" d="M3134.122,1634.947l-.016-.3,39.263-2.157.016.3Z" transform="translate(-3134.106 -1593.39)" fill="#74a4b0"/>
        <path id="Trazado_20013" data-name="Trazado 20013" d="M3235.7,1632.792l.068-.291,38.316,8.839-.068.291Z" transform="translate(-3196.466 -1593.395)" fill="#74a4b0"/>
        <path id="Trazado_20014" data-name="Trazado 20014" d="M3136.491,1609.9l.067-.29,38.316,8.839-.068.29Z" transform="translate(-3135.57 -1579.347)" fill="#74a4b0"/>
        <rect id="Rectángulo_2346" data-name="Rectángulo 2346" width="0.299" height="39.322" transform="translate(39.198 39.382) rotate(-60.874)" fill="#74a4b0"/>
        <rect id="Rectángulo_2347" data-name="Rectángulo 2347" width="0.299" height="39.322" transform="translate(4.848 20.242) rotate(-60.874)" fill="#74a4b0"/>
        <rect id="Rectángulo_2348" data-name="Rectángulo 2348" width="0.298" height="39.322" transform="matrix(0.71, -0.704, 0.704, 0.71, 39.165, 39.356)" fill="#74a4b0"/>
        <rect id="Rectángulo_2349" data-name="Rectángulo 2349" width="0.298" height="39.322" transform="translate(11.487 11.424) rotate(-44.739)" fill="#74a4b0"/>
        <path id="Trazado_20015" data-name="Trazado 20015" d="M3254.277,1667.358l-18.825-34.523.262-.143,18.826,34.523Z" transform="translate(-3196.312 -1593.512)" fill="#74a4b0"/>
        <path id="Trazado_20016" data-name="Trazado 20016" d="M3205.532,1577.967l-18.826-34.523.262-.143,18.825,34.523Z" transform="translate(-3166.392 -1538.645)" fill="#74a4b0"/>
        <rect id="Rectángulo_2350" data-name="Rectángulo 2350" width="0.298" height="39.322" transform="translate(39.125 39.283) rotate(-12.468)" fill="#74a4b0"/>
        <rect id="Rectángulo_2351" data-name="Rectángulo 2351" width="0.298" height="39.322" transform="matrix(0.976, -0.216, 0.216, 0.976, 30.637, 0.888)" fill="#74a4b0"/>
        <rect id="Rectángulo_2352" data-name="Rectángulo 2352" width="39.322" height="0.298" transform="matrix(0.064, -0.998, 0.998, 0.064, 36.607, 78.483)" fill="#74a4b0"/>
        <rect id="Rectángulo_2353" data-name="Rectángulo 2353" width="39.322" height="0.298" transform="translate(39.122 39.242) rotate(-86.332)" fill="#74a4b0"/>
        <rect id="Rectángulo_2354" data-name="Rectángulo 2354" width="39.322" height="0.298" transform="translate(25.802 76.195) rotate(-70.176)" fill="#74a4b0"/>
        <rect id="Rectángulo_2355" data-name="Rectángulo 2355" width="39.322" height="0.298" transform="translate(39.127 39.199) rotate(-70.185)" fill="#74a4b0"/>
        <rect id="Rectángulo_2356" data-name="Rectángulo 2356" width="39.322" height="0.298" transform="translate(16.056 70.989) rotate(-54.005)" fill="#74a4b0"/>
        <rect id="Rectángulo_2357" data-name="Rectángulo 2357" width="39.322" height="0.298" transform="matrix(0.588, -0.809, 0.809, 0.588, 39.136, 39.154)" fill="#74a4b0"/>
      </g>
      <path id="Trazado_20017" data-name="Trazado 20017" d="M3170.314,1526.1a41.238,41.238,0,1,0,41.175,41.3A41.238,41.238,0,0,0,3170.314,1526.1Zm-.121,78.635a37.4,37.4,0,1,1,37.455-37.34A37.4,37.4,0,0,1,3170.193,1604.734Z" transform="translate(-3110.289 -1391.601)" fill="#a2adb8"/>
      <g id="Grupo_9506" data-name="Grupo 9506" transform="translate(180.852 136.823)">
        <rect id="Rectángulo_2358" data-name="Rectángulo 2358" width="39.322" height="0.298" transform="translate(39.15 39.065) rotate(-44.58)" fill="#74a4b0"/>
        <rect id="Rectángulo_2359" data-name="Rectángulo 2359" width="39.322" height="0.298" transform="matrix(0.712, -0.702, 0.702, 0.712, 11.118, 66.641)" fill="#74a4b0"/>
        <rect id="Rectángulo_2360" data-name="Rectángulo 2360" width="39.322" height="0.298" transform="matrix(0.88, -0.475, 0.475, 0.88, 39.167, 39.019)" fill="#74a4b0"/>
        <rect id="Rectángulo_2361" data-name="Rectángulo 2361" width="39.322" height="0.298" transform="matrix(0.88, -0.475, 0.475, 0.88, 4.575, 57.716)" fill="#74a4b0"/>
        <path id="Trazado_20018" data-name="Trazado 20018" d="M3650.4,1620.159l-.063-.291,38.426-8.349.063.291Z" transform="translate(-3611.129 -1580.854)" fill="#74a4b0"/>
        <path id="Trazado_20019" data-name="Trazado 20019" d="M3550.908,1641.776l-.063-.291,38.426-8.348.063.291Z" transform="translate(-3550.06 -1594.124)" fill="#74a4b0"/>
        <path id="Trazado_20020" data-name="Trazado 20020" d="M3650.4,1633.426l.021-.3,39.232,2.659-.02.3Z" transform="translate(-3611.163 -1594.119)" fill="#74a4b0"/>
        <path id="Trazado_20021" data-name="Trazado 20021" d="M3548.811,1626.54l.021-.3,39.233,2.659-.021.3Z" transform="translate(-3548.811 -1589.892)" fill="#74a4b0"/>
        <rect id="Rectángulo_2362" data-name="Rectángulo 2362" width="0.299" height="39.322" transform="matrix(0.342, -0.94, 0.94, 0.342, 39.192, 39.299)" fill="#74a4b0"/>
        <rect id="Rectángulo_2363" data-name="Rectángulo 2363" width="0.299" height="39.323" transform="translate(2.243 25.842) rotate(-69.987)" fill="#74a4b0"/>
        <rect id="Rectángulo_2364" data-name="Rectángulo 2364" width="0.298" height="39.322" transform="matrix(0.59, -0.807, 0.807, 0.59, 39.155, 39.279)" fill="#74a4b0"/>
        <rect id="Rectángulo_2365" data-name="Rectángulo 2365" width="0.298" height="39.322" transform="translate(7.403 16.084) rotate(-53.851)" fill="#74a4b0"/>
        <rect id="Rectángulo_2366" data-name="Rectángulo 2366" width="0.298" height="39.322" transform="translate(39.125 39.25) rotate(-37.716)" fill="#74a4b0"/>
        <rect id="Rectángulo_2367" data-name="Rectángulo 2367" width="0.298" height="39.322" transform="translate(15.069 8.144) rotate(-37.716)" fill="#74a4b0"/>
        <rect id="Rectángulo_2368" data-name="Rectángulo 2368" width="0.298" height="39.322" transform="translate(39.104 39.214) rotate(-21.58)" fill="#74a4b0"/>
        <rect id="Rectángulo_2369" data-name="Rectángulo 2369" width="0.298" height="39.323" transform="translate(24.641 2.648) rotate(-21.581)" fill="#74a4b0"/>
        <rect id="Rectángulo_2370" data-name="Rectángulo 2370" width="0.298" height="39.322" transform="translate(39.095 39.173) rotate(-5.445)" fill="#74a4b0"/>
        <rect id="Rectángulo_2371" data-name="Rectángulo 2371" width="0.298" height="39.322" transform="translate(35.363 0.028) rotate(-5.446)" fill="#74a4b0"/>
        <rect id="Rectángulo_2372" data-name="Rectángulo 2372" width="39.322" height="0.298" transform="translate(31.799 77.77) rotate(-79.3)" fill="#74a4b0"/>
        <rect id="Rectángulo_2373" data-name="Rectángulo 2373" width="39.322" height="0.298" transform="translate(39.092 39.131) rotate(-79.298)" fill="#74a4b0"/>
        <rect id="Rectángulo_2374" data-name="Rectángulo 2374" width="39.322" height="0.298" transform="translate(21.348 74.173) rotate(-63.12)" fill="#74a4b0"/>
        <rect id="Rectángulo_2375" data-name="Rectángulo 2375" width="39.322" height="0.298" transform="translate(39.094 39.084) rotate(-63.123)" fill="#74a4b0"/>
      </g>
      <path id="Trazado_20022" data-name="Trazado 20022" d="M3584.945,1526.735a41.238,41.238,0,1,0,41.175,41.3A41.239,41.239,0,0,0,3584.945,1526.735Zm-.121,78.636a37.4,37.4,0,1,1,37.455-37.34A37.4,37.4,0,0,1,3584.824,1605.371Z" transform="translate(-3364.787 -1391.991)" fill="#a2adb8"/>
      <path id="Trazado_20023" data-name="Trazado 20023" d="M3164.465,1516.561a44.922,44.922,0,1,0,44.853,44.991A44.921,44.921,0,0,0,3164.465,1516.561Zm-.131,85.66a40.738,40.738,0,1,1,40.8-40.675A40.738,40.738,0,0,1,3164.334,1602.221Z" transform="translate(-3104.435 -1385.747)" fill="#3a3f53"/>
      <path id="Trazado_20024" data-name="Trazado 20024" d="M3579.1,1517.2a44.922,44.922,0,1,0,44.853,44.991A44.922,44.922,0,0,0,3579.1,1517.2Zm-.131,85.66a40.738,40.738,0,1,1,40.8-40.675A40.738,40.738,0,0,1,3578.964,1602.857Z" transform="translate(-3358.932 -1386.138)" fill="#3a3f53"/>
      <path id="Trazado_20025" data-name="Trazado 20025" d="M3566.783,1632.071c-1.9,1.422-14.285,5.537-23.552,7.033s-23.335-.448-23.335-.448l.475,3.707s12.214,1.941,22.958.516,26.2-8.127,26.2-8.127Z" transform="translate(-3350.21 -1456.646)" fill="#ff4a2f"/>
      <path id="Trazado_20026" data-name="Trazado 20026" d="M3520.091,1563.085a48.1,48.1,0,0,1,46.13-61.935c1.276,0,2.539.058,3.789.161a2.467,2.467,0,0,0,2.684-2.449h0a2.475,2.475,0,0,0-2.268-2.47c-1.385-.115-2.784-.18-4.2-.182a53.029,53.029,0,0,0-51.271,66.866Z" transform="translate(-3346.052 -1373.256)" fill="#fff"/>
      <path id="Trazado_20027" data-name="Trazado 20027" d="M3452.469,1502.174c-20.079,14.939-59.257,44.271-59.257,44.271l2.81,4.957,58.635-44.361Z" transform="translate(-3272.453 -1376.916)" fill="#ff4a2f"/>
      <path id="Trazado_20028" data-name="Trazado 20028" d="M3342.058,1513.517c-3.655-9.1-9.823-44.527-10.451-51.389s-11.343-14.471-11.343-14.471,11.443,53.4,16.85,64.894S3342.058,1513.517,3342.058,1513.517Z" transform="translate(-3227.678 -1343.454)" fill="#ff4a2f"/>
      <path id="Trazado_20029" data-name="Trazado 20029" d="M3266.766,1601.008c-14.8-.023-51.438,2.083-51.455,12.662s36.614,12.8,51.416,12.82c21.705.034,25.493-7.192,25.5-12.7S3288.471,1601.041,3266.766,1601.008Z" transform="translate(-3163.258 -1437.58)" fill="#fff"/>
      <path id="Trazado_20030" data-name="Trazado 20030" d="M3288.264,1423.26c-4.037-.768-6.778-3.515-8.877-.014s-2.486,7.531.865,8.34,10.815,2.675,16.452,2.785,14.248-.334,13.567-3.459-3.037-6.481-9.286-6.262A53.094,53.094,0,0,1,3288.264,1423.26Z" transform="translate(-3201.596 -1327.404)" fill="#20232e"/>
      <path id="Trazado_20031" data-name="Trazado 20031" d="M3546.031,1394.752l-.826,1.512,2.443.909,5.057.122.868-1.827-3.743-1.084Z" transform="translate(-3365.746 -1310.755)" fill="#ff997d"/>
      <path id="Trazado_20032" data-name="Trazado 20032" d="M3537.521,1391.387c.168,1.774,3.671.976,6.856.892s6.156-.141,6.27,1.116-4.328,1.314-6.563,1.657-3.843,2.523-2.525,3.77,3.52.8,5.088.743,4.324-.357,5.875-1.493,2.751-4.563,2.58-6.048-1.2-3.085-7.057-3.257S3537.249,1388.523,3537.521,1391.387Z" transform="translate(-3361.022 -1307.265)" fill="#35394a"/>
      <path id="Trazado_20033" data-name="Trazado 20033" d="M3553.838,1383.511l2.264,2.273-.2,2.616-.628.515-1.689-.417.026-2.227-2.5-1.925Z" transform="translate(-3369.371 -1304.081)" fill="#ff997d"/>
      <path id="Trazado_20034" data-name="Trazado 20034" d="M3582.377,1510.992c-.537.2-27.1-12.26-34.239-42.518-3-12.723-3.771-23.834-4.874-32.386l-5.246-.008c1.485,15.4,2.039,41.566,15.047,58.606,14.963,19.6,27.339,19.369,27.339,19.369S3582.915,1510.789,3582.377,1510.992Z" transform="translate(-3361.334 -1336.348)" fill="#ff4a2f"/>
      <path id="Trazado_20035" data-name="Trazado 20035" d="M3420.033,1457.93l-78.76,9.715,1.37,5.682,78.563-10.14Z" transform="translate(-3240.573 -1349.76)" fill="#ff4a2f"/>
      <path id="Trazado_20036" data-name="Trazado 20036" d="M3284.387,1507.658c-1.469-.9-6.255-4.442-15.648-4.8s-3.893-3.413-3.893-3.413,8.875-1,14.824.912,7.726,4.107,7.726,4.107Z" transform="translate(-3192.68 -1375.083)" fill="#fff"/>
      <path id="Trazado_20037" data-name="Trazado 20037" d="M3272.17,1488.254l-39.446,54.5,3.372,2.523,38.627-50.706Z" transform="translate(-3173.946 -1368.372)" fill="#ff4a2f"/>
      <path id="Trazado_20038" data-name="Trazado 20038" d="M3093.58,1664.747l-2.406,2.077a8.175,8.175,0,0,1-5.354,1.987l-2.964,0a2.33,2.33,0,0,1-2.326-2.333h0a2.329,2.329,0,0,1,1.68-2.233l6.88-2Z" transform="translate(-3080.53 -1475.165)" fill="#fff"/>
      <path id="Trazado_20039" data-name="Trazado 20039" d="M3510.44,1665.387l-2.68,2.314a7.2,7.2,0,0,1-4.717,1.751l-3.327-.005a2.33,2.33,0,0,1-2.326-2.333h0a2.33,2.33,0,0,1,1.68-2.233l6.88-2Z" transform="translate(-3336.397 -1475.558)" fill="#fff"/>
      <path id="Trazado_20040" data-name="Trazado 20040" d="M3642.287,1620.248a5.123,5.123,0,1,0,5.115,5.131A5.123,5.123,0,0,0,3642.287,1620.248Z" transform="translate(-3422.185 -1449.389)" fill="#3a3f53"/>
      <path id="Trazado_20041" data-name="Trazado 20041" d="M3376.692,1635.309c1.48,1.208,19.29,17.2,19.29,17.2l2.854-2.758-18.9-16.534Z" transform="translate(-3262.313 -1457.35)" fill="#3a3f53"/>
      <rect id="Rectángulo_2376" data-name="Rectángulo 2376" width="15.688" height="3.859" transform="matrix(1, 0.002, -0.002, 1, 126.781, 191.903)" fill="#3a3f53"/>
      <path id="Trazado_20042" data-name="Trazado 20042" d="M3181.422,1503.257l19.026,50.484,2.77-1.5-18.062-50.19Z" transform="translate(-3142.457 -1376.838)" fill="#ff4a2f"/>
      <g id="Grupo_9507" data-name="Grupo 9507" transform="translate(124.101)">
        <path id="Trazado_20043" data-name="Trazado 20043" d="M3401.864,1241.368c1.692-.433,6.808-4.206,7.292-5.16s8.641,5.565,8.641,5.565-2.925,2.54-3.5,5.477C3413.821,1249.641,3401.864,1241.368,3401.864,1241.368Z" transform="translate(-3401.864 -1213.609)" fill="#f4b2a2"/>
        <path id="Trazado_20044" data-name="Trazado 20044" d="M3419.516,1240.115a4,4,0,0,1-2.688,2.168,7.841,7.841,0,0,1-3.147.839,6.749,6.749,0,0,1,.573.543,25.952,25.952,0,0,1,9.3,2.152,13.875,13.875,0,0,1,1.493-1.587S3422,1241.791,3419.516,1240.115Z" transform="translate(-3409.117 -1216.065)" fill="#ff997d"/>
        <path id="Trazado_20045" data-name="Trazado 20045" d="M3436.521,1201.029c.021-.066.041-.133.06-.2l.042-.138h0a10.256,10.256,0,1,0-20.127-2.85c-.263,5.777,2.277,12.588,5.8,14.07,2.566,1.079,5.842,2.77,7.944,2.065,1.175-.394,2.654-3.24,3.941-6.378.748-.086,1.646-.341,1.8-1.06a26.1,26.1,0,0,0,.149-4.268C3436.271,1201.828,3436.4,1201.412,3436.521,1201.029Z" transform="translate(-3410.832 -1183.857)" fill="#f4b2a2"/>
        <path id="Trazado_20046" data-name="Trazado 20046" d="M3424.271,1197.168c1.188.429.969.67,1.954,1.473.854.7,1.788,2.212,2.929,1.9,3.919-1.073,6.774-.726,8.112-3.124a10.255,10.255,0,0,0-20.352-1.247A18.513,18.513,0,0,1,3424.271,1197.168Z" transform="translate(-3411.101 -1183.857)" fill="#ff997d"/>
        <path id="Trazado_20047" data-name="Trazado 20047" d="M3435.252,1183.651c-.331,2.384-1.292,8.88-5.858,8.81-4.324-.067-5.268.9-6.413,1.708-.722.512-2.146-2.717-4.329-1.358-1.657,1.032-1.558,3.258-.213,4.749a3.29,3.29,0,0,1-.522,4.773c-1.582,1.357-3.471,2.508-5.25,2.17s-3.744-6.2-4.194-11.119,2.687-15.184,9.529-15.517S3435.628,1180.939,3435.252,1183.651Z" transform="translate(-3405.895 -1177.843)" fill="#323949"/>
      </g>
      <path id="Trazado_20048" data-name="Trazado 20048" d="M3294.594,1353.171c-9.891,4.725-10.313,17.6-8.716,22.869,1.227,4.047,4.171,4.427,11.022,6.5s21.572,4.69,20.135.731c-4.466-12.3-8.062-14.4-.687-19.062C3301.154,1359.354,3294.594,1353.171,3294.594,1353.171Z" transform="translate(-3206.139 -1285.459)" fill="#302800"/>
      <path id="Trazado_20049" data-name="Trazado 20049" d="M3415.974,1658.471l-1.207,3.154.432,2.185,15.147.248,6.639.811.292-1.4-1.58-1.657-5.78-2.319-7.062-2.116-3.279-.648Z" transform="translate(-3285.684 -1471.78)" fill="#20232e"/>
      <path id="Trazado_20050" data-name="Trazado 20050" d="M3387.316,1507.335c3.831.375,10.747,10.253,11.834,26.779s2.856,31.565,2.856,31.565l-6.881,1.1s-7.318-25.047-10.054-32.629-4.27-19.57-4.27-19.57Z" transform="translate(-3264.836 -1380.084)" fill="#ffae98"/>
      <path id="Trazado_20051" data-name="Trazado 20051" d="M3303.239,1372.429c-5.393,5.045-16.014,6.39-6.95,21.566,12.254,20.518,30.65,38.181,30.65,38.181l13.842.836s-.336-6.907-7.781-23.477c-7.463-16.61-12.617-22.234-17.321-27.955S3303.239,1372.429,3303.239,1372.429Z" transform="translate(-3210.795 -1297.279)" fill="#ffae98"/>
      <path id="Trazado_20052" data-name="Trazado 20052" d="M3327.86,1423.7a22.724,22.724,0,0,0,7.523-8.619c-.7-1.716-1.49-3.562-2.383-5.552-7.463-16.61-12.617-22.234-17.321-27.955s-12.44-9.15-12.44-9.15c-5.393,5.045-16.014,6.39-6.95,21.566,8.187,13.707,19.113,26.138,25.465,32.882A29.515,29.515,0,0,0,3327.86,1423.7Z" transform="translate(-3210.795 -1297.279)" fill="#ff997d"/>
      <path id="Trazado_20053" data-name="Trazado 20053" d="M3314.537,1421.835a29.89,29.89,0,0,0,9.167-2.077c4.528-1.892,8.542-6.634,8.542-6.634s-10.527-21.624-14.021-27.388c-3.987-6.577-6.687-10.36-9.187-12.31s-9.605-6.447-14.829-2.958-9.369,11.022-7.114,16.835,12.193,16.93,17.334,23.1S3314.537,1421.835,3314.537,1421.835Z" transform="translate(-3206.933 -1295.285)" fill="#302800"/>
      <path id="Trazado_20054" data-name="Trazado 20054" d="M3340.077,1247.74c-5.153-3.981-14.969-1.428-18.057,6.3s-5.651,14.057-13.459,22.22c-4.947,5.171-15.273,14.284-14.932,15.447,0,0,2.3,8.9,13.234,10.9,10.265,1.88,12.557,1.106,14.153-.25a43.855,43.855,0,0,0,4.7-5.563c2.345-2.6,3.959-6.207,7.158-10.146,3.617-4.454,6.745-4.688,11.762-13.042C3352.019,1261.319,3347.5,1253.477,3340.077,1247.74Z" transform="translate(-3211.324 -1219.604)" fill="#ff4a2f"/>
      <path id="Trazado_20055" data-name="Trazado 20055" d="M3394.868,1244c2.514-.448,6.1-2.017,6.987-.82,1.3,1.743,5.422,4.951,7.012,6.782s.2,3.537-.093,5.728c-.277,2.064-14.6-9.893-14.6-9.893Z" transform="translate(-3273.044 -1217.673)" fill="#ff4a2f"/>
      <path id="Trazado_20056" data-name="Trazado 20056" d="M3435.134,1306.58c-3.478-1.178-20.547-11.316-29.7-13.677-1.738-.448-5.4-21.394-15.485-30.66-5.448-5-12.671.2-13.342,3.216a10.173,10.173,0,0,0,1.047,5.911c5.309,9.6,14.334,27.112,18.792,29.532,5.227,2.838,24.114,8.858,37.174,11.905Z" transform="translate(-3262.186 -1228.37)" fill="#ffaf99"/>
      <path id="Trazado_20057" data-name="Trazado 20057" d="M3388.08,1286.113a13.552,13.552,0,0,1,3-6.464c.858-1.123,1.779-2.192,2.686-3.275,1-1.19,2.545-2.721,2.259-4.426a.571.571,0,0,1,.573-.656,34.133,34.133,0,0,0-6.651-9.048c-5.448-5-12.671.2-13.342,3.216a10.173,10.173,0,0,0,1.047,5.911c2.764,5,6.536,12.14,10.146,18.182A33.594,33.594,0,0,1,3388.08,1286.113Z" transform="translate(-3262.186 -1228.37)" fill="#ff997d"/>
      <path id="Trazado_20058" data-name="Trazado 20058" d="M3532.883,1417.928c-.916-.547-2.663-.8-1.822-3.932,1.325-4.932,4.848-7.15,6.794-7.422s4.4.285,2.858,1.687-5.358,3.957-4.766,5.748C3536.665,1416.178,3532.883,1417.928,3532.883,1417.928Z" transform="translate(-3356.927 -1318.196)" fill="#323949"/>
      <path id="Trazado_20059" data-name="Trazado 20059" d="M3536.174,1427.578a28.287,28.287,0,0,0-.006,3.817c.094,1.419.2,2.87.266,3.665a.56.56,0,0,0,.661.506l5.674-1.017a.443.443,0,0,0,.361-.5c-.111-.784-.349-2.5-.475-3.785a12.533,12.533,0,0,1-.036-2.948c.049-.277-1.026-.572-2.379-.688S3536.316,1426.625,3536.174,1427.578Z" transform="translate(-3360.162 -1330.524)" fill="#323949"/>
      <path id="Trazado_20060" data-name="Trazado 20060" d="M3520.717,1407.915c.188,1.977,4.092,1.087,7.642.994s6.861-.157,6.988,1.244-4.823,1.465-7.315,1.847-4.283,2.813-2.814,4.2,3.924.9,5.672.827,4.82-.4,6.549-1.663,3.066-5.086,2.875-6.742-1.34-3.438-7.865-3.63S3520.414,1404.723,3520.717,1407.915Z" transform="translate(-3350.708 -1317.221)" fill="#3e4357"/>
      <path id="Trazado_20061" data-name="Trazado 20061" d="M3522.162,1386.581l2.405,2.636,1.537,3.3,9.914.324-6.277-8.525-6.067-3.959-2.939,1.843Z" transform="translate(-3350.726 -1302.143)" fill="#ffaf99"/>
      <path id="Trazado_20062" data-name="Trazado 20062" d="M3533.257,1410.944l-.868,1.979,2.84.68,5.37.54,2.572-2.875-4.668-.887Z" transform="translate(-3357.879 -1320.574)" fill="#ffaf99"/>
      <path id="Trazado_20063" data-name="Trazado 20063" d="M3228.246,1620.574a4.752,4.752,0,1,0,4.744,4.759A4.752,4.752,0,0,0,3228.246,1620.574Z" transform="translate(-3168.276 -1449.589)" fill="#3a3f53"/>
      <path id="Trazado_20064" data-name="Trazado 20064" d="M3371.86,1622.657a3.392,3.392,0,1,0,3.387,3.4A3.393,3.393,0,0,0,3371.86,1622.657Z" transform="translate(-3257.261 -1450.868)" fill="#3a3f53"/>
      <path id="Trazado_20065" data-name="Trazado 20065" d="M3209.585,1500.6l-50.782-.078a2.518,2.518,0,0,1-2.514-2.522h0a2.518,2.518,0,0,1,2.522-2.514l50.782.078a2.518,2.518,0,0,1,2.514,2.522h0A2.518,2.518,0,0,1,3209.585,1500.6Z" transform="translate(-3127.031 -1372.81)" fill="#fff"/>
      <path id="Trazado_20066" data-name="Trazado 20066" d="M3149.042,1500.531l.007-4.939a53.022,53.022,0,0,0-50.941,66.858l5.134.008a48.095,48.095,0,0,1,45.8-61.927Z" transform="translate(-3090.192 -1372.876)" fill="#fff"/>
      <path id="Trazado_20067" data-name="Trazado 20067" d="M3396.411,1270.914a20.045,20.045,0,0,1-6.358,7.288,46.836,46.836,0,0,1-8.16,3.972s-4.958-8.494-6.393-12.691-.338-7.813,2.891-9.75a11.388,11.388,0,0,1,11.235.516C3392.338,1262.252,3396.411,1270.914,3396.411,1270.914Z" transform="translate(-3261.202 -1227.345)" fill="#ff4a2f"/>
      <g id="Grupo_9508" data-name="Grupo 9508" transform="translate(83.729 43.695)">
        <path id="Trazado_20068" data-name="Trazado 20068" d="M3315.542,1327.85a.364.364,0,0,1-.207-.664c12.137-8.375,20.785-23.044,22.563-27.44a.364.364,0,1,1,.675.273c-1.8,4.45-10.55,19.3-22.824,27.766A.364.364,0,0,1,3315.542,1327.85Z" transform="translate(-3308.285 -1296.222)" fill="#ff9e9e"/>
        <path id="Trazado_20069" data-name="Trazado 20069" d="M3321.694,1332.961a.364.364,0,0,1-.207-.664c12.137-8.374,20.785-23.043,22.563-27.439a.364.364,0,1,1,.675.273c-1.8,4.45-10.55,19.3-22.824,27.767A.366.366,0,0,1,3321.694,1332.961Z" transform="translate(-3312.06 -1299.359)" fill="#ff9e9e"/>
        <path id="Trazado_20070" data-name="Trazado 20070" d="M3316.367,1373.552a32.845,32.845,0,0,1-7.359-.8c-7.05-1.63-9.578-5.74-11.25-8.459-.128-.209-.252-.41-.372-.6a.364.364,0,1,1,.616-.389c.122.193.246.4.376.608,1.609,2.616,4.041,6.57,10.794,8.131a34.608,34.608,0,0,0,14.031.122.364.364,0,0,1,.168.709A33.988,33.988,0,0,1,3316.367,1373.552Z" transform="translate(-3297.33 -1335.268)" fill="#ff9e9e"/>
        <path id="Trazado_20071" data-name="Trazado 20071" d="M3393.6,1299.919a.364.364,0,0,1-.05-.725c2.857-.394,8.131-4.022,11.756-8.089a.364.364,0,0,1,.544.485c-3.786,4.248-9.145,7.9-12.2,8.326A.365.365,0,0,1,3393.6,1299.919Z" transform="translate(-3356.194 -1290.984)" fill="#ff9e9e"/>
        <path id="Trazado_20072" data-name="Trazado 20072" d="M3335.866,1437.312a.363.363,0,0,1-.27-.119c-.072-.08-7.293-8.042-13.01-15.992-5.451-7.58-9.313-16.41-8.61-19.684a.364.364,0,1,1,.712.153c-.583,2.714,2.688,11.039,8.489,19.105,5.693,7.916,12.886,15.848,12.958,15.927a.364.364,0,0,1-.27.609Z" transform="translate(-3307.496 -1358.652)" fill="#fff"/>
        <path id="Trazado_20073" data-name="Trazado 20073" d="M3347.816,1434.917a.363.363,0,0,1-.269-.119,166.9,166.9,0,0,1-11.888-15.319c-7.252-10.37-7.639-16.321-7.584-17.9a.364.364,0,0,1,.728.025c-.052,1.52.331,7.27,7.453,17.456a166.226,166.226,0,0,0,11.829,15.245.365.365,0,0,1-.269.61Z" transform="translate(-3316.198 -1358.652)" fill="#fff"/>
        <path id="Trazado_20074" data-name="Trazado 20074" d="M3359.038,1489.015a.364.364,0,0,1-.036-.727c7.865-.789,13.666-5.026,15.473-7.512a.364.364,0,0,1,.589.429c-1.354,1.861-6.866,6.894-15.99,7.809Z" transform="translate(-3334.982 -1407.385)" fill="#fff"/>
        <path id="Trazado_20075" data-name="Trazado 20075" d="M3429.536,1665.908a.364.364,0,0,1-.317-.544l2.16-3.8a.364.364,0,1,1,.633.36l-2.16,3.8A.364.364,0,0,1,3429.536,1665.908Z" transform="translate(-3378.253 -1518.331)" fill="#fff"/>
        <path id="Trazado_20076" data-name="Trazado 20076" d="M3435.669,1666.832a.36.36,0,0,1-.187-.052.364.364,0,0,1-.126-.5l1.923-3.218a.364.364,0,0,1,.625.373l-1.922,3.218A.364.364,0,0,1,3435.669,1666.832Z" transform="translate(-3382.018 -1519.255)" fill="#fff"/>
      </g>
    </g>
    <g id="dog" transform="translate(3144.966 1237.302)">
      <ellipse id="shadow-3" data-name="shadow" cx="59.186" cy="6.466" rx="59.186" ry="6.466" transform="translate(84.58 132.034)" fill="#d9f5d0" style="mix-blend-mode: multiply;isolation: isolate"/>
      <ellipse id="shadow-4" data-name="shadow" cx="36.758" cy="2.549" rx="36.758" ry="2.549" transform="translate(107.131 135.579)" fill="#c3eeb4" style="mix-blend-mode: multiply;isolation: isolate"/>
      <path id="Trazado_20077" data-name="Trazado 20077" d="M3745.531,1679.318c-5.486,3.45-14.3,2.153-16.934,1.882s-8.785,2.322-12.888,2.905-6.343.825-8.536,2.189c-2.389,1.484-2.963,1.675-4.147,1.04-1.615-.865-1.379-1.623.58-3.682s2.8-2.365,5.267-2.508,5.513-2.315,8.342-4.782a58.563,58.563,0,0,1,10.648-7.09c5.064-2.588,8.449-2.428,11.393-.516S3745.531,1679.318,3745.531,1679.318Z" transform="translate(-3636.469 -1568.091)" fill="#302800"/>
      <path id="Trazado_20078" data-name="Trazado 20078" d="M3711.414,1701.258a7.194,7.194,0,0,1-2.542.714c-2.469.143-3.309.448-5.267,2.508s-2.2,2.817-.58,3.682c1.185.635,1.759.444,4.147-1.04a13.638,13.638,0,0,1,5.41-1.734A7.973,7.973,0,0,0,3711.414,1701.258Z" transform="translate(-3636.469 -1588.92)" fill="#e6e2e1"/>
      <path id="Trazado_20079" data-name="Trazado 20079" d="M3754.487,1639.2a178.059,178.059,0,0,1-34.625-6.937c5.4,6.509,22.43,12.941,34.864,11.067C3764.338,1641.885,3754.487,1639.2,3754.487,1639.2Z" transform="translate(-3647.459 -1546.574)" fill="#302800"/>
      <path id="Trazado_20080" data-name="Trazado 20080" d="M3789.15,1650.37c-.6.075-1.213.166-1.826.257a45.707,45.707,0,0,0-6.734,1.429,27.053,27.053,0,0,0-4.563,1.838,39.314,39.314,0,0,0,13.173.552C3798.011,1653.117,3790.468,1650.754,3789.15,1650.37Z" transform="translate(-3681.933 -1557.685)" fill="#1a1500"/>
      <path id="Trazado_20081" data-name="Trazado 20081" d="M3733.1,1638.753c.5-.864,1-1.754,1.545-2.633a149.541,149.541,0,0,1-14.78-3.853c2.375,2.862,7,5.708,12.488,7.84C3732.593,1639.654,3732.841,1639.2,3733.1,1638.753Z" transform="translate(-3647.459 -1546.574)" fill="#e6e2e1"/>
      <path id="Trazado_20082" data-name="Trazado 20082" d="M3945.239,1612.157c1.3-.283,2.188-1.244,2.863-3.052s1.558-4.562,1.558-4.562a6.481,6.481,0,0,0-2.871,2.789A21.76,21.76,0,0,0,3945.239,1612.157Z" transform="translate(-3785.795 -1529.557)" fill="#572400"/>
      <path id="Trazado_20083" data-name="Trazado 20083" d="M3888.319,1676.946c5.6.622,8.162,8.333,10.45,11.994s2.533,3.436,5.546,6.176,3.958,6.06,5.079,7.39,2.014,3.837,2.948,4.419,2.225,1.488,2.387,2.678-.741.986-2.25.8-1.46-.289-3.487-1.3-1.775-1.85-4.265-5.03-7.824-3.49-10.745-5.016-5.539-1.11-10.55-6.321-3.072-9.328-2.285-11.349S3886.526,1676.747,3888.319,1676.946Z" transform="translate(-3745.821 -1573.99)" fill="#302800"/>
      <path id="Trazado_20084" data-name="Trazado 20084" d="M3954.636,1750.571c-.163-1.19-1.453-2.1-2.387-2.678-.888-.553-1.738-2.845-2.783-4.213a10.542,10.542,0,0,0-4.334,2.012c1.968,2.649,1.889,3.438,3.769,4.379,2.026,1.014,1.979,1.12,3.487,1.3S3954.8,1751.761,3954.636,1750.571Z" transform="translate(-3785.729 -1614.958)" fill="#e6e2e1"/>
      <path id="Trazado_20085" data-name="Trazado 20085" d="M3822.616,1616.791c-1.555-.716-8.079-1.132-8.6-3.392-.425-1.85-.823-2.4-3.63-3.551-2.452-1-2.774-1.241-4.431-.8a5.318,5.318,0,0,1,.368-.993,19.185,19.185,0,0,1,2.3-3.51s-3.5.194-6.93,4.743c-1.334,1.767-2.4,3.576-3.6,5.35-2.578,2.693-12.7,11.215-24.481,11.056s-22.188-7.765-32-.061-8.944,16.52-12.089,18.735-5.753,7.692-7.8,7.876c-2.15.194-4.684,1.7-5.191,3.371l-1,3.276c-.27.89.322,1.561,1.212,1.831.6.183,2.118-1.1,2.774-1.9,1.563-1.917,6.533-3.518,13.777-8.289,6.254-4.118,7.352-2.7,12.832-5.812s7.564-3.1,10.417-1.816,8.95,6.862,14.2,9.318,9.094,1.66,13.743,1.277,9.808-2.456,14.264-13.023a45.714,45.714,0,0,1,10.132-14.844c.1-.1,3.06-1.481,8.438-.833,5.576.673,5.812-2.405,6.21-4.95C3823.522,1619.846,3824.172,1617.507,3822.616,1616.791Z" transform="translate(-3644.757 -1529.557)" fill="#c3690c"/>
      <path id="Trazado_20086" data-name="Trazado 20086" d="M3923.514,1634.347c.765,1.4,1.712,2.685,2.5,4.069.738,1.3,1.412,2.627,2.073,3.964a27.349,27.349,0,0,1,2.636,6.54,49.763,49.763,0,0,1,5.374-6.383,12.979,12.979,0,0,1-5.162-2.613,23.413,23.413,0,0,1-5.8-8.211c-.509.5-1.2,1.127-2.039,1.824C3923.231,1633.809,3923.368,1634.079,3923.514,1634.347Z" transform="translate(-3772.207 -1546.233)" fill="#fff"/>
      <path id="Trazado_20087" data-name="Trazado 20087" d="M3724.751,1727.84a9.49,9.49,0,0,0-1.389-2.391,3.007,3.007,0,0,1-1.649,1c-2.15.193-4.684,1.7-5.191,3.371l-1,3.276c-.27.89.322,1.561,1.212,1.831.6.183,2.118-1.1,2.774-1.9.9-1.1,2.918-2.1,5.844-3.648A9.546,9.546,0,0,0,3724.751,1727.84Z" transform="translate(-3644.757 -1603.768)" fill="#fcf8f7"/>
      <path id="Trazado_20088" data-name="Trazado 20088" d="M3957.027,1622.983a4.952,4.952,0,0,0,3.248-1.341,1.7,1.7,0,0,1-.605-.9c-.426-1.85-.824-2.4-3.63-3.551-.721-.295-1.256-.522-1.7-.687a6.552,6.552,0,0,0-1.137,1.526,3.27,3.27,0,0,0,.28,3.716C3954.227,1622.709,3955.809,1622.94,3957.027,1622.983Z" transform="translate(-3790.409 -1536.897)" fill="#302800"/>
      <path id="Trazado_20089" data-name="Trazado 20089" d="M3893.07,1633.791c-.988-.455-3.98-.789-6.165-1.552a8.18,8.18,0,0,0-3.312,1.351,7.373,7.373,0,0,0-2.853,3.272c-.854,1.8-1.458,3.551-2.688,4.522-2.637,2.082-5.546,4.353-7.472,7.021-1.681,2.328-3.436,5.335-5.022,7.73-.5.749.325,2.786-.578,3.493-1.234,1.545-2.671,2.873-4.04,4.3-1.093,1.135-1.694.2-3.071,1.03-2.684,1.614-5.983,3.106-9.005,2.806a26.93,26.93,0,0,1-9.906-2.715,46.738,46.738,0,0,0-8.714-3.085c3.111,2.237,7.239,5.526,10.945,7.26,5.247,2.457,9.094,1.66,13.742,1.277s9.809-2.456,14.264-13.023a45.71,45.71,0,0,1,10.132-14.844c.1-.1,3.06-1.481,8.438-.833,5.576.673,5.812-2.405,6.21-4.951C3893.975,1636.846,3894.625,1634.506,3893.07,1633.791Z" transform="translate(-3715.211 -1546.556)" fill="#fff"/>
      <path id="Trazado_20090" data-name="Trazado 20090" d="M3692.326,1502.135c-28.188-5.262-62.712-31.609-93.173-54.855-17.641-13.463-34.3-26.18-47.428-32.976l.407-.786c13.193,6.832,29.885,19.571,47.558,33.058,30.382,23.186,64.816,49.466,92.8,54.688Z" transform="translate(-3544.258 -1412.306)" fill="#231f20"/>
      <path id="Trazado_20091" data-name="Trazado 20091" d="M3533.257,1410.944l-.868,1.979,2.84.68,5.37.54,2.572-2.875-4.668-.887Z" transform="translate(-3532.389 -1410.38)" fill="#ffaf99"/>
      <path id="Trazado_20092" data-name="Trazado 20092" d="M3917.027,1644.55a81.147,81.147,0,0,0,8.265,5.72c.6-.764,1.183-1.461,1.738-2.091a72.854,72.854,0,0,1-7.667-6.309,46.933,46.933,0,0,1-5.764-6.129c-.95.757-2.065,1.579-3.317,2.4A49.8,49.8,0,0,0,3917.027,1644.55Z" transform="translate(-3764.338 -1548.705)" fill="#323949"/>
      <path id="Trazado_20093" data-name="Trazado 20093" d="M3871.41,1719.787a37.689,37.689,0,0,1-11.061.962,36.23,36.23,0,0,1-7.7-1.071c.773.457,1.54.874,2.29,1.225,5.248,2.457,9.094,1.66,13.743,1.277,3.283-.27,6.821-1.384,10.186-5.737A29.447,29.447,0,0,1,3871.41,1719.787Z" transform="translate(-3728.966 -1598.24)" fill="#e6e2e1"/>
      <path id="Trazado_20094" data-name="Trazado 20094" d="M3827.439,1646c-4.484,2.725-10.418,5.223-16.847,5.136-11.786-.159-22.188-7.765-32-.061a28.806,28.806,0,0,0-2.874,2.577,10.412,10.412,0,0,1,8.021,1.568c2.627,2.151,3.271,8.028,15.268,5.225,8.357-1.953,12.793,2.182,15.548,3.3,2.643,1.077,5.5-.315,7.816-1.8,3.4-2.178,1.474-1.014,4.538-3.579C3830.625,1653.282,3829.5,1646.3,3827.439,1646Z" transform="translate(-3681.743 -1555.005)" fill="#302800"/>
      <path id="Trazado_20095" data-name="Trazado 20095" d="M3892.772,1677.548c5.627.172,8.8,7.654,11.375,11.12s2.8,3.223,6.022,5.713,5.057,3.475,6.71,4.017,3.731,2.2,4.831,2.207,2.675.1,3.439,1.023-.112,1.228-1.49,1.866-1.395.523-3.651.726-2.482-.64-6.273-2.034-10.516-1.761-13.549-3.049-5.609-.663-11.022-5.457-3.808-9.052-3.185-11.13S3890.969,1677.492,3892.772,1677.548Z" transform="translate(-3748.984 -1574.366)" fill="#c3690c"/>
      <path id="Trazado_20096" data-name="Trazado 20096" d="M3967.309,1734.119c-.764-.927-2.338-1.019-3.439-1.022s-3.178-1.667-4.832-2.208c-.344-.113-.7-.246-1.067-.407a7.137,7.137,0,0,0-4.019,3.615,18.706,18.706,0,0,1,1.942.579c3.79,1.395,4.017,2.238,6.273,2.035s2.272-.088,3.651-.726S3968.072,1735.046,3967.309,1734.119Z" transform="translate(-3791.143 -1606.857)" fill="#fcf8f7"/>
      <path id="Trazado_20097" data-name="Trazado 20097" d="M3987.414,1634.634c0-.511,1.65-1.085,2.678-.305s1.28,2.5.277,2.659S3987.42,1635.375,3987.414,1634.634Z" transform="translate(-3811.681 -1547.604)" fill="#572400"/>
      <path id="Trazado_20098" data-name="Trazado 20098" d="M3972.554,1645.188a5.561,5.561,0,0,1,.732-.191,3.221,3.221,0,0,1,.76-.039,6.253,6.253,0,0,1,1.481.344l.717.241a4.865,4.865,0,0,0,.709.208,3.488,3.488,0,0,0,1.442-.048,3.536,3.536,0,0,0,1.295-.6,3.279,3.279,0,0,0,.912-1.072,3.773,3.773,0,0,0,.408-1.349,5.552,5.552,0,0,0-.026-1.432l.616-.07a6.142,6.142,0,0,1-.053,1.581,4.277,4.277,0,0,1-.541,1.5,3.7,3.7,0,0,1-1.091,1.158,3.9,3.9,0,0,1-1.456.594,3.764,3.764,0,0,1-1.557-.027,4.961,4.961,0,0,1-.728-.254l-.7-.278a6.137,6.137,0,0,0-1.435-.415,3.178,3.178,0,0,0-.746,0A5.558,5.558,0,0,0,3972.554,1645.188Z" transform="translate(-3802.56 -1552.043)" fill="#572400"/>
      <g id="Grupo_9510" data-name="Grupo 9510" transform="translate(171.526 87.844)">
        <g id="Grupo_9509" data-name="Grupo 9509">
          <path id="Trazado_20099" data-name="Trazado 20099" d="M3980.132,1638.311a.391.391,0,1,1-.3-.467A.391.391,0,0,1,3980.132,1638.311Z" transform="translate(-3978.262 -1637.835)" fill="#572400"/>
          <path id="Trazado_20100" data-name="Trazado 20100" d="M3977.294,1643.28a.391.391,0,1,1-.3-.467A.391.391,0,0,1,3977.294,1643.28Z" transform="translate(-3976.521 -1640.885)" fill="#572400"/>
          <path id="Trazado_20101" data-name="Trazado 20101" d="M3987.087,1641.582a.391.391,0,1,1-.3-.466A.392.392,0,0,1,3987.087,1641.582Z" transform="translate(-3982.532 -1639.843)" fill="#572400"/>
          <path id="Trazado_20102" data-name="Trazado 20102" d="M3984.967,1646.1a.391.391,0,1,1-.3-.466A.391.391,0,0,1,3984.967,1646.1Z" transform="translate(-3981.23 -1642.617)" fill="#572400"/>
          <path id="Trazado_20103" data-name="Trazado 20103" d="M3982.1,1642.4a.391.391,0,1,1-.3-.467A.391.391,0,0,1,3982.1,1642.4Z" transform="translate(-3979.471 -1640.348)" fill="#572400"/>
        </g>
      </g>
      <path id="Trazado_20104" data-name="Trazado 20104" d="M3962.256,1626.785a.772.772,0,1,1,.272-1.183A.872.872,0,0,1,3962.256,1626.785Z" transform="translate(-3795.411 -1542.337)" fill="#572400"/>
      <path id="Trazado_20105" data-name="Trazado 20105" d="M3947.344,1615.885a3.932,3.932,0,0,1-.693,1.107,4.206,4.206,0,0,1-.842.492s2.114-.243,2.579-1.8A3.412,3.412,0,0,0,3947.344,1615.885Z" transform="translate(-3786.145 -1536.396)" fill="#aa5c0a"/>
    </g>
  </g>
</svg>
