<svg xmlns="http://www.w3.org/2000/svg" width="63.5" height="67.391" viewBox="0 0 63.5 67.391">
  <g id="Grupo_9699" data-name="Grupo 9699" transform="translate(-551 -3575)">
    <g id="Grupo_9693" data-name="Grupo 9693" transform="translate(569.985 3575)">
      <g id="Grupo_9692" data-name="Grupo 9692" transform="translate(0 0)">
        <g id="Grupo_9691" data-name="Grupo 9691">
          <path id="Trazado_20626" data-name="Trazado 20626" d="M81.412,81.255a.962.962,0,0,1-.682-.284L68.39,68.555a18.623,18.623,0,0,1,0-26.189,18.333,18.333,0,0,1,26.042,0,18.621,18.621,0,0,1,0,26.189L82.095,80.971A.964.964,0,0,1,81.412,81.255ZM69.755,67.2,81.412,78.928,93.068,67.2a16.7,16.7,0,0,0,0-23.476,16.409,16.409,0,0,0-23.312,0,16.693,16.693,0,0,0,0,23.476Z" transform="translate(-63.009 -36.939)" fill="#fa803f"/>
          <path id="Trazado_20627" data-name="Trazado 20627" d="M81.793,64.588a8.717,8.717,0,1,1,6.163-2.553h0A8.654,8.654,0,0,1,81.793,64.588Zm0-15.507a6.792,6.792,0,1,0,4.8,11.594h0a6.79,6.79,0,0,0-4.8-11.594Z" transform="translate(-63.391 -37.326)" fill="#fa803f"/>
        </g>
      </g>
    </g>
    <g id="Grupo_9698" data-name="Grupo 9698" transform="translate(551 3597.171)">
      <g id="Grupo_9697" data-name="Grupo 9697" transform="translate(0 0)">
        <path id="Trazado_20633" data-name="Trazado 20633" d="M172.83,162.924h-3.367a.962.962,0,1,1,0-1.924h3.367a.962.962,0,0,1,0,1.924Z" transform="translate(-154.549 -161)" fill="#4b4b4b"/>
        <path id="Trazado_20634" data-name="Trazado 20634" d="M214.614,206.22h-4.231a.962.962,0,0,1,0-1.924h4.231a.961.961,0,0,0,.93-.717.962.962,0,0,1,1.862.489A2.888,2.888,0,0,1,214.614,206.22Zm-10.992,0h-6.76a.962.962,0,1,1,0-1.924h6.76a.962.962,0,1,1,0,1.924Zm12.916-8.189a.962.962,0,0,1-.962-.962v-6.76a.962.962,0,0,1,1.924,0v6.76A.962.962,0,0,1,216.538,198.031Zm-32.254-9.13h-6.76a.962.962,0,1,1,0-1.924h6.76a.962.962,0,0,1,0,1.924Zm-13.521,0H164a.962.962,0,0,1,0-1.924h6.76a.962.962,0,0,1,0,1.924Zm-13.52,0h-.357A2.89,2.89,0,0,1,154,186.015v-3.379a.962.962,0,1,1,1.924,0v3.379a.964.964,0,0,0,.962.962h.357a.962.962,0,1,1,0,1.924Zm54.08,0h-6.76a.962.962,0,0,1,0-1.924h6.76a.962.962,0,1,1,0,1.924Zm-13.52,0h-6.76a.962.962,0,0,1,0-1.924h6.76a.962.962,0,1,1,0,1.924Zm-42.841-12.062a.962.962,0,0,1-.962-.962v-6.76a.962.962,0,0,1,1.924,0v6.76A.962.962,0,0,1,154.962,176.838Zm.576-13.363a.963.963,0,0,1-.674-1.649,2.87,2.87,0,0,1,2.022-.826h5.267a.962.962,0,0,1,0,1.924h-5.267a.957.957,0,0,0-.673.275A.961.961,0,0,1,155.538,163.476Z" transform="translate(-154 -161)" fill="#4b4b4b"/>
        <path id="Trazado_20635" data-name="Trazado 20635" d="M191.33,207.924h-3.367a.962.962,0,1,1,0-1.924h3.367a.962.962,0,0,1,0,1.924Z" transform="translate(-155.25 -162.705)" fill="#4b4b4b"/>
      </g>
    </g>
  </g>
</svg>
