<svg xmlns="http://www.w3.org/2000/svg" width="88" height="91.82" viewBox="0 0 88 91.82">
  <g id="Grupo_9660" data-name="Grupo 9660" transform="translate(-283.589 -2709.912)">
    <g id="Grupo_9651" data-name="Grupo 9651" transform="translate(299.347 2724.766)">
      <path id="Trazado_20517" data-name="Trazado 20517" d="M437.818,2878.72a1.128,1.128,0,0,1-.134-.007,1.389,1.389,0,0,1-1.252-1.515l.166-1.742a22.321,22.321,0,0,1,6.546-12.923,25.1,25.1,0,0,0-1.015-36.523,25.468,25.468,0,0,0-42.221,15.528,25.039,25.039,0,0,0,7.582,21.381,20.764,20.764,0,0,1,6.28,13.8l.039.507a1.39,1.39,0,0,1-2.772.214l-.041-.527a18.013,18.013,0,0,0-5.428-11.982,27.792,27.792,0,0,1-8.42-23.732,28.2,28.2,0,0,1,56.163,3.559,27.729,27.729,0,0,1-8.2,19.746,19.549,19.549,0,0,0-5.749,11.271l-.16,1.69A1.391,1.391,0,0,1,437.818,2878.72Z" transform="translate(-396.928 -2816.747)" fill="#4b4b4b"/>
    </g>
    <path id="Trazado_20518" data-name="Trazado 20518" d="M590.829,2719.049a1.39,1.39,0,0,1-1.39-1.39V2711.3a1.39,1.39,0,1,1,2.781,0v6.356A1.39,1.39,0,0,1,590.829,2719.049Z" transform="translate(-263.326)" fill="#fa803f"/>
    <path id="Trazado_20519" data-name="Trazado 20519" d="M864,3057.517h-5.476a1.39,1.39,0,0,1,0-2.781H864a1.39,1.39,0,0,1,0,2.781Z" transform="translate(-493.802 -296.881)" fill="#fa803f"/>
    <path id="Trazado_20520" data-name="Trazado 20520" d="M817.513,2835.677a1.39,1.39,0,0,1-.951-2.4l4.426-4.151a1.39,1.39,0,1,1,1.9,2.028l-4.426,4.151A1.388,1.388,0,0,1,817.513,2835.677Z" transform="translate(-458.492 -102.312)" fill="#fa803f"/>
    <path id="Trazado_20521" data-name="Trazado 20521" d="M337.713,2840.425a1.388,1.388,0,0,1-.975-.4l-3.72-3.665a1.391,1.391,0,0,1,1.951-1.982l3.72,3.665a1.39,1.39,0,0,1-.976,2.382Z" transform="translate(-42.199 -106.818)" fill="#fa803f"/>
    <g id="Grupo_9652" data-name="Grupo 9652" transform="translate(283.589 2757.91)">
      <path id="Trazado_20522" data-name="Trazado 20522" d="M290.456,3057.918h-5.477a1.39,1.39,0,0,1,0-2.781h5.477a1.39,1.39,0,0,1,0,2.781Z" transform="translate(-283.589 -3055.137)" fill="#fa803f"/>
    </g>
    <path id="Trazado_20523" data-name="Trazado 20523" d="M525.65,3302.693H500.623a1.39,1.39,0,1,1,0-2.781H525.65a1.39,1.39,0,1,1,0,2.781Z" transform="translate(-185.662 -507.969)" fill="#4b4b4b"/>
    <path id="Trazado_20524" data-name="Trazado 20524" d="M561.746,3353.1H550.623a1.39,1.39,0,1,1,0-2.781h11.123a1.39,1.39,0,1,1,0,2.781Z" transform="translate(-228.71 -551.371)" fill="#4b4b4b"/>
    <g id="Grupo_9659" data-name="Grupo 9659" transform="translate(305.067 2732.758)">
      <g id="Grupo_9655" data-name="Grupo 9655" transform="translate(0 0)">
        <g id="Grupo_9654" data-name="Grupo 9654">
          <g id="Grupo_9653" data-name="Grupo 9653">
            <path id="Trazado_20525" data-name="Trazado 20525" d="M452.51,2915.355c-3.521,0-6.407-2.451-6.593-5.528a7.452,7.452,0,0,1-4.469-6.644,6.616,6.616,0,0,1,.16-1.439,9.117,9.117,0,0,1,.266-14.618,6.446,6.446,0,0,1-.042-.728,7.451,7.451,0,0,1,4.077-6.436c.065-3.172,3-5.735,6.6-5.735,3.64,0,6.6,2.621,6.6,5.843v6.919a4.63,4.63,0,0,1-.779,2.577l-.462.692a.526.526,0,0,0,.056.648l.119.121a3.748,3.748,0,0,1,1.067,2.634v8.691a3.7,3.7,0,0,1-.6,2.023.894.894,0,0,0-.026.923l.137.239a3.724,3.724,0,0,1,.488,1.841v2.133C459.112,2912.734,456.15,2915.355,452.51,2915.355Zm0-38.346c-2.107,0-3.821,1.374-3.821,3.062a2.455,2.455,0,0,0,.052.471,1.389,1.389,0,0,1-.844,1.552,4.857,4.857,0,0,0-3.284,4.305,3.96,3.96,0,0,0,.147,1.041,1.39,1.39,0,0,1-.678,1.59,6.3,6.3,0,0,0-.149,10.917,1.39,1.39,0,0,1,.6,1.731,4.006,4.006,0,0,0-.3,1.506,4.89,4.89,0,0,0,3.58,4.421,1.391,1.391,0,0,1,.915,1.529,2.4,2.4,0,0,0-.035.379c0,1.688,1.714,3.062,3.821,3.062s3.821-1.374,3.821-3.062v-2.133a.935.935,0,0,0-.122-.463l-.136-.238a3.652,3.652,0,0,1,.109-3.82.926.926,0,0,0,.149-.506v-8.691a1,1,0,0,0-.278-.692l-.119-.122a3.313,3.313,0,0,1-.378-4.13l.463-.694a1.855,1.855,0,0,0,.311-1.033v-6.919C456.331,2878.383,454.617,2877.009,452.51,2877.009Z" transform="translate(-438.071 -2874.228)" fill="#fa803f"/>
          </g>
        </g>
        <path id="Trazado_20526" data-name="Trazado 20526" d="M497.494,2916.971a1.384,1.384,0,0,1-1.047-.475,5.368,5.368,0,0,1-1.462-3.572,1.39,1.39,0,1,1,2.781,0,2.656,2.656,0,0,0,.774,1.742,1.39,1.39,0,0,1-1.046,2.305Z" transform="translate(-487.072 -2906.346)" fill="#fa803f"/>
        <path id="Trazado_20527" data-name="Trazado 20527" d="M457.383,2962.925a1.39,1.39,0,0,1-.853-2.489,8.086,8.086,0,0,1,8.118-1.158,1.39,1.39,0,1,1-1.051,2.574,5.562,5.562,0,0,0-.647-.219,5.323,5.323,0,0,0-4.715,1A1.384,1.384,0,0,1,457.383,2962.925Z" transform="translate(-453.5 -2946.935)" fill="#fa803f"/>
        <path id="Trazado_20528" data-name="Trazado 20528" d="M549.655,2988.957a1.384,1.384,0,0,1-.995-.419,1.376,1.376,0,0,0-1.24-.388,1.391,1.391,0,0,1-.563-2.724,4.167,4.167,0,0,1,3.792,1.17,1.39,1.39,0,0,1-.995,2.361Z" transform="translate(-530.777 -2969.894)" fill="#fa803f"/>
        <path id="Trazado_20529" data-name="Trazado 20529" d="M462.65,3057.3a6.4,6.4,0,0,1-3.94-1.347,1.391,1.391,0,0,1,1.7-2.2,3.639,3.639,0,0,0,2.242.769,1.39,1.39,0,0,1,0,2.781Z" transform="translate(-455.375 -3028.541)" fill="#fa803f"/>
        <path id="Trazado_20530" data-name="Trazado 20530" d="M555.617,3081.815a1.39,1.39,0,0,1-.519-2.68,2.045,2.045,0,0,0,.917-.739,1.39,1.39,0,1,1,2.286,1.581,4.8,4.8,0,0,1-2.166,1.738A1.39,1.39,0,0,1,555.617,3081.815Z" transform="translate(-538.076 -3049.491)" fill="#fa803f"/>
        <path id="Trazado_20531" data-name="Trazado 20531" d="M496.2,3110.345a1.39,1.39,0,0,1-.916-2.437l1.141-1a1.39,1.39,0,0,1,1.83,2.094l-1.141,1A1.384,1.384,0,0,1,496.2,3110.345Z" transform="translate(-486.922 -3074.265)" fill="#fa803f"/>
      </g>
      <g id="Grupo_9658" data-name="Grupo 9658" transform="translate(23.904 0)">
        <g id="Grupo_9657" data-name="Grupo 9657">
          <g id="Grupo_9656" data-name="Grupo 9656">
            <path id="Trazado_20532" data-name="Trazado 20532" d="M616.6,2915.355c-3.64,0-6.6-2.62-6.6-5.843v-2.133a3.72,3.72,0,0,1,.487-1.84l.137-.24a.9.9,0,0,0-.026-.925,3.7,3.7,0,0,1-.6-2.022v-8.691a3.751,3.751,0,0,1,1.069-2.637l.117-.119a.525.525,0,0,0,.055-.646l-.463-.694a4.627,4.627,0,0,1-.778-2.576v-6.919c0-3.222,2.962-5.843,6.6-5.843,3.6,0,6.536,2.563,6.6,5.735a7.451,7.451,0,0,1,4.077,6.436,6.411,6.411,0,0,1-.042.728,9.117,9.117,0,0,1,.266,14.618,6.616,6.616,0,0,1,.16,1.439,7.452,7.452,0,0,1-4.469,6.644C623.009,2912.9,620.123,2915.355,616.6,2915.355Zm0-38.346c-2.107,0-3.821,1.374-3.821,3.062v6.919a1.853,1.853,0,0,0,.31,1.032l.464.7a3.314,3.314,0,0,1-.379,4.132l-.117.121a1,1,0,0,0-.278.692v8.691a.923.923,0,0,0,.148.505,3.653,3.653,0,0,1,.11,3.821l-.136.239a.935.935,0,0,0-.121.461v2.133c0,1.688,1.714,3.062,3.821,3.062s3.822-1.374,3.822-3.062a2.419,2.419,0,0,0-.035-.379,1.39,1.39,0,0,1,.915-1.529,4.889,4.889,0,0,0,3.58-4.421,4,4,0,0,0-.3-1.506,1.39,1.39,0,0,1,.6-1.731,6.3,6.3,0,0,0-.149-10.917,1.39,1.39,0,0,1-.677-1.59,3.955,3.955,0,0,0,.147-1.041,4.857,4.857,0,0,0-3.284-4.305,1.389,1.389,0,0,1-.844-1.552,2.457,2.457,0,0,0,.052-.471C620.424,2878.383,618.709,2877.009,616.6,2877.009Z" transform="translate(-610 -2874.228)" fill="#fa803f"/>
          </g>
        </g>
        <path id="Trazado_20533" data-name="Trazado 20533" d="M677.767,2916.971a1.39,1.39,0,0,1-1.045-2.305,2.655,2.655,0,0,0,.774-1.742,1.39,1.39,0,1,1,2.781,0,5.368,5.368,0,0,1-1.462,3.572A1.383,1.383,0,0,1,677.767,2916.971Z" transform="translate(-667.149 -2906.346)" fill="#fa803f"/>
        <path id="Trazado_20534" data-name="Trazado 20534" d="M683.064,2962.955a1.384,1.384,0,0,1-.852-.292,5.329,5.329,0,0,0-5.36-.782,1.39,1.39,0,1,1-1.055-2.572,8.169,8.169,0,0,1,8.12,1.157,1.39,1.39,0,0,1-.853,2.489Z" transform="translate(-665.906 -2946.964)" fill="#fa803f"/>
        <path id="Trazado_20535" data-name="Trazado 20535" d="M616.946,2988.956a1.39,1.39,0,0,1-.995-2.361,4.159,4.159,0,0,1,3.792-1.17,1.391,1.391,0,0,1-.564,2.724,1.381,1.381,0,0,0-1.24.388A1.384,1.384,0,0,1,616.946,2988.956Z" transform="translate(-614.783 -2969.893)" fill="#fa803f"/>
        <path id="Trazado_20536" data-name="Trazado 20536" d="M700.394,3057.293a1.39,1.39,0,1,1,0-2.781,3.641,3.641,0,0,0,2.242-.769,1.391,1.391,0,0,1,1.7,2.2A6.4,6.4,0,0,1,700.394,3057.293Z" transform="translate(-686.629 -3028.537)" fill="#fa803f"/>
        <path id="Trazado_20537" data-name="Trazado 20537" d="M617.018,3081.815a1.39,1.39,0,0,1-.518-.1,4.806,4.806,0,0,1-2.166-1.738,1.39,1.39,0,1,1,2.287-1.581,2.044,2.044,0,0,0,.917.739,1.39,1.39,0,0,1-.519,2.68Z" transform="translate(-613.518 -3049.491)" fill="#fa803f"/>
        <path id="Trazado_20538" data-name="Trazado 20538" d="M678.923,3110.345a1.383,1.383,0,0,1-.914-.344l-1.141-1a1.39,1.39,0,0,1,1.83-2.094l1.141,1a1.39,1.39,0,0,1-.916,2.437Z" transform="translate(-667.162 -3074.265)" fill="#fa803f"/>
      </g>
    </g>
  </g>
</svg>
