<svg xmlns="http://www.w3.org/2000/svg" width="88.281" height="63.392" viewBox="0 0 88.281 63.392">
  <g id="Grupo_9650" data-name="Grupo 9650" transform="translate(-2764.085 -2840.869)">
    <path id="Trazado_20502" data-name="Trazado 20502" d="M2940.927,3201.757c-13.883,0-27.938-2.681-27.938-7.806,0-1.78,1.617-3.325,4.807-4.592a4.03,4.03,0,0,1,.522-.188c.055-.015.139-.039.34-.1a1.1,1.1,0,0,1,.663,2.088c-.244.078-.348.106-.413.125s-.132.046-.3.115c-2.525,1-3.424,1.977-3.424,2.554,0,2.289,10.03,5.615,25.748,5.615s25.748-3.326,25.748-5.615c0-.582-.911-1.563-3.464-2.569l-.007,0a2.353,2.353,0,0,1-.5-.12,1.1,1.1,0,0,1,.669-2.086l.041.012a1.844,1.844,0,0,1,.6.159c3.219,1.269,4.851,2.819,4.851,4.607C2968.865,3199.076,2954.81,3201.757,2940.927,3201.757Z" transform="translate(-132.592 -310.011)" fill="#fa803f"/>
    <g id="Grupo_9642" data-name="Grupo 9642" transform="translate(2769.697 2888.866)">
      <g id="Grupo_9641" data-name="Grupo 9641" transform="translate(9.594 0)">
        <path id="Trazado_20503" data-name="Trazado 20503" d="M2903.992,3289.434a1.1,1.1,0,0,1-.57-2.031l13.5-8.216a1.1,1.1,0,0,1,1.138,1.872l-13.5,8.216A1.093,1.093,0,0,1,2903.992,3289.434Z" transform="translate(-2902.896 -3279.028)" fill="#fa803f"/>
      </g>
      <path id="Trazado_20504" data-name="Trazado 20504" d="M2822.468,3360.339a14.28,14.28,0,0,1-4.362-.613c-2.361-.78-2.762-2.027-2.79-2.7-.1-2.49,3.89-3.8,7.646-3.954a14.874,14.874,0,0,1,5.16.6c2.362.78,2.762,2.027,2.79,2.7.1,2.49-3.89,3.8-7.646,3.954C2823,3360.333,2822.731,3360.339,2822.468,3360.339Zm1.307-5.094c-.233,0-.473,0-.722.015-3.548.15-5.434,1.291-5.551,1.7.15.345,2.122,1.333,5.672,1.174,3.472-.147,5.352-1.243,5.542-1.673C2828.507,3356.077,2826.8,3355.245,2823.775,3355.245Zm4.952,1.242h0Z" transform="translate(-2815.313 -3344.943)" fill="#fa803f"/>
    </g>
    <g id="Grupo_9644" data-name="Grupo 9644" transform="translate(2821.387 2888.865)">
      <g id="Grupo_9643" data-name="Grupo 9643" transform="translate(0 0)">
        <path id="Trazado_20505" data-name="Trazado 20505" d="M3301.784,3289.43a1.089,1.089,0,0,1-.568-.159l-13.5-8.216a1.1,1.1,0,1,1,1.138-1.872l13.5,8.216a1.1,1.1,0,0,1-.57,2.031Z" transform="translate(-3287.193 -3279.023)" fill="#fa803f"/>
      </g>
      <path id="Trazado_20506" data-name="Trazado 20506" d="M3384.013,3360.342c-.263,0-.53-.005-.8-.017-3.756-.158-7.75-1.463-7.646-3.954.028-.674.429-1.921,2.79-2.7a14.906,14.906,0,0,1,5.161-.6c3.756.158,7.749,1.463,7.645,3.953-.028.674-.428,1.921-2.79,2.7A14.3,14.3,0,0,1,3384.013,3360.342Zm-6.247-3.879c.189.43,2.069,1.527,5.541,1.674,3.561.155,5.522-.829,5.674-1.228-.12-.355-2-1.5-5.552-1.646C3379.95,3355.12,3377.99,3356.051,3377.766,3356.463Z" transform="translate(-3365.887 -3344.946)" fill="#fa803f"/>
    </g>
    <g id="Grupo_9645" data-name="Grupo 9645" transform="translate(2830.031 2872.219)">
      <path id="Trazado_20507" data-name="Trazado 20507" d="M3367.2,3136.135a1.1,1.1,0,0,1-.566-2.034l11.425-6.878a1.1,1.1,0,1,1,1.13,1.876l-11.425,6.878A1.085,1.085,0,0,1,3367.2,3136.135Z" transform="translate(-3366.103 -3127.065)" fill="#fa803f"/>
    </g>
    <path id="Trazado_20508" data-name="Trazado 20508" d="M3450.183,3094.274c-3.124,0-6.28-.906-6.369-3.013h0c-.027-.621.237-1.8,2.3-2.677a14.556,14.556,0,0,1,9-.379c2.132.7,2.494,1.853,2.52,2.476s-.238,1.8-2.3,2.678a13.174,13.174,0,0,1-4.468.9C3450.638,3094.27,3450.41,3094.274,3450.183,3094.274Zm-4.138-3.108c.365.366,1.985,1.013,4.726.905s4.3-.9,4.63-1.3c-.363-.366-1.975-1.026-4.724-.9S3446.378,3090.772,3446.045,3091.167Z" transform="translate(-605.269 -219.762)" fill="#fa803f"/>
    <g id="Grupo_9646" data-name="Grupo 9646" transform="translate(2772.787 2872.219)">
      <path id="Trazado_20509" data-name="Trazado 20509" d="M2856.312,3136.226a1.088,1.088,0,0,1-.559-.154l-11.693-6.969a1.1,1.1,0,1,1,1.121-1.883l11.693,6.969a1.1,1.1,0,0,1-.562,2.037Z" transform="translate(-2843.524 -3127.065)" fill="#fa803f"/>
    </g>
    <path id="Trazado_20510" data-name="Trazado 20510" d="M2771.538,3094.283q-.34,0-.679-.014c-3.327-.14-6.865-1.322-6.771-3.58s3.732-3.138,7.049-3a13.178,13.178,0,0,1,4.468.9c2.066.88,2.33,2.056,2.3,2.677C2777.819,3093.377,2774.662,3094.283,2771.538,3094.283Zm-5.219-3.5c.332.395,1.886,1.182,4.631,1.3s4.36-.54,4.725-.906c-.333-.395-1.887-1.182-4.632-1.3S2766.685,3090.416,2766.32,3090.782Z" transform="translate(0 -219.771)" fill="#fa803f"/>
    <g id="Grupo_9649" data-name="Grupo 9649" transform="translate(2788.724 2840.869)">
      <g id="Grupo_9647" data-name="Grupo 9647" transform="translate(7.715 30.808)">
        <path id="Trazado_20511" data-name="Trazado 20511" d="M3157.833,3135.11a1.1,1.1,0,0,1-1.095-1.1v-3.763a2.979,2.979,0,0,1,2.977-2.976h7.567l-1.2-3.726a1.095,1.095,0,1,1,2.084-.674l1.667,5.158a1.095,1.095,0,0,1-1.042,1.433h-9.073a.786.786,0,0,0-.786.785v3.763A1.1,1.1,0,0,1,3157.833,3135.11Z" transform="translate(-3146.08 -3122.116)" fill="#4b4b4b"/>
        <path id="Trazado_20512" data-name="Trazado 20512" d="M3071.2,3135.5a1.1,1.1,0,0,1-1.1-1.1v-3.763a.787.787,0,0,0-.786-.785h-8.776a1.1,1.1,0,0,1-1.054-1.4l1.46-5.113a1.1,1.1,0,0,1,2.108.6l-1.062,3.716h7.324a2.98,2.98,0,0,1,2.977,2.976v3.763A1.1,1.1,0,0,1,3071.2,3135.5Z" transform="translate(-3059.441 -3122.504)" fill="#4b4b4b"/>
      </g>
      <path id="Trazado_20513" data-name="Trazado 20513" d="M3150.172,3023.06h-2.191a1.1,1.1,0,1,1,0-2.191h2.191a1.1,1.1,0,0,1,0,2.191Z" transform="translate(-3129.591 -3001.151)" fill="#4b4b4b"/>
      <g id="Grupo_9648" data-name="Grupo 9648" transform="translate(11.817 0)">
        <path id="Trazado_20514" data-name="Trazado 20514" d="M3104.553,2858.4c-4.586,0-7.668-3.521-7.668-8.763s3.082-8.763,7.668-8.763,7.668,3.522,7.668,8.763S3109.139,2858.4,3104.553,2858.4Zm0-15.336c-4.042,0-5.477,3.541-5.477,6.573s1.435,6.572,5.477,6.572,5.477-3.541,5.477-6.572S3108.6,2843.06,3104.553,2843.06Z" transform="translate(-3096.885 -2840.869)" fill="#4b4b4b"/>
      </g>
      <path id="Trazado_20515" data-name="Trazado 20515" d="M3157.98,3031.823a1.094,1.094,0,0,1-1.095-1.1v-8.763a1.1,1.1,0,1,1,2.191,0v8.763A1.1,1.1,0,0,1,3157.98,3031.823Z" transform="translate(-3138.496 -3001.151)" fill="#4b4b4b"/>
      <path id="Trazado_20516" data-name="Trazado 20516" d="M3023.831,3044.968h-30.672a3.89,3.89,0,0,1-3.324-1.542,5.608,5.608,0,0,1-.459-5.017l3.391-10.5c1.662-4.681,4.475-7.04,8.373-7.04h.782a1.1,1.1,0,0,1,.934.523l5.609,9.163,5.668-9.162a1.093,1.093,0,0,1,.934-.524h.783c3.9,0,6.71,2.359,8.363,7.01l3.4,10.522a5.617,5.617,0,0,1-.457,5.025A3.892,3.892,0,0,1,3023.831,3044.968Zm-22.69-21.908c-2.952,0-4.954,1.764-6.3,5.553l-3.379,10.462a3.614,3.614,0,0,0,.14,3.055,1.785,1.785,0,0,0,1.557.647h30.672a1.786,1.786,0,0,0,1.557-.647,3.621,3.621,0,0,0,.137-3.063l-3.386-10.485c-1.336-3.759-3.337-5.523-6.289-5.523h-.169l-5.288,8.64a2.162,2.162,0,0,1-1.9,1.1h0a2.186,2.186,0,0,1-1.928-1.152l-5.258-8.587Z" transform="translate(-2989.01 -3001.151)" fill="#4b4b4b"/>
    </g>
  </g>
</svg>
