<svg xmlns="http://www.w3.org/2000/svg" width="55.086" height="59.287" viewBox="0 0 55.086 59.287">
  <g id="Grupo_9634" data-name="Grupo 9634" transform="translate(-1621.309 -1451.743)">
    <g id="Grupo_9634-2" data-name="Grupo 9634" transform="translate(1621.998 1451.743)">
      <path id="Trazado_20470" data-name="Trazado 20470" d="M1766.222,1547.437a1.1,1.1,0,0,1-.835-.383l-5.283-6.127-5.3,4.589a1.1,1.1,0,0,1-1.442-1.667l6.138-5.311a1.129,1.129,0,0,1,.8-.266,1.1,1.1,0,0,1,.754.38l5.289,6.134,16.137-13.716a1.1,1.1,0,1,1,1.427,1.678l-16.971,14.425A1.1,1.1,0,0,1,1766.222,1547.437Z" transform="translate(-1739.161 -1522.097)" fill="#fa803f"/>
      <path id="Trazado_20471" data-name="Trazado 20471" d="M1709.5,1675.367a1.1,1.1,0,0,1-.719-1.937l1.653-1.423a1.1,1.1,0,1,1,1.437,1.67l-1.653,1.423A1.1,1.1,0,0,1,1709.5,1675.367Z" transform="translate(-1699.488 -1647.503)" fill="#fa803f"/>
      <path id="Trazado_20472" data-name="Trazado 20472" d="M1628.661,1477.864a1.1,1.1,0,0,1-.712-1.943l20.672-17.482a1.1,1.1,0,0,1,1.547.124l5.3,6.17,10.059-8.525-2.278-2.643a1.1,1.1,0,0,1,.834-1.821h.008l12.226.09a1.1,1.1,0,0,1,1.083,1.256l-1.712,12.106a1.1,1.1,0,0,1-1.925.565L1670,1461.4a1.1,1.1,0,0,1,1.669-1.439l2.17,2.517,1.2-8.455-8.539-.063,1.419,1.646a1.1,1.1,0,0,1-.122,1.56l-11.742,9.951a1.1,1.1,0,0,1-1.548-.123l-5.3-6.172-19.837,16.776A1.1,1.1,0,0,1,1628.661,1477.864Z" transform="translate(-1627.559 -1451.743)" fill="#fa803f"/>
    </g>
    <g id="Grupo_9636" data-name="Grupo 9636" transform="translate(1621.309 1473.571)">
      <g id="Grupo_9635" data-name="Grupo 9635" transform="translate(4.407 0)">
        <path id="Trazado_20473" data-name="Trazado 20473" d="M1671.225,1856.394h-8.814a1.1,1.1,0,0,1-1.1-1.1V1840.97a1.1,1.1,0,0,1,1.1-1.1h8.814a1.1,1.1,0,0,1,1.1,1.1v14.323A1.1,1.1,0,0,1,1671.225,1856.394Zm-7.712-2.2h6.61v-12.119h-6.61Z" transform="translate(-1661.309 -1818.935)" fill="#4b4b4b"/>
        <path id="Trazado_20474" data-name="Trazado 20474" d="M1831.225,1803h-8.814a1.1,1.1,0,0,1-1.1-1.1V1780.97a1.1,1.1,0,0,1,1.1-1.1h8.814a1.1,1.1,0,0,1,1.1,1.1V1801.9A1.1,1.1,0,0,1,1831.225,1803Zm-7.712-2.2h6.61v-18.729h-6.61Z" transform="translate(-1803.681 -1765.546)" fill="#4b4b4b"/>
        <path id="Trazado_20475" data-name="Trazado 20475" d="M1991.225,1687.327h-8.814a1.1,1.1,0,0,1-1.1-1.1V1650.97a1.1,1.1,0,0,1,1.1-1.1h8.814a1.1,1.1,0,0,1,1.1,1.1v35.255A1.1,1.1,0,0,1,1991.225,1687.327Zm-7.712-2.2h6.611v-33.052h-6.611Z" transform="translate(-1946.054 -1649.868)" fill="#4b4b4b"/>
      </g>
      <path id="Trazado_20476" data-name="Trazado 20476" d="M1675.294,1972.072h-52.883a1.1,1.1,0,0,1,0-2.2h52.883a1.1,1.1,0,1,1,0,2.2Z" transform="translate(-1621.309 -1934.613)" fill="#4b4b4b"/>
    </g>
  </g>
</svg>
