<svg xmlns="http://www.w3.org/2000/svg" width="74.812" height="80.082" viewBox="0 0 74.812 80.082">
  <g id="Grupo_9670" data-name="Grupo 9670" transform="translate(-29.344 -265)">
    <g id="Grupo_9667" data-name="Grupo 9667" transform="translate(29.527 281.987)">
      <g id="Grupo_9666" data-name="Grupo 9666">
        <path id="Trazado_20543" data-name="Trazado 20543" d="M66.618,322.681a42.622,42.622,0,0,1-36.772-21.233l-.351-.608.351-.608a42.458,42.458,0,0,1,73.543,0l.352.608-.352.608A42.62,42.62,0,0,1,66.618,322.681ZM32.305,300.841a40.03,40.03,0,0,0,68.625,0,40.03,40.03,0,0,0-68.625,0Z" transform="translate(-29.495 -279)" fill="#4b4b4b"/>
      </g>
      <path id="Trazado_20544" data-name="Trazado 20544" d="M62.25,311.026a12.281,12.281,0,1,1,12.282-12.282A12.3,12.3,0,0,1,62.25,311.026Zm0-22.135a9.854,9.854,0,1,0,9.855,9.854A9.865,9.865,0,0,0,62.25,288.891Z" transform="translate(-25.127 -277.407)" fill="#4b4b4b"/>
    </g>
    <g id="Grupo_9668" data-name="Grupo 9668" transform="translate(29.344 265)">
      <path id="Trazado_20545" data-name="Trazado 20545" d="M60.213,277.134A1.213,1.213,0,0,1,59,275.92v-9.707a1.213,1.213,0,0,1,2.427,0v9.707A1.213,1.213,0,0,1,60.213,277.134Z" transform="translate(-23.016 -265)" fill="#fa803f"/>
      <path id="Trazado_20546" data-name="Trazado 20546" d="M37.42,282.634a1.21,1.21,0,0,1-.858-.356L29.7,275.414a1.213,1.213,0,0,1,1.716-1.716l6.864,6.864a1.213,1.213,0,0,1-.858,2.071Z" transform="translate(-29.343 -263.22)" fill="#fa803f"/>
      <path id="Trazado_20547" data-name="Trazado 20547" d="M84.556,282.634a1.213,1.213,0,0,1-.858-2.071l6.864-6.864a1.213,1.213,0,0,1,1.716,1.716l-6.864,6.864A1.21,1.21,0,0,1,84.556,282.634Z" transform="translate(-17.822 -263.22)" fill="#fa803f"/>
    </g>
    <g id="Grupo_9669" data-name="Grupo 9669" transform="translate(29.344 325.668)">
      <path id="Trazado_20548" data-name="Trazado 20548" d="M60.213,333.134A1.213,1.213,0,0,1,59,331.92v-9.707a1.213,1.213,0,0,1,2.427,0v9.707A1.213,1.213,0,0,1,60.213,333.134Z" transform="translate(-23.016 -313.72)" fill="#fa803f"/>
      <path id="Trazado_20549" data-name="Trazado 20549" d="M30.556,324.291a1.213,1.213,0,0,1-.858-2.071l6.864-6.864a1.213,1.213,0,0,1,1.716,1.716l-6.864,6.864A1.205,1.205,0,0,1,30.556,324.291Z" transform="translate(-29.343 -315)" fill="#fa803f"/>
      <path id="Trazado_20550" data-name="Trazado 20550" d="M91.42,324.291a1.205,1.205,0,0,1-.858-.356L83.7,317.071a1.213,1.213,0,0,1,1.716-1.716l6.864,6.864a1.213,1.213,0,0,1-.858,2.071Z" transform="translate(-17.822 -315)" fill="#fa803f"/>
    </g>
  </g>
</svg>
