<svg xmlns="http://www.w3.org/2000/svg" width="63.5" height="71.917" viewBox="0 0 63.5 71.917">
  <g id="Grupo_9703" data-name="Grupo 9703" transform="translate(-4113.623 -1440)">
    <g id="Grupo_9700" data-name="Grupo 9700" transform="translate(4113.623 1440)">
      <path id="Trazado_20636" data-name="Trazado 20636" d="M4229.01,1570.909h-42.083a7.11,7.11,0,0,1-7.1-7.1V1507.3a1.089,1.089,0,0,1,1.09-1.09h48.1a1.09,1.09,0,0,1,1.09,1.09v49.41h.113c3.638,0,5.9,2.721,5.9,7.1A7.109,7.109,0,0,1,4229.01,1570.909Zm-36.97-2.179h36.97a4.927,4.927,0,0,0,4.921-4.922c0-1.48-.363-4.923-3.719-4.923h-37.559a8.249,8.249,0,0,1,1.375,4.923A7.075,7.075,0,0,1,4192.04,1568.73ZM4182,1508.385v55.422a4.923,4.923,0,0,0,9.846,0c0-1.48-.362-4.923-3.72-4.923a1.09,1.09,0,1,1,0-2.179h39.791v-48.32Z" transform="translate(-4172.611 -1498.992)" fill="#4b4b4b"/>
      <path id="Trazado_20637" data-name="Trazado 20637" d="M4117.112,1503.5a1.086,1.086,0,0,1-.655-.219,7.048,7.048,0,0,1-2.834-5.677V1441.09a1.089,1.089,0,0,1,1.09-1.09h48.095a1.089,1.089,0,0,1,1.089,1.09v2.4a1.09,1.09,0,1,1-2.179,0v-1.315H4115.8V1497.6a4.884,4.884,0,0,0,1.967,3.936,1.09,1.09,0,0,1-.657,1.96Z" transform="translate(-4113.623 -1440)" fill="#4b4b4b"/>
    </g>
    <g id="Grupo_9701" data-name="Grupo 9701" transform="translate(4128.483 1456.345)">
      <path id="Trazado_20638" data-name="Trazado 20638" d="M4260.867,1603.673a1.1,1.1,0,0,1-.508-.125l-3.226-1.7-3.228,1.7a1.09,1.09,0,0,1-1.581-1.149l.616-3.594-2.611-2.545a1.09,1.09,0,0,1,.6-1.859l3.609-.525,1.614-3.27a1.09,1.09,0,0,1,.977-.608h0a1.089,1.089,0,0,1,.977.608l1.614,3.27,3.608.525a1.09,1.09,0,0,1,.6,1.859l-2.611,2.545.616,3.594a1.089,1.089,0,0,1-1.073,1.274Zm-7.437-7.432,1.441,1.4a1.092,1.092,0,0,1,.313.965l-.339,1.983,1.781-.936a1.088,1.088,0,0,1,1.014,0l1.779.936-.34-1.982a1.092,1.092,0,0,1,.313-.965l1.441-1.4-1.991-.289a1.088,1.088,0,0,1-.82-.6l-.89-1.8-.891,1.8a1.088,1.088,0,0,1-.82.6Z" transform="translate(-4250 -1590)" fill="#fa803f"/>
      <path id="Trazado_20639" data-name="Trazado 20639" d="M4426.344,1612.179h-15.255a1.09,1.09,0,0,1,0-2.179h15.255a1.09,1.09,0,1,1,0,2.179Z" transform="translate(-4392.566 -1607.821)" fill="#fa803f"/>
      <path id="Trazado_20640" data-name="Trazado 20640" d="M4426.344,1672.179h-15.255a1.09,1.09,0,0,1,0-2.179h15.255a1.09,1.09,0,1,1,0,2.179Z" transform="translate(-4392.566 -1661.283)" fill="#fa803f"/>
    </g>
    <g id="Grupo_9702" data-name="Grupo 9702" transform="translate(4128.483 1475.958)">
      <path id="Trazado_20641" data-name="Trazado 20641" d="M4260.867,1783.673a1.1,1.1,0,0,1-.508-.125l-3.226-1.7-3.228,1.7a1.09,1.09,0,0,1-1.581-1.149l.616-3.594-2.611-2.545a1.09,1.09,0,0,1,.6-1.859l3.609-.525,1.614-3.269a1.09,1.09,0,0,1,.977-.608h0a1.089,1.089,0,0,1,.977.608l1.614,3.269,3.608.525a1.09,1.09,0,0,1,.6,1.859l-2.611,2.545.616,3.594a1.089,1.089,0,0,1-1.073,1.274Zm-7.437-7.432,1.441,1.4a1.091,1.091,0,0,1,.313.965l-.339,1.983,1.781-.936a1.088,1.088,0,0,1,1.014,0l1.779.936-.34-1.982a1.091,1.091,0,0,1,.313-.965l1.441-1.4-1.991-.289a1.088,1.088,0,0,1-.82-.6l-.89-1.8-.891,1.8a1.088,1.088,0,0,1-.82.6Z" transform="translate(-4250 -1770)" fill="#fa803f"/>
      <path id="Trazado_20642" data-name="Trazado 20642" d="M4426.344,1792.179h-15.255a1.09,1.09,0,0,1,0-2.179h15.255a1.09,1.09,0,1,1,0,2.179Z" transform="translate(-4392.566 -1787.821)" fill="#fa803f"/>
      <path id="Trazado_20643" data-name="Trazado 20643" d="M4426.344,1852.179h-15.255a1.09,1.09,0,0,1,0-2.179h15.255a1.09,1.09,0,1,1,0,2.179Z" transform="translate(-4392.566 -1841.283)" fill="#fa803f"/>
    </g>
  </g>
</svg>
